<svg width="68" height="57" viewBox="0 0 68 57" fill="none" xmlns="http://www.w3.org/2000/svg">
<path d="M62.7692 0H5.23077C3.84348 0 2.51302 0.54594 1.53206 1.51772C0.551097 2.4895 0 3.80751 0 5.18182V51.8182C0 53.1925 0.551097 54.5105 1.53206 55.4823C2.51302 56.4541 3.84348 57 5.23077 57H62.7692C64.1565 57 65.487 56.4541 66.4679 55.4823C67.4489 54.5105 68 53.1925 68 51.8182V5.18182C68 3.80751 67.4489 2.4895 66.4679 1.51772C65.487 0.54594 64.1565 0 62.7692 0ZM22.4923 34.2C23.0472 34.6123 23.4141 35.2261 23.5122 35.9063C23.6103 36.5866 23.4316 37.2775 23.0154 37.8273C22.5992 38.377 21.9796 38.7404 21.2929 38.8376C20.6063 38.9348 19.9088 38.7577 19.3538 38.3455L8.89231 30.5727C8.56749 30.3314 8.30385 30.0185 8.12227 29.6587C7.94069 29.2989 7.84615 28.9022 7.84615 28.5C7.84615 28.0978 7.94069 27.7011 8.12227 27.3413C8.30385 26.9815 8.56749 26.6686 8.89231 26.4273L19.3538 18.6545C19.9088 18.2423 20.6063 18.0652 21.2929 18.1624C21.9796 18.2596 22.5992 18.623 23.0154 19.1727C23.4316 19.7224 23.6103 20.4134 23.5122 21.0937C23.4141 21.7739 23.0472 22.3877 22.4923 22.8L14.8194 28.5L22.4923 34.2ZM41.7448 11.0761L31.2833 47.3489C31.1941 47.6818 31.0388 47.9938 30.8265 48.2666C30.6142 48.5394 30.3491 48.7675 30.0467 48.9375C29.7444 49.1076 29.4108 49.2163 29.0655 49.2571C28.7203 49.298 28.3703 49.2702 28.036 49.1755C27.7017 49.0807 27.3898 48.9209 27.1186 48.7053C26.8474 48.4898 26.6223 48.2228 26.4565 47.92C26.2907 47.6173 26.1875 47.2848 26.1529 46.942C26.1183 46.5993 26.1531 46.2531 26.2552 45.9239L36.7167 9.65114C36.9178 9.00255 37.3677 8.45798 37.9697 8.13443C38.5717 7.81089 39.2778 7.73418 39.9362 7.9208C40.5947 8.10741 41.153 8.54246 41.4912 9.13246C41.8294 9.72247 41.9204 10.4203 41.7448 11.0761ZM59.1077 30.5727L48.6462 38.3455C48.0912 38.7577 47.3937 38.9348 46.7071 38.8376C46.0204 38.7404 45.4008 38.377 44.9846 37.8273C44.5684 37.2775 44.3897 36.5866 44.4878 35.9063C44.5859 35.2261 44.9528 34.6123 45.5077 34.2L53.1806 28.5L45.5077 22.8C45.2329 22.5959 45.0014 22.3401 44.8265 22.0473C44.6515 21.7546 44.5364 21.4305 44.4878 21.0937C44.4393 20.7569 44.4581 20.4139 44.5434 20.0843C44.6286 19.7547 44.7785 19.4449 44.9846 19.1727C45.1907 18.9005 45.4489 18.6712 45.7444 18.4979C46.0399 18.3245 46.367 18.2105 46.7071 18.1624C47.0471 18.1143 47.3933 18.133 47.726 18.2174C48.0587 18.3019 48.3714 18.4504 48.6462 18.6545L59.1077 26.4273C59.4325 26.6686 59.6961 26.9815 59.8777 27.3413C60.0593 27.7011 60.1538 28.0978 60.1538 28.5C60.1538 28.9022 60.0593 29.2989 59.8777 29.6587C59.6961 30.0185 59.4325 30.3314 59.1077 30.5727Z" fill="#708AB9"/>
</svg>
