<svg width="89" height="74" viewBox="0 0 89 74" fill="none" xmlns="http://www.w3.org/2000/svg">
<path fill-rule="evenodd" clip-rule="evenodd" d="M21.714 47.1163V30.3139H18.3721C16.1564 30.3139 14.0314 31.1991 12.4646 32.7746C10.8978 34.3501 10.0176 36.487 10.0176 38.7151C10.0176 40.9432 10.8978 43.0801 12.4646 44.6556C14.0314 46.2311 16.1564 47.1163 18.3721 47.1163H21.714ZM21.714 57.1977H18.3721C13.4975 57.1977 8.82245 55.2504 5.37553 51.7842C1.92861 48.3181 -0.00784302 43.617 -0.00784302 38.7151C-0.00784302 33.8132 1.92861 29.1121 5.37553 25.646C8.82245 22.1798 13.4975 20.2325 18.3721 20.2325H81.8667C83.6393 20.2325 85.3393 20.9406 86.5927 22.2011C87.8461 23.4615 88.5503 25.171 88.5503 26.9535V57.1977C88.5503 61.6539 86.7899 65.9277 83.6563 69.0787C80.5228 72.2297 76.2727 74 71.8412 74H38.423C33.9915 74 29.7415 72.2297 26.6079 69.0787C23.4744 65.9277 21.714 61.6539 21.714 57.1977Z" fill="#708AB9"/>
<path d="M39.8389 2.90625V13.9063" stroke="#708AB9" stroke-width="4" stroke-linecap="round"/>
<path d="M54.8389 2.90625V13.9063" stroke="#708AB9" stroke-width="4" stroke-linecap="round"/>
<path d="M70.8389 2.90625V13.9063" stroke="#708AB9" stroke-width="4" stroke-linecap="round"/>
</svg>
