<svg width="68" height="68" viewBox="0 0 68 68" fill="none" xmlns="http://www.w3.org/2000/svg">
<path d="M66.716 30.965L37.0206 1.28588C36.6139 0.878274 36.1308 0.554884 35.599 0.334232C35.0672 0.113579 34.497 0 33.9212 0C33.3454 0 32.7752 0.113579 32.2434 0.334232C31.7115 0.554884 31.2284 0.878274 30.8218 1.28588L24.6677 7.44946L32.4921 15.2618C33.4111 14.949 34.3995 14.9005 35.3447 15.1217C36.2899 15.343 37.154 15.8251 37.8387 16.5132C39.3007 17.9749 39.7088 20.0762 39.0904 21.8906L46.6173 29.4267C47.5395 29.1059 48.5336 29.052 49.4851 29.2711C50.4366 29.4902 51.3069 29.9735 51.9958 30.6654C54.0443 32.7008 54.0443 35.9982 51.9958 38.0358C51.5128 38.5196 50.9391 38.9035 50.3075 39.1654C49.676 39.4273 48.9989 39.5621 48.3152 39.5621C47.6315 39.5621 46.9544 39.4273 46.3229 39.1654C45.6913 38.9035 45.1176 38.5196 44.6346 38.0358C43.9088 37.3104 43.4126 36.3876 43.2077 35.3822C43.0029 34.3769 43.0986 33.3335 43.4828 32.3821L36.4319 25.3665V43.8573C36.9292 44.1016 37.4052 44.433 37.8153 44.8431C39.8405 46.8912 39.8405 50.1759 37.8153 52.2135C36.8336 53.1911 35.5044 53.74 34.1188 53.74C32.7332 53.74 31.404 53.1911 30.4223 52.2135C29.8148 51.6059 29.3669 50.8576 29.1186 50.0351C28.8702 49.2126 28.8291 48.3416 28.9988 47.4994C29.1686 46.6572 29.5439 45.87 30.0914 45.2079C30.639 44.5458 31.3418 44.0292 32.1372 43.7043V25.0372C31.503 24.7672 30.925 24.381 30.4329 23.8984C29.7012 23.1695 29.2038 22.2387 29.0047 21.2254C28.8055 20.212 28.9136 19.1623 29.3151 18.2107L21.6331 10.4877L1.26873 30.8375C0.455654 31.664 0 32.7769 0 33.9363C0 35.0956 0.455654 36.2085 1.26873 37.035L30.9642 66.7141C31.3708 67.1217 31.8539 67.4451 32.3857 67.6658C32.9176 67.8864 33.4877 68 34.0636 68C34.6394 68 35.2095 67.8864 35.7414 67.6658C36.2732 67.4451 36.7563 67.1217 37.1629 66.7141L66.7139 37.1689C67.1216 36.7623 67.445 36.2794 67.6657 35.7476C67.8864 35.2159 68 34.6458 68 34.0701C68 33.4944 67.8864 32.9244 67.6657 32.3926C67.445 31.8609 67.1216 31.3779 66.7139 30.9713L66.716 30.965Z" fill="#708AB9"/>
</svg>
