<svg width="105" height="57" viewBox="0 0 105 57" fill="none" xmlns="http://www.w3.org/2000/svg">
<path d="M12.8186 28.4982C12.8186 24.4387 14.4445 20.5454 17.3385 17.6749C20.2325 14.8044 24.1575 13.1918 28.2503 13.1918C33.5588 13.1918 37.1565 15.0898 40.1547 18.0592C43.3556 21.2386 45.8203 25.5812 48.6465 30.6236L48.7964 30.8859C51.4418 35.6178 54.4532 40.9925 58.6153 45.1209C63.0596 49.5291 68.8267 52.551 76.7497 52.551C80.8113 52.5511 84.8079 51.5393 88.3726 49.6085C91.9373 47.6776 94.956 44.8896 97.1516 41.5003C99.3472 38.1111 100.649 34.2291 100.938 30.2107C101.228 26.1923 100.495 22.1662 98.8066 18.5019C97.1186 14.8377 94.5298 11.6527 91.2777 9.23923C88.0256 6.82578 84.2144 5.2612 80.194 4.68909C76.1735 4.11698 72.0726 4.55567 68.2676 5.9649C65.3668 7.03925 62.7088 8.65144 60.4314 10.7065C59.173 11.8421 59.082 13.7297 59.9896 15.1613C61.5504 17.6229 65.4288 17.6961 67.8119 16.0178C68.1959 15.7473 68.5932 15.4938 69.0026 15.2582C71.3469 13.9093 74.008 13.1967 76.7182 13.1918C79.4283 13.187 82.092 13.8902 84.4411 15.2307C86.7903 16.5712 88.7421 18.5017 90.1001 20.828C91.4582 23.1543 92.1747 25.7943 92.1775 28.4825C92.1802 31.1707 91.4692 33.8121 90.1159 36.1412C88.7626 38.4702 86.8148 40.4047 84.4685 41.75C82.1221 43.0952 79.4599 43.8038 76.7497 43.8045C71.4456 43.8045 67.8435 41.9065 64.8453 38.9371C61.6443 35.7577 59.1797 31.4151 56.3535 26.3728L56.2036 26.1104C53.5582 21.3785 50.5468 16.0038 46.3847 11.8755C41.9403 7.46723 36.1733 4.44532 28.2503 4.44532C24.1887 4.44523 20.1921 5.45703 16.6274 7.38786C13.0627 9.31869 10.044 12.1067 7.84842 15.496C5.65285 18.8853 4.35072 22.7673 4.06155 26.7857C3.77237 30.8041 4.50541 34.8301 6.19339 38.4944C7.88137 42.1586 10.4702 45.3436 13.7223 47.7571C16.9744 50.1705 20.7856 51.7351 24.806 52.3072C28.8264 52.8793 32.9274 52.4406 36.7324 51.0314C39.6336 49.9569 42.2918 48.3445 44.5694 46.289C45.8273 45.1538 45.9183 43.267 45.011 41.8361C43.4504 39.3747 39.5716 39.3023 37.1896 40.9815C36.2585 41.6378 35.2514 42.1934 34.1842 42.6343C31.0444 43.9316 27.5604 44.1637 24.274 43.2944C20.9875 42.4251 18.0827 40.5031 16.0111 37.8273C13.9394 35.1516 12.8171 31.8719 12.8186 28.4982Z" fill="#708AB9" stroke="#708AB9" stroke-width="7.09756"/>
</svg>
