<svg width="54" height="69" viewBox="0 0 54 69" fill="none" xmlns="http://www.w3.org/2000/svg">
<rect x="0.600011" y="30.0336" width="52.8027" height="38.5397" rx="8.10675" fill="#708AB9" stroke="#708AB9" stroke-width="0.853342"/>
<path d="M12.2269 21.4704H16.4937V21.3385L16.4855 21.2069L12.2269 21.4704ZM37.8455 21.3824C37.7969 23.7383 39.6674 25.6876 42.0234 25.7362C44.3793 25.7848 46.3286 23.9143 46.3772 21.5584L42.1113 21.4704L37.8455 21.3824ZM12.2269 29.6207H16.4937V21.4704H12.2269H7.96024V29.6207H12.2269ZM12.2269 21.4704C16.4855 21.2069 16.4856 21.2088 16.4857 21.2107C16.4858 21.2112 16.4859 21.213 16.486 21.2141C16.4861 21.2162 16.4862 21.2181 16.4863 21.2198C16.4865 21.2231 16.4866 21.2255 16.4867 21.2269C16.4869 21.2299 16.4868 21.2291 16.4866 21.2247C16.4862 21.2159 16.4852 21.1928 16.4841 21.1564C16.4819 21.0835 16.4793 20.9581 16.4803 20.7878C16.4823 20.4456 16.4987 19.9317 16.5589 19.3055C16.6818 18.0288 16.9752 16.4125 17.6147 14.8618C18.2482 13.3254 19.1665 11.98 20.4841 11.0117C21.7638 10.0714 23.7158 9.26671 26.8296 9.26671V5V0.733289C22.1325 0.733289 18.3539 1.98743 15.431 4.13528C12.5461 6.25521 10.7901 9.02738 9.72568 11.6086C8.66721 14.1754 8.23902 16.6768 8.06473 18.4883C7.97642 19.4061 7.95033 20.179 7.94704 20.7376C7.94539 21.0176 7.94947 21.2461 7.95456 21.4144C7.95711 21.4987 7.95992 21.5681 7.96241 21.6216C7.96366 21.6484 7.96482 21.6712 7.96584 21.6899C7.96635 21.6993 7.96682 21.7077 7.96725 21.715C7.96746 21.7186 7.96766 21.722 7.96785 21.7252C7.96795 21.7268 7.96808 21.7289 7.96812 21.7297C7.96825 21.7318 7.96838 21.7338 12.2269 21.4704ZM26.8296 5V9.26671C29.9412 9.26671 31.9617 10.0712 33.3301 11.0472C34.7367 12.0504 35.7356 13.4384 36.4429 14.9977C37.1558 16.5695 37.5177 18.1995 37.6934 19.4779C37.7797 20.1061 37.8173 20.6211 37.8335 20.9635C37.8415 21.134 37.8441 21.2594 37.8449 21.3323C37.8453 21.3686 37.8452 21.3917 37.8452 21.4004C37.8452 21.4047 37.8452 21.4055 37.8452 21.4026C37.8452 21.4011 37.8452 21.3987 37.8453 21.3953C37.8453 21.3936 37.8454 21.3917 37.8454 21.3896C37.8454 21.3885 37.8455 21.3867 37.8455 21.3862C37.8455 21.3843 37.8455 21.3824 42.1113 21.4704C46.3772 21.5584 46.3772 21.5563 46.3772 21.5542C46.3773 21.5534 46.3773 21.5513 46.3773 21.5497C46.3774 21.5465 46.3774 21.5431 46.3775 21.5394C46.3776 21.5321 46.3778 21.5237 46.3779 21.5143C46.3781 21.4955 46.3784 21.4727 46.3785 21.4459C46.3788 21.3923 46.3787 21.3228 46.3778 21.2385C46.376 21.0701 46.3706 20.8417 46.3574 20.5618C46.3311 20.0035 46.2732 19.2318 46.1473 18.3159C45.8986 16.5061 45.369 14.0185 44.2142 11.4726C43.0537 8.91438 41.2085 6.18481 38.2852 4.0998C35.3238 1.9876 31.5287 0.733289 26.8296 0.733289V5Z" fill="#708AB9"/>
<path d="M33.6935 44.5792C33.6935 47.4248 31.961 49.8657 29.4932 50.9047C28.6752 51.2492 27.7764 51.4396 26.8331 51.4396C23.0442 51.4396 19.9727 48.368 19.9727 44.5792C19.9727 40.7903 23.0442 37.7188 26.8331 37.7188C30.622 37.7188 33.6935 40.7903 33.6935 44.5792Z" fill="white"/>
<path d="M26.8331 51.4396C25.7483 51.4396 24.7224 51.1878 23.8104 50.7395C23.8104 50.7395 23.0528 55.2198 22.7728 57.5999C22.6983 58.2332 22.9752 59 23.6129 59C24.7329 59 26.6931 59 26.6931 59C26.6931 59 28.7156 59 29.7732 59C30.4109 59 30.7127 58.2297 30.6133 57.5999C30.1933 54.9398 29.4932 50.9047 29.4932 50.9047C28.6752 51.2492 27.7764 51.4396 26.8331 51.4396Z" fill="white"/>
</svg>
