<svg width="48" height="48" viewBox="0 0 48 48" fill="none" xmlns="http://www.w3.org/2000/svg">
<path d="M37.5 38C37.7761 38 38 38.2239 38 38.5C38 38.7761 37.7761 39 37.5 39C37.2239 39 37 38.7761 37 38.5C37 38.2239 37.2239 38 37.5 38Z" fill="#708AB9"/>
<path d="M38.5 38C38.7761 38 39 38.2239 39 38.5C39 38.7761 38.7761 39 38.5 39C38.2239 39 38 38.7761 38 38.5C38 38.2239 38.2239 38 38.5 38Z" fill="#708AB9"/>
<path d="M36.5 37C36.7761 37 37 37.2239 37 37.5C37 37.7761 36.7761 38 36.5 38C36.2239 38 36 37.7761 36 37.5C36 37.2239 36.2239 37 36.5 37Z" fill="#708AB9"/>
<path d="M37.5 37C37.7761 37 38 37.2239 38 37.5C38 37.7761 37.7761 38 37.5 38C37.2239 38 37 37.7761 37 37.5C37 37.2239 37.2239 37 37.5 37Z" fill="#708AB9"/>
<path d="M38.5 37C38.7761 37 39 37.2239 39 37.5C39 37.7761 38.7761 38 38.5 38C38.2239 38 38 37.7761 38 37.5C38 37.2239 38.2239 37 38.5 37Z" fill="#708AB9"/>
<path d="M35.5 36C35.7761 36 36 36.2239 36 36.5C36 36.7761 35.7761 37 35.5 37C35.2239 37 35 36.7761 35 36.5C35 36.2239 35.2239 36 35.5 36Z" fill="#708AB9"/>
<path d="M36.5 36C36.7761 36 37 36.2239 37 36.5C37 36.7761 36.7761 37 36.5 37C36.2239 37 36 36.7761 36 36.5C36 36.2239 36.2239 36 36.5 36Z" fill="#708AB9"/>
<path d="M37.5 36C37.7761 36 38 36.2239 38 36.5C38 36.7761 37.7761 37 37.5 37C37.2239 37 37 36.7761 37 36.5C37 36.2239 37.2239 36 37.5 36Z" fill="#708AB9"/>
<path d="M34.5 35C34.7761 35 35 35.2239 35 35.5C35 35.7761 34.7761 36 34.5 36C34.2239 36 34 35.7761 34 35.5C34 35.2239 34.2239 35 34.5 35Z" fill="#708AB9"/>
<path d="M35.5 35C35.7761 35 36 35.2239 36 35.5C36 35.7761 35.7761 36 35.5 36C35.2239 36 35 35.7761 35 35.5C35 35.2239 35.2239 35 35.5 35Z" fill="#708AB9"/>
<path d="M36.5 35C36.7761 35 37 35.2239 37 35.5C37 35.7761 36.7761 36 36.5 36C36.2239 36 36 35.7761 36 35.5C36 35.2239 36.2239 35 36.5 35Z" fill="#708AB9"/>
<path d="M33.5 34C33.7761 34 34 34.2239 34 34.5C34 34.7761 33.7761 35 33.5 35C33.2239 35 33 34.7761 33 34.5C33 34.2239 33.2239 34 33.5 34Z" fill="#708AB9"/>
<path d="M34.5 34C34.7761 34 35 34.2239 35 34.5C35 34.7761 34.7761 35 34.5 35C34.2239 35 34 34.7761 34 34.5C34 34.2239 34.2239 34 34.5 34Z" fill="#708AB9"/>
<path d="M35.5 34C35.7761 34 36 34.2239 36 34.5C36 34.7761 35.7761 35 35.5 35C35.2239 35 35 34.7761 35 34.5C35 34.2239 35.2239 34 35.5 34Z" fill="#708AB9"/>
<path d="M32.5 33C32.7761 33 33 33.2239 33 33.5C33 33.7761 32.7761 34 32.5 34C32.2239 34 32 33.7761 32 33.5C32 33.2239 32.2239 33 32.5 33Z" fill="#708AB9"/>
<path d="M33.5 33C33.7761 33 34 33.2239 34 33.5C34 33.7761 33.7761 34 33.5 34C33.2239 34 33 33.7761 33 33.5C33 33.2239 33.2239 33 33.5 33Z" fill="#708AB9"/>
<path d="M34.5 33C34.7761 33 35 33.2239 35 33.5C35 33.7761 34.7761 34 34.5 34C34.2239 34 34 33.7761 34 33.5C34 33.2239 34.2239 33 34.5 33Z" fill="#708AB9"/>
<path d="M31.5 32C31.7761 32 32 32.2239 32 32.5C32 32.7761 31.7761 33 31.5 33C31.2239 33 31 32.7761 31 32.5C31 32.2239 31.2239 32 31.5 32Z" fill="#708AB9"/>
<path d="M32.5 32C32.7761 32 33 32.2239 33 32.5C33 32.7761 32.7761 33 32.5 33C32.2239 33 32 32.7761 32 32.5C32 32.2239 32.2239 32 32.5 32Z" fill="#708AB9"/>
<path d="M33.5 32C33.7761 32 34 32.2239 34 32.5C34 32.7761 33.7761 33 33.5 33C33.2239 33 33 32.7761 33 32.5C33 32.2239 33.2239 32 33.5 32Z" fill="#708AB9"/>
<path d="M30.5 31C30.7761 31 31 31.2239 31 31.5C31 31.7761 30.7761 32 30.5 32C30.2239 32 30 31.7761 30 31.5C30 31.2239 30.2239 31 30.5 31Z" fill="#708AB9"/>
<path d="M31.5 31C31.7761 31 32 31.2239 32 31.5C32 31.7761 31.7761 32 31.5 32C31.2239 32 31 31.7761 31 31.5C31 31.2239 31.2239 31 31.5 31Z" fill="#708AB9"/>
<path d="M32.5 31C32.7761 31 33 31.2239 33 31.5C33 31.7761 32.7761 32 32.5 32C32.2239 32 32 31.7761 32 31.5C32 31.2239 32.2239 31 32.5 31Z" fill="#708AB9"/>
<path d="M16.5 30C16.7761 30 17 30.2239 17 30.5C17 30.7761 16.7761 31 16.5 31C16.2239 31 16 30.7761 16 30.5C16 30.2239 16.2239 30 16.5 30Z" fill="#708AB9"/>
<path d="M17.5 30C17.7761 30 18 30.2239 18 30.5C18 30.7761 17.7761 31 17.5 31C17.2239 31 17 30.7761 17 30.5C17 30.2239 17.2239 30 17.5 30Z" fill="#708AB9"/>
<path d="M18.5 30C18.7761 30 19 30.2239 19 30.5C19 30.7761 18.7761 31 18.5 31C18.2239 31 18 30.7761 18 30.5C18 30.2239 18.2239 30 18.5 30Z" fill="#708AB9"/>
<path d="M19.5 30C19.7761 30 20 30.2239 20 30.5C20 30.7761 19.7761 31 19.5 31C19.2239 31 19 30.7761 19 30.5C19 30.2239 19.2239 30 19.5 30Z" fill="#708AB9"/>
<path d="M20.5 30C20.7761 30 21 30.2239 21 30.5C21 30.7761 20.7761 31 20.5 31C20.2239 31 20 30.7761 20 30.5C20 30.2239 20.2239 30 20.5 30Z" fill="#708AB9"/>
<path d="M21.5 30C21.7761 30 22 30.2239 22 30.5C22 30.7761 21.7761 31 21.5 31C21.2239 31 21 30.7761 21 30.5C21 30.2239 21.2239 30 21.5 30Z" fill="#708AB9"/>
<path d="M22.5 30C22.7761 30 23 30.2239 23 30.5C23 30.7761 22.7761 31 22.5 31C22.2239 31 22 30.7761 22 30.5C22 30.2239 22.2239 30 22.5 30Z" fill="#708AB9"/>
<path d="M23.5 30C23.7761 30 24 30.2239 24 30.5C24 30.7761 23.7761 31 23.5 31C23.2239 31 23 30.7761 23 30.5C23 30.2239 23.2239 30 23.5 30Z" fill="#708AB9"/>
<path d="M29.5 30C29.7761 30 30 30.2239 30 30.5C30 30.7761 29.7761 31 29.5 31C29.2239 31 29 30.7761 29 30.5C29 30.2239 29.2239 30 29.5 30Z" fill="#708AB9"/>
<path d="M30.5 30C30.7761 30 31 30.2239 31 30.5C31 30.7761 30.7761 31 30.5 31C30.2239 31 30 30.7761 30 30.5C30 30.2239 30.2239 30 30.5 30Z" fill="#708AB9"/>
<path d="M31.5 30C31.7761 30 32 30.2239 32 30.5C32 30.7761 31.7761 31 31.5 31C31.2239 31 31 30.7761 31 30.5C31 30.2239 31.2239 30 31.5 30Z" fill="#708AB9"/>
<path d="M14.5 29C14.7761 29 15 29.2239 15 29.5C15 29.7761 14.7761 30 14.5 30C14.2239 30 14 29.7761 14 29.5C14 29.2239 14.2239 29 14.5 29Z" fill="#708AB9"/>
<path d="M15.5 29C15.7761 29 16 29.2239 16 29.5C16 29.7761 15.7761 30 15.5 30C15.2239 30 15 29.7761 15 29.5C15 29.2239 15.2239 29 15.5 29Z" fill="#708AB9"/>
<path d="M16.5 29C16.7761 29 17 29.2239 17 29.5C17 29.7761 16.7761 30 16.5 30C16.2239 30 16 29.7761 16 29.5C16 29.2239 16.2239 29 16.5 29Z" fill="#708AB9"/>
<path d="M17.5 29C17.7761 29 18 29.2239 18 29.5C18 29.7761 17.7761 30 17.5 30C17.2239 30 17 29.7761 17 29.5C17 29.2239 17.2239 29 17.5 29Z" fill="#708AB9"/>
<path d="M18.5 29C18.7761 29 19 29.2239 19 29.5C19 29.7761 18.7761 30 18.5 30C18.2239 30 18 29.7761 18 29.5C18 29.2239 18.2239 29 18.5 29Z" fill="#708AB9"/>
<path d="M19.5 29C19.7761 29 20 29.2239 20 29.5C20 29.7761 19.7761 30 19.5 30C19.2239 30 19 29.7761 19 29.5C19 29.2239 19.2239 29 19.5 29Z" fill="#708AB9"/>
<path d="M20.5 29C20.7761 29 21 29.2239 21 29.5C21 29.7761 20.7761 30 20.5 30C20.2239 30 20 29.7761 20 29.5C20 29.2239 20.2239 29 20.5 29Z" fill="#708AB9"/>
<path d="M21.5 29C21.7761 29 22 29.2239 22 29.5C22 29.7761 21.7761 30 21.5 30C21.2239 30 21 29.7761 21 29.5C21 29.2239 21.2239 29 21.5 29Z" fill="#708AB9"/>
<path d="M22.5 29C22.7761 29 23 29.2239 23 29.5C23 29.7761 22.7761 30 22.5 30C22.2239 30 22 29.7761 22 29.5C22 29.2239 22.2239 29 22.5 29Z" fill="#708AB9"/>
<path d="M23.5 29C23.7761 29 24 29.2239 24 29.5C24 29.7761 23.7761 30 23.5 30C23.2239 30 23 29.7761 23 29.5C23 29.2239 23.2239 29 23.5 29Z" fill="#708AB9"/>
<path d="M24.5 29C24.7761 29 25 29.2239 25 29.5C25 29.7761 24.7761 30 24.5 30C24.2239 30 24 29.7761 24 29.5C24 29.2239 24.2239 29 24.5 29Z" fill="#708AB9"/>
<path d="M25.5 29C25.7761 29 26 29.2239 26 29.5C26 29.7761 25.7761 30 25.5 30C25.2239 30 25 29.7761 25 29.5C25 29.2239 25.2239 29 25.5 29Z" fill="#708AB9"/>
<path d="M28.5 29C28.7761 29 29 29.2239 29 29.5C29 29.7761 28.7761 30 28.5 30C28.2239 30 28 29.7761 28 29.5C28 29.2239 28.2239 29 28.5 29Z" fill="#708AB9"/>
<path d="M29.5 29C29.7761 29 30 29.2239 30 29.5C30 29.7761 29.7761 30 29.5 30C29.2239 30 29 29.7761 29 29.5C29 29.2239 29.2239 29 29.5 29Z" fill="#708AB9"/>
<path d="M30.5 29C30.7761 29 31 29.2239 31 29.5C31 29.7761 30.7761 30 30.5 30C30.2239 30 30 29.7761 30 29.5C30 29.2239 30.2239 29 30.5 29Z" fill="#708AB9"/>
<path d="M13.5 28C13.7761 28 14 28.2239 14 28.5C14 28.7761 13.7761 29 13.5 29C13.2239 29 13 28.7761 13 28.5C13 28.2239 13.2239 28 13.5 28Z" fill="#708AB9"/>
<path d="M14.5 28C14.7761 28 15 28.2239 15 28.5C15 28.7761 14.7761 29 14.5 29C14.2239 29 14 28.7761 14 28.5C14 28.2239 14.2239 28 14.5 28Z" fill="#708AB9"/>
<path d="M15.5 28C15.7761 28 16 28.2239 16 28.5C16 28.7761 15.7761 29 15.5 29C15.2239 29 15 28.7761 15 28.5C15 28.2239 15.2239 28 15.5 28Z" fill="#708AB9"/>
<path d="M24.5 28C24.7761 28 25 28.2239 25 28.5C25 28.7761 24.7761 29 24.5 29C24.2239 29 24 28.7761 24 28.5C24 28.2239 24.2239 28 24.5 28Z" fill="#708AB9"/>
<path d="M25.5 28C25.7761 28 26 28.2239 26 28.5C26 28.7761 25.7761 29 25.5 29C25.2239 29 25 28.7761 25 28.5C25 28.2239 25.2239 28 25.5 28Z" fill="#708AB9"/>
<path d="M26.5 28C26.7761 28 27 28.2239 27 28.5C27 28.7761 26.7761 29 26.5 29C26.2239 29 26 28.7761 26 28.5C26 28.2239 26.2239 28 26.5 28Z" fill="#708AB9"/>
<path d="M27.5 28C27.7761 28 28 28.2239 28 28.5C28 28.7761 27.7761 29 27.5 29C27.2239 29 27 28.7761 27 28.5C27 28.2239 27.2239 28 27.5 28Z" fill="#708AB9"/>
<path d="M28.5 28C28.7761 28 29 28.2239 29 28.5C29 28.7761 28.7761 29 28.5 29C28.2239 29 28 28.7761 28 28.5C28 28.2239 28.2239 28 28.5 28Z" fill="#708AB9"/>
<path d="M29.5 28C29.7761 28 30 28.2239 30 28.5C30 28.7761 29.7761 29 29.5 29C29.2239 29 29 28.7761 29 28.5C29 28.2239 29.2239 28 29.5 28Z" fill="#708AB9"/>
<path d="M12.5 27C12.7761 27 13 27.2239 13 27.5C13 27.7761 12.7761 28 12.5 28C12.2239 28 12 27.7761 12 27.5C12 27.2239 12.2239 27 12.5 27Z" fill="#708AB9"/>
<path d="M13.5 27C13.7761 27 14 27.2239 14 27.5C14 27.7761 13.7761 28 13.5 28C13.2239 28 13 27.7761 13 27.5C13 27.2239 13.2239 27 13.5 27Z" fill="#708AB9"/>
<path d="M26.5 27C26.7761 27 27 27.2239 27 27.5C27 27.7761 26.7761 28 26.5 28C26.2239 28 26 27.7761 26 27.5C26 27.2239 26.2239 27 26.5 27Z" fill="#708AB9"/>
<path d="M27.5 27C27.7761 27 28 27.2239 28 27.5C28 27.7761 27.7761 28 27.5 28C27.2239 28 27 27.7761 27 27.5C27 27.2239 27.2239 27 27.5 27Z" fill="#708AB9"/>
<path d="M28.5 27C28.7761 27 29 27.2239 29 27.5C29 27.7761 28.7761 28 28.5 28C28.2239 28 28 27.7761 28 27.5C28 27.2239 28.2239 27 28.5 27Z" fill="#708AB9"/>
<path d="M11.5 26C11.7761 26 12 26.2239 12 26.5C12 26.7761 11.7761 27 11.5 27C11.2239 27 11 26.7761 11 26.5C11 26.2239 11.2239 26 11.5 26Z" fill="#708AB9"/>
<path d="M12.5 26C12.7761 26 13 26.2239 13 26.5C13 26.7761 12.7761 27 12.5 27C12.2239 27 12 26.7761 12 26.5C12 26.2239 12.2239 26 12.5 26Z" fill="#708AB9"/>
<path d="M27.5 26C27.7761 26 28 26.2239 28 26.5C28 26.7761 27.7761 27 27.5 27C27.2239 27 27 26.7761 27 26.5C27 26.2239 27.2239 26 27.5 26Z" fill="#708AB9"/>
<path d="M28.5 26C28.7761 26 29 26.2239 29 26.5C29 26.7761 28.7761 27 28.5 27C28.2239 27 28 26.7761 28 26.5C28 26.2239 28.2239 26 28.5 26Z" fill="#708AB9"/>
<path d="M11.5 25C11.7761 25 12 25.2239 12 25.5C12 25.7761 11.7761 26 11.5 26C11.2239 26 11 25.7761 11 25.5C11 25.2239 11.2239 25 11.5 25Z" fill="#708AB9"/>
<path d="M28.5 25C28.7761 25 29 25.2239 29 25.5C29 25.7761 28.7761 26 28.5 26C28.2239 26 28 25.7761 28 25.5C28 25.2239 28.2239 25 28.5 25Z" fill="#708AB9"/>
<path d="M10.5 24C10.7761 24 11 24.2239 11 24.5C11 24.7761 10.7761 25 10.5 25C10.2239 25 10 24.7761 10 24.5C10 24.2239 10.2239 24 10.5 24Z" fill="#708AB9"/>
<path d="M11.5 24C11.7761 24 12 24.2239 12 24.5C12 24.7761 11.7761 25 11.5 25C11.2239 25 11 24.7761 11 24.5C11 24.2239 11.2239 24 11.5 24Z" fill="#708AB9"/>
<path d="M28.5 24C28.7761 24 29 24.2239 29 24.5C29 24.7761 28.7761 25 28.5 25C28.2239 25 28 24.7761 28 24.5C28 24.2239 28.2239 24 28.5 24Z" fill="#708AB9"/>
<path d="M29.5 24C29.7761 24 30 24.2239 30 24.5C30 24.7761 29.7761 25 29.5 25C29.2239 25 29 24.7761 29 24.5C29 24.2239 29.2239 24 29.5 24Z" fill="#708AB9"/>
<path d="M10.5 23C10.7761 23 11 23.2239 11 23.5C11 23.7761 10.7761 24 10.5 24C10.2239 24 10 23.7761 10 23.5C10 23.2239 10.2239 23 10.5 23Z" fill="#708AB9"/>
<path d="M29.5 23C29.7761 23 30 23.2239 30 23.5C30 23.7761 29.7761 24 29.5 24C29.2239 24 29 23.7761 29 23.5C29 23.2239 29.2239 23 29.5 23Z" fill="#708AB9"/>
<path d="M9.5 22C9.77614 22 10 22.2239 10 22.5C10 22.7761 9.77614 23 9.5 23C9.22386 23 9 22.7761 9 22.5C9 22.2239 9.22386 22 9.5 22Z" fill="#708AB9"/>
<path d="M10.5 22C10.7761 22 11 22.2239 11 22.5C11 22.7761 10.7761 23 10.5 23C10.2239 23 10 22.7761 10 22.5C10 22.2239 10.2239 22 10.5 22Z" fill="#708AB9"/>
<path d="M29.5 22C29.7761 22 30 22.2239 30 22.5C30 22.7761 29.7761 23 29.5 23C29.2239 23 29 22.7761 29 22.5C29 22.2239 29.2239 22 29.5 22Z" fill="#708AB9"/>
<path d="M30.5 22C30.7761 22 31 22.2239 31 22.5C31 22.7761 30.7761 23 30.5 23C30.2239 23 30 22.7761 30 22.5C30 22.2239 30.2239 22 30.5 22Z" fill="#708AB9"/>
<path d="M9.5 21C9.77614 21 10 21.2239 10 21.5C10 21.7761 9.77614 22 9.5 22C9.22386 22 9 21.7761 9 21.5C9 21.2239 9.22386 21 9.5 21Z" fill="#708AB9"/>
<path d="M10.5 21C10.7761 21 11 21.2239 11 21.5C11 21.7761 10.7761 22 10.5 22C10.2239 22 10 21.7761 10 21.5C10 21.2239 10.2239 21 10.5 21Z" fill="#708AB9"/>
<path d="M29.5 21C29.7761 21 30 21.2239 30 21.5C30 21.7761 29.7761 22 29.5 22C29.2239 22 29 21.7761 29 21.5C29 21.2239 29.2239 21 29.5 21Z" fill="#708AB9"/>
<path d="M30.5 21C30.7761 21 31 21.2239 31 21.5C31 21.7761 30.7761 22 30.5 22C30.2239 22 30 21.7761 30 21.5C30 21.2239 30.2239 21 30.5 21Z" fill="#708AB9"/>
<path d="M9.5 20C9.77614 20 10 20.2239 10 20.5C10 20.7761 9.77614 21 9.5 21C9.22386 21 9 20.7761 9 20.5C9 20.2239 9.22386 20 9.5 20Z" fill="#708AB9"/>
<path d="M10.5 20C10.7761 20 11 20.2239 11 20.5C11 20.7761 10.7761 21 10.5 21C10.2239 21 10 20.7761 10 20.5C10 20.2239 10.2239 20 10.5 20Z" fill="#708AB9"/>
<path d="M29.5 20C29.7761 20 30 20.2239 30 20.5C30 20.7761 29.7761 21 29.5 21C29.2239 21 29 20.7761 29 20.5C29 20.2239 29.2239 20 29.5 20Z" fill="#708AB9"/>
<path d="M30.5 20C30.7761 20 31 20.2239 31 20.5C31 20.7761 30.7761 21 30.5 21C30.2239 21 30 20.7761 30 20.5C30 20.2239 30.2239 20 30.5 20Z" fill="#708AB9"/>
<path d="M9.5 19C9.77614 19 10 19.2239 10 19.5C10 19.7761 9.77614 20 9.5 20C9.22386 20 9 19.7761 9 19.5C9 19.2239 9.22386 19 9.5 19Z" fill="#708AB9"/>
<path d="M10.5 19C10.7761 19 11 19.2239 11 19.5C11 19.7761 10.7761 20 10.5 20C10.2239 20 10 19.7761 10 19.5C10 19.2239 10.2239 19 10.5 19Z" fill="#708AB9"/>
<path d="M29.5 19C29.7761 19 30 19.2239 30 19.5C30 19.7761 29.7761 20 29.5 20C29.2239 20 29 19.7761 29 19.5C29 19.2239 29.2239 19 29.5 19Z" fill="#708AB9"/>
<path d="M30.5 19C30.7761 19 31 19.2239 31 19.5C31 19.7761 30.7761 20 30.5 20C30.2239 20 30 19.7761 30 19.5C30 19.2239 30.2239 19 30.5 19Z" fill="#708AB9"/>
<path d="M9.5 18C9.77614 18 10 18.2239 10 18.5C10 18.7761 9.77614 19 9.5 19C9.22386 19 9 18.7761 9 18.5C9 18.2239 9.22386 18 9.5 18Z" fill="#708AB9"/>
<path d="M10.5 18C10.7761 18 11 18.2239 11 18.5C11 18.7761 10.7761 19 10.5 19C10.2239 19 10 18.7761 10 18.5C10 18.2239 10.2239 18 10.5 18Z" fill="#708AB9"/>
<path d="M29.5 18C29.7761 18 30 18.2239 30 18.5C30 18.7761 29.7761 19 29.5 19C29.2239 19 29 18.7761 29 18.5C29 18.2239 29.2239 18 29.5 18Z" fill="#708AB9"/>
<path d="M30.5 18C30.7761 18 31 18.2239 31 18.5C31 18.7761 30.7761 19 30.5 19C30.2239 19 30 18.7761 30 18.5C30 18.2239 30.2239 18 30.5 18Z" fill="#708AB9"/>
<path d="M9.5 17C9.77614 17 10 17.2239 10 17.5C10 17.7761 9.77614 18 9.5 18C9.22386 18 9 17.7761 9 17.5C9 17.2239 9.22386 17 9.5 17Z" fill="#708AB9"/>
<path d="M10.5 17C10.7761 17 11 17.2239 11 17.5C11 17.7761 10.7761 18 10.5 18C10.2239 18 10 17.7761 10 17.5C10 17.2239 10.2239 17 10.5 17Z" fill="#708AB9"/>
<path d="M29.5 17C29.7761 17 30 17.2239 30 17.5C30 17.7761 29.7761 18 29.5 18C29.2239 18 29 17.7761 29 17.5C29 17.2239 29.2239 17 29.5 17Z" fill="#708AB9"/>
<path d="M30.5 17C30.7761 17 31 17.2239 31 17.5C31 17.7761 30.7761 18 30.5 18C30.2239 18 30 17.7761 30 17.5C30 17.2239 30.2239 17 30.5 17Z" fill="#708AB9"/>
<path d="M10.5 16C10.7761 16 11 16.2239 11 16.5C11 16.7761 10.7761 17 10.5 17C10.2239 17 10 16.7761 10 16.5C10 16.2239 10.2239 16 10.5 16Z" fill="#708AB9"/>
<path d="M29.5 16C29.7761 16 30 16.2239 30 16.5C30 16.7761 29.7761 17 29.5 17C29.2239 17 29 16.7761 29 16.5C29 16.2239 29.2239 16 29.5 16Z" fill="#708AB9"/>
<path d="M10.5 15C10.7761 15 11 15.2239 11 15.5C11 15.7761 10.7761 16 10.5 16C10.2239 16 10 15.7761 10 15.5C10 15.2239 10.2239 15 10.5 15Z" fill="#708AB9"/>
<path d="M11.5 15C11.7761 15 12 15.2239 12 15.5C12 15.7761 11.7761 16 11.5 16C11.2239 16 11 15.7761 11 15.5C11 15.2239 11.2239 15 11.5 15Z" fill="#708AB9"/>
<path d="M28.5 15C28.7761 15 29 15.2239 29 15.5C29 15.7761 28.7761 16 28.5 16C28.2239 16 28 15.7761 28 15.5C28 15.2239 28.2239 15 28.5 15Z" fill="#708AB9"/>
<path d="M29.5 15C29.7761 15 30 15.2239 30 15.5C30 15.7761 29.7761 16 29.5 16C29.2239 16 29 15.7761 29 15.5C29 15.2239 29.2239 15 29.5 15Z" fill="#708AB9"/>
<path d="M11.5 14C11.7761 14 12 14.2239 12 14.5C12 14.7761 11.7761 15 11.5 15C11.2239 15 11 14.7761 11 14.5C11 14.2239 11.2239 14 11.5 14Z" fill="#708AB9"/>
<path d="M28.5 14C28.7761 14 29 14.2239 29 14.5C29 14.7761 28.7761 15 28.5 15C28.2239 15 28 14.7761 28 14.5C28 14.2239 28.2239 14 28.5 14Z" fill="#708AB9"/>
<path d="M11.5 13C11.7761 13 12 13.2239 12 13.5C12 13.7761 11.7761 14 11.5 14C11.2239 14 11 13.7761 11 13.5C11 13.2239 11.2239 13 11.5 13Z" fill="#708AB9"/>
<path d="M12.5 13C12.7761 13 13 13.2239 13 13.5C13 13.7761 12.7761 14 12.5 14C12.2239 14 12 13.7761 12 13.5C12 13.2239 12.2239 13 12.5 13Z" fill="#708AB9"/>
<path d="M27.5 13C27.7761 13 28 13.2239 28 13.5C28 13.7761 27.7761 14 27.5 14C27.2239 14 27 13.7761 27 13.5C27 13.2239 27.2239 13 27.5 13Z" fill="#708AB9"/>
<path d="M28.5 13C28.7761 13 29 13.2239 29 13.5C29 13.7761 28.7761 14 28.5 14C28.2239 14 28 13.7761 28 13.5C28 13.2239 28.2239 13 28.5 13Z" fill="#708AB9"/>
<path d="M12.5 12C12.7761 12 13 12.2239 13 12.5C13 12.7761 12.7761 13 12.5 13C12.2239 13 12 12.7761 12 12.5C12 12.2239 12.2239 12 12.5 12Z" fill="#708AB9"/>
<path d="M13.5 12C13.7761 12 14 12.2239 14 12.5C14 12.7761 13.7761 13 13.5 13C13.2239 13 13 12.7761 13 12.5C13 12.2239 13.2239 12 13.5 12Z" fill="#708AB9"/>
<path d="M26.5 12C26.7761 12 27 12.2239 27 12.5C27 12.7761 26.7761 13 26.5 13C26.2239 13 26 12.7761 26 12.5C26 12.2239 26.2239 12 26.5 12Z" fill="#708AB9"/>
<path d="M27.5 12C27.7761 12 28 12.2239 28 12.5C28 12.7761 27.7761 13 27.5 13C27.2239 13 27 12.7761 27 12.5C27 12.2239 27.2239 12 27.5 12Z" fill="#708AB9"/>
<path d="M13.5 11C13.7761 11 14 11.2239 14 11.5C14 11.7761 13.7761 12 13.5 12C13.2239 12 13 11.7761 13 11.5C13 11.2239 13.2239 11 13.5 11Z" fill="#708AB9"/>
<path d="M14.5 11C14.7761 11 15 11.2239 15 11.5C15 11.7761 14.7761 12 14.5 12C14.2239 12 14 11.7761 14 11.5C14 11.2239 14.2239 11 14.5 11Z" fill="#708AB9"/>
<path d="M15.5 11C15.7761 11 16 11.2239 16 11.5C16 11.7761 15.7761 12 15.5 12C15.2239 12 15 11.7761 15 11.5C15 11.2239 15.2239 11 15.5 11Z" fill="#708AB9"/>
<path d="M24.5 11C24.7761 11 25 11.2239 25 11.5C25 11.7761 24.7761 12 24.5 12C24.2239 12 24 11.7761 24 11.5C24 11.2239 24.2239 11 24.5 11Z" fill="#708AB9"/>
<path d="M25.5 11C25.7761 11 26 11.2239 26 11.5C26 11.7761 25.7761 12 25.5 12C25.2239 12 25 11.7761 25 11.5C25 11.2239 25.2239 11 25.5 11Z" fill="#708AB9"/>
<path d="M26.5 11C26.7761 11 27 11.2239 27 11.5C27 11.7761 26.7761 12 26.5 12C26.2239 12 26 11.7761 26 11.5C26 11.2239 26.2239 11 26.5 11Z" fill="#708AB9"/>
<path d="M14.5 10C14.7761 10 15 10.2239 15 10.5C15 10.7761 14.7761 11 14.5 11C14.2239 11 14 10.7761 14 10.5C14 10.2239 14.2239 10 14.5 10Z" fill="#708AB9"/>
<path d="M15.5 10C15.7761 10 16 10.2239 16 10.5C16 10.7761 15.7761 11 15.5 11C15.2239 11 15 10.7761 15 10.5C15 10.2239 15.2239 10 15.5 10Z" fill="#708AB9"/>
<path d="M16.5 10C16.7761 10 17 10.2239 17 10.5C17 10.7761 16.7761 11 16.5 11C16.2239 11 16 10.7761 16 10.5C16 10.2239 16.2239 10 16.5 10Z" fill="#708AB9"/>
<path d="M17.5 10C17.7761 10 18 10.2239 18 10.5C18 10.7761 17.7761 11 17.5 11C17.2239 11 17 10.7761 17 10.5C17 10.2239 17.2239 10 17.5 10Z" fill="#708AB9"/>
<path d="M18.5 10C18.7761 10 19 10.2239 19 10.5C19 10.7761 18.7761 11 18.5 11C18.2239 11 18 10.7761 18 10.5C18 10.2239 18.2239 10 18.5 10Z" fill="#708AB9"/>
<path d="M19.5 10C19.7761 10 20 10.2239 20 10.5C20 10.7761 19.7761 11 19.5 11C19.2239 11 19 10.7761 19 10.5C19 10.2239 19.2239 10 19.5 10Z" fill="#708AB9"/>
<path d="M20.5 10C20.7761 10 21 10.2239 21 10.5C21 10.7761 20.7761 11 20.5 11C20.2239 11 20 10.7761 20 10.5C20 10.2239 20.2239 10 20.5 10Z" fill="#708AB9"/>
<path d="M21.5 10C21.7761 10 22 10.2239 22 10.5C22 10.7761 21.7761 11 21.5 11C21.2239 11 21 10.7761 21 10.5C21 10.2239 21.2239 10 21.5 10Z" fill="#708AB9"/>
<path d="M22.5 10C22.7761 10 23 10.2239 23 10.5C23 10.7761 22.7761 11 22.5 11C22.2239 11 22 10.7761 22 10.5C22 10.2239 22.2239 10 22.5 10Z" fill="#708AB9"/>
<path d="M23.5 10C23.7761 10 24 10.2239 24 10.5C24 10.7761 23.7761 11 23.5 11C23.2239 11 23 10.7761 23 10.5C23 10.2239 23.2239 10 23.5 10Z" fill="#708AB9"/>
<path d="M24.5 10C24.7761 10 25 10.2239 25 10.5C25 10.7761 24.7761 11 24.5 11C24.2239 11 24 10.7761 24 10.5C24 10.2239 24.2239 10 24.5 10Z" fill="#708AB9"/>
<path d="M25.5 10C25.7761 10 26 10.2239 26 10.5C26 10.7761 25.7761 11 25.5 11C25.2239 11 25 10.7761 25 10.5C25 10.2239 25.2239 10 25.5 10Z" fill="#708AB9"/>
<path d="M16.5 9C16.7761 9 17 9.22386 17 9.5C17 9.77614 16.7761 10 16.5 10C16.2239 10 16 9.77614 16 9.5C16 9.22386 16.2239 9 16.5 9Z" fill="#708AB9"/>
<path d="M17.5 9C17.7761 9 18 9.22386 18 9.5C18 9.77614 17.7761 10 17.5 10C17.2239 10 17 9.77614 17 9.5C17 9.22386 17.2239 9 17.5 9Z" fill="#708AB9"/>
<path d="M18.5 9C18.7761 9 19 9.22386 19 9.5C19 9.77614 18.7761 10 18.5 10C18.2239 10 18 9.77614 18 9.5C18 9.22386 18.2239 9 18.5 9Z" fill="#708AB9"/>
<path d="M19.5 9C19.7761 9 20 9.22386 20 9.5C20 9.77614 19.7761 10 19.5 10C19.2239 10 19 9.77614 19 9.5C19 9.22386 19.2239 9 19.5 9Z" fill="#708AB9"/>
<path d="M20.5 9C20.7761 9 21 9.22386 21 9.5C21 9.77614 20.7761 10 20.5 10C20.2239 10 20 9.77614 20 9.5C20 9.22386 20.2239 9 20.5 9Z" fill="#708AB9"/>
<path d="M21.5 9C21.7761 9 22 9.22386 22 9.5C22 9.77614 21.7761 10 21.5 10C21.2239 10 21 9.77614 21 9.5C21 9.22386 21.2239 9 21.5 9Z" fill="#708AB9"/>
<path d="M22.5 9C22.7761 9 23 9.22386 23 9.5C23 9.77614 22.7761 10 22.5 10C22.2239 10 22 9.77614 22 9.5C22 9.22386 22.2239 9 22.5 9Z" fill="#708AB9"/>
<path d="M23.5 9C23.7761 9 24 9.22386 24 9.5C24 9.77614 23.7761 10 23.5 10C23.2239 10 23 9.77614 23 9.5C23 9.22386 23.2239 9 23.5 9Z" fill="#708AB9"/>
</svg>
