<svg width="76" height="53" viewBox="0 0 76 53" fill="none" xmlns="http://www.w3.org/2000/svg">
<path d="M38.0178 52.5689C33.7592 52.5689 29.509 52.5689 25.2505 52.5689C21.9632 52.5689 21.7971 52.5689 21.739 49.3812C21.656 45.0646 21.3821 40.6649 22.0462 36.4396C23.4989 27.2667 31.327 22.1863 40.475 23.9545C49.1498 25.6314 54.089 31.4173 54.3297 40.2665C54.4211 43.587 54.3048 46.9241 54.4127 50.2446C54.4792 52.1041 53.7071 52.6353 51.939 52.6021C47.2986 52.5108 42.6582 52.5689 38.0095 52.5689H38.0178Z" fill="#708AB9"/>
<path d="M47.497 9.69518C47.4721 14.9001 43.338 19.2084 38.4071 19.1835C32.4302 19.1586 28.2464 15.1325 28.3128 9.47103C28.3792 4.16653 32.6377 -0.0172857 37.9422 -0.000683181C43.5705 0.0242206 47.5302 4.03373 47.5053 9.69518H47.497Z" fill="#708AB9"/>
<path d="M67.4715 52.5521C65.3132 52.5521 63.1465 52.5189 60.9882 52.5604C59.7679 52.5853 59.1204 52.1951 59.137 50.8503C59.1785 46.8325 59.1453 42.823 59.1702 38.8052C59.1785 37.2031 60.1083 36.5058 61.6357 36.3149C70.1943 35.2606 77.2753 42.574 75.8059 51.0911C75.7063 51.6473 74.7849 52.4276 74.1955 52.4691C71.9708 52.6351 69.7211 52.5355 67.4798 52.5355C67.4798 52.5355 67.4798 52.5438 67.4798 52.5521H67.4715Z" fill="#708AB9"/>
<path d="M8.49014 52.5543C6.33182 52.5543 4.14859 52.6954 2.01517 52.4713C1.31786 52.3965 0.246999 51.4336 0.147384 50.7612C-1.13931 41.9453 6.18239 35.0054 14.9402 36.7404C15.6541 36.8815 16.6835 37.9192 16.7084 38.5833C16.8744 42.6675 16.7831 46.7683 16.8163 50.8525C16.8246 52.1724 16.2103 52.6041 14.9734 52.5792C12.8151 52.5377 10.6485 52.5626 8.49014 52.5626V52.546V52.5543Z" fill="#708AB9"/>
<path d="M62.8237 32.5832C58.8142 32.5832 55.6265 29.2461 55.6348 25.0539C55.6348 20.7871 58.8889 17.3006 62.8984 17.2508C67.1237 17.201 70.7099 20.6543 70.7265 24.7966C70.7431 28.8891 66.9992 32.5832 62.8237 32.5832Z" fill="#708AB9"/>
<path d="M19.6801 25.138C19.6386 29.4214 16.4094 32.6091 12.1591 32.5842C7.97531 32.5593 4.66312 29.1558 4.77933 24.9968C4.89555 20.9458 8.69752 17.1771 12.5825 17.285C16.7497 17.3929 19.7299 20.6968 19.6884 25.138H19.6801Z" fill="#708AB9"/>
</svg>
