<svg width="36" height="36" viewBox="0 0 36 36" fill="none" xmlns="http://www.w3.org/2000/svg">
<g clip-path="url(#clip0_6035_3672)">
<mask id="mask0_6035_3672" style="mask-type:luminance" maskUnits="userSpaceOnUse" x="0" y="0" width="36" height="36">
<path d="M35.8879 0H0V36H35.8879V0Z" fill="white"/>
</mask>
<g mask="url(#mask0_6035_3672)">
<path fill-rule="evenodd" clip-rule="evenodd" d="M24.9191 20.3175H19.3565C19.3565 20.3175 19.2892 20.3175 19.2892 20.25L19.3789 16.4475C19.3789 16.4475 19.4238 16.3125 19.4686 16.3125H35.6406C35.8873 16.3125 35.9995 18.225 35.9995 16.7625L35.8873 30.7125C35.8873 30.825 35.8649 30.915 35.7976 30.9825C35.7527 31.05 35.6854 31.095 35.5957 31.095H26.8032C26.6686 31.095 26.6013 31.005 26.6013 30.8475L26.5565 28.7775C26.534 28.665 26.5116 28.6425 26.4443 28.6875C23.1247 31.05 19.5583 31.6125 15.835 31.4775C9.71161 31.23 1.906 29.7225 0.31348 20.5875C-0.0902583 18.3375 -0.0902583 15.8625 0.29105 13.185C1.70413 4.02746 9.66675 2.40746 15.678 2.27246C22.3172 2.11496 35.1696 1.84496 35.8425 13.995C35.8425 14.0625 35.82 14.13 35.7752 14.175C35.7752 14.22 35.7079 14.265 35.6406 14.265H25.435C25.435 14.265 25.3004 14.22 25.278 14.13C24.5602 11.7 22.4294 11.025 20.6574 10.8675C17.9434 10.62 14.0182 10.35 11.977 12.2625C9.7789 14.3325 9.75647 19.4175 12.0219 21.4425C13.4798 22.7475 15.3191 22.86 17.3378 22.9275H17.3602C19.6481 22.995 23.4163 23.1075 24.9864 20.4975C25.0761 20.385 25.0537 20.3175 24.9191 20.3175Z" fill="url(#paint0_linear_6035_3672)"/>
</g>
</g>
<defs>
<linearGradient id="paint0_linear_6035_3672" x1="-1.16689" y1="38.3625" x2="37.7283" y2="1.8086" gradientUnits="userSpaceOnUse">
<stop stop-color="#C08060"/>
<stop offset="0.1" stop-color="#C060A0"/>
<stop offset="0.9" stop-color="#FF2040"/>
<stop offset="1" stop-color="#FF8000"/>
</linearGradient>
<clipPath id="clip0_6035_3672">
<rect width="36" height="36" fill="white"/>
</clipPath>
</defs>
</svg>
