<svg width="36" height="36" viewBox="0 0 36 36" fill="none" xmlns="http://www.w3.org/2000/svg">
<g clip-path="url(#clip0_6035_3820)">
<path fill-rule="evenodd" clip-rule="evenodd" d="M17.0526 23.1334C17.0526 28.1491 14.3289 30.8571 8.17105 30.8571C4.83158 30.8571 2.06053 30.1271 0.355263 29.1381V23.2747C1.49211 24.2872 4.16842 25.7001 7.81579 25.7001C10.3974 25.7001 11.2974 24.8288 11.2974 23.4866C11.2974 18.8948 0 21.1789 0 12.5369C0 7.80373 2.65263 5.14282 8.88158 5.14282C11.7947 5.14282 14.4237 5.66088 15.9868 6.39086V12.2543C14.3289 11.0062 11.7237 10.2998 9.23684 10.2998C6.46579 10.2998 5.75526 11.0062 5.75526 12.1836C5.75526 16.4223 17.0526 14.1381 17.0526 23.1334Z" fill="url(#paint0_radial_6035_3820)"/>
<path fill-rule="evenodd" clip-rule="evenodd" d="M36.0014 29.4678C36.0014 29.4678 33.4909 30.8571 29.7725 30.8571C21.7672 30.8571 18.2383 27.3485 18.2383 17.8351C18.2383 8.86339 21.9567 5.14282 29.7725 5.14282C33.1356 5.14282 36.0014 6.39086 36.0014 6.39086V11.9011C34.6278 11.0533 32.7804 10.2998 29.962 10.2998C25.912 10.2998 23.9699 12.2307 23.9699 17.8351C23.9699 23.7927 25.912 25.7001 29.962 25.7001C32.7804 25.7001 34.8646 24.8053 36.0014 23.9576V29.4678Z" fill="url(#paint1_radial_6035_3820)"/>
</g>
<defs>
<radialGradient id="paint0_radial_6035_3820" cx="0" cy="0" r="1" gradientUnits="userSpaceOnUse" gradientTransform="translate(2.13545 17.9458) rotate(-51.3087) scale(26.315 11.8628)">
<stop stop-color="#517AE7"/>
<stop offset="0.25" stop-color="#6E3D96"/>
<stop offset="0.75" stop-color="#3E73D8"/>
<stop offset="1" stop-color="#44A5FF"/>
</radialGradient>
<radialGradient id="paint1_radial_6035_3820" cx="0" cy="0" r="1" gradientUnits="userSpaceOnUse" gradientTransform="translate(3085.64 2444.33) rotate(-51.3087) scale(26.315 11.8628)">
<stop stop-color="#517AE7"/>
<stop offset="0.25" stop-color="#6E3D96"/>
<stop offset="0.75" stop-color="#3E73D8"/>
<stop offset="1" stop-color="#44A5FF"/>
</radialGradient>
<clipPath id="clip0_6035_3820">
<rect width="36" height="36" fill="white"/>
</clipPath>
</defs>
</svg>
