<svg width="36" height="36" viewBox="0 0 36 36" fill="none" xmlns="http://www.w3.org/2000/svg">
<path d="M17.9985 1.72412C9.00961 1.72412 1.72266 9.01108 1.72266 18C1.72266 23.2996 4.25553 28.0076 8.17677 30.9795C10.9066 33.0484 14.3092 34.2759 17.9985 34.2759C21.6879 34.2759 25.0905 33.0484 27.8203 30.9795C31.7415 28.0076 34.2744 23.2996 34.2744 18C34.2744 9.01108 26.9875 1.72412 17.9985 1.72412Z" fill="#525EE1" stroke="#525EE1" stroke-width="1.5"/>
<path d="M18.0029 8.44043C22.5029 8.44057 26.1504 12.0889 26.1504 16.5889C26.1503 19.7668 24.3298 22.5171 21.6758 23.8604C24.9014 24.9904 27.4468 27.5656 28.5352 30.8096C28.5813 30.9473 28.6342 31.1169 28.6895 31.2881C28.5484 31.4022 28.4064 31.5153 28.2617 31.625C27.9889 31.8318 27.7073 32.0274 27.4219 32.2178C27.303 31.8866 27.1712 31.4587 27.1133 31.2861C25.8358 27.4785 22.2386 24.7364 18.0029 24.7363C13.7671 24.7363 10.169 27.4784 8.8916 31.2861V31.2871C8.81582 31.5125 8.69921 31.8758 8.58594 32.2197C8.29978 32.0289 8.01772 31.8323 7.74414 31.625C7.59829 31.5145 7.45462 31.4012 7.3125 31.2861C7.37682 31.0883 7.43763 30.9041 7.46973 30.8086C8.55798 27.5652 11.1033 24.9906 14.3281 23.8604C11.6747 22.5169 9.85461 19.7664 9.85449 16.5889C9.85449 12.0888 13.5028 8.44043 18.0029 8.44043ZM18.0029 9.94043C14.3313 9.94043 11.3545 12.9172 11.3545 16.5889C11.3547 20.1455 14.1478 23.0503 17.6602 23.2285L18.0029 23.2363L18.3447 23.2285C21.8573 23.0505 24.6502 20.1457 24.6504 16.5889C24.6504 12.9173 21.6745 9.94057 18.0029 9.94043Z" fill="white"/>
</svg>
