<svg width="36" height="35" viewBox="0 0 36 35" fill="none" xmlns="http://www.w3.org/2000/svg">
<path d="M17.9985 1.65332C9.00961 1.65332 1.72266 8.94028 1.72266 17.9292C1.72266 23.2288 4.25553 27.9368 8.17677 30.9087C10.9066 32.9776 14.3092 34.2051 17.9985 34.2051C21.6879 34.2051 25.0905 32.9776 27.8203 30.9087C31.7415 27.9368 34.2744 23.2288 34.2744 17.9292C34.2744 8.94028 26.9875 1.65332 17.9985 1.65332Z" fill="#D5E4F7" stroke="#D5E4F7" stroke-width="1.5"/>
<path d="M18.0029 8.36963C22.5029 8.36977 26.1504 12.0181 26.1504 16.5181C26.1503 19.696 24.3298 22.4463 21.6758 23.7896C24.9014 24.9196 27.4468 27.4948 28.5352 30.7388C28.5813 30.8765 28.6342 31.0461 28.6895 31.2173C28.5484 31.3314 28.4064 31.4445 28.2617 31.5542C27.9889 31.761 27.7073 31.9566 27.4219 32.147C27.303 31.8158 27.1712 31.3879 27.1133 31.2153C25.8358 27.4077 22.2386 24.6656 18.0029 24.6655C13.7671 24.6655 10.169 27.4076 8.8916 31.2153V31.2163C8.81582 31.4417 8.69921 31.805 8.58594 32.1489C8.29978 31.9581 8.01772 31.7615 7.74414 31.5542C7.59829 31.4437 7.45462 31.3304 7.3125 31.2153C7.37682 31.0175 7.43763 30.8333 7.46973 30.7378C8.55798 27.4944 11.1033 24.9198 14.3281 23.7896C11.6747 22.4461 9.85461 19.6956 9.85449 16.5181C9.85449 12.018 13.5028 8.36963 18.0029 8.36963ZM18.0029 9.86963C14.3313 9.86963 11.3545 12.8464 11.3545 16.5181C11.3547 20.0747 14.1478 22.9795 17.6602 23.1577L18.0029 23.1655L18.3447 23.1577C21.8573 22.9797 24.6502 20.0749 24.6504 16.5181C24.6504 12.8465 21.6745 9.86977 18.0029 9.86963Z" fill="#525EE1"/>
</svg>
