<svg width="173" height="24" viewBox="0 0 173 24" fill="none" xmlns="http://www.w3.org/2000/svg">
<rect x="103" y="0.5" width="70" height="23" rx="4" fill="#595FE3"/>
<path d="M7.12404 11.5761H14.7869C14.7869 12.9067 14.4809 14.1019 13.8689 15.1617C13.257 16.2097 12.3922 17.0281 11.2747 17.6168C10.1572 18.2056 8.8801 18.5 7.44332 18.5C5.28815 18.5 3.50548 17.8877 2.09531 16.663C0.698435 15.4384 0 13.8899 0 12.0177C0 10.1336 0.691783 8.57926 2.07535 7.35462C3.47222 6.11821 5.24824 5.5 7.40341 5.5C9.226 5.5 10.8158 5.95924 12.1727 6.87772C13.5297 7.7962 14.3545 8.97373 14.6472 10.4103H10.6162C10.3634 9.89221 9.94439 9.48007 9.35903 9.17391C8.78698 8.85598 8.14841 8.69701 7.44332 8.69701C6.39234 8.69701 5.54092 9.00317 4.88905 9.61549C4.25048 10.2278 3.93119 11.0285 3.93119 12.0177C3.93119 12.6535 4.07088 13.2246 4.35025 13.731C4.64293 14.2255 5.05534 14.6141 5.58748 14.8967C6.11962 15.1676 6.73824 15.303 7.44332 15.303C8.17502 15.303 8.82689 15.1617 9.39894 14.8791C9.9843 14.5847 10.3834 14.1961 10.5963 13.7133H7.12404V11.5761Z" fill="#363B49"/>
<path d="M16.9367 18.1821V5.81793H20.828V18.1821H16.9367Z" fill="#363B49"/>
<path d="M34.4187 5.81793V8.8913H30.6072V18.1821H26.7558V8.8913H22.9643V5.81793H34.4187Z" fill="#363B49"/>
<path d="M44.802 5.81793H49.1722L43.8242 18.1821H40.2522L34.7844 5.81793H39.1746L42.0282 13.5014L44.802 5.81793Z" fill="#363B49"/>
<path d="M54.4131 15.2323H59.6813V18.1821H50.5817V5.81793H59.5216V8.76766H54.4131V10.587H59.0028V13.3777H54.4131V15.2323Z" fill="#363B49"/>
<path d="M69.4071 18.1821L67.1322 14.4022H65.7553V18.1821H61.9039V5.81793H67.9504C68.9482 5.81793 69.8395 6.00045 70.6244 6.36549C71.4093 6.73053 72.0213 7.24864 72.4603 7.91984C72.9126 8.59103 73.1388 9.35054 73.1388 10.1984C73.1388 10.6929 73.0523 11.1639 72.8794 11.6114C72.7064 12.0471 72.4536 12.4416 72.1211 12.7948C71.7885 13.1481 71.3894 13.4425 70.9237 13.678L73.6975 18.1821H69.4071ZM65.7553 8.83832V11.5231H67.5114C68.0302 11.5231 68.4426 11.3995 68.7486 11.1522C69.0546 10.9049 69.2076 10.5811 69.2076 10.1807C69.2076 9.92165 69.1411 9.69203 69.008 9.49185C68.875 9.29167 68.6754 9.1327 68.4094 9.01495C68.1566 8.89719 67.8573 8.83832 67.5114 8.83832H65.7553Z" fill="#363B49"/>
<path d="M80.2993 18.4823C78.5698 18.4823 77.1996 18.1055 76.1885 17.3519C75.1774 16.5865 74.6719 15.5326 74.6719 14.1902H78.643C78.643 14.6141 78.796 14.938 79.102 15.1617C79.4213 15.3854 79.8137 15.4973 80.2793 15.4973C80.7051 15.4973 81.0709 15.4031 81.3769 15.2147C81.6962 15.0263 81.8558 14.7731 81.8558 14.4552C81.8558 14.3492 81.8425 14.2609 81.8159 14.1902C81.7893 14.1078 81.7361 14.0312 81.6563 13.9606C81.5897 13.8899 81.5232 13.8311 81.4567 13.784C81.3902 13.7251 81.2838 13.6721 81.1374 13.625C81.0044 13.5661 80.8913 13.5249 80.7982 13.5014C80.7051 13.466 80.5587 13.4248 80.3592 13.3777C80.1729 13.3306 80.0266 13.2953 79.9201 13.2717C79.827 13.2482 79.6674 13.2129 79.4412 13.1658C79.0421 13.0716 78.7428 13.0009 78.5432 12.9538C78.3437 12.9067 78.051 12.8243 77.6652 12.7065C77.2794 12.5888 76.9801 12.4769 76.7672 12.3709C76.5544 12.2532 76.3082 12.0942 76.0289 11.894C75.7495 11.6938 75.5366 11.4819 75.3903 11.2582C75.244 11.0344 75.1176 10.7577 75.0111 10.428C74.9047 10.0983 74.8515 9.73913 74.8515 9.35054C74.8515 8.14946 75.3171 7.21332 76.2484 6.54212C77.1929 5.85915 78.4967 5.51766 80.1596 5.51766C81.8225 5.51766 83.113 5.87681 84.0309 6.59511C84.9622 7.31341 85.4278 8.30254 85.4278 9.5625H81.5764C81.5764 9.18569 81.4367 8.90308 81.1574 8.71467C80.878 8.51449 80.5321 8.4144 80.1197 8.4144C79.7472 8.4144 79.4279 8.48505 79.1618 8.62636C78.8958 8.76766 78.7627 8.97962 78.7627 9.26223C78.7627 9.36821 78.7893 9.4683 78.8426 9.5625C78.8958 9.6567 78.9822 9.74502 79.102 9.82745C79.2217 9.8981 79.3348 9.96286 79.4412 10.0217C79.561 10.0688 79.7272 10.1277 79.9401 10.1984C80.1663 10.2572 80.3459 10.3043 80.4789 10.3397C80.6252 10.375 80.8447 10.4221 81.1374 10.481C81.5365 10.5752 81.8425 10.6517 82.0554 10.7106C82.2682 10.7577 82.5676 10.846 82.9534 10.9755C83.3525 11.0933 83.6584 11.2111 83.8713 11.3288C84.0975 11.4466 84.3569 11.6055 84.6495 11.8057C84.9422 12.0059 85.1617 12.2237 85.3081 12.4592C85.4677 12.6947 85.6007 12.9774 85.7072 13.3071C85.8269 13.6368 85.8868 13.9959 85.8868 14.3845C85.8868 15.6916 85.3746 16.7043 84.3502 17.4226C83.3258 18.1291 81.9755 18.4823 80.2993 18.4823Z" fill="#363B49"/>
<path d="M91.7318 15.2323H97V18.1821H87.9004V5.81793H96.8404V8.76766H91.7318V10.587H96.3215V13.3777H91.7318V15.2323Z" fill="#363B49"/>
<path d="M119.904 11.6467C120.576 11.9293 121.1 12.3356 121.476 12.8655C121.865 13.3954 122.06 13.9959 122.06 14.6671C122.06 15.668 121.623 16.5041 120.75 17.1753C119.878 17.8465 118.79 18.1821 117.487 18.1821H111V5.81793H117.366C118.185 5.81793 118.924 5.95335 119.582 6.22418C120.24 6.49502 120.757 6.87183 121.133 7.35462C121.509 7.83741 121.697 8.37908 121.697 8.97962C121.697 9.52129 121.536 10.0335 121.214 10.5163C120.892 10.9873 120.455 11.3641 119.904 11.6467ZM118.011 9.54484C118.011 9.2269 117.89 8.96784 117.648 8.76766C117.406 8.56748 117.084 8.46739 116.681 8.46739H114.727V10.6223H116.681C116.95 10.6223 117.185 10.5811 117.386 10.4986C117.588 10.4044 117.742 10.2749 117.85 10.1101C117.957 9.9452 118.011 9.75679 118.011 9.54484ZM116.842 15.3913C117.259 15.3913 117.594 15.2853 117.85 15.0734C118.105 14.8614 118.232 14.5906 118.232 14.2609C118.232 13.9312 118.105 13.6603 117.85 13.4484C117.594 13.2364 117.259 13.1304 116.842 13.1304H114.727V15.3913H116.842Z" fill="white"/>
<path d="M128.252 15.0557H133.268V18.1821H124.324V5.81793H128.252V15.0557Z" fill="white"/>
<path d="M141.865 18.5C139.595 18.5 137.728 17.8936 136.264 16.6807C134.814 15.4561 134.089 13.8958 134.089 12C134.089 10.1042 134.814 8.54982 136.264 7.33696C137.728 6.11232 139.595 5.5 141.865 5.5C144.121 5.5 145.975 6.11232 147.425 7.33696C148.876 8.54982 149.601 10.1042 149.601 12C149.601 13.8958 148.876 15.4561 147.425 16.6807C145.975 17.8936 144.121 18.5 141.865 18.5ZM139.186 14.3845C139.897 15.0086 140.79 15.3207 141.865 15.3207C142.939 15.3207 143.819 15.0086 144.504 14.3845C145.202 13.7604 145.552 12.9656 145.552 12C145.552 11.0344 145.202 10.2396 144.504 9.61549C143.819 8.99139 142.939 8.67935 141.865 8.67935C140.79 8.67935 139.897 8.99139 139.186 9.61549C138.487 10.2396 138.138 11.0344 138.138 12C138.138 12.9656 138.487 13.7604 139.186 14.3845Z" fill="white"/>
<path d="M158.264 11.5761H166C166 12.9067 165.691 14.1019 165.073 15.1617C164.455 16.2097 163.583 17.0281 162.454 17.6168C161.326 18.2056 160.037 18.5 158.586 18.5C156.411 18.5 154.611 17.8877 153.187 16.663C151.777 15.4384 151.072 13.8899 151.072 12.0177C151.072 10.1336 151.77 8.57926 153.167 7.35462C154.577 6.11821 156.37 5.5 158.546 5.5C160.386 5.5 161.991 5.95924 163.361 6.87772C164.731 7.7962 165.564 8.97373 165.859 10.4103H161.79C161.534 9.89221 161.111 9.48007 160.52 9.17391C159.943 8.85598 159.298 8.69701 158.586 8.69701C157.525 8.69701 156.666 9.00317 156.008 9.61549C155.363 10.2278 155.041 11.0285 155.041 12.0177C155.041 12.6535 155.182 13.2246 155.464 13.731C155.759 14.2255 156.176 14.6141 156.713 14.8967C157.25 15.1676 157.875 15.303 158.586 15.303C159.325 15.303 159.983 15.1617 160.561 14.8791C161.152 14.5847 161.555 14.1961 161.769 13.7133H158.264V11.5761Z" fill="white"/>
</svg>
