<svg width="872" height="320" viewBox="0 0 872 320" fill="none" xmlns="http://www.w3.org/2000/svg">
<g clip-path="url(#clip0_4021_31220)">
<g opacity="0.8">
<path d="M221.513 277.954C228.645 277.868 234.297 272.394 234.222 265.646C234.142 258.491 228.725 252.954 221.857 253C214.714 253.052 209.01 258.732 209.125 265.681C209.24 272.566 214.76 278.034 221.513 277.948V277.954Z" fill="#C0CAD6"/>
<path d="M803.152 211.43C802.653 204.774 799.503 199.438 792.997 196.558C786.714 193.775 780.706 194.756 775.531 199.22C773.896 200.631 772.943 202.846 771.715 204.711C771.067 205.698 771.48 206.358 772.398 206.977C779.456 211.745 786.823 215.945 794.729 219.158C795.963 219.658 797.214 220.134 798.396 220.736C799.526 221.316 800.186 220.92 800.794 219.967C802.383 217.471 802.974 214.7 803.152 211.43Z" fill="#C0CAD6"/>
<path d="M804.728 214.323C803.839 215.998 803.764 217.169 805.244 218.305C806.702 219.418 808.004 220.755 809.238 222.12C809.789 222.734 810.007 223.647 810.374 224.427C809.507 224.553 808.572 224.949 807.78 224.765C804.694 224.048 801.595 223.302 798.6 222.281C787.016 218.316 776.407 212.51 766.767 204.953C765.562 204.006 764.438 202.951 763.348 201.872C763.032 201.556 762.957 200.994 762.774 200.547C763.233 200.403 763.703 200.093 764.139 200.139C765.304 200.271 766.469 200.495 767.605 200.788C769.889 201.373 770.061 201.327 771.403 199.072C771.162 198.923 770.939 198.693 770.675 198.63C768.19 198.016 765.712 197.374 763.21 196.863C762.384 196.691 761.466 196.76 760.622 196.909C758.189 197.339 757.421 198.997 758.832 201.034C759.813 202.452 761.041 203.725 762.298 204.913C767.014 209.377 772.333 213.015 777.99 216.17C786.786 221.076 795.863 225.333 805.789 227.456C807.528 227.829 809.335 228.099 811.108 228.065C814.052 228.007 815.171 225.798 813.604 223.32C811.332 219.728 808.326 216.853 804.728 214.334V214.323Z" fill="#C0CAD6"/>
<path d="M794.391 226.632C786.197 222.351 778.073 218.1 769.982 213.871C768.944 217.532 772.754 223.832 777.964 226.752C783.483 229.845 791.516 229.759 794.385 226.632H794.391Z" fill="#C0CAD6"/>
<path d="M758.094 261.825C757.136 261.566 756.195 261.222 755.219 261.073C753.676 260.832 752.872 260.08 752.769 258.468C752.683 257.148 752.396 255.834 752.155 254.526C752.058 254.01 751.857 253.511 751.702 253C751.559 253 751.421 253 751.277 253.006C751.14 253.499 750.979 253.993 750.864 254.492C750.761 254.939 750.64 255.398 750.635 255.852C750.623 258.99 749.688 261.343 746.022 261.515C745.677 261.532 745.35 261.848 745 262.444C745.941 262.731 746.865 263.104 747.823 263.288C749.395 263.58 750.216 264.378 750.359 266.036C750.497 267.637 750.887 269.22 751.524 270.85C751.69 270.586 751.926 270.339 752.012 270.052C752.161 269.565 752.287 269.054 752.304 268.549C752.419 265.382 753.423 262.989 757.101 262.771C757.44 262.748 757.761 262.427 758.088 262.243C758.088 262.106 758.088 261.962 758.088 261.825H758.094Z" fill="#C0CAD6"/>
<path d="M554.066 31.1302C555.11 31.4573 556.149 31.836 557.21 32.0884C558.185 32.3237 558.702 32.8401 558.817 33.8556C558.96 35.0778 559.178 36.2884 559.419 37.4934C559.528 38.0556 559.763 38.5893 559.947 39.1401C560.136 39.1401 560.326 39.1401 560.515 39.1343C560.75 37.763 561.163 36.3917 561.181 35.0204C561.209 33.0524 562.167 32.163 563.963 31.8188C564.726 31.6696 565.449 31.3253 566.19 31.0671C566.19 30.9065 566.19 30.7458 566.195 30.5852C565.3 30.3327 564.417 29.9999 563.504 29.8507C562.058 29.6097 561.404 28.795 561.267 27.3778C561.152 26.2073 560.917 25.0483 560.693 23.8893C560.601 23.4302 560.406 22.9884 560.257 22.5352H559.74C559.511 23.8032 559.253 25.0655 559.063 26.3393C558.627 29.2483 558.639 29.2425 555.776 30.0114C555.202 30.1663 554.651 30.4015 554.089 30.6024C554.077 30.7802 554.072 30.9581 554.06 31.136L554.066 31.1302Z" fill="#C0CAD6"/>
<path d="M724.132 45.5951C725.176 45.9221 726.215 46.3008 727.276 46.5533C728.252 46.7885 728.768 47.3049 728.883 48.3205C729.026 49.5426 729.245 50.7533 729.485 51.9582C729.595 52.5205 729.83 53.0541 730.013 53.6049C730.203 53.6049 730.392 53.6049 730.581 53.5992C730.817 52.2279 731.23 50.8566 731.247 49.4852C731.276 47.5172 732.234 46.6279 734.03 46.2836C734.793 46.1344 735.516 45.7902 736.256 45.532C736.256 45.3713 736.256 45.2107 736.262 45.05C735.367 44.7975 734.483 44.4648 733.571 44.3156C732.125 44.0746 731.471 43.2598 731.333 41.8426C731.218 40.6721 730.983 39.5131 730.759 38.3541C730.667 37.8951 730.472 37.4533 730.323 37H729.807C729.577 38.268 729.319 39.5303 729.13 40.8041C728.694 43.7131 728.705 43.7074 725.842 44.4762C725.268 44.6311 724.717 44.8664 724.155 45.0672C724.144 45.2451 724.138 45.423 724.126 45.6008L724.132 45.5951Z" fill="#C0CAD6"/>
<path d="M361.036 84.2511C362.476 84.7043 363.463 85.0601 364.478 85.3183C365.505 85.5765 366.005 86.1732 366.148 87.2289C366.372 88.8699 366.704 90.4937 366.997 92.1289C367.146 92.1404 367.29 92.1461 367.439 92.1576C367.594 91.8306 367.812 91.515 367.892 91.1707C368.064 90.4248 368.271 89.6617 368.271 88.9101C368.271 86.4945 369.355 85.106 371.817 84.8248C372.327 84.7675 372.804 84.4576 373.297 84.2625C373.297 84.1019 373.309 83.9355 373.309 83.7748C372.425 83.5166 371.553 83.1724 370.652 83.0289C369.189 82.7994 368.604 81.956 368.437 80.5617C368.265 79.0642 367.944 77.5781 367.686 76.0863C367.548 76.0634 367.41 76.0404 367.273 76.0117C367.1 76.3158 366.882 76.6027 366.773 76.924C366.647 77.3084 366.561 77.7216 366.561 78.1289C366.527 81.1355 365.609 83.4019 362.109 83.5855C361.902 83.597 361.701 83.8265 361.036 84.2511Z" fill="#C0CAD6"/>
<path d="M124.626 265C123.645 267.806 122.417 270.032 119.123 270.571C122.29 271.093 123.731 273.004 124.522 275.879C125.4 273.044 126.927 271.082 130.094 270.548C126.858 269.975 125.222 268.139 124.626 265Z" fill="#C0CAD6"/>
<path d="M736.543 136.827C736.824 135.657 736.818 134.274 737.472 133.373C738.103 132.501 739.417 132.122 740.484 131.497C739.446 130.871 738.115 130.464 737.472 129.563C736.801 128.628 736.795 127.216 736.502 126.011C736.342 126.011 736.181 126.006 736.026 126C735.739 127.205 735.745 128.616 735.079 129.546C734.431 130.452 733.1 130.871 732.125 131.474C733.111 132.07 734.448 132.484 735.12 133.39C735.768 134.274 735.734 135.662 735.997 136.827C736.181 136.827 736.365 136.827 736.548 136.827H736.543Z" fill="#C0CAD6"/>
<path d="M681.049 76C680.418 78.0369 679.569 79.7008 677.125 80.0967C679.483 80.573 680.378 82.1967 681.026 84.1992C682.042 82.4434 682.518 80.3205 685.215 80.1656C682.662 79.7582 681.904 77.9221 681.049 76Z" fill="#C0CAD6"/>
<path d="M619.484 31.524C619.501 32.9125 620.66 33.9855 622.112 33.9568C623.529 33.9338 624.677 32.7805 624.648 31.415C624.613 30.0207 623.466 28.8789 622.095 28.8789C620.62 28.8789 619.473 30.0437 619.49 31.524H619.484Z" fill="#C0CAD6"/>
<path d="M271.48 41.3721C268.956 40.8787 268.439 38.991 267.843 37C267.039 38.859 266.598 40.8959 263.998 41.2746C266.248 41.8024 267.143 43.2713 267.562 45.3139C268.566 43.7074 268.899 41.5787 271.475 41.3721H271.48Z" fill="#C0CAD6"/>
<path d="M163.58 178.953C164.848 178.982 166.052 177.834 166.104 176.543C166.15 175.258 165.025 174.053 163.734 174.002C162.369 173.95 161.118 175.132 161.124 176.469C161.124 177.754 162.277 178.913 163.585 178.948L163.58 178.953Z" fill="#C0CAD6"/>
<path d="M125.68 107.318C123.792 107.1 123.144 105.355 122.283 103.227C121.612 105.315 121.101 106.962 119.121 107.254C120.332 108.448 121.428 109.515 122.403 110.479C123.356 109.561 124.486 108.465 125.68 107.312V107.318Z" fill="#C0CAD6"/>
<path d="M685.002 265.347C685.002 266.684 686.097 267.757 687.469 267.74C688.806 267.722 689.758 266.759 689.781 265.393C689.798 264.022 688.743 262.977 687.343 263C686.046 263.018 685.007 264.062 685.002 265.347Z" fill="#C0CAD6"/>
<path d="M270.27 284.005C268.928 284.103 268.044 285.141 268.13 286.513C268.222 287.873 269.157 288.716 270.46 288.601C271.802 288.481 272.732 287.431 272.651 286.117C272.577 284.889 271.481 283.919 270.27 284.005Z" fill="#C0CAD6"/>
<path d="M316.999 257.147C317.01 258.363 317.94 259.27 319.162 259.264C320.361 259.253 321.188 258.426 321.188 257.221C321.188 255.953 320.195 254.966 318.944 255.001C317.808 255.035 316.993 255.936 316.999 257.147Z" fill="#C0CAD6"/>
<path d="M413.512 23.9049C413.299 22.2983 412.772 21.5237 411.59 21.5811C410.522 21.6327 409.897 22.3614 409.897 23.3999C409.897 24.5303 410.62 25.3393 411.733 25.1385C412.45 25.0122 413.053 24.2434 413.512 23.9049Z" fill="#C0CAD6"/>
<path d="M830.463 190.006C829.964 190.66 829.184 191.257 829.035 191.98C828.822 193.035 829.626 193.701 830.699 193.684C831.76 193.666 832.54 192.984 832.397 191.945C832.3 191.257 831.594 190.66 831.158 190.017C830.928 190.017 830.693 190.006 830.463 190V190.006Z" fill="#C0CAD6"/>
<path d="M521.847 23.8307C522.277 23.2627 523.132 22.6086 523.04 22.1381C522.914 21.4782 522.088 20.9504 521.56 20.3594C521.02 20.8528 520.085 21.3176 520.039 21.8569C519.982 22.4651 520.722 23.1422 521.118 23.7905C521.359 23.802 521.606 23.8135 521.847 23.8249V23.8307Z" fill="#C0CAD6"/>
<path d="M703.011 141.872C703.625 142.263 704.262 142.968 704.853 142.94C705.369 142.911 706.127 142.108 706.259 141.528C706.46 140.616 705.748 139.87 704.807 140.019C704.159 140.122 703.597 140.765 703 141.167C703 141.402 703.011 141.637 703.011 141.878V141.872Z" fill="#C0CAD6"/>
<path d="M722.651 212.368C721.646 211.685 721.044 210.956 720.522 211.002C719.977 211.054 719.506 211.863 719.001 212.339C719.529 212.855 719.994 213.67 720.602 213.791C721.05 213.882 721.681 213.079 722.656 212.368H722.651Z" fill="#C0CAD6"/>
<path d="M677.126 181.406C678.021 181.899 678.601 182.484 679.031 182.387C679.485 182.284 680.11 181.492 680.064 181.073C680.018 180.643 679.232 179.994 678.779 180C678.331 180 677.895 180.712 677.126 181.412V181.406Z" fill="#C0CAD6"/>
<path d="M17.07 263.804C17.9593 264.412 18.4872 265.054 18.9347 264.997C19.4224 264.94 19.8355 264.24 20.2773 263.821C19.8355 263.408 19.4339 262.713 18.9462 262.656C18.4987 262.599 17.9651 263.218 17.07 263.804Z" fill="#C0CAD6"/>
<path d="M223.127 116.348C224.05 116.859 224.59 117.398 225.06 117.341C225.468 117.295 226.133 116.503 226.07 116.159C225.984 115.689 225.318 115.006 224.888 115C224.435 114.989 223.97 115.666 223.127 116.348Z" fill="#C0CAD6"/>
<path d="M634.749 143.18C634.164 144.023 633.579 144.499 633.579 144.97C633.579 145.366 634.262 145.762 634.646 146.158C635.071 145.744 635.725 145.383 635.84 144.895C635.926 144.54 635.306 144.012 634.749 143.18Z" fill="#C0CAD6"/>
<path d="M681.001 43.9647C681.781 44.5442 682.24 45.1352 682.573 45.0721C683.026 44.986 683.387 44.4008 683.789 44.0336C683.445 43.6663 683.112 43.018 682.751 43.0008C682.309 42.9778 681.833 43.477 681.006 43.9704L681.001 43.9647Z" fill="#C0CAD6"/>
<path d="M530.769 33.8328C531.607 34.2804 532.1 34.7566 532.536 34.7049C532.898 34.6648 533.19 34.0049 533.512 33.6205C533.093 33.282 532.703 32.7312 532.249 32.6738C531.917 32.6336 531.498 33.2304 530.769 33.8328Z" fill="#C0CAD6"/>
<path d="M823.885 61.5016C824.378 60.8648 824.935 60.4574 824.918 60.0902C824.895 59.7115 824.309 59.3615 823.971 59C823.627 59.3672 823.104 59.6885 823.007 60.1131C822.938 60.4115 823.443 60.8475 823.885 61.5074V61.5016Z" fill="#C0CAD6"/>
<path d="M814.001 120.03C814.627 120.426 815.034 120.89 815.372 120.844C815.74 120.793 816.032 120.265 816.359 119.938C815.998 119.605 815.671 119.066 815.269 119.003C814.977 118.957 814.581 119.53 814.001 120.03Z" fill="#C0CAD6"/>
<path d="M550.809 112.92C550.425 113.562 550.012 113.953 550.035 114.314C550.052 114.607 550.672 115.129 550.907 115.071C551.286 114.98 551.791 114.509 551.819 114.159C551.848 113.849 551.303 113.494 550.809 112.914V112.92Z" fill="#C0CAD6"/>
<path d="M71.2762 219.152C70.8344 219.749 70.3812 220.099 70.3582 220.466C70.341 220.747 70.9664 221.356 71.1557 221.298C71.5401 221.183 71.982 220.77 72.091 220.392C72.1598 220.145 71.6836 219.743 71.2762 219.152Z" fill="#C0CAD6"/>
<path d="M217.053 165.006C216.594 165.551 216.123 165.866 216.123 166.176C216.123 166.486 216.6 166.796 216.864 167.1C217.173 166.83 217.667 166.595 217.736 166.268C217.799 165.981 217.391 165.591 217.053 165V165.006Z" fill="#C0CAD6"/>
<path d="M268.289 226.733C267.675 226.366 267.296 225.953 266.992 226.004C266.665 226.062 266.413 226.549 266.126 226.848C266.43 227.123 266.728 227.605 267.044 227.617C267.36 227.634 267.698 227.181 268.289 226.739V226.733Z" fill="#C0CAD6"/>
<path d="M385.977 75.4601C386.551 75.8503 386.97 76.3323 387.216 76.2577C387.584 76.1487 387.825 75.638 388.117 75.2938C387.79 75.0413 387.469 74.5995 387.136 74.5938C386.82 74.5938 386.505 75.0413 385.977 75.4601Z" fill="#C0CAD6"/>
<path d="M160.025 219.152C160.375 218.52 160.771 218.125 160.708 217.826C160.639 217.505 160.146 217.275 159.842 217C159.584 217.316 159.125 217.625 159.125 217.941C159.125 218.257 159.572 218.572 160.025 219.146V219.152Z" fill="#C0CAD6"/>
<path d="M630.318 52.4964C630.915 52.8751 631.282 53.2882 631.575 53.2423C631.89 53.1906 632.137 52.7087 632.418 52.4103C632.12 52.1349 631.833 51.6644 631.517 51.6415C631.219 51.6185 630.88 52.0718 630.318 52.4964Z" fill="#C0CAD6"/>
<path d="M313.901 59C313.511 59.5852 313.132 59.918 313.127 60.2508C313.127 60.509 313.591 60.773 313.855 61.0369C314.136 60.7385 314.555 60.4803 314.647 60.1361C314.704 59.9066 314.286 59.5566 313.901 59.0057V59Z" fill="#C0CAD6"/>
<path d="M352.632 21.0982C353.171 21.4482 353.504 21.8269 353.762 21.7867C354.044 21.7408 354.451 21.2933 354.445 21.0293C354.44 20.7769 353.992 20.3637 353.711 20.3408C353.447 20.3178 353.149 20.7137 352.638 21.0982H352.632Z" fill="#C0CAD6"/>
<path d="M415.274 64.8385C415.75 65.5729 415.951 66.25 416.347 66.3934C416.725 66.5311 417.402 66.2213 417.775 65.9057C418.711 65.1139 419.141 63.1803 418.573 62.4287C418.343 62.1246 417.563 61.8033 417.5 61.8836C416.72 62.8131 416.02 63.8115 415.268 64.8443L415.274 64.8385Z" fill="#C0CAD6"/>
<path d="M501.21 254.774C501.205 255.893 502.117 256.88 503.19 256.914C504.343 256.954 505.273 256.099 505.319 254.963C505.365 253.781 504.435 252.766 503.27 252.731C502.197 252.697 501.216 253.672 501.21 254.774Z" fill="#C0CAD6"/>
<path d="M439.413 296.348C440.039 296.796 440.624 297.519 441.301 297.628C442.328 297.794 443.057 297.071 443.074 295.976C443.086 294.885 442.34 294.117 441.353 294.254C440.647 294.352 440.039 295.155 439.39 295.637C439.396 295.872 439.408 296.108 439.413 296.343V296.348Z" fill="#C0CAD6"/>
<path d="M390.335 127.456C391.167 128.006 391.666 128.592 392.05 128.523C392.481 128.442 393.009 127.823 393.106 127.358C393.163 127.094 392.458 126.371 392.096 126.371C391.637 126.371 391.184 126.899 390.329 127.456H390.335Z" fill="#C0CAD6"/>
<path d="M795.988 160.634C796.511 159.916 797.107 159.44 797.033 159.125C796.929 158.689 796.316 158.367 795.925 158C795.593 158.384 795.042 158.746 795.002 159.159C794.967 159.526 795.501 159.951 795.988 160.634Z" fill="#C0CAD6"/>
<path d="M829.001 273.063C829.712 273.534 830.16 274.05 830.521 274.004C830.912 273.953 831.537 273.333 831.503 273.018C831.462 272.627 830.883 272.048 830.487 272.002C830.125 271.962 829.701 272.536 829.001 273.063Z" fill="#C0CAD6"/>
<path d="M406.607 142.778C407.02 142.147 407.496 141.739 407.45 141.401C407.398 141.033 406.871 140.735 406.543 140.402C406.216 140.735 405.654 141.051 405.637 141.401C405.614 141.756 406.13 142.141 406.607 142.778Z" fill="#C0CAD6"/>
<path d="M508.107 299.993C508.715 300.463 509.094 300.98 509.438 300.957C509.799 300.934 510.126 300.394 510.465 300.085C510.155 299.752 509.868 299.19 509.524 299.144C509.174 299.098 508.761 299.574 508.107 299.987V299.993Z" fill="#C0CAD6"/>
<path d="M316.142 171C315.637 171.62 315.098 171.993 315.127 172.314C315.155 172.675 315.66 173.129 316.05 173.261C316.245 173.324 316.888 172.773 316.905 172.469C316.928 172.09 316.527 171.683 316.142 171Z" fill="#C0CAD6"/>
<path d="M422.614 288.615C422.981 288.099 423.4 287.755 423.342 287.531C423.256 287.204 422.832 286.963 422.556 286.688C422.321 286.963 421.925 287.221 421.908 287.508C421.891 287.789 422.264 288.088 422.619 288.61L422.614 288.615Z" fill="#C0CAD6"/>
<path d="M264.126 118.489C267.339 123.43 277.34 128.169 286.508 122.856C295.253 117.789 298.747 105.895 294.025 97.2599C289.481 88.9575 280.162 86.3984 274.058 88.9402C282.94 94.1214 287.294 101.362 282.578 111.283C278.986 118.839 272.164 120.509 264.126 118.495V118.489Z" fill="#C0CAD6"/>
</g>
<path opacity="0.45" d="M607.649 482.209C599.788 486.194 591.401 489.776 582.608 492.9C570.696 497.129 558.014 500.495 544.724 502.919C529.205 505.747 512.876 507.228 496.02 507.228C488.281 507.228 480.664 506.905 473.208 506.286C410.729 501.169 357.892 475.26 330.907 439.306C320.372 425.302 313.768 409.789 312.025 393.388C311.701 390.479 311.539 387.543 311.539 384.608C311.539 366.106 317.698 348.573 328.719 332.845C338.565 318.787 352.341 306.183 369.035 295.652C317.576 458.778 506.839 481.374 607.649 482.209Z" fill="url(#paint0_linear_4021_31220)"/>
<path d="M680.458 384.609C680.458 391.772 679.526 398.802 677.743 405.615C676.771 409.278 675.596 412.887 674.177 416.442C667.776 317.818 567.289 261.746 422.273 272.168C444.842 265.624 469.802 261.988 495.977 261.988C575.515 261.988 643.302 295.438 669.194 342.353C675.636 354.041 679.485 366.537 680.296 379.599C680.417 381.242 680.458 382.912 680.458 384.609Z" fill="url(#paint1_linear_4021_31220)"/>
<path d="M680.461 384.609C680.461 391.772 679.529 398.802 677.746 405.615C676.774 409.278 675.599 412.887 674.18 416.442C666.32 435.94 651.409 453.5 631.393 467.881C624.14 473.106 616.198 477.9 607.649 482.209C599.788 486.195 591.401 489.777 582.608 492.901C570.696 497.129 558.014 500.496 544.724 502.92C529.205 505.748 512.876 507.229 496.02 507.229C488.281 507.229 480.664 506.906 473.208 506.286C410.729 501.169 357.892 475.261 330.907 439.307C320.372 425.302 313.768 409.79 312.025 393.388C311.701 390.48 311.539 387.544 311.539 384.609C311.539 366.106 317.698 348.574 328.719 332.846C338.565 318.787 352.341 306.183 369.035 295.653C384.473 285.904 402.463 277.905 422.276 272.168C444.845 265.624 469.805 261.988 495.98 261.988C575.518 261.988 643.305 295.438 669.197 342.353C675.639 354.041 679.488 366.537 680.299 379.599C680.42 381.242 680.461 382.912 680.461 384.609Z" fill="url(#paint2_radial_4021_31220)"/>
<g opacity="0.9">
<path d="M554.268 160.618C553.083 160.115 551.898 159.617 550.604 159.07C551.694 164.162 552.67 169.285 551.027 174.537C550.116 173.352 549.235 172.207 548.125 170.763C546.701 179.659 544.516 187.893 537.343 194.05C537.248 192.637 537.168 191.452 537.059 189.884C533.798 195.454 530.154 200.283 525.43 204.275C527.491 204.683 535.008 200.606 540.26 196.36C544.835 192.662 547.772 187.863 550.067 182.412C550.684 185.01 551.316 187.609 551.913 190.212C552.172 191.337 552.307 192.497 552.6 193.612C552.829 194.488 552.894 195.24 551.874 195.708C553.462 199.531 555.602 202.946 557.982 206.212C561.815 211.469 565.951 216.521 569.541 221.932C577.575 234.049 581.558 247.48 581.453 262.035C581.418 267.023 580.642 271.932 578.621 276.576C578.446 276.974 578.571 277.681 578.825 278.065C581.254 281.758 580.975 283.082 577.057 284.979C573.045 286.916 568.988 288.762 564.926 290.579C562.661 291.59 561.635 290.968 561.695 288.444C561.73 286.831 562.253 285.233 562.556 283.64C560.61 283.461 558.908 287.408 559.674 291.286C558.24 291.132 556.852 291.117 555.532 290.803C554.318 290.515 554.059 289.26 554.258 288.304C554.592 286.706 555.264 285.178 555.856 283.645C556.01 283.247 556.379 282.928 556.677 282.535C554.432 281.878 552.272 285.118 551.918 289.449C550.057 288.912 549.32 287.448 549.843 285.338C550.843 281.305 554.153 278.667 558.574 278.757C562.372 278.836 566.165 279.244 569.959 279.513C570.362 279.543 570.77 279.573 571.173 279.608C571.318 279.439 571.457 279.274 571.601 279.105C571.263 278.976 570.88 278.906 570.596 278.702C568.047 276.86 565.085 276.128 562.113 275.367C561.317 275.162 560.446 274.769 559.883 274.197C556.473 270.707 554.522 266.426 553.511 261.712C551.998 254.688 552.292 247.758 555.015 241.063C556.428 237.593 558.634 234.746 562.616 233.959C565.12 233.461 567.505 233.959 569.775 235.079C570.223 235.303 570.661 235.547 571.198 235.672C570.237 233.362 568.545 231.799 566.185 231.032C561.904 229.648 557.28 231.321 554.253 235.293C551.804 238.504 550.435 242.203 549.753 246.121C547.901 256.714 546.194 267.332 544.357 277.925C543.734 281.524 543.057 285.133 542.122 288.663C541.191 292.182 538.941 294.427 535.078 294.816C533.878 294.935 533.455 294.497 533.549 293.516C533.699 291.963 534.012 290.425 534.291 288.882C534.376 288.419 534.57 287.971 534.754 287.383C532.39 288.185 530.986 291.336 531.195 295.169C530.264 295.04 529.333 295.03 528.472 294.771C527.183 294.383 527.183 293.387 527.546 292.287C529.024 287.797 530.488 283.297 531.951 278.801C537.373 262.145 542.799 245.488 548.2 228.822C549.758 224.013 547.01 220.862 541.972 221.425C533.619 222.36 525.251 223.177 516.893 224.063C510.292 224.765 503.696 225.487 497.1 226.218C494.656 226.492 494.591 226.537 493.86 224.182C493.252 222.246 492.824 220.255 492.137 218.219C491.829 220.663 491.515 223.112 491.201 225.601C489.275 221.509 489.125 217.188 489.598 212.778C490.066 208.392 491.241 204.186 492.894 199.82C491.639 200.741 490.614 201.493 489.359 202.413C490.295 199.332 491.256 196.559 491.963 193.727C492.68 190.854 493.138 187.917 493.67 185.229C495.547 185.956 497.449 186.902 499.465 187.425C502.138 188.122 504.896 187.713 507.4 186.713C510.655 185.409 513.752 183.711 516.908 182.163C517.192 182.023 517.426 181.775 517.665 181.556C517.754 181.471 517.779 181.322 517.943 180.978C515.808 181.446 513.856 181.924 511.88 182.292C506.768 183.243 501.615 183.751 496.647 181.804C494.935 181.137 493.431 179.833 491.978 178.643C491.082 177.907 491.316 176.816 492.426 176.503C493.337 176.249 494.586 176.12 495.328 176.553C499.973 179.281 504.806 179.4 509.685 177.648C512.497 176.637 515.146 175.149 517.804 173.745C518.585 173.332 519.213 172.545 519.765 171.819C520.323 171.082 520.348 170.25 519.501 169.608C518.69 168.991 518.103 169.449 517.411 169.947C515.126 171.594 512.92 173.436 510.426 174.691C506.374 176.727 502.083 176.936 497.991 174.661C496.921 174.064 496.12 172.939 495.303 171.963C494.701 171.241 494.905 170.698 495.866 170.295C497.966 169.424 499.729 168.085 500.918 166.084C503.019 162.549 501.75 159.423 497.782 158.383C495.134 157.686 492.525 157.81 490.036 159.005C487.602 160.175 486.846 161.852 487.413 164.476C487.916 166.796 489.19 168.568 491.286 169.648C492.486 170.265 492.71 171.216 492.461 172.316C492.122 173.8 491.042 174.656 489.623 175.109C488.314 175.527 487.533 174.78 486.761 173.904C483.351 170.011 483.022 165.357 483.416 160.518C483.62 158.024 484.62 155.814 485.591 153.529C486.836 150.607 487.776 147.526 488.518 144.434C491.226 133.154 502.442 123.925 514.011 123.895C517.51 123.885 521.015 124.492 524.504 124.955C525.48 125.085 525.988 124.925 526.506 124.089C529.93 118.539 533.749 113.282 538.194 108.498C539.01 107.617 539.931 106.805 540.912 106.113C542.828 104.759 544.476 105.033 545.561 107.114C546.582 109.065 547.418 111.166 547.981 113.292C550.619 123.213 550.664 133.209 548.613 143.245C548.459 143.991 548.573 144.892 548.847 145.614C550.704 150.503 552.63 155.366 554.537 160.235C554.452 160.359 554.373 160.484 554.288 160.613L554.268 160.618ZM532.375 126.558C537.542 128.34 539.463 132.736 541.703 137.142C542.047 136.405 542.291 135.962 542.47 135.494C544.999 128.878 545.019 122.163 543.182 115.402C542.973 114.626 542.296 113.974 541.838 113.262C541.171 113.8 540.32 114.213 539.867 114.895C537.378 118.643 534.988 122.456 532.375 126.553V126.558ZM522.891 149.343C523.32 149.91 523.439 150.229 523.658 150.323C524.021 150.483 524.445 150.498 524.843 150.572C524.903 150.124 525.166 149.562 524.987 149.253C523.14 146.052 518.566 145.699 516.236 148.591C515.489 149.517 514.902 150.597 514.399 151.682C514.105 152.31 514.13 153.086 514.011 153.798C514.698 153.539 515.38 153.28 516.067 153.026C516.151 152.997 516.241 152.982 516.325 152.962C517.48 154.4 519.024 155.023 520.457 154.495C522.677 153.684 523.026 151.812 522.886 149.343H522.891ZM493.431 147.949C493.501 149.004 493.436 149.85 493.636 150.637C493.924 151.797 494.696 152.628 495.955 152.728C497.2 152.827 498.076 152.076 498.35 150.995C498.658 149.781 498.743 148.467 498.668 147.207C498.594 145.933 497.907 144.838 496.548 144.589C495.139 144.33 494.039 145.101 493.158 146.122C492.481 146.903 492.476 147.63 493.431 147.954V147.949ZM514.518 144.18C514.623 144.235 514.723 144.29 514.827 144.345C516.196 143.454 517.57 142.578 518.919 141.657C519.233 141.443 519.447 141.089 519.711 140.8C519.412 140.537 519.148 140.133 518.804 140.039C518.302 139.904 517.625 139.79 517.221 140.019C515.599 140.94 515.026 142.558 514.518 144.18ZM500.002 143.424C500.152 143.409 500.301 143.394 500.451 143.379C500.212 142.02 500.087 140.631 499.699 139.317C499.44 138.446 498.609 138.411 497.867 138.849C497.031 139.347 497.414 139.845 497.862 140.417C498.619 141.388 499.291 142.418 500.002 143.424Z" fill="#E2E8F1"/>
<path d="M437.318 310.7C437.791 309.097 438.348 307.086 438.97 305.095C446.019 282.509 453.108 259.934 460.087 237.329C461.083 234.113 463.293 233.267 466.245 232.973C476.818 231.917 487.387 230.758 497.955 229.657C506.453 228.776 514.96 227.96 523.453 227.059C529.815 226.387 536.176 225.665 542.528 224.893C544.714 224.63 545.426 225.76 544.803 227.646C540.019 242.172 535.345 256.733 530.626 271.279C528.421 278.064 526.186 284.839 523.96 291.619C522.885 294.9 520.74 296.851 517.25 297.483C501.171 300.4 485.107 303.382 469.043 306.364C458.927 308.241 448.822 310.157 438.717 312.074C437.855 312.238 437.203 312.278 437.313 310.69L437.318 310.7ZM484.823 270.328C484.853 270.771 484.873 271.513 484.948 272.254C485.371 276.461 487.616 277.87 491.613 276.56C492.405 276.302 493.35 276.277 494.182 276.406C495.591 276.63 496.82 276.406 497.711 275.296C498.667 274.111 499.468 272.802 500.36 271.563C500.882 270.841 500.887 270.194 500.424 269.397C499.13 267.182 499.429 265.041 500.977 263.055C501.43 262.473 502.047 262.01 502.45 261.402C502.669 261.074 502.779 260.471 502.625 260.123C501.793 258.226 500.37 257.744 498.279 258.65C496.979 259.212 495.745 259.595 494.281 259.197C492.793 258.789 491.359 259.222 490.035 260.038C486.312 262.338 484.838 265.798 484.818 270.323L484.823 270.328ZM496.681 258.401C497.895 257.574 499.001 257.037 499.807 256.21C500.584 255.414 501.151 254.358 501.619 253.333C501.873 252.78 501.724 252.064 500.738 252.303C498.558 252.83 496.526 255.638 496.676 258.406L496.681 258.401Z" fill="#E2E8F1"/>
<path d="M375.64 168.406C378.119 173.369 381.181 177.72 385.109 181.424C390.042 186.083 395.826 189.01 402.567 190.011C403.02 190.076 403.597 190.31 403.831 190.658C406.803 195.088 409.894 199.454 412.607 204.049C415.042 208.176 416.097 212.805 416.236 217.624C416.256 218.356 416.162 218.799 415.365 219.088C414.23 219.501 413.553 220.476 413.528 221.666C413.449 225.654 413.409 229.646 413.468 233.633C413.493 235.112 414.27 236.322 415.35 237.397C415.783 237.825 416.047 238.751 415.928 239.358C414.23 247.99 410.243 255.293 403.209 260.769C400.132 263.168 397.071 265.592 393.94 267.922C393.347 268.365 392.401 268.659 391.685 268.554C381.624 267.101 372.046 263.885 362.533 260.46C362.449 260.43 362.379 260.355 362.349 260.331C362.832 256.97 363.31 253.635 363.793 250.305C363.833 250.036 363.857 249.633 364.027 249.538C366.421 248.189 366.187 245.71 366.595 243.54C366.849 242.176 366.75 240.747 366.999 239.383C367.233 238.089 367.536 236.755 368.109 235.58C371.195 229.288 373.251 222.756 373.047 215.663C373.022 214.821 372.863 213.98 372.728 212.83C370.926 218.654 369.229 224.14 367.531 229.621C367.462 229.596 367.392 229.566 367.322 229.541C367.098 226.032 366.949 222.517 366.63 219.018C365.854 210.466 363.987 202.232 359.054 194.989C356.729 191.574 353.881 188.776 349.73 187.671C348.983 187.472 348.211 187.358 347.216 187.158C347.45 187.512 347.505 187.696 347.634 187.776C355.649 192.789 359.92 200.33 362.17 209.246C363.897 216.091 363.808 223.06 363.424 230.024C363.19 234.33 362.648 238.621 362.245 242.922C362.23 243.092 362.175 243.256 362.135 243.45C353.214 236.989 332.785 234.425 325.004 239.129C325.507 236.451 325.9 233.902 326.472 231.393C328.862 220.959 331.197 210.515 333.8 200.136C334.616 196.886 336.02 193.734 337.514 190.713C339.624 186.442 342.955 183.166 347.166 180.941C356.321 176.102 365.893 172.2 375.655 168.406H375.64Z" fill="#E2E8F1"/>
<path d="M358.503 289.996L356.708 300.352L373.554 290.962L358.503 289.996Z" fill="#E2E8F1"/>
<path d="M389.047 140.706C388.535 138.919 388.062 137.326 387.638 135.723C387.584 135.514 387.698 135.155 387.862 135.016C390.581 132.676 390.396 129.655 389.6 126.673C389.162 125.025 388.311 123.377 387.255 122.033C386.006 120.445 384.134 119.833 382.123 120.644C381.61 120.853 381.282 121.506 380.863 121.954C381.361 122.133 381.844 122.352 382.352 122.481C382.865 122.611 383.402 122.655 384.224 122.785C381.406 124.647 380.495 127.156 380.58 130.118C380.644 132.308 381.61 133.971 383.606 134.901C384.368 135.255 384.726 135.693 384.886 136.509C385.14 137.809 385.553 139.073 386.021 140.805C384.756 140.183 383.8 139.855 382.994 139.302C376.886 135.086 374.711 126.24 378.106 119.649C380.346 115.303 384.253 114.546 387.962 117.792C390.003 119.579 391.282 121.889 392.203 124.413C392.348 124.806 392.437 125.229 392.661 125.573C393.209 126.419 394.07 127.026 395.011 126.603C395.703 126.289 396.604 125.468 396.634 124.831C396.763 122.108 398.122 120.072 399.65 117.966C403.045 113.307 405.106 108.115 404.529 102.241C404.295 99.886 403.494 97.5911 402.876 94.9727C406.615 95.5153 410.508 95.804 414.261 96.6951C418.851 97.7852 423.371 99.2239 427.826 100.787C434.8 103.236 441.829 104.859 449.416 103.425C450.028 108.408 449.874 113.232 449.545 118.18C446.061 116.144 442.78 116.164 439.544 118.26C439.39 118.359 439.176 118.444 439.101 118.588C438.663 119.455 438.26 120.336 437.847 121.207C438.668 121.157 439.549 121.277 440.311 121.033C443.333 120.072 446.469 120.092 448.883 121.237C448.435 124.667 448.027 128.116 447.534 131.551C446.867 136.186 446.429 140.88 445.359 145.425C443.731 152.31 439.823 158.144 435.776 163.829C434.651 165.412 433.322 166.855 432.018 168.304C430.818 169.643 429.225 170.265 427.463 170.469C421.648 171.141 416.178 169.922 411.045 167.244C406.66 164.954 402.702 162.022 399.168 158.537C394.563 153.992 392.054 148.397 391.058 142.085C390.854 140.79 390.59 140.009 389.047 140.711V140.706ZM435.617 124.99C435.443 124.935 435.273 124.881 435.099 124.821C434.77 125.264 434.372 125.677 434.128 126.165C433.068 128.276 433.143 130.501 433.775 132.681C434.636 135.658 435.667 138.58 436.587 141.537C437.055 143.036 436.747 143.802 435.338 144.474C434.686 144.788 433.939 144.927 433.217 145.072C432.446 145.231 431.58 145.151 430.903 145.475C430.385 145.724 429.942 146.406 429.778 146.978C429.718 147.197 430.519 147.924 430.972 147.964C432.391 148.098 433.874 148.228 435.253 147.964C438.29 147.391 440.102 145.619 440.122 143.235C440.132 142.07 439.828 140.825 439.37 139.74C437.374 135.011 434.965 130.406 435.612 124.97L435.617 124.99ZM418.448 114.551C414.634 114.8 411.722 115.258 409.298 117.21C408.939 117.498 408.845 118.12 408.631 118.588C409.139 118.723 409.701 119.066 410.144 118.952C415.112 117.702 419.956 118.27 424.785 119.708C425.317 119.868 425.959 119.649 426.547 119.609C426.457 118.783 426.626 117.777 426.208 117.17C425.76 116.518 424.824 116.05 424.013 115.826C421.932 115.248 419.802 114.855 418.448 114.556V114.551ZM414.819 129.087C414.863 129.381 414.799 130.068 415.082 130.546C415.555 131.332 416.173 132.417 416.889 132.557C417.596 132.696 418.741 132.009 419.279 131.347C420.668 129.64 421.285 127.609 420.792 125.369C420.429 123.696 419.617 123.248 417.955 123.756C415.939 124.378 414.794 126.205 414.814 129.082L414.819 129.087ZM434.477 153.808C433.277 153.987 432.336 154.211 431.39 154.246C426.995 154.405 422.848 153.489 418.985 151.309C418.622 151.105 417.671 151.264 417.497 151.553C417.278 151.921 417.532 152.608 417.671 153.136C417.716 153.305 418.014 153.445 418.223 153.524C420.553 154.415 422.828 155.575 425.243 156.083C427.269 156.511 429.459 156.287 431.565 156.138C432.829 156.048 433.859 155.291 434.477 153.808ZM438.937 130.088C438.937 130.775 438.833 131.113 438.957 131.317C439.445 132.154 439.878 133.448 440.575 133.622C441.232 133.786 442.457 132.96 442.964 132.238C444.084 130.65 444.448 128.769 444.01 126.807C443.606 125 442.467 124.562 440.993 125.682C439.405 126.892 439.106 128.674 438.942 130.088H438.937ZM422.878 159.209C422.798 160.419 423.057 160.742 424.421 161.136C426.791 161.818 429.135 161.21 429.917 159.687C427.562 159.528 425.218 159.368 422.873 159.209H422.878Z" fill="#E2E8F1"/>
<path d="M409.503 280.437C410.413 281.204 411.26 282.075 412.255 282.722C415.909 285.091 418.1 288.79 420.778 292.036C421.121 292.454 421.032 293.629 420.678 294.122C420.155 294.853 419.18 295.351 418.219 294.724C417.253 294.092 416.397 293.295 415.471 292.598C413.286 290.956 411.081 289.333 408.89 287.695C408.059 287.073 407.247 287.083 406.307 287.526C404.38 288.437 402.454 289.388 400.443 290.074C395.728 291.692 391.487 290.946 387.973 287.197C387.888 287.108 387.724 287.083 387.36 286.928C387.291 287.561 387.231 288.108 387.151 288.84C384.304 288.706 381.441 288.651 378.589 288.422C372.526 287.934 366.457 287.476 360.419 286.789C352.076 285.838 343.748 284.708 335.778 281.856C328.386 279.212 326.479 276.743 326.28 268.853C326.195 265.378 326.414 261.879 326.793 258.419C327.355 253.307 328.216 248.229 328.888 243.127C329.003 242.265 329.391 241.987 330.158 241.778C334.055 240.727 337.993 240.946 341.931 241.35C346.744 241.842 351.439 242.868 355.944 244.71C356.979 245.133 357.248 245.581 357.009 246.766C356.372 249.947 355.979 253.177 355.481 256.388C355.396 256.931 355.272 257.468 355.162 258.011C347.695 256.224 341.727 256.139 339.73 257.862C340.024 258.026 340.268 258.27 340.532 258.295C348.671 259.017 356.168 262.033 363.774 264.687C372.043 267.574 380.421 270.058 389.003 271.92C394.693 273.154 399.999 272.333 405.376 270.536C410.294 268.893 415.292 267.489 420.275 266.036C421.748 265.607 423.237 265.782 424.581 266.578C427.657 268.4 430.764 270.167 433.755 272.114C434.811 272.801 435.777 273.821 436.424 274.906C438.091 277.684 439.62 280.557 441.053 283.459C441.397 284.161 441.322 285.176 441.148 285.983C441.053 286.421 440.366 286.978 439.908 287.013C439.485 287.048 438.853 286.56 438.584 286.132C436.693 283.105 434.895 280.019 433.024 276.977C430.56 272.985 426.463 271.397 422.351 269.869C422.012 269.744 421.519 270.018 421.096 270.108C421.231 270.496 421.251 271.039 421.524 271.248C422.48 271.969 423.461 272.716 424.541 273.209C427.777 274.672 430.087 277.012 431.675 280.158C433.138 283.055 434.736 285.883 436.16 288.795C436.444 289.373 436.454 290.294 436.205 290.891C435.558 292.439 434.154 292.549 433.223 291.15C431.351 288.322 429.579 285.435 427.742 282.588C425.601 279.267 422.893 276.579 419.1 275.22C417.89 274.787 416.591 274.613 415.332 274.319C415.267 274.473 415.207 274.633 415.143 274.787C415.362 275.051 415.541 275.359 415.8 275.564C416.382 276.022 416.955 276.549 417.622 276.838C421.813 278.62 424.213 282.09 426.358 285.858C427.369 287.625 428.548 289.308 429.738 290.961C430.336 291.787 430.336 292.474 429.698 293.201C429.031 293.962 428.18 294.475 427.269 293.803C426.049 292.897 424.85 291.911 423.849 290.776C422.037 288.725 420.365 286.545 418.652 284.405C416.671 281.92 413.848 280.84 411.001 279.82C410.608 279.68 410.095 279.889 409.632 279.939C409.587 280.108 409.542 280.278 409.498 280.447L409.503 280.437Z" fill="#E2E8F1"/>
<path d="M432.33 175.344C438.229 177.649 443.904 179.919 449.047 183.289C453.452 186.176 456.056 190.522 457.554 195.365C459.934 203.061 461.92 210.882 463.996 218.668C464.927 222.147 465.673 225.672 466.544 229.33C465.559 229.45 464.643 229.515 463.742 229.679C460.018 230.351 457.679 232.566 456.797 236.215C456.494 237.48 455.916 238.152 454.662 238.555C452.063 239.391 449.53 240.412 447.05 241.328C448.24 234 449.53 226.682 450.595 219.33C451.665 211.952 452.452 204.545 451.147 197.098C449.659 205.112 448.26 213.142 446.652 221.132C445.029 229.216 443.197 237.26 441.46 245.325C439.728 253.335 437.995 261.349 436.218 269.573C435.238 268.966 434.401 268.433 433.545 267.92C431.395 266.636 429.219 265.391 427.079 264.082C424.376 262.429 421.503 262.086 418.506 262.982C412.737 264.709 406.987 266.506 401.223 268.249C399.809 268.677 398.37 269.01 396.777 269.09C397.529 268.542 398.276 267.995 399.027 267.452C403.099 264.515 407.221 261.653 410.472 257.74C414.902 252.409 417.561 246.246 419.059 239.545C419.338 238.301 419.821 237.504 421.145 237.136C422.937 236.638 423.743 235.165 423.793 233.432C423.893 229.853 423.918 226.274 423.803 222.695C423.748 221.072 422.847 219.773 421.19 219.27C420.343 219.011 420.035 218.493 420.204 217.727C420.662 215.656 421.015 213.54 421.727 211.554C423.231 207.367 424.948 203.261 426.566 199.114C429.523 191.522 431.738 183.747 432.33 175.344Z" fill="#E2E8F1"/>
<path d="M586.878 205.289C588.824 202.228 589.173 198.818 589.332 195.343C594.658 204.707 593.981 213.901 588.545 222.961C588.63 223.061 588.72 223.16 588.804 223.26C590.606 221.682 592.408 220.099 594.101 218.61C594.877 225.157 588.939 235.66 582.343 239.085C581.213 236.402 580.212 233.654 578.923 231.056C577.006 227.198 574.871 223.449 572.88 219.631C572.636 219.168 572.506 218.466 572.67 217.993C577.076 205.324 576.294 193.023 570.127 181.091C570.067 180.972 570.042 180.827 570.012 180.698C570.007 180.668 570.042 180.623 570.137 180.414C575.483 182.117 579.749 185.258 582.88 189.917C586.002 194.557 587.166 199.729 586.873 205.299L586.878 205.289Z" fill="#E2E8F1"/>
<path d="M414.543 296.525C411.302 297.117 408.261 297.645 405.234 298.257C404.701 298.362 403.885 298.755 403.82 299.123C403.636 300.159 404.537 300.477 405.374 300.706C412.288 302.588 419.202 304.47 426.122 306.342C428.75 307.053 431.389 307.725 434.127 308.437C433.768 310.314 433.046 312.216 434.351 314.237C432.434 314.53 430.707 314.784 428.925 314.252C412.587 309.373 396.249 304.505 379.906 299.656C378.651 299.283 378.009 298.576 378.084 297.257C378.154 296.012 378.786 295.315 380.035 295.126C383.595 294.583 387.029 293.2 390.713 293.518C392.142 293.643 393.566 293.872 394.979 294.096C399.28 294.778 403.382 293.946 407.395 292.478C408.271 292.159 408.888 292.209 409.64 292.831C411.163 294.096 412.801 295.221 414.553 296.525H414.543Z" fill="#E2E8F1"/>
<path d="M429.623 174.39C428.886 188.009 422.982 199.952 418.367 212.78C417.128 203.894 412.379 197.189 407.336 190.479C409.128 190.324 410.776 190.255 412.404 190.036C417.735 189.329 421.055 186.262 422.449 181.135C423.091 178.775 423.51 176.356 424.062 173.832C425.979 174.026 427.94 174.22 429.628 174.39H429.623Z" fill="#E2E8F1"/>
<path d="M400.759 185.612C400.167 185.493 399.769 185.453 399.4 185.328C390.694 182.292 384.242 176.726 380.29 168.328C379.747 167.179 379.702 166.556 380.972 165.675C384.188 163.445 385.815 160.06 386.383 156.287C386.901 152.852 387.035 149.362 387.339 145.897C387.379 145.454 387.398 145.011 387.762 144.469C387.966 144.962 388.25 145.434 388.364 145.952C389.305 150.248 390.306 154.539 391.112 158.86C392.8 167.91 395.567 176.557 400.277 184.522C400.436 184.791 400.53 185.089 400.759 185.612Z" fill="#E2E8F1"/>
<path d="M378.24 114.64C376.134 107.9 375.308 101.195 377.583 94.4595C379.425 89.0036 383.208 85.6235 389.047 84.7723C389.381 84.7225 389.839 84.4338 389.953 84.1451C392.706 77.0912 398.55 74.2288 405.395 72.8151C414.067 71.018 422.49 72.372 430.763 75.1249C433.541 76.0508 436.299 77.0265 439.077 77.9374C439.997 78.2411 440.953 78.4701 441.909 78.6393C444.363 79.0724 446.728 78.9878 448.699 77.1211C449.296 79.1322 448.48 80.8446 446.578 81.6759C444.692 82.5023 442.73 82.3779 440.839 81.8253C436.473 80.541 432.137 79.162 427.801 77.7831C419.856 75.2642 411.812 74.403 403.633 76.454C398.292 77.7931 393.871 80.4862 391.168 85.519C390.964 85.9023 390.461 86.3155 390.048 86.3752C386.1 86.9327 383.542 89.3272 381.645 92.6077C379.38 96.5304 379.041 100.901 378.947 105.267C378.897 107.716 379.166 110.185 379.499 112.614C379.654 113.725 379.36 114.252 378.23 114.635L378.24 114.64Z" fill="#E2E8F1"/>
<path d="M488.386 136.467C486.778 128.153 485.738 119.994 487.455 111.736C487.719 110.476 488.132 109.217 488.675 108.052C489.685 105.882 491.433 105.254 493.314 106.693C495.584 108.43 497.725 110.402 499.616 112.542C502.185 115.449 504.47 118.61 506.924 121.722C504.719 122.702 502.748 123.579 500.756 124.46C499.417 122.304 498.068 120.099 496.674 117.923C496.152 117.107 495.589 116.286 494.902 115.609C494.38 115.091 493.633 114.792 492.986 114.399C492.722 115.096 492.244 115.793 492.229 116.5C492.169 118.775 492.209 121.055 492.344 123.325C492.473 125.5 492.787 127.66 492.986 129.831C493.016 130.169 492.976 130.607 492.787 130.861C491.393 132.693 489.954 134.485 488.391 136.472L488.386 136.467Z" fill="#E2E8F1"/>
<path d="M394.273 159.086C397.634 164.751 401.641 169.341 406.684 172.97C409.287 174.841 412 176.579 415.221 177.191C416.341 177.405 417.516 177.325 418.691 177.38C419.542 182.453 416.237 186.206 410.427 186.624C410.382 186.624 410.333 186.624 410.288 186.634C405.141 186.928 405.006 186.838 402.462 182.373C398.5 175.414 396.041 167.907 394.273 160.146C394.224 159.927 394.269 159.688 394.269 159.091L394.273 159.086Z" fill="#E2E8F1"/>
<path d="M445.527 246.983C448.733 245.335 451.715 243.797 454.926 242.145C453.856 245.609 452.86 248.865 451.844 252.121C450.834 255.371 449.803 258.612 448.743 261.997C445.224 257.387 446.035 252.026 445.527 246.983Z" fill="#E2E8F1"/>
<path d="M447.438 89.8059C451.42 87.506 454.063 84.0911 455.761 79.8398C459.609 87.7898 455.726 97.7856 448.01 99.3189C451.405 96.4266 453.212 92.952 453.625 88.87C451.599 89.3479 449.628 89.8158 447.657 90.2838C447.587 90.1245 447.512 89.9652 447.442 89.8009L447.438 89.8059Z" fill="#E2E8F1"/>
<path d="M416.993 233.486V223.212C418.302 223.092 419.442 222.983 420.737 222.863C420.737 226.129 420.777 229.265 420.682 232.401C420.672 232.775 419.96 233.317 419.487 233.442C418.795 233.621 418.024 233.486 416.988 233.486H416.993Z" fill="#E2E8F1"/>
<path d="M386.77 130.467C386.795 131.851 386.197 132.727 385.252 132.712C384.211 132.692 383.35 131.642 383.34 130.387C383.33 129.312 383.639 128.416 384.848 128.277C385.959 128.152 386.745 129.108 386.77 130.467Z" fill="#E2E8F1"/>
<path d="M492.988 160.817C494.068 161.037 495.516 161.29 496.935 161.649C497.204 161.718 497.368 162.191 497.582 162.48C497.274 162.575 496.96 162.774 496.661 162.749C494.506 162.565 492.35 162.346 490.2 162.102C489.926 162.072 489.667 161.868 489.398 161.743C489.637 161.529 489.846 161.176 490.115 161.126C490.927 160.972 491.758 160.932 492.983 160.812L492.988 160.817Z" fill="#E2E8F1"/>
</g>
</g>
<defs>
<linearGradient id="paint0_linear_4021_31220" x1="460.346" y1="561.954" x2="459.551" y2="258.076" gradientUnits="userSpaceOnUse">
<stop stop-color="#708AB9"/>
<stop offset="1" stop-color="#708AB9" stop-opacity="0.2"/>
</linearGradient>
<linearGradient id="paint1_linear_4021_31220" x1="660.073" y1="261.934" x2="593.91" y2="372.224" gradientUnits="userSpaceOnUse">
<stop stop-color="#B0D5F1"/>
<stop offset="0.557292" stop-color="#B0D5F1" stop-opacity="0.2"/>
</linearGradient>
<radialGradient id="paint2_radial_4021_31220" cx="0" cy="0" r="1" gradientUnits="userSpaceOnUse" gradientTransform="translate(487.853 319.691) scale(281.688 187.231)">
<stop stop-color="#708AB9"/>
<stop offset="1" stop-color="#42629B"/>
</radialGradient>
<clipPath id="clip0_4021_31220">
<rect width="872" height="320" fill="white"/>
</clipPath>
</defs>
</svg>
