<svg width="872" height="320" viewBox="0 0 872 320" fill="none" xmlns="http://www.w3.org/2000/svg">
<g clip-path="url(#clip0_4021_31323)">
<g opacity="0.78">
<path d="M221.517 277.954C228.649 277.868 234.3 272.394 234.226 265.646C234.146 258.491 228.729 252.954 221.861 253C214.718 253.052 209.014 258.732 209.129 265.681C209.244 272.566 214.764 278.034 221.517 277.948V277.954Z" fill="#C0CAD6"/>
<path d="M803.152 211.43C802.653 204.774 799.503 199.438 792.997 196.558C786.714 193.775 780.706 194.756 775.531 199.22C773.896 200.631 772.943 202.846 771.715 204.711C771.067 205.698 771.48 206.358 772.398 206.977C779.456 211.745 786.823 215.945 794.729 219.158C795.963 219.658 797.214 220.134 798.396 220.736C799.526 221.316 800.186 220.92 800.794 219.967C802.383 217.471 802.974 214.7 803.152 211.43Z" fill="#C0CAD6"/>
<path d="M804.728 214.323C803.839 215.998 803.764 217.169 805.244 218.305C806.702 219.418 808.004 220.755 809.238 222.12C809.789 222.734 810.007 223.647 810.374 224.427C809.507 224.553 808.572 224.949 807.78 224.765C804.694 224.048 801.595 223.302 798.6 222.281C787.016 218.316 776.407 212.51 766.767 204.953C765.562 204.006 764.438 202.951 763.348 201.872C763.032 201.556 762.957 200.994 762.774 200.547C763.233 200.403 763.703 200.093 764.139 200.139C765.304 200.271 766.469 200.495 767.605 200.788C769.889 201.373 770.061 201.327 771.403 199.072C771.162 198.923 770.939 198.693 770.675 198.63C768.19 198.016 765.712 197.374 763.21 196.863C762.384 196.691 761.466 196.76 760.622 196.909C758.189 197.339 757.421 198.997 758.832 201.034C759.813 202.452 761.041 203.725 762.298 204.913C767.014 209.377 772.333 213.015 777.99 216.17C786.786 221.076 795.863 225.333 805.789 227.456C807.528 227.829 809.335 228.099 811.108 228.065C814.052 228.007 815.171 225.798 813.604 223.32C811.332 219.728 808.326 216.853 804.728 214.334V214.323Z" fill="#C0CAD6"/>
<path d="M794.391 226.632C786.197 222.351 778.073 218.1 769.982 213.871C768.944 217.532 772.754 223.832 777.964 226.752C783.483 229.845 791.516 229.759 794.385 226.632H794.391Z" fill="#C0CAD6"/>
<path d="M758.098 261.825C757.139 261.566 756.198 261.222 755.223 261.073C753.68 260.832 752.876 260.08 752.773 258.468C752.687 257.148 752.4 255.834 752.159 254.526C752.062 254.01 751.861 253.511 751.706 253C751.562 253 751.425 253 751.281 253.006C751.144 253.499 750.983 253.993 750.868 254.492C750.765 254.939 750.644 255.398 750.639 255.852C750.627 258.99 749.692 261.343 746.026 261.515C745.681 261.532 745.354 261.848 745.004 262.444C745.945 262.731 746.869 263.104 747.827 263.288C749.399 263.58 750.22 264.378 750.363 266.036C750.501 267.637 750.891 269.22 751.528 270.85C751.694 270.586 751.93 270.339 752.016 270.052C752.165 269.565 752.291 269.054 752.308 268.549C752.423 265.382 753.427 262.989 757.105 262.771C757.444 262.748 757.765 262.427 758.092 262.243C758.092 262.106 758.092 261.962 758.092 261.825H758.098Z" fill="#C0CAD6"/>
<path d="M554.07 31.1302C555.114 31.4573 556.152 31.836 557.214 32.0884C558.189 32.3237 558.706 32.8401 558.821 33.8556C558.964 35.0778 559.182 36.2884 559.423 37.4934C559.532 38.0556 559.767 38.5893 559.951 39.1401C560.14 39.1401 560.33 39.1401 560.519 39.1343C560.754 37.763 561.167 36.3917 561.184 35.0204C561.213 33.0524 562.171 32.163 563.967 31.8188C564.73 31.6696 565.453 31.3253 566.193 31.0671C566.193 30.9065 566.193 30.7458 566.199 30.5852C565.304 30.3327 564.421 29.9999 563.508 29.8507C562.062 29.6097 561.408 28.795 561.271 27.3778C561.156 26.2073 560.921 25.0483 560.697 23.8893C560.605 23.4302 560.41 22.9884 560.261 22.5352H559.744C559.515 23.8032 559.257 25.0655 559.067 26.3393C558.631 29.2483 558.643 29.2425 555.78 30.0114C555.206 30.1663 554.655 30.4015 554.093 30.6024C554.081 30.7802 554.075 30.9581 554.064 31.136L554.07 31.1302Z" fill="#C0CAD6"/>
<path d="M724.136 45.5951C725.18 45.9221 726.219 46.3008 727.28 46.5533C728.256 46.7885 728.772 47.3049 728.887 48.3205C729.03 49.5426 729.248 50.7533 729.489 51.9582C729.598 52.5205 729.834 53.0541 730.017 53.6049C730.207 53.6049 730.396 53.6049 730.585 53.5992C730.821 52.2279 731.234 50.8566 731.251 49.4852C731.28 47.5172 732.238 46.6279 734.034 46.2836C734.797 46.1344 735.52 45.7902 736.26 45.532C736.26 45.3713 736.26 45.2107 736.266 45.05C735.371 44.7975 734.487 44.4648 733.575 44.3156C732.129 44.0746 731.475 43.2598 731.337 41.8426C731.222 40.6721 730.987 39.5131 730.763 38.3541C730.671 37.8951 730.476 37.4533 730.327 37H729.811C729.581 38.268 729.323 39.5303 729.134 40.8041C728.698 43.7131 728.709 43.7074 725.846 44.4762C725.272 44.6311 724.721 44.8664 724.159 45.0672C724.148 45.2451 724.142 45.423 724.13 45.6008L724.136 45.5951Z" fill="#C0CAD6"/>
<path d="M361.036 84.2511C362.476 84.7043 363.463 85.0601 364.478 85.3183C365.505 85.5765 366.005 86.1732 366.148 87.2289C366.372 88.8699 366.704 90.4937 366.997 92.1289C367.146 92.1404 367.29 92.1461 367.439 92.1576C367.594 91.8306 367.812 91.515 367.892 91.1707C368.064 90.4248 368.271 89.6617 368.271 88.9101C368.271 86.4945 369.355 85.106 371.817 84.8248C372.327 84.7675 372.804 84.4576 373.297 84.2625C373.297 84.1019 373.309 83.9355 373.309 83.7748C372.425 83.5166 371.553 83.1724 370.652 83.0289C369.189 82.7994 368.604 81.956 368.437 80.5617C368.265 79.0642 367.944 77.5781 367.686 76.0863C367.548 76.0634 367.41 76.0404 367.273 76.0117C367.1 76.3158 366.882 76.6027 366.773 76.924C366.647 77.3084 366.561 77.7216 366.561 78.1289C366.527 81.1355 365.609 83.4019 362.109 83.5855C361.902 83.597 361.701 83.8265 361.036 84.2511Z" fill="#C0CAD6"/>
<path d="M124.626 265C123.645 267.806 122.417 270.032 119.123 270.571C122.29 271.093 123.731 273.004 124.522 275.879C125.4 273.044 126.927 271.082 130.094 270.548C126.858 269.975 125.222 268.139 124.626 265Z" fill="#C0CAD6"/>
<path d="M736.546 136.827C736.828 135.657 736.822 134.274 737.476 133.373C738.107 132.501 739.421 132.122 740.488 131.497C739.45 130.871 738.119 130.464 737.476 129.563C736.805 128.628 736.799 127.216 736.506 126.011C736.346 126.011 736.185 126.006 736.03 126C735.743 127.205 735.749 128.616 735.083 129.546C734.435 130.452 733.104 130.871 732.128 131.474C733.115 132.07 734.452 132.484 735.124 133.39C735.772 134.274 735.737 135.662 736.001 136.827C736.185 136.827 736.369 136.827 736.552 136.827H736.546Z" fill="#C0CAD6"/>
<path d="M681.053 76C680.422 78.0369 679.573 79.7008 677.129 80.0967C679.487 80.573 680.382 82.1967 681.03 84.1992C682.046 82.4434 682.522 80.3205 685.219 80.1656C682.665 79.7582 681.908 77.9221 681.053 76Z" fill="#C0CAD6"/>
<path d="M619.488 31.524C619.505 32.9125 620.664 33.9855 622.116 33.9568C623.533 33.9338 624.681 32.7805 624.652 31.415C624.617 30.0207 623.47 28.8789 622.099 28.8789C620.624 28.8789 619.476 30.0437 619.494 31.524H619.488Z" fill="#C0CAD6"/>
<path d="M271.484 41.3721C268.96 40.8787 268.443 38.991 267.847 37C267.043 38.859 266.602 40.8959 264.002 41.2746C266.252 41.8024 267.147 43.2713 267.566 45.3139C268.57 43.7074 268.902 41.5787 271.479 41.3721H271.484Z" fill="#C0CAD6"/>
<path d="M163.583 178.953C164.851 178.982 166.056 177.834 166.108 176.543C166.154 175.258 165.029 174.053 163.738 174.002C162.373 173.95 161.122 175.132 161.128 176.469C161.128 177.754 162.281 178.913 163.589 178.948L163.583 178.953Z" fill="#C0CAD6"/>
<path d="M125.68 107.318C123.792 107.1 123.144 105.355 122.283 103.227C121.612 105.315 121.101 106.962 119.121 107.254C120.332 108.448 121.428 109.515 122.403 110.479C123.356 109.561 124.486 108.465 125.68 107.312V107.318Z" fill="#C0CAD6"/>
<path d="M685.005 265.347C685.005 266.684 686.101 267.757 687.473 267.74C688.81 267.722 689.762 266.759 689.785 265.393C689.802 264.022 688.746 262.977 687.346 263C686.05 263.018 685.011 264.062 685.005 265.347Z" fill="#C0CAD6"/>
<path d="M270.274 284.005C268.932 284.103 268.048 285.141 268.134 286.513C268.226 287.873 269.161 288.716 270.464 288.601C271.806 288.481 272.736 287.431 272.655 286.117C272.581 284.889 271.485 283.919 270.274 284.005Z" fill="#C0CAD6"/>
<path d="M316.999 257.147C317.01 258.363 317.94 259.27 319.162 259.264C320.361 259.253 321.188 258.426 321.188 257.221C321.188 255.953 320.195 254.966 318.944 255.001C317.808 255.035 316.993 255.936 316.999 257.147Z" fill="#C0CAD6"/>
<path d="M413.512 23.9049C413.299 22.2983 412.772 21.5237 411.59 21.5811C410.522 21.6327 409.897 22.3614 409.897 23.3999C409.897 24.5303 410.62 25.3393 411.733 25.1385C412.45 25.0122 413.053 24.2434 413.512 23.9049Z" fill="#C0CAD6"/>
<path d="M830.467 190.006C829.968 190.66 829.188 191.257 829.039 191.98C828.826 193.035 829.63 193.701 830.703 193.684C831.764 193.666 832.544 192.984 832.401 191.945C832.303 191.257 831.598 190.66 831.162 190.017C830.932 190.017 830.697 190.006 830.467 190V190.006Z" fill="#C0CAD6"/>
<path d="M521.847 23.8307C522.277 23.2627 523.132 22.6086 523.04 22.1381C522.914 21.4782 522.088 20.9504 521.56 20.3594C521.02 20.8528 520.085 21.3176 520.039 21.8569C519.982 22.4651 520.722 23.1422 521.118 23.7905C521.359 23.802 521.606 23.8135 521.847 23.8249V23.8307Z" fill="#C0CAD6"/>
<path d="M703.015 141.872C703.629 142.263 704.266 142.968 704.857 142.94C705.373 142.911 706.131 142.108 706.263 141.528C706.464 140.616 705.752 139.87 704.811 140.019C704.163 140.122 703.6 140.765 703.004 141.167C703.004 141.402 703.015 141.637 703.015 141.878V141.872Z" fill="#C0CAD6"/>
<path d="M722.654 212.368C721.65 211.685 721.048 210.956 720.526 211.002C719.981 211.054 719.51 211.863 719.005 212.339C719.533 212.855 719.998 213.67 720.606 213.791C721.054 213.882 721.685 213.079 722.66 212.368H722.654Z" fill="#C0CAD6"/>
<path d="M677.13 181.406C678.025 181.899 678.605 182.484 679.035 182.387C679.488 182.284 680.114 181.492 680.068 181.073C680.022 180.643 679.236 179.994 678.783 180C678.335 180 677.899 180.712 677.13 181.412V181.406Z" fill="#C0CAD6"/>
<path d="M17.07 263.804C17.9593 264.412 18.4872 265.054 18.9347 264.997C19.4224 264.94 19.8355 264.24 20.2773 263.821C19.8355 263.408 19.4339 262.713 18.9462 262.656C18.4987 262.599 17.9651 263.218 17.07 263.804Z" fill="#C0CAD6"/>
<path d="M223.13 116.348C224.054 116.859 224.594 117.398 225.064 117.341C225.471 117.295 226.137 116.503 226.074 116.159C225.988 115.689 225.322 115.006 224.892 115C224.439 114.989 223.974 115.666 223.13 116.348Z" fill="#C0CAD6"/>
<path d="M634.753 143.18C634.168 144.023 633.583 144.499 633.583 144.97C633.583 145.366 634.266 145.762 634.65 146.158C635.075 145.744 635.729 145.383 635.844 144.895C635.93 144.54 635.31 144.012 634.753 143.18Z" fill="#C0CAD6"/>
<path d="M681.004 43.9647C681.785 44.5442 682.244 45.1352 682.577 45.0721C683.03 44.986 683.391 44.4008 683.793 44.0336C683.449 43.6663 683.116 43.018 682.754 43.0008C682.313 42.9778 681.836 43.477 681.01 43.9704L681.004 43.9647Z" fill="#C0CAD6"/>
<path d="M530.773 33.8328C531.611 34.2804 532.104 34.7566 532.54 34.7049C532.902 34.6648 533.194 34.0049 533.516 33.6205C533.097 33.282 532.707 32.7312 532.253 32.6738C531.921 32.6336 531.502 33.2304 530.773 33.8328Z" fill="#C0CAD6"/>
<path d="M823.889 61.5016C824.382 60.8648 824.939 60.4574 824.921 60.0902C824.899 59.7115 824.313 59.3615 823.975 59C823.63 59.3672 823.108 59.6885 823.011 60.1131C822.942 60.4115 823.447 60.8475 823.889 61.5074V61.5016Z" fill="#C0CAD6"/>
<path d="M814.005 120.03C814.63 120.426 815.038 120.89 815.376 120.844C815.744 120.793 816.036 120.265 816.363 119.938C816.002 119.605 815.675 119.066 815.273 119.003C814.98 118.957 814.585 119.53 814.005 120.03Z" fill="#C0CAD6"/>
<path d="M550.813 112.92C550.429 113.562 550.016 113.953 550.039 114.314C550.056 114.607 550.676 115.129 550.911 115.071C551.29 114.98 551.794 114.509 551.823 114.159C551.852 113.849 551.307 113.494 550.813 112.914V112.92Z" fill="#C0CAD6"/>
<path d="M71.2762 219.152C70.8344 219.749 70.3812 220.099 70.3582 220.466C70.341 220.747 70.9664 221.356 71.1557 221.298C71.5401 221.183 71.982 220.77 72.091 220.392C72.1598 220.145 71.6836 219.743 71.2762 219.152Z" fill="#C0CAD6"/>
<path d="M217.057 165.006C216.598 165.551 216.127 165.866 216.127 166.176C216.127 166.486 216.604 166.796 216.867 167.1C217.177 166.83 217.671 166.595 217.74 166.268C217.803 165.981 217.395 165.591 217.057 165V165.006Z" fill="#C0CAD6"/>
<path d="M268.293 226.733C267.679 226.366 267.3 225.953 266.996 226.004C266.669 226.062 266.417 226.549 266.13 226.848C266.434 227.123 266.732 227.605 267.048 227.617C267.363 227.634 267.702 227.181 268.293 226.739V226.733Z" fill="#C0CAD6"/>
<path d="M385.977 75.4601C386.551 75.8503 386.97 76.3323 387.216 76.2577C387.584 76.1487 387.825 75.638 388.117 75.2938C387.79 75.0413 387.469 74.5995 387.136 74.5938C386.82 74.5938 386.505 75.0413 385.977 75.4601Z" fill="#C0CAD6"/>
<path d="M160.029 219.152C160.379 218.52 160.775 218.125 160.712 217.826C160.643 217.505 160.15 217.275 159.846 217C159.587 217.316 159.128 217.625 159.128 217.941C159.128 218.257 159.576 218.572 160.029 219.146V219.152Z" fill="#C0CAD6"/>
<path d="M630.322 52.4964C630.919 52.8751 631.286 53.2882 631.578 53.2423C631.894 53.1906 632.141 52.7087 632.422 52.4103C632.124 52.1349 631.837 51.6644 631.521 51.6415C631.223 51.6185 630.884 52.0718 630.322 52.4964Z" fill="#C0CAD6"/>
<path d="M313.901 59C313.511 59.5852 313.132 59.918 313.127 60.2508C313.127 60.509 313.591 60.773 313.855 61.0369C314.136 60.7385 314.555 60.4803 314.647 60.1361C314.704 59.9066 314.286 59.5566 313.901 59.0057V59Z" fill="#C0CAD6"/>
<path d="M352.632 21.0982C353.171 21.4482 353.504 21.8269 353.762 21.7867C354.044 21.7408 354.451 21.2933 354.445 21.0293C354.44 20.7769 353.992 20.3637 353.711 20.3408C353.447 20.3178 353.149 20.7137 352.638 21.0982H352.632Z" fill="#C0CAD6"/>
<path d="M415.274 64.8385C415.75 65.5729 415.951 66.25 416.347 66.3934C416.725 66.5311 417.402 66.2213 417.775 65.9057C418.711 65.1139 419.141 63.1803 418.573 62.4287C418.343 62.1246 417.563 61.8033 417.5 61.8836C416.72 62.8131 416.02 63.8115 415.268 64.8443L415.274 64.8385Z" fill="#C0CAD6"/>
<path d="M501.21 254.774C501.205 255.893 502.117 256.88 503.19 256.914C504.343 256.954 505.273 256.099 505.319 254.963C505.365 253.781 504.435 252.766 503.27 252.731C502.197 252.697 501.216 253.672 501.21 254.774Z" fill="#C0CAD6"/>
<path d="M439.413 296.348C440.039 296.796 440.624 297.519 441.301 297.628C442.328 297.794 443.057 297.071 443.074 295.976C443.086 294.885 442.34 294.117 441.353 294.254C440.647 294.352 440.039 295.155 439.39 295.637C439.396 295.872 439.408 296.108 439.413 296.343V296.348Z" fill="#C0CAD6"/>
<path d="M390.335 127.456C391.167 128.006 391.666 128.592 392.05 128.523C392.481 128.442 393.009 127.823 393.106 127.358C393.163 127.094 392.458 126.371 392.096 126.371C391.637 126.371 391.184 126.899 390.329 127.456H390.335Z" fill="#C0CAD6"/>
<path d="M795.988 160.634C796.511 159.916 797.107 159.44 797.033 159.125C796.929 158.689 796.316 158.367 795.925 158C795.593 158.384 795.042 158.746 795.002 159.159C794.967 159.526 795.501 159.951 795.988 160.634Z" fill="#C0CAD6"/>
<path d="M829.001 273.063C829.712 273.534 830.16 274.05 830.521 274.004C830.912 273.953 831.537 273.333 831.503 273.018C831.462 272.627 830.883 272.048 830.487 272.002C830.125 271.962 829.701 272.536 829.001 273.063Z" fill="#C0CAD6"/>
<path d="M406.607 142.778C407.02 142.147 407.496 141.739 407.45 141.401C407.398 141.033 406.871 140.735 406.543 140.402C406.216 140.735 405.654 141.051 405.637 141.401C405.614 141.756 406.13 142.141 406.607 142.778Z" fill="#C0CAD6"/>
<path d="M508.107 299.993C508.715 300.463 509.094 300.98 509.438 300.957C509.799 300.934 510.126 300.394 510.465 300.085C510.155 299.752 509.868 299.19 509.524 299.144C509.174 299.098 508.761 299.574 508.107 299.987V299.993Z" fill="#C0CAD6"/>
<path d="M316.142 171C315.637 171.62 315.098 171.993 315.127 172.314C315.155 172.675 315.66 173.129 316.05 173.261C316.245 173.324 316.888 172.773 316.905 172.469C316.928 172.09 316.527 171.683 316.142 171Z" fill="#C0CAD6"/>
<path d="M422.614 288.615C422.981 288.099 423.4 287.755 423.342 287.531C423.256 287.204 422.832 286.963 422.556 286.688C422.321 286.963 421.925 287.221 421.908 287.508C421.891 287.789 422.264 288.088 422.619 288.61L422.614 288.615Z" fill="#C0CAD6"/>
<path d="M264.126 118.122C267.339 123.062 277.34 127.802 286.508 122.489C295.253 117.422 298.747 105.528 294.025 96.8927C289.481 88.5903 280.162 86.0313 274.058 88.5731C282.94 93.7542 287.294 100.995 282.578 110.916C278.986 118.472 272.164 120.142 264.126 118.128V118.122Z" fill="#C0CAD6"/>
</g>
<path opacity="0.45" d="M607.649 482.209C599.788 486.194 591.401 489.776 582.608 492.9C570.696 497.129 558.014 500.495 544.724 502.919C529.205 505.747 512.876 507.228 496.02 507.228C488.281 507.228 480.664 506.905 473.208 506.286C410.729 501.169 357.892 475.26 330.907 439.306C320.372 425.302 313.768 409.789 312.025 393.388C311.701 390.479 311.539 387.543 311.539 384.608C311.539 366.106 317.698 348.573 328.719 332.845C338.565 318.787 352.341 306.183 369.035 295.652C317.576 458.778 506.839 481.374 607.649 482.209Z" fill="url(#paint0_linear_4021_31323)"/>
<path d="M680.458 384.609C680.458 391.772 679.526 398.802 677.743 405.615C676.771 409.278 675.596 412.887 674.177 416.442C667.776 317.818 567.289 261.746 422.273 272.168C444.842 265.624 469.802 261.988 495.977 261.988C575.515 261.988 643.302 295.438 669.194 342.353C675.636 354.041 679.485 366.537 680.296 379.599C680.417 381.242 680.458 382.912 680.458 384.609Z" fill="url(#paint1_linear_4021_31323)"/>
<path d="M680.461 384.609C680.461 391.772 679.529 398.802 677.746 405.615C676.774 409.278 675.599 412.887 674.18 416.442C666.32 435.94 651.409 453.5 631.393 467.881C624.14 473.106 616.198 477.9 607.649 482.209C599.788 486.195 591.401 489.777 582.608 492.901C570.696 497.129 558.014 500.496 544.724 502.92C529.205 505.748 512.876 507.229 496.02 507.229C488.281 507.229 480.664 506.906 473.208 506.286C410.729 501.169 357.892 475.261 330.907 439.307C320.372 425.302 313.768 409.79 312.025 393.388C311.701 390.48 311.539 387.544 311.539 384.609C311.539 366.106 317.698 348.574 328.719 332.846C338.565 318.787 352.341 306.183 369.035 295.653C384.473 285.904 402.463 277.905 422.276 272.168C444.845 265.624 469.805 261.988 495.98 261.988C575.518 261.988 643.305 295.438 669.197 342.353C675.639 354.041 679.488 366.537 680.299 379.599C680.42 381.242 680.461 382.912 680.461 384.609Z" fill="url(#paint2_radial_4021_31323)"/>
<g opacity="0.9">
<path d="M537.863 183.813C536.549 190.494 533.392 195.74 527.667 198.607C522.6 201.144 518.856 205.295 514.161 208.187C509.679 210.948 505.248 213.871 500.501 216.102C493.412 219.432 488.227 224.464 484.749 231.386C484.499 231.885 484.255 232.384 483.842 233.229C483.399 230.291 483.919 227.917 484.932 225.6C486.766 221.414 489.99 218.404 493.31 215.429C497.237 211.905 501.051 208.248 504.912 204.653C505.105 204.475 505.294 204.291 505.742 203.868C505.121 206.023 504.596 207.866 503.98 210C509.057 207.877 513.351 205.019 517.216 201.485C521.092 197.94 524.133 193.8 525.956 188.809C526.088 188.824 526.226 188.844 526.358 188.86C526.536 190.775 526.715 192.695 526.893 194.589C531.543 192.374 534.588 184.918 533.611 177.859C535.001 178.037 536.356 178.287 537.726 178.373C539.096 178.46 540.476 178.394 541.917 178.205C539.06 174.686 537.206 170.831 536.025 166.491C534.4 166.787 532.791 167.052 531.196 167.398C530.967 167.449 530.794 167.841 530.636 168.101C525.518 176.219 518.53 181.999 509.404 185.126C508.93 185.289 508.411 185.748 508.212 186.201C507.591 187.612 506.577 188.641 505.177 189.063C502.157 189.97 499.116 190.887 496.02 191.447C493.193 191.961 489.791 188.692 489.592 185.626C489.358 182.015 490.708 179.799 494.171 178.699C496.666 177.91 499.249 177.37 501.826 176.876C502.651 176.718 503.684 176.845 504.423 177.227C505.447 177.767 506.323 177.67 507.321 177.35C514.4 175.058 519.615 170.612 522.971 163.838C519.605 160.787 517.517 156.922 516.249 152.613C514.033 145.091 514.451 137.604 516.916 130.214C517.242 129.232 517.12 128.595 516.534 127.8C513.585 123.777 510.163 120.288 505.686 117.971C504.759 117.492 504.56 116.978 504.891 115.949C506.384 111.32 508.355 106.95 511.517 103.196C513.31 101.068 513.835 101.144 514.777 103.675C517.369 110.617 519.075 117.742 519.177 125.193C519.33 125.341 519.478 125.488 519.63 125.636C519.814 125.249 519.926 124.796 520.191 124.48C521.026 123.487 521.8 122.382 522.824 121.623C524.306 120.518 524.331 119.367 523.863 117.706C522.187 111.727 520.033 105.982 516.106 101.088C514.436 99.005 512.49 97.1359 510.463 94.951C508.594 96.7182 506.806 98.1952 505.268 99.9013C502.085 103.441 499.447 107.368 497.486 111.722C497.109 112.557 496.717 113.316 495.627 112.924C494.573 112.542 494.089 111.712 494.191 110.612C494.242 110.057 494.476 109.517 494.65 108.885C485.223 107.352 476.351 109.303 467.596 112.598C468.609 110.398 470.83 109.873 472.816 108.676C469.939 105.412 467.209 102.157 464.306 99.0712C462.32 96.9576 460.125 95.0325 457.94 93.1175C457.186 92.4555 456.218 91.9971 455.286 91.5795C452.643 90.3928 450.682 91.2739 450 94.1259C449.465 96.3719 449.032 98.6892 448.94 100.986C448.772 105.142 448.66 109.323 448.961 113.459C449.241 117.345 450.081 121.195 450.723 125.356C452.047 123.731 453.168 122.417 454.191 121.032C454.4 120.747 454.308 120.166 454.232 119.743C453.03 112.995 452.19 106.222 452.45 99.3462C452.5 97.9762 453.02 97.6095 454.013 98.5415C455.887 100.309 457.797 102.132 459.249 104.235C461.143 106.975 462.605 110.011 464.265 112.914C464.774 113.8 464.617 114.381 463.756 115.032C456.341 120.645 451.742 128.035 450.071 137.187C449.078 142.631 448.793 148.111 449.725 153.606C449.786 153.953 449.939 154.284 450.122 154.859C453.05 152.379 456.473 150.673 459.045 147.597C456.346 146.481 455.928 144.337 455.979 141.974C455.515 141.867 455.108 141.775 454.507 141.638C455.261 140.059 456.147 138.771 457.695 138.103C458.811 137.625 459.768 138.047 460.613 138.847C463.308 141.404 463.471 146.104 460.832 148.778C458.123 151.523 455.327 154.177 452.546 156.84C452.134 157.232 451.594 157.492 451.115 157.813C451.222 157.986 451.324 158.164 451.431 158.338C451.925 158.389 452.424 158.434 452.918 158.501C455.434 158.821 458.006 158.908 460.445 159.534C464.479 160.568 465.63 164.724 462.605 167.617C460.873 169.272 458.551 170.306 456.488 171.615C456.381 171.681 456.249 171.717 455.964 171.839C456.616 173.779 457.39 175.542 459.422 176.448C466.949 179.804 474.013 178.832 480.715 174.228C483.379 172.394 485.447 170 487.377 167.459C487.565 167.21 487.738 166.945 487.952 166.716C488.864 165.753 490.091 165.483 490.967 166.033C491.955 166.66 492.383 167.923 491.604 169.104C490.759 170.382 489.679 171.589 488.472 172.527C483.71 176.219 478.581 179.28 472.668 180.777C467.784 182.015 462.951 182.02 458.245 179.952C457.975 179.835 457.685 179.774 457.201 179.626C457.685 181.617 458.683 183.033 460.221 184.011C463.904 186.349 468.003 186.817 472.22 186.334C476.789 185.814 481.077 184.342 485.136 182.193C485.467 182.02 485.951 182.127 486.363 182.106C486.358 182.555 486.501 183.069 486.323 183.436C485.212 185.753 483.282 187.311 481.123 188.523C475.062 191.931 468.879 192.374 462.625 188.972C462.518 188.911 462.376 188.911 462.539 188.946C461.092 193.418 459.666 197.844 458.225 202.315C460.507 201.959 462.63 200.935 464.576 198.699C463.853 202.463 463.685 205.804 464.484 209.145C465.284 212.491 466.644 215.547 469.093 218.541C469.109 215.16 469.343 212.144 470.789 209.15C471.212 211.386 471.517 213.428 471.986 215.424C473.336 221.19 475.984 226.288 479.987 230.678C480.303 231.024 480.298 231.656 480.445 232.155C479.926 232.104 479.325 232.211 478.907 231.987C475.49 230.148 472.811 227.495 470.524 224.306C470.672 224.938 470.804 225.575 470.967 226.206C471.13 226.853 471.309 227.495 471.507 228.136C474.426 237.609 479.187 245.992 486.246 253.01C488.273 255.027 488.273 254.991 490.672 253.438C495.576 250.265 500.822 247.841 506.516 246.461C507.489 246.226 508.151 245.926 508.248 244.683C508.467 241.796 508.788 238.903 509.266 236.046C509.862 232.45 510.652 228.885 511.37 225.31C511.431 225.009 511.589 224.724 511.741 224.454C511.797 224.357 511.95 224.312 512.286 224.103V245.152C513.728 245.152 514.965 245.101 516.198 245.162C519.58 245.335 522.691 246.328 525.36 248.457C525.935 248.915 526.333 249.598 526.811 250.173C526.725 250.27 526.638 250.372 526.552 250.469C524.917 250.112 523.282 249.756 521.647 249.399C516.152 248.197 510.815 249.155 505.513 250.581C498.215 252.542 491.823 256.229 486.124 261.098C483.522 263.323 481.189 265.88 478.836 268.381C478.123 269.14 477.67 270.178 477.232 271.151C475.317 275.439 476.575 278.857 480.939 281.128C480.069 275.521 482.014 271.273 487.076 268.533C486.852 268.921 486.577 269.287 486.409 269.7C485.503 271.91 484.275 274.059 483.807 276.366C482.992 280.369 484.774 283.313 489.592 282.901C490.03 282.865 490.463 282.799 491.003 282.733C490.596 277.823 491.65 273.56 496.3 270.866C496.06 271.401 495.831 271.941 495.571 272.465C494.527 274.574 493.819 276.764 493.85 279.142C493.855 279.626 493.972 280.115 494.084 280.588C494.303 281.546 494.813 281.846 495.852 281.627C499.956 280.757 503.267 278.582 506.002 275.506C507.367 273.973 508.538 272.272 509.806 270.652C510.015 270.382 510.265 270.148 510.713 269.669C510.667 271.64 511.731 271.406 512.928 271.34C518.826 271.014 524.652 270.224 530.397 268.834C530.529 268.803 530.657 268.763 530.789 268.742C537.318 267.719 540.109 263.104 541.769 257.37C543.414 251.701 544.565 245.936 545.029 240.054C545.431 234.971 545.747 229.878 546.109 224.79C546.129 224.495 546.226 224.199 546.297 223.843C547.932 225.712 550.015 238.113 548.283 248.289C553.178 244.398 558.377 241.775 564.754 243.695C567.433 244.5 569.831 245.834 571.726 248.381C569.842 247.851 568.253 247.321 566.623 246.955C559.518 245.356 553.071 248.034 549.19 254.207C546.317 258.775 546.788 258.007 545.865 259.669C559.06 262.403 571.329 265.696 584.887 271.302C584.887 261.212 583.097 252.411 579.299 242.804C575.49 233.173 570.412 224.245 563.837 216.27C558.372 209.639 552.495 203.344 546.75 196.947C543.506 193.336 540.511 189.573 538.551 185.086C538.413 184.775 538.23 184.49 537.873 183.838L537.863 183.813ZM481.163 148.294C480.486 145.178 483.516 140.512 486.582 139.748C489.455 139.03 494.084 141.302 494.884 143.976H492.159C491.09 149.603 487.57 150.917 483.094 147.434C482.457 147.719 481.826 147.999 481.169 148.294H481.163ZM495.118 133.983C490.102 130.617 485.869 131.62 482.152 136.229C481.927 135.384 481.744 134.727 481.861 134.131C482.579 130.591 485.915 128.513 489.434 129.451C491.899 130.102 493.881 131.478 495.113 133.983H495.118ZM455.592 132.323C457.104 129.272 460.053 127.831 461.994 128.967C463.72 129.98 464.377 133.535 463.119 135.287C461.367 132.634 459.376 130.515 455.592 132.323Z" fill="#E2E8F1"/>
<path d="M456.441 176.371C455.352 174.727 454.35 173.22 453.353 171.713C453.284 171.608 453.228 171.48 453.131 171.418C451.679 170.467 450.218 169.526 448.702 168.547C448.744 170.268 449.245 171.912 450.325 173.186C451.48 174.546 452.88 175.711 454.281 176.818C455.05 177.427 455.899 177.137 456.441 176.371Z" fill="#E2E8F1"/>
<path d="M459.632 296.061C458.954 293.581 458.358 291.36 457.737 289.15C452.16 269.349 446.594 249.547 440.981 229.761C440.599 228.422 440.044 227.057 439.25 225.921C438.185 224.388 436.27 224.444 434.636 224.139C424.867 222.315 415.089 220.538 405.315 218.766C395.277 216.942 385.234 215.134 375.191 213.321C373.128 212.949 371.076 212.537 369.003 212.236C366.772 211.91 365.677 213.24 366.334 215.486C368.178 221.811 370.072 228.126 371.931 234.447C375.527 246.665 379.112 258.883 382.693 271.101C383.324 273.26 384.72 274.62 386.864 275.236C410.393 282.025 433.922 288.814 457.452 295.592C458.048 295.766 458.664 295.857 459.637 296.071L459.632 296.061Z" fill="#E2E8F1"/>
<path d="M587.245 254.725C594.106 252.866 603.212 245.263 604.897 239.671C602.376 240.221 599.805 240.781 597.233 241.341C597.156 241.173 597.075 241 596.998 240.832C600.945 237.633 604.373 233.987 606.782 229.505C609.191 225.013 610.688 220.272 610.668 214.853C607.841 216.936 605.152 218.8 601.546 219.39C605.493 214.481 608.371 209.276 609.527 203.297C610.046 200.608 610.097 197.832 610.138 195.016C607.362 197.858 604.617 200.526 600.787 202.049C609.552 191.639 609.293 175.785 604.235 168.186C603.589 172.795 602.376 176.992 598.913 180.496C600.915 168.614 597.029 159.07 588.457 151.323C584.098 147.387 579.061 144.692 572.761 143.816C573.051 144.535 573.158 144.896 573.337 145.217C577.304 152.408 579.143 160.139 578.501 168.288C578.134 172.933 577.304 177.603 576.082 182.1C573.846 190.32 575.012 198.163 577.625 206.016C579.255 210.911 580.869 215.831 582.132 220.827C583.558 226.48 583.818 232.214 581.755 237.847C581.664 238.102 581.674 238.469 581.786 238.708C584.261 243.826 586.15 249.138 587.24 254.73L587.245 254.725Z" fill="#E2E8F1"/>
<path d="M385.627 277.906C384.446 280.122 385.184 282.072 387.654 282.846C392.666 284.42 397.708 285.897 402.74 287.394C423.896 293.694 445.062 299.964 466.203 306.32C469.472 307.303 472.559 307.211 475.752 306.085C494.02 299.633 512.314 293.236 530.593 286.819C532.294 286.223 533.002 285.097 532.798 283.157C530.929 283.773 529.085 284.354 527.257 284.985C510.547 290.756 493.837 296.521 477.148 302.332C474.214 303.356 471.408 303.142 468.495 302.276C449.04 296.49 429.574 290.74 410.109 285.001C402.129 282.648 394.128 280.341 386.137 278.018C385.969 277.967 385.796 277.942 385.633 277.911L385.627 277.906Z" fill="#E2E8F1"/>
<path d="M462.028 214.413C461.157 221.976 460.281 229.534 459.395 237.199C462.858 237.861 465.955 239.099 467.325 242.863C466.632 242.537 465.924 242.236 465.247 241.874C459.594 238.854 454.211 240.051 448.955 242.944C448.695 243.087 448.45 243.672 448.527 243.963C450.024 249.55 451.572 255.126 453.121 260.703C453.212 261.039 453.38 261.35 453.574 261.813C455.367 259.129 456.645 256.216 459.054 254.189C459.217 254.271 459.385 254.352 459.548 254.434C459.064 256.018 458.575 257.601 458.03 259.379C465.721 259.124 471.903 255.564 477.582 251.352C475.346 247.278 472.81 243.489 471.114 239.359C468.781 233.69 467.091 227.762 465.109 221.951C464.335 219.674 463.515 217.418 462.711 215.152C462.614 214.882 462.456 214.637 462.329 214.383L462.028 214.413Z" fill="#E2E8F1"/>
<path d="M532.076 280.38C531.449 280.019 531.052 279.667 530.599 279.545C525.48 278.19 520.377 276.754 515.208 275.608C513.079 275.134 510.848 275.898 509.336 277.442C506.117 280.732 502.613 283.466 498.116 284.709C496.7 285.101 495.228 285.285 493.838 285.743C492.183 286.288 490.538 286.919 488.99 287.709C485.185 289.644 481.533 289.242 477.617 287.811C471.653 285.626 465.526 283.879 459.384 281.923C459.313 283.074 460.026 283.365 460.861 283.604C467.11 285.392 473.354 287.195 479.598 288.997C479.812 289.059 480.041 289.115 480.214 289.237C480.515 289.451 480.785 289.721 481.065 289.965C480.79 290.22 480.561 290.597 480.235 290.704C477.031 291.783 473.838 292.909 470.584 293.81C469.591 294.085 468.384 293.846 467.334 293.596C465.618 293.189 463.953 292.588 461.956 291.967C462.522 293.973 463.005 295.705 463.52 297.426C463.571 297.599 463.81 297.793 463.999 297.844C466.968 298.582 469.927 299.418 472.932 299.962C474.001 300.156 475.249 299.81 476.328 299.443C494.587 293.25 512.835 287.021 531.083 280.793C531.327 280.711 531.556 280.594 532.086 280.365L532.076 280.38Z" fill="#E2E8F1"/>
<path d="M528.463 114.069C530.781 113.595 532.945 113.147 535.293 112.663C530.19 97.9189 521.007 86.9437 505.601 82.3753C489.584 77.6236 474.656 79.676 461.384 90.8296C461.883 91.3898 462.164 91.7056 462.444 92.0213C474.473 84.0916 487.409 81.866 501.063 86.3274C514.84 90.8296 523.488 100.761 528.468 114.069H528.463Z" fill="#E2E8F1"/>
<path d="M532.965 142.871C533.545 145.463 534.075 148.071 534.732 150.642C534.936 151.442 535.43 152.186 535.888 152.894C538.506 156.932 543.532 156.061 545.717 152.96C547.474 150.464 548.182 147.602 548.432 144.658C548.732 141.124 548.62 137.569 547.148 134.248C546.634 133.087 545.952 131.921 545.086 130.999C542.346 128.076 538.256 128.509 536.071 131.895C533.937 135.206 533.326 138.919 533.336 142.779C533.214 142.81 533.087 142.835 532.965 142.866V142.871Z" fill="#E2E8F1"/>
<path d="M544.002 157.626C543.208 157.886 542.429 158.202 541.624 158.395C538.176 159.215 535.156 157.937 532.915 154.626C530.048 150.394 529.37 145.617 529.798 140.662C530.124 136.898 531.015 133.251 533.302 130.134C535.136 127.639 537.427 125.882 540.758 126.223C541.614 126.31 542.449 126.605 543.284 126.799C541.079 122.006 535.497 120.988 531.362 124.512C527.919 127.451 526.106 131.229 525.235 135.533C523.982 141.731 523.931 147.899 526.411 153.832C527.191 155.696 528.26 157.57 529.63 159.037C533.485 163.162 537.692 163.233 542.255 159.735C542.963 159.195 543.605 158.573 544.277 157.988C544.186 157.866 544.089 157.743 543.997 157.621L544.002 157.626Z" fill="#E2E8F1"/>
<path d="M443.22 156.26C439.726 144.378 440.699 132.868 445.98 121.725C445.889 121.638 445.797 121.551 445.7 121.465C444.865 122.173 443.953 122.809 443.205 123.604C440.261 126.721 438.692 130.535 438 134.696C436.874 141.439 437.429 147.958 441.107 153.942C441.616 154.768 442.212 155.537 442.772 156.331C442.92 156.311 443.072 156.285 443.22 156.265V156.26Z" fill="#E2E8F1"/>
<path d="M507.718 179.878C508.055 180.673 508.345 181.355 508.64 182.058C518.495 178.712 525.192 172.035 529.715 162.797C529.119 162.384 528.549 161.992 527.876 161.523C525.615 165.756 523.079 169.621 519.697 172.891C516.315 176.161 512.297 178.289 507.718 179.878Z" fill="#E2E8F1"/>
<path d="M530.303 121.531C532.457 120.762 534.611 119.988 536.883 119.178C536.705 118.587 536.389 117.848 536.282 117.079C536.093 115.735 535.319 115.414 534.143 115.664C532.63 115.984 531.123 116.331 529.574 116.672C529.834 118.414 530.074 119.982 530.303 121.531Z" fill="#E2E8F1"/>
<path d="M454.723 161.918C453.224 160.672 451.622 160.459 450.261 161.363C449.937 161.575 449.602 162.018 449.564 162.39C449.542 162.626 450.019 163.022 450.343 163.175C451.534 163.742 453.658 163.128 454.723 161.912V161.918Z" fill="#E2E8F1"/>
<path d="M487.004 142.807C486.343 142.807 485.761 142.664 485.652 142.832C485.282 143.399 485.085 144.075 484.818 144.711C484.937 144.766 485.055 144.825 485.168 144.879C485.687 144.297 486.2 143.715 487.004 142.802V142.807Z" fill="#E2E8F1"/>
<path d="M458.164 141.937C458.684 141.937 459.142 141.821 459.228 141.956C459.519 142.415 459.674 142.961 459.884 143.475C459.791 143.519 459.698 143.567 459.608 143.61C459.201 143.14 458.797 142.67 458.164 141.933V141.937Z" fill="#E2E8F1"/>
<path d="M456.456 263.747C462.727 265.543 468.999 267.339 475.351 269.161C475.914 267.74 476.467 266.346 477.078 264.793C474.498 264.038 471.837 263.473 469.342 262.485C465.598 261.001 462.019 261.048 458.414 262.77C457.792 263.066 457.1 263.219 456.44 263.436C456.44 263.541 456.451 263.647 456.456 263.752V263.747Z" fill="#E2E8F1"/>
<path d="M457.299 274.77C457.833 275.296 458.284 276.094 458.912 276.301C464.933 278.269 470.987 280.143 477.035 282.029C477.25 282.094 477.497 282.035 477.728 282.035C477.8 281.887 477.871 281.739 477.938 281.592C477.173 281.101 476.457 280.433 475.632 280.149C470.546 278.417 465.439 276.774 460.337 275.112C459.435 274.817 458.516 274.58 457.602 274.32L457.305 274.764L457.299 274.77Z" fill="#E2E8F1"/>
</g>
</g>
<defs>
<linearGradient id="paint0_linear_4021_31323" x1="460.346" y1="561.954" x2="459.551" y2="258.076" gradientUnits="userSpaceOnUse">
<stop stop-color="#708AB9"/>
<stop offset="1" stop-color="#708AB9" stop-opacity="0.2"/>
</linearGradient>
<linearGradient id="paint1_linear_4021_31323" x1="660.073" y1="261.934" x2="593.91" y2="372.224" gradientUnits="userSpaceOnUse">
<stop stop-color="#B0D5F1"/>
<stop offset="0.557292" stop-color="#B0D5F1" stop-opacity="0.2"/>
</linearGradient>
<radialGradient id="paint2_radial_4021_31323" cx="0" cy="0" r="1" gradientUnits="userSpaceOnUse" gradientTransform="translate(487.853 319.691) scale(281.688 187.231)">
<stop stop-color="#708AB9"/>
<stop offset="1" stop-color="#42629B"/>
</radialGradient>
<clipPath id="clip0_4021_31323">
<rect width="872" height="320" fill="white"/>
</clipPath>
</defs>
</svg>
