<svg width="486" height="316" viewBox="0 0 486 316" fill="none" xmlns="http://www.w3.org/2000/svg">
<g clip-path="url(#clip0_4026_31549)">
<g opacity="0.8">
<path d="M237.142 72.306C238.186 72.6331 239.225 73.0118 240.286 73.2642C241.262 73.4995 241.778 74.0159 241.893 75.0314C242.036 76.2536 242.254 77.4642 242.495 78.6691C242.604 79.2314 242.84 79.765 243.023 80.3159C243.212 80.3159 243.402 80.3159 243.591 80.3101C243.826 78.9388 244.24 77.5675 244.257 76.1962C244.285 74.2282 245.244 73.3388 247.04 72.9945C247.803 72.8454 248.526 72.5011 249.266 72.2429C249.266 72.0822 249.266 71.9216 249.271 71.7609C248.376 71.5085 247.493 71.1757 246.58 71.0265C245.135 70.7855 244.481 69.9708 244.343 68.5536C244.228 67.3831 243.993 66.2241 243.769 65.065C243.677 64.606 243.482 64.1642 243.333 63.7109H242.817C242.587 64.979 242.329 66.2413 242.14 67.515C241.703 70.4241 241.715 70.4183 238.852 71.1872C238.278 71.3421 237.727 71.5773 237.165 71.7782C237.153 71.956 237.148 72.1339 237.136 72.3118L237.142 72.306Z" fill="#708AB9"/>
<path d="M95.9829 154.786C97.4231 155.239 98.41 155.595 99.4255 155.853C100.453 156.112 100.952 156.708 101.095 157.764C101.319 159.405 101.652 161.029 101.944 162.664C102.094 162.676 102.237 162.681 102.386 162.693C102.541 162.366 102.759 162.05 102.839 161.706C103.012 160.96 103.218 160.197 103.218 159.445C103.218 157.03 104.303 155.641 106.764 155.36C107.275 155.303 107.751 154.993 108.244 154.798C108.244 154.637 108.256 154.471 108.256 154.31C107.372 154.052 106.5 153.708 105.599 153.564C104.136 153.335 103.551 152.491 103.385 151.097C103.212 149.599 102.891 148.113 102.633 146.621C102.495 146.599 102.358 146.576 102.22 146.547C102.048 146.851 101.83 147.138 101.721 147.459C101.594 147.844 101.508 148.257 101.508 148.664C101.474 151.671 100.556 153.937 97.0559 154.121C96.8493 154.132 96.6485 154.362 95.9829 154.786Z" fill="#708AB9"/>
<path d="M179.634 88.7487C180.064 88.1806 180.919 87.5265 180.827 87.056C180.701 86.3962 179.875 85.8683 179.347 85.2773C178.807 85.7708 177.872 86.2355 177.826 86.7749C177.769 87.3831 178.509 88.0601 178.905 88.7085C179.146 88.72 179.393 88.7314 179.634 88.7429V88.7487Z" fill="#708AB9"/>
<path d="M125.282 197.991C126.114 198.541 126.613 199.127 126.998 199.058C127.428 198.978 127.956 198.358 128.053 197.893C128.111 197.629 127.405 196.906 127.044 196.906C126.585 196.906 126.131 197.434 125.276 197.991H125.282Z" fill="#708AB9"/>
<path d="M204.466 114.188C205.304 114.636 205.798 115.112 206.234 115.06C206.595 115.02 206.888 114.36 207.209 113.976C206.79 113.637 206.4 113.087 205.947 113.029C205.614 112.989 205.195 113.586 204.466 114.188Z" fill="#708AB9"/>
<path d="M141.554 213.313C141.967 212.682 142.443 212.274 142.397 211.936C142.346 211.569 141.818 211.27 141.491 210.938C141.164 211.27 140.601 211.586 140.584 211.936C140.561 212.292 141.078 212.676 141.554 213.313Z" fill="#708AB9"/>
<path d="M116.534 131.601C117.107 131.991 117.526 132.473 117.773 132.398C118.14 132.289 118.381 131.779 118.674 131.434C118.347 131.182 118.025 130.74 117.693 130.734C117.377 130.734 117.062 131.182 116.534 131.601Z" fill="#708AB9"/>
<path d="M163.412 143.217C163.889 143.952 164.09 144.629 164.485 144.772C164.864 144.91 165.541 144.6 165.914 144.285C166.849 143.493 167.28 141.559 166.712 140.808C166.482 140.503 165.702 140.182 165.639 140.263C164.858 141.192 164.158 142.19 163.407 143.223L163.412 143.217Z" fill="#708AB9"/>
<path d="M-8.75241 334.251C32.5836 303.28 77.1142 282.609 125.652 269.635C121.95 275.558 118.703 280.766 115.099 286.54C116.954 285.843 118.821 285.66 120.046 284.594C123.225 281.811 126.853 279.152 128.992 275.535C138.042 260.238 151.618 254.614 167.093 252.708C174.53 251.786 182.064 251.303 189.174 254.126C192.901 255.605 196.382 258.027 199.676 260.495C204.564 264.161 209.593 267.085 215.75 266.88C216.789 266.845 217.837 266.706 219.23 266.576C214.276 263.229 209.638 260.109 205.01 256.979C226.903 254.513 248.522 254.749 270.417 256.654C267.508 265.885 264.693 274.82 261.889 283.735C257.43 283.942 253.022 284.112 248.623 284.398C247.311 284.482 245.863 284.596 244.749 285.264C240.255 287.952 235.247 288.07 230.455 289.233C228.907 289.611 227.34 290.092 225.922 290.838C224.072 291.808 223.623 293.54 225.284 294.954C226.837 296.274 228.66 297.471 230.539 298.034C244.17 302.077 257.4 307.972 271.914 308.057C279.89 308.105 287.84 308.13 295.582 305.485C297.085 304.967 298.601 304.303 299.946 303.404C303.173 301.275 303.376 297.635 300.454 295.074C296.249 291.394 291.173 289.766 286.08 288.23C284.64 287.8 283.173 287.473 281.334 286.997C284.41 277.823 287.462 268.71 290.654 259.189C338.081 267.688 382.325 284.283 420.848 317.471C416.97 319.7 413.587 321.752 410.102 323.543C409.459 323.875 408.3 323.197 407.463 322.788C402.954 320.601 398.498 318.252 393.284 319.189C387.905 320.155 386.08 325.235 389.486 329.831C390.412 331.085 391.473 332.216 392.621 333.574C383.781 338.355 374.83 341.88 365.248 343.19C364.656 343.275 363.883 343.008 363.41 342.6C354.283 334.653 343.866 330.713 332.105 330.837C331.318 330.841 330.518 331.002 329.745 331.175C327.456 331.688 325.058 332.233 324.414 335.205C323.702 338.518 324.431 341.705 327.159 343.296C331.521 345.847 336.175 347.795 340.573 349.94C338.851 350.209 336.627 350.633 334.39 350.877C323.569 352.1 312.706 352.921 301.95 354.61C295.162 355.673 288.494 357.888 281.823 359.798C271.011 362.888 260.261 363.194 249.598 359.757C247.602 359.11 245.827 357.697 244.098 356.299C248.882 357.744 253.517 356.515 258.088 355.584C261.037 354.982 262.599 351.818 261.15 348.871C259.83 346.188 257.922 343.558 255.678 341.79C248.769 336.343 240.627 335.012 232.277 335.183C225.454 335.33 218.901 337.094 213.176 341.467C211.172 343 209.284 344.952 207.83 347.099C205.339 350.791 206.147 354.058 209.986 355.673C213.336 357.077 216.888 357.912 220.364 358.97C222.475 359.616 224.6 360.221 226.743 361.488C223.311 361.901 219.876 362.68 216.453 362.663C205.023 362.627 193.596 362.33 182.174 362.096C180.939 362.071 179.703 361.827 178.471 361.657C176.179 361.33 174.414 360.557 173 358.086C169.963 352.779 164.722 351.073 159.434 349.573C150.719 347.113 142.021 348.951 133.309 349.866C121.605 351.085 109.906 352.807 98.184 353.364C85.6723 353.957 73.1997 352.897 60.856 348.39C63.2529 347.635 65.374 347.182 67.3249 346.262C68.286 345.801 68.9097 344.483 69.6911 343.556C68.8196 342.882 68.0294 341.828 67.0703 341.607C61.8777 340.44 56.6837 339.179 51.4248 338.551C47.7699 338.116 43.9924 338.645 40.279 338.771C26.6069 339.252 12.9453 339.503 -0.537173 336.72C-3.08091 336.193 -5.53793 335.224 -8.71433 334.254L-8.75241 334.251ZM59.9809 332.739C70.9239 332.753 81.1147 329.525 90.5231 323.4C93.2185 321.644 95.5615 319.093 97.7831 316.614C99.2809 314.953 100.305 312.789 99.1137 310.285C97.9641 307.858 96.139 306.681 93.6392 306.421C84.705 305.482 76.233 307.592 68.0873 311.564C63.1782 313.954 58.5473 316.892 55.0096 321.477C53.3434 323.637 51.4918 326.053 52.4886 329.023C53.5084 332.057 56.278 332.415 58.9061 332.634C59.2583 332.665 59.6105 332.696 59.9627 332.727L59.9809 332.739ZM148.322 279.888C159.758 280.522 169.689 278.949 179.185 274.78C182.657 273.25 185.898 270.85 188.89 268.334C191.303 266.303 190.893 263.636 188.171 262.077C186.417 261.075 184.44 260.221 182.486 259.966C171.16 258.514 160.079 259.965 149.565 265.135C146.398 266.692 143.46 269.139 140.874 271.722C138.415 274.179 139.053 277.086 142.093 278.295C144.456 279.235 147.036 279.576 148.322 279.898L148.322 279.888ZM331.499 280.318C329.091 280.653 325.801 280.763 322.656 281.62C318.716 282.701 317.894 285.951 320.609 289.239C322.057 290.99 323.833 292.508 325.658 293.799C333.311 299.185 341.821 302.236 350.894 303.008C354.664 303.338 358.643 302.691 362.363 301.727C365.238 300.983 365.788 298.432 364.008 295.865C362.917 294.292 361.518 292.86 360.012 291.764C351.643 285.676 342.261 282.402 331.499 280.318ZM155.216 328.053C164.135 328.394 174.375 325.265 183.252 318.967C185.031 317.708 186.804 316.301 188.238 314.603C190.442 311.987 190.02 309.361 187.162 307.717C185.646 306.84 183.866 306.14 182.174 306.075C170.703 305.617 160.146 308.98 150.607 316.153C149.673 316.857 148.867 317.845 148.176 318.843C146.233 321.639 146.565 324.205 149.345 325.863C151.132 326.931 153.254 327.347 155.225 328.054L155.216 328.053ZM114.967 346.815C119.638 346.71 124.133 346.757 127.885 343.553C128.746 342.811 129.747 341.243 129.567 340.336C129.381 339.387 127.944 338.381 126.887 338.079C122.619 336.867 118.299 337.023 114.13 338.839C112.146 339.703 109.905 340.764 110.208 343.652C110.538 346.794 113.331 346.116 114.966 346.825L114.967 346.815Z" fill="#708AB9"/>
<path d="M374.398 184.172C368.756 180.694 362.569 179.724 356.288 178.974C352.908 178.568 349.557 177.889 346.218 177.206C345.342 177.024 344.457 176.49 343.751 175.91C342.278 174.706 342.533 173.555 344.007 172.38C345.054 171.543 346.166 170.457 346.6 169.249C349.885 160.093 353.016 150.877 356.178 141.67C356.408 141.01 356.501 140.303 356.657 139.615C356.771 139.621 356.942 139.575 356.987 139.637C359.561 143.024 363.354 142.789 366.957 142.899C372.487 143.064 377.867 143.802 382.944 146.134C383.371 146.332 383.776 146.56 384.505 146.931C381.978 150.216 379.529 153.433 377.044 156.62C375.884 158.104 374.785 159.671 373.433 160.962C372.061 162.27 371.933 163.671 372.169 165.385C372.973 171.253 373.685 177.13 374.417 183.01C374.459 183.341 374.404 183.687 374.391 184.178L374.398 184.172Z" fill="#708AB9"/>
<path d="M342.918 167.682C340.444 164.927 337.44 163.863 334.141 163.484C329.81 162.99 325.466 162.566 320.979 162.094C322.853 156.437 324.686 150.936 326.492 145.432C328.537 139.191 330.587 132.951 332.569 126.692C332.906 125.62 333.309 125.196 334.519 125.31C339.389 125.783 344.299 126.063 348.879 127.958C350.258 128.532 351.537 129.447 352.725 130.384C354.645 131.897 355.354 133.731 354.453 136.279C351.261 145.284 348.26 154.361 345.111 163.383C344.598 164.852 343.697 166.178 342.918 167.682Z" fill="#708AB9"/>
<path d="M271.609 292.326C271.609 292.326 271.368 294.295 269.04 294.023C265.786 293.642 265.319 291.611 265.849 289.522C277.68 242.818 312.491 152.032 322.816 124.176C323.438 122.496 325.543 121.841 327.143 122.649C328.52 123.344 329.599 123.801 328.799 126.236C316.224 164.508 271.609 292.326 271.609 292.326Z" fill="#708AB9"/>
</g>
</g>
<defs>
<clipPath id="clip0_4026_31549">
<rect width="486" height="316" fill="white"/>
</clipPath>
</defs>
</svg>
