<svg width="872" height="320" viewBox="0 0 872 320" fill="none" xmlns="http://www.w3.org/2000/svg">
<g opacity="0.8">
<path d="M221.374 277.825C228.505 277.739 234.156 272.268 234.081 265.523C234.001 258.372 228.586 252.837 221.719 252.883C214.576 252.935 208.874 258.612 208.989 265.558C209.104 272.44 214.622 277.905 221.374 277.819V277.825Z" fill="#C0CAD6"/>
<path d="M802.914 211.332C802.415 204.68 799.266 199.346 792.76 196.467C786.478 193.685 780.472 194.666 775.298 199.128C773.663 200.539 772.71 202.753 771.483 204.616C770.834 205.603 771.247 206.262 772.165 206.882C779.221 211.648 786.587 215.846 794.493 219.057C795.726 219.556 796.977 220.032 798.158 220.634C799.288 221.214 799.948 220.818 800.556 219.866C802.145 217.371 802.736 214.601 802.914 211.332Z" fill="#C0CAD6"/>
<path d="M804.491 214.225C803.602 215.899 803.528 217.069 805.008 218.205C806.465 219.318 807.767 220.654 809 222.019C809.551 222.632 809.769 223.544 810.136 224.324C809.27 224.45 808.335 224.846 807.543 224.663C804.457 223.946 801.359 223.2 798.365 222.179C786.782 218.216 776.175 212.413 766.537 204.86C765.333 203.913 764.208 202.858 763.118 201.78C762.803 201.464 762.728 200.902 762.545 200.455C763.003 200.312 763.474 200.002 763.91 200.048C765.074 200.18 766.239 200.403 767.375 200.696C769.658 201.281 769.83 201.235 771.173 198.981C770.932 198.832 770.708 198.603 770.444 198.539C767.96 197.926 765.482 197.284 762.981 196.773C762.154 196.601 761.237 196.67 760.393 196.819C757.961 197.249 757.192 198.907 758.603 200.942C759.584 202.359 760.812 203.632 762.068 204.819C766.784 209.281 772.102 212.917 777.758 216.072C786.553 220.975 795.628 225.23 805.553 227.352C807.291 227.725 809.098 227.995 810.871 227.96C813.813 227.903 814.932 225.695 813.366 223.217C811.094 219.627 808.088 216.754 804.491 214.236V214.225Z" fill="#C0CAD6"/>
<path d="M794.156 226.528C785.964 222.25 777.841 218 769.752 213.773C768.714 217.432 772.523 223.729 777.732 226.649C783.251 229.74 791.282 229.654 794.151 226.528H794.156Z" fill="#C0CAD6"/>
<path d="M757.863 261.703C756.905 261.445 755.964 261.101 754.989 260.952C753.446 260.711 752.643 259.96 752.54 258.348C752.454 257.029 752.167 255.716 751.926 254.408C751.828 253.892 751.627 253.393 751.473 252.883C751.329 252.883 751.192 252.883 751.048 252.889C750.91 253.382 750.75 253.875 750.635 254.374C750.532 254.821 750.411 255.28 750.406 255.733C750.394 258.87 749.459 261.222 745.793 261.394C745.449 261.411 745.122 261.726 744.772 262.323C745.713 262.609 746.637 262.982 747.595 263.166C749.166 263.458 749.987 264.255 750.13 265.913C750.268 267.513 750.658 269.096 751.295 270.725C751.461 270.461 751.696 270.214 751.782 269.927C751.932 269.44 752.058 268.929 752.075 268.425C752.19 265.259 753.194 262.868 756.871 262.65C757.209 262.627 757.531 262.305 757.858 262.122C757.858 261.984 757.858 261.841 757.858 261.703H757.863Z" fill="#C0CAD6"/>
<path d="M553.873 31.1145C554.917 31.4414 555.955 31.8199 557.016 32.0723C557.992 32.3074 558.508 32.8236 558.623 33.8387C558.766 35.0602 558.984 36.2703 559.225 37.4747C559.334 38.0367 559.569 38.5701 559.753 39.1207C559.942 39.1207 560.131 39.1207 560.321 39.1149C560.556 37.7442 560.969 36.3736 560.986 35.0029C561.015 33.0358 561.973 32.1468 563.768 31.8027C564.531 31.6536 565.254 31.3095 565.994 31.0515C565.994 30.8909 565.994 30.7303 566 30.5697C565.105 30.3174 564.222 29.9847 563.309 29.8356C561.864 29.5947 561.21 28.7804 561.072 27.3638C560.957 26.1939 560.722 25.0354 560.498 23.8769C560.407 23.4181 560.212 22.9765 560.063 22.5234H559.546C559.317 23.7909 559.059 25.0526 558.869 26.3258C558.433 29.2334 558.445 29.2277 555.582 29.9962C555.008 30.151 554.458 30.3862 553.896 30.5869C553.884 30.7647 553.878 30.9425 553.867 31.1203L553.873 31.1145Z" fill="#C0CAD6"/>
<path d="M723.908 45.5755C724.952 45.9024 725.99 46.2809 727.051 46.5332C728.027 46.7684 728.543 47.2845 728.658 48.2996C728.801 49.5212 729.019 50.7313 729.26 51.9356C729.369 52.4977 729.604 53.031 729.788 53.5816C729.977 53.5816 730.167 53.5816 730.356 53.5759C730.591 52.2052 731.004 50.8345 731.021 49.4638C731.05 47.4967 732.008 46.6078 733.804 46.2637C734.567 46.1146 735.289 45.7705 736.029 45.5124C736.029 45.3518 736.029 45.1912 736.035 45.0306C735.14 44.7783 734.257 44.4457 733.345 44.2966C731.899 44.0557 731.245 43.2413 731.107 41.8248C730.993 40.6548 730.757 39.4963 730.534 38.3378C730.442 37.879 730.247 37.4374 730.098 36.9844H729.581C729.352 38.2518 729.094 39.5135 728.904 40.7867C728.468 43.6944 728.48 43.6886 725.617 44.4571C725.044 44.612 724.493 44.8471 723.931 45.0478C723.919 45.2256 723.913 45.4034 723.902 45.5812L723.908 45.5755Z" fill="#C0CAD6"/>
<path d="M360.874 84.2121C362.314 84.6652 363.3 85.0207 364.316 85.2788C365.343 85.5369 365.842 86.1333 365.985 87.1886C366.209 88.8288 366.542 90.4518 366.834 92.0863C366.983 92.0978 367.127 92.1035 367.276 92.115C367.431 91.7881 367.649 91.4726 367.729 91.1285C367.901 90.383 368.108 89.6202 368.108 88.8689C368.108 86.4545 369.192 85.0666 371.653 84.7856C372.164 84.7282 372.64 84.4185 373.133 84.2236C373.133 84.063 373.145 83.8967 373.145 83.7361C372.261 83.478 371.389 83.1339 370.488 82.9905C369.026 82.7611 368.44 81.9181 368.274 80.5245C368.102 79.0276 367.781 77.5422 367.523 76.0511C367.385 76.0282 367.247 76.0052 367.11 75.9766C366.937 76.2805 366.719 76.5673 366.61 76.8884C366.484 77.2727 366.398 77.6856 366.398 78.0928C366.364 81.098 365.446 83.3633 361.946 83.5468C361.74 83.5583 361.539 83.7877 360.874 84.2121Z" fill="#C0CAD6"/>
<path d="M124.506 264.879C123.525 267.683 122.297 269.909 119.004 270.448C122.171 270.97 123.611 272.879 124.402 275.753C125.28 272.919 126.806 270.958 129.973 270.425C126.737 269.851 125.102 268.016 124.506 264.879Z" fill="#C0CAD6"/>
<path d="M736.317 136.763C736.598 135.593 736.592 134.211 737.246 133.311C737.877 132.439 739.191 132.061 740.258 131.436C739.219 130.81 737.889 130.403 737.246 129.503C736.575 128.568 736.569 127.157 736.277 125.953C736.116 125.953 735.955 125.947 735.8 125.941C735.514 127.146 735.519 128.557 734.854 129.486C734.206 130.392 732.875 130.81 731.899 131.413C732.886 132.009 734.223 132.422 734.894 133.328C735.542 134.211 735.508 135.599 735.772 136.763C735.955 136.763 736.139 136.763 736.322 136.763H736.317Z" fill="#C0CAD6"/>
<path d="M680.831 75.9648C680.2 78.0008 679.351 79.6639 676.907 80.0597C679.265 80.5357 680.16 82.1587 680.808 84.1602C681.824 82.4053 682.3 80.2833 684.996 80.1285C682.443 79.7213 681.686 77.8861 680.831 75.9648Z" fill="#C0CAD6"/>
<path d="M619.278 31.511C619.295 32.8989 620.454 33.9714 621.905 33.9427C623.322 33.9198 624.47 32.767 624.441 31.4021C624.406 30.0085 623.259 28.8672 621.888 28.8672C620.414 28.8672 619.266 30.0314 619.284 31.511H619.278Z" fill="#C0CAD6"/>
<path d="M271.336 41.3545C268.812 40.8613 268.295 38.9744 267.699 36.9844C266.896 38.8425 266.454 40.8785 263.855 41.257C266.104 41.7846 266.999 43.2528 267.418 45.2944C268.422 43.6886 268.754 41.5609 271.33 41.3545H271.336Z" fill="#C0CAD6"/>
<path d="M163.451 178.869C164.719 178.898 165.924 177.751 165.975 176.46C166.021 175.176 164.897 173.971 163.606 173.92C162.241 173.868 160.99 175.049 160.996 176.386C160.996 177.67 162.149 178.829 163.457 178.863L163.451 178.869Z" fill="#C0CAD6"/>
<path d="M125.559 107.269C123.671 107.051 123.023 105.307 122.162 103.18C121.491 105.267 120.981 106.913 119.002 107.206C120.212 108.399 121.308 109.465 122.283 110.429C123.235 109.511 124.365 108.416 125.559 107.263V107.269Z" fill="#C0CAD6"/>
<path d="M684.784 265.225C684.784 266.561 685.879 267.634 687.25 267.616C688.587 267.599 689.539 266.636 689.562 265.271C689.58 263.9 688.524 262.856 687.124 262.879C685.828 262.896 684.789 263.94 684.784 265.225Z" fill="#C0CAD6"/>
<path d="M270.126 283.873C268.784 283.97 267.9 285.008 267.986 286.379C268.078 287.738 269.013 288.581 270.315 288.466C271.658 288.346 272.587 287.296 272.507 285.983C272.432 284.756 271.337 283.786 270.126 283.873Z" fill="#C0CAD6"/>
<path d="M316.843 257.029C316.855 258.244 317.784 259.151 319.006 259.145C320.205 259.133 321.031 258.308 321.031 257.103C321.031 255.836 320.039 254.849 318.788 254.884C317.652 254.918 316.838 255.819 316.843 257.029Z" fill="#C0CAD6"/>
<path d="M413.34 23.8921C413.128 22.2863 412.6 21.512 411.418 21.5694C410.351 21.621 409.726 22.3493 409.726 23.3874C409.726 24.5172 410.449 25.3258 411.561 25.1251C412.279 24.9989 412.881 24.2304 413.34 23.8921Z" fill="#C0CAD6"/>
<path d="M830.222 189.916C829.722 190.57 828.942 191.166 828.793 191.889C828.581 192.944 829.384 193.609 830.457 193.592C831.518 193.575 832.298 192.892 832.155 191.854C832.057 191.166 831.352 190.57 830.916 189.927C830.686 189.927 830.451 189.916 830.222 189.91V189.916Z" fill="#C0CAD6"/>
<path d="M521.655 23.8213C522.086 23.2535 522.94 22.5997 522.849 22.1294C522.722 21.4699 521.896 20.9423 521.369 20.3516C520.829 20.8448 519.894 21.3093 519.848 21.8484C519.791 22.4563 520.531 23.1331 520.927 23.7811C521.168 23.7926 521.414 23.8041 521.655 23.8155V23.8213Z" fill="#C0CAD6"/>
<path d="M702.793 141.805C703.407 142.195 704.044 142.9 704.635 142.872C705.151 142.843 705.908 142.04 706.04 141.461C706.241 140.549 705.53 139.804 704.589 139.953C703.94 140.056 703.378 140.698 702.782 141.1C702.782 141.335 702.793 141.57 702.793 141.811V141.805Z" fill="#C0CAD6"/>
<path d="M722.428 212.269C721.424 211.587 720.822 210.859 720.3 210.904C719.755 210.956 719.284 211.765 718.779 212.241C719.307 212.757 719.772 213.571 720.38 213.692C720.827 213.783 721.458 212.98 722.434 212.269H722.428Z" fill="#C0CAD6"/>
<path d="M676.912 181.323C677.807 181.816 678.386 182.401 678.817 182.304C679.27 182.201 679.895 181.409 679.849 180.99C679.803 180.56 679.017 179.912 678.564 179.918C678.117 179.918 677.681 180.629 676.912 181.329V181.323Z" fill="#C0CAD6"/>
<path d="M16.969 263.682C17.8582 264.29 18.3859 264.932 18.8334 264.875C19.321 264.817 19.7341 264.118 20.1758 263.699C19.7341 263.286 19.3325 262.592 18.8449 262.535C18.3974 262.478 17.8639 263.097 16.969 263.682Z" fill="#C0CAD6"/>
<path d="M222.99 116.293C223.914 116.804 224.453 117.343 224.924 117.285C225.331 117.239 225.996 116.448 225.933 116.104C225.847 115.634 225.182 114.951 224.752 114.945C224.298 114.934 223.834 115.611 222.99 116.293Z" fill="#C0CAD6"/>
<path d="M634.543 143.113C633.957 143.956 633.372 144.432 633.372 144.903C633.372 145.298 634.055 145.694 634.439 146.09C634.864 145.677 635.518 145.316 635.633 144.828C635.719 144.472 635.099 143.945 634.543 143.113Z" fill="#C0CAD6"/>
<path d="M680.786 43.9452C681.566 44.5247 682.025 45.1157 682.358 45.0526C682.811 44.9665 683.173 44.3812 683.574 44.014C683.23 43.6468 682.897 42.9984 682.536 42.9812C682.094 42.9583 681.618 43.4575 680.791 43.9509L680.786 43.9452Z" fill="#C0CAD6"/>
<path d="M530.578 33.8172C531.415 34.2647 531.909 34.741 532.345 34.6893C532.706 34.6492 532.999 33.9893 533.32 33.6049C532.901 33.2664 532.511 32.7155 532.058 32.6582C531.725 32.618 531.306 33.2147 530.578 33.8172Z" fill="#C0CAD6"/>
<path d="M823.643 61.4731C824.136 60.8365 824.693 60.4294 824.675 60.0623C824.652 59.6838 824.067 59.334 823.729 58.9727C823.385 59.3397 822.863 59.6609 822.765 60.0853C822.696 60.3835 823.201 60.8193 823.643 61.4789V61.4731Z" fill="#C0CAD6"/>
<path d="M813.763 119.975C814.388 120.371 814.796 120.836 815.134 120.79C815.501 120.738 815.794 120.21 816.121 119.883C815.76 119.55 815.433 119.011 815.031 118.948C814.738 118.902 814.342 119.476 813.763 119.975Z" fill="#C0CAD6"/>
<path d="M550.614 112.869C550.23 113.511 549.817 113.901 549.84 114.263C549.857 114.555 550.477 115.077 550.712 115.02C551.09 114.928 551.595 114.458 551.624 114.108C551.653 113.798 551.108 113.443 550.614 112.863V112.869Z" fill="#C0CAD6"/>
<path d="M71.1629 219.051C70.7211 219.648 70.2679 219.998 70.2449 220.365C70.2277 220.646 70.8531 221.254 71.0424 221.197C71.4269 221.082 71.8687 220.669 71.9777 220.29C72.0465 220.043 71.5703 219.642 71.1629 219.051Z" fill="#C0CAD6"/>
<path d="M216.916 164.928C216.457 165.473 215.987 165.788 215.987 166.098C215.987 166.408 216.463 166.718 216.727 167.022C217.037 166.752 217.53 166.517 217.599 166.19C217.662 165.903 217.255 165.513 216.916 164.922V164.928Z" fill="#C0CAD6"/>
<path d="M268.145 226.628C267.531 226.26 267.152 225.847 266.848 225.899C266.521 225.956 266.268 226.444 265.981 226.742C266.286 227.018 266.584 227.5 266.899 227.511C267.215 227.528 267.554 227.075 268.145 226.633V226.628Z" fill="#C0CAD6"/>
<path d="M385.809 75.425C386.383 75.8152 386.802 76.2971 387.048 76.2225C387.416 76.1135 387.657 75.6029 387.949 75.2586C387.622 75.0061 387.301 74.5643 386.968 74.5586C386.653 74.5586 386.337 75.0061 385.809 75.425Z" fill="#C0CAD6"/>
<path d="M159.9 219.05C160.25 218.419 160.646 218.023 160.583 217.725C160.514 217.403 160.021 217.174 159.717 216.898C159.459 217.214 159 217.524 159 217.839C159 218.155 159.447 218.471 159.9 219.044V219.05Z" fill="#C0CAD6"/>
<path d="M630.111 52.4729C630.708 52.8516 631.075 53.2647 631.367 53.2188C631.683 53.1672 631.93 52.6852 632.211 52.3869C631.913 52.1115 631.626 51.641 631.31 51.618C631.012 51.5951 630.673 52.0484 630.111 52.4729Z" fill="#C0CAD6"/>
<path d="M313.749 58.9727C313.359 59.5579 312.98 59.8907 312.974 60.2235C312.974 60.4817 313.439 60.7456 313.703 61.0095C313.984 60.7112 314.403 60.453 314.495 60.1087C314.552 59.8792 314.133 59.5292 313.749 58.9784V58.9727Z" fill="#C0CAD6"/>
<path d="M352.472 21.0904C353.011 21.4404 353.344 21.819 353.602 21.7789C353.883 21.733 354.291 21.2854 354.285 21.0215C354.279 20.769 353.832 20.3559 353.551 20.333C353.287 20.31 352.988 20.7059 352.478 21.0904H352.472Z" fill="#C0CAD6"/>
<path d="M415.103 64.8098C415.579 65.5439 415.779 66.2206 416.175 66.364C416.554 66.5016 417.231 66.1919 417.604 65.8765C418.539 65.0851 418.969 63.1524 418.401 62.4011C418.172 62.0971 417.391 61.776 417.328 61.8562C416.548 62.7853 415.848 63.7832 415.097 64.8155L415.103 64.8098Z" fill="#C0CAD6"/>
<path d="M501.024 254.656C501.018 255.774 501.93 256.761 503.003 256.795C504.156 256.835 505.085 255.981 505.131 254.845C505.177 253.664 504.248 252.649 503.083 252.614C502.01 252.58 501.029 253.555 501.024 254.656Z" fill="#C0CAD6"/>
<path d="M439.238 296.211C439.864 296.658 440.449 297.381 441.126 297.49C442.153 297.656 442.881 296.933 442.898 295.838C442.91 294.748 442.164 293.98 441.177 294.118C440.472 294.215 439.864 295.018 439.215 295.5C439.221 295.735 439.233 295.97 439.238 296.205V296.211Z" fill="#C0CAD6"/>
<path d="M390.167 127.396C390.999 127.947 391.498 128.532 391.883 128.463C392.313 128.383 392.841 127.763 392.938 127.299C392.995 127.035 392.29 126.312 391.928 126.312C391.47 126.312 391.016 126.84 390.162 127.396H390.167Z" fill="#C0CAD6"/>
<path d="M795.75 160.558C796.272 159.841 796.869 159.365 796.794 159.05C796.691 158.614 796.077 158.293 795.687 157.926C795.355 158.31 794.804 158.671 794.764 159.084C794.729 159.451 795.263 159.876 795.75 160.558Z" fill="#C0CAD6"/>
<path d="M828.759 272.938C829.47 273.409 829.918 273.925 830.279 273.879C830.669 273.828 831.295 273.208 831.26 272.893C831.22 272.502 830.641 271.923 830.245 271.877C829.883 271.837 829.459 272.411 828.759 272.938Z" fill="#C0CAD6"/>
<path d="M406.435 142.71C406.848 142.079 407.324 141.672 407.278 141.334C407.227 140.967 406.699 140.669 406.372 140.336C406.045 140.669 405.483 140.984 405.465 141.334C405.442 141.689 405.959 142.074 406.435 142.71Z" fill="#C0CAD6"/>
<path d="M507.919 299.852C508.527 300.323 508.906 300.839 509.25 300.816C509.612 300.793 509.939 300.254 510.277 299.944C509.968 299.611 509.681 299.049 509.336 299.003C508.986 298.957 508.573 299.433 507.919 299.847V299.852Z" fill="#C0CAD6"/>
<path d="M315.986 170.922C315.481 171.541 314.942 171.914 314.971 172.235C314.999 172.597 315.504 173.05 315.894 173.181C316.089 173.245 316.732 172.694 316.749 172.39C316.772 172.012 316.37 171.604 315.986 170.922Z" fill="#C0CAD6"/>
<path d="M422.442 288.483C422.809 287.966 423.228 287.622 423.17 287.398C423.084 287.071 422.66 286.83 422.384 286.555C422.149 286.83 421.753 287.088 421.736 287.375C421.719 287.656 422.092 287.955 422.448 288.477L422.442 288.483Z" fill="#C0CAD6"/>
<path d="M263.979 118.436C267.191 123.374 277.19 128.111 286.358 122.801C295.1 117.737 298.594 105.848 293.873 97.2166C289.329 88.918 280.013 86.3601 273.909 88.9007C282.789 94.0795 287.144 101.317 282.428 111.233C278.837 118.786 272.016 120.455 263.979 118.442V118.436Z" fill="#C0CAD6"/>
</g>
<g opacity="0.9">
<path d="M537.949 167.103C538.568 170.03 539.225 172.713 539.697 175.422C540.747 181.434 540.488 187.391 538.925 193.319C537.717 197.898 536.191 202.314 533.693 206.365C530.723 211.184 526.828 215.008 521.781 217.626C521.541 217.751 521.323 217.926 520.856 218.236C525.635 219.54 530.237 219.707 535.03 219.508C534.044 216.47 532.925 213.593 533.276 210.388C534.021 211.655 534.771 212.923 535.515 214.19C539.253 220.548 544.379 225.501 550.563 229.506C555.036 232.406 559.288 232.184 563.506 229.312C569.548 225.201 571.861 219.383 571.121 212.187C570.792 208.996 569.488 206.152 568.28 203.267C565.916 197.639 563.678 191.955 561.106 186.42C558.251 180.278 553.686 175.677 547.612 172.574C545.114 171.297 542.732 169.794 540.294 168.402C539.549 167.977 538.8 167.565 537.953 167.094L537.949 167.103Z" fill="#E2E8F1"/>
<path d="M596.191 164.136C593.439 166.23 591.288 169.139 587.264 169.847C587.971 168.88 588.499 168.145 589.04 167.419C593.943 160.884 595.766 153.8 592.907 145.873C592.704 145.314 592.44 144.777 592.148 144.107C591.316 146.706 590.548 149.115 589.78 151.52C589.655 151.497 589.53 151.469 589.405 151.446C589.341 150.123 589.317 148.796 589.211 147.478C588.513 139.034 584.012 133.077 576.976 128.753C572.526 126.016 567.849 123.939 562.585 123.426C562.168 123.384 561.743 123.421 561.262 123.421C563.218 126.108 565.254 128.518 566.859 131.181C571.933 139.593 573.978 148.667 571.832 158.383C570.194 165.81 565.536 170.758 558.449 173.445C557.834 173.68 557.205 173.889 556.585 174.12C556.516 174.148 556.465 174.226 556.377 174.3C558.648 176.617 560.757 179.124 563.232 181.195C565.508 183.096 568.506 183.466 571.406 183.734C575.088 184.076 578.664 183.669 582.032 182.009C582.43 181.815 582.809 181.584 583.489 181.205C580.931 180.617 578.683 180.104 576.43 179.591C580.917 178.809 585.205 177.639 588.98 175.091C592.884 172.45 595.141 168.677 596.187 164.131L596.191 164.136Z" fill="#E2E8F1"/>
<path d="M416.94 105.394C416.922 116.025 419.984 125.718 425.54 134.718C428.556 139.606 432.456 143.698 436.818 147.347C441.407 151.185 446.453 154.362 452.152 156.291C459.124 158.649 466.257 159.297 473.626 158.492C481.448 157.637 488.826 155.472 495.881 152.133C501.381 149.525 506.423 146.311 510.665 141.77C515.776 136.299 519.588 130.065 522.211 123.179C524.903 116.122 525.648 108.709 524.982 101.13C524.311 93.4994 521.924 86.4332 518.26 79.8062C515.735 75.2372 512.367 71.2602 508.588 67.6253C500.109 59.4769 489.922 54.9172 478.39 53.3263C464.883 51.4627 452.416 54.4408 440.949 61.8215C437.276 64.1847 433.885 66.89 430.998 70.0902C427.691 73.762 424.763 77.79 422.538 82.2572C419.785 87.7789 418.143 93.6289 417.371 99.724C417.135 101.602 417.079 103.502 416.94 105.394ZM419.767 105.958C419.767 104.469 419.614 102.966 419.79 101.5C421.062 90.8819 425.073 81.4479 432.002 73.2394C436.059 68.4392 441.032 64.7997 446.467 61.8493C458.309 55.4212 470.887 54.1495 483.913 57.345C491.037 59.0931 497.624 62.0112 503.249 66.8576C504.077 67.5744 505.197 67.9814 505.932 68.7676C508.171 71.1445 510.401 73.5447 512.423 76.1066C514.12 78.257 515.739 80.5323 516.997 82.9555C521.35 91.3582 523.099 100.307 522.294 109.778C521.485 119.332 518.112 127.892 512.284 135.407C510.086 138.241 507.371 140.757 504.596 143.056C497.629 148.822 489.543 152.323 480.726 154.251C472.719 156 464.693 156.462 456.672 154.589C447.929 152.545 440.74 147.736 434.426 141.525C433.297 140.415 432.446 139.032 431.438 137.802C430.24 136.341 428.838 135.018 427.82 133.446C422.431 125.089 419.628 115.937 419.771 105.953L419.767 105.958Z" fill="#E2E8F1"/>
<path d="M467.557 196.975C468.853 199.01 470.125 201.058 471.471 203.061C471.614 203.269 472.248 203.343 472.549 203.223C474.492 202.418 476.458 201.646 478.294 200.638C478.951 200.277 479.52 199.361 479.7 198.594C480.316 195.953 480.829 193.275 481.213 190.589C481.745 186.861 482.476 183.203 484.303 179.453V184.359C484.618 183.855 484.784 183.643 484.9 183.407C486.713 179.735 489.091 176.47 492.213 173.816C495.992 170.601 500.267 168.289 505.332 168.109C508.478 167.998 511.156 169.122 513.728 171.277C517.059 174.065 518.988 177.418 520.024 181.455C520.403 182.926 520.607 184.438 520.889 185.918C521.999 185.095 524.414 177.187 524.326 173.862C524.108 165.413 521.749 157.718 515.967 151.211C514.75 152.575 513.719 153.921 512.498 155.063C505.725 161.413 497.963 166.023 488.906 168.34C480.787 170.416 472.539 170.962 464.204 170.588C462.487 170.509 462.483 170.527 462.478 172.308C462.478 173.214 462.506 174.125 462.492 175.032C462.478 175.85 462.811 176.206 463.672 176.225C466.271 176.276 468.871 176.41 471.471 176.465C474.33 176.525 475.56 177.436 476.439 180.156C477.494 183.411 478.456 186.709 479.705 189.89C481.005 193.206 478.918 195.74 475.939 196.351C473.867 196.772 471.67 196.559 469.523 196.619C468.954 196.637 468.381 196.619 467.812 196.619C467.729 196.735 467.645 196.85 467.562 196.966L467.557 196.975Z" fill="#E2E8F1"/>
<path d="M484.008 191.827C490.124 190.254 495.508 191.767 500.634 194.592C505.819 197.45 509.141 201.904 511.287 207.522C511.569 207.139 511.805 206.875 511.981 206.579C515.39 200.956 517.675 194.902 518.277 188.345C518.767 183.003 517.449 177.986 513.794 173.953C510.283 170.078 505.704 169.509 500.911 171.067C493.602 173.444 488.838 178.61 485.826 185.51C485.169 187.017 484.721 188.613 484.221 190.185C484.078 190.638 484.092 191.142 484.013 191.827H484.008Z" fill="#E2E8F1"/>
<path d="M577.321 218.048C577.451 225.545 574.611 231.284 568.061 235.312C568.791 235.483 569.282 235.612 569.777 235.714C571.854 236.158 573.44 237.286 574.282 239.238C576.438 244.241 578.524 249.273 580.629 254.295C581.864 257.246 583.247 260.104 585.565 262.383C586.971 263.766 588.567 264.793 591.037 264.853C588.553 262.536 586.421 260.339 586.041 256.853C587.313 258.374 588.386 259.747 589.561 261.033C591.005 262.615 592.73 263.692 594.964 263.868C596.537 263.993 597.99 263.239 598.647 261.606C596.237 260.677 594.021 259.428 592.948 256.894C592.786 256.515 592.971 255.988 592.989 255.613C594.345 256.829 595.533 258.17 596.977 259.114C598.994 260.427 601.362 259.789 601.547 257.218C601.575 256.811 601.69 256.358 601.561 255.997C600.77 253.8 600.09 251.539 599.049 249.463C597.925 247.22 596.533 245.102 595.112 243.025C591.722 238.068 588.766 232.884 586.379 227.367C585.782 225.989 585.061 224.652 584.26 223.385C583.243 221.771 581.684 220.777 579.981 219.94C579.079 219.5 578.321 218.77 577.317 218.039L577.321 218.048Z" fill="#E2E8F1"/>
<path d="M507.492 217.812C509.102 217.622 510.721 217.474 512.326 217.238C521.717 215.869 528.239 210.547 532.513 202.32C535.83 195.938 537.727 189.126 537.727 181.889C537.727 176.677 536.51 171.668 534.849 166.757C534.715 166.355 534.438 165.916 534.1 165.675C530.899 163.409 527.67 161.18 524.441 158.946C524.316 158.863 524.154 158.831 523.784 158.688C524.02 159.483 524.177 160.103 524.381 160.704C527.712 170.387 527.309 179.937 522.674 189.043C521.12 192.09 520.097 195.24 518.955 198.398C516.517 205.141 513.08 211.314 508.117 216.568C507.848 216.854 507.622 217.178 507.376 217.483C507.413 217.59 507.455 217.701 507.492 217.807V217.812Z" fill="#E2E8F1"/>
<path d="M439.35 245.383C438.827 242.22 439.132 239.196 440.779 236.439C440.996 236.074 441.505 235.875 441.88 235.602C441.972 235.672 442.065 235.741 442.158 235.811C442.019 236.208 441.88 236.606 441.746 237.004C440.668 240.181 440.192 243.358 441.982 246.447C442.893 248.019 444.244 248.949 446.154 248.819C447.533 248.727 447.806 248.315 447.352 247.002C446.099 243.39 446.913 240.097 448.888 236.99C449.027 236.768 449.286 236.62 449.781 236.176C449.735 236.837 449.73 237.161 449.684 237.48C449.406 239.39 449.008 241.295 448.874 243.214C448.814 244.112 449.129 245.097 449.499 245.943C450.253 247.672 451.858 248.204 453.62 247.52C456.96 246.22 458.912 243.496 460.601 240.588C461.692 238.706 462.442 236.624 463.381 234.654C463.913 233.54 464.264 232.125 465.157 231.45C466.749 230.238 467.484 228.814 467.456 226.941C467.41 224.041 466.772 221.313 464.972 218.922C462.78 216.008 460.078 214.173 456.262 214.464C453.602 214.667 451.358 215.911 449.688 217.821C446.871 221.049 444.211 224.425 441.704 227.898C440.122 230.09 438.818 232.513 437.596 234.937C435.996 238.104 436.125 241.309 438.027 244.366C438.276 244.768 438.628 245.101 438.933 245.467C439.077 245.439 439.215 245.406 439.359 245.379L439.35 245.383Z" fill="#E2E8F1"/>
<path d="M385.187 211.715C385.603 207.928 386.699 204.51 390.433 202.471C390.248 202.892 390.118 203.345 389.873 203.729C388.129 206.462 387.12 209.334 387.837 212.64C388.365 215.073 390.83 216.483 393.134 215.512C393.365 215.415 393.564 214.767 393.476 214.467C392.116 209.935 395.114 205.454 398.63 203.229C398.69 203.188 398.787 203.206 399.092 203.165C398.509 204.177 397.926 205.047 397.482 205.976C396.742 207.53 396.081 209.121 395.396 210.703C395.331 210.851 395.322 211.022 395.304 211.188C394.998 213.856 396.335 215.378 398.921 214.837C400.905 214.421 402.955 213.718 404.643 212.626C407.224 210.962 409.676 209.019 411.91 206.901C415.944 203.072 415.801 194.651 410.088 190.799C406.461 188.357 402.594 188.708 398.944 190.808C393.893 193.712 389.359 197.278 385.862 202.008C384.114 204.376 382.985 206.952 383.919 209.981C384.114 210.615 384.502 211.188 384.798 211.794C384.928 211.766 385.057 211.738 385.191 211.711L385.187 211.715Z" fill="#E2E8F1"/>
<path d="M479.167 228.354C481.763 227.642 484.279 227.138 486.661 226.259C490.45 224.863 494.169 223.263 497.884 221.672C500.497 220.553 501.219 218.217 500.872 215.72C500.594 213.722 499.9 211.711 499.031 209.879C496.935 205.463 493.415 202.587 488.72 201.199C486.814 200.635 484.903 200.603 483.03 201.458C478.978 203.313 474.912 205.139 470.85 206.989C470.6 207.105 470.383 207.294 470.059 207.507C478.025 212.224 481.684 218.772 479.167 228.35V228.354Z" fill="#E2E8F1"/>
<path d="M547.639 265.296C546.866 263.529 546.191 261.976 545.515 260.422C545.664 260.339 545.807 260.251 545.955 260.167C546.251 260.607 546.542 261.046 546.838 261.481C548.009 263.192 549.202 264.88 551.108 265.874C552.921 266.822 554.726 266.665 556.173 265.324C552.32 264.26 550.646 261.527 550.201 257.712C551.099 259.007 551.844 260.269 552.773 261.374C553.393 262.11 554.207 262.771 555.068 263.201C556.941 264.145 558.93 263.049 559.023 260.963C559.074 259.765 558.893 258.443 558.408 257.356C556.715 253.596 554.869 249.901 553.023 246.211C551.691 243.552 550.336 240.902 548.851 238.326C548.166 237.137 547.324 235.898 546.242 235.107C543.554 233.142 540.691 231.422 537.837 229.562C535.107 234.506 531.24 237.632 525.472 237.951C525.462 238.053 525.449 238.155 525.439 238.257C527.063 238.895 528.677 239.561 530.315 240.157C531.087 240.439 531.902 240.689 532.711 240.772C534.645 240.962 535.787 242.095 536.453 243.774C538.202 248.185 539.964 252.593 541.611 257.041C542.615 259.747 543.725 262.341 546.052 264.205C546.51 264.57 547.024 264.871 547.643 265.296H547.639Z" fill="#E2E8F1"/>
<path d="M420.145 185.023C423.887 187.673 426.047 191.053 426.815 195.317C427.569 199.507 427.12 203.456 424.414 207.114C424.863 207.235 425.154 207.373 425.446 207.378C430.918 207.484 436.349 207.174 441.646 205.676C442.196 205.519 442.765 204.987 443.07 204.478C444.25 202.485 444.495 200.261 444.25 198.004C443.806 193.948 442.515 190.189 439.883 187.002C438.463 185.282 436.696 183.955 434.499 183.442C433.402 183.183 432.204 183.132 431.08 183.257C427.768 183.636 424.47 184.149 421.167 184.621C420.903 184.658 420.658 184.815 420.154 185.014L420.145 185.023Z" fill="#E2E8F1"/>
<path d="M473.681 179.619C472.362 180.739 471.211 181.714 470.063 182.69L469.929 182.579C470.734 181.446 471.534 180.313 472.483 178.981C471.83 178.884 471.484 178.801 471.132 178.782C466.478 178.509 461.825 178.251 457.171 177.973C455.191 177.853 454.396 178.62 454.595 180.591C454.655 181.155 454.812 181.733 455.029 182.26C456.301 185.349 457.629 188.42 458.892 191.514C459.535 193.091 460.58 193.946 462.343 194.011C465.932 194.14 469.518 194.381 473.107 194.533C473.755 194.561 474.439 194.459 475.064 194.27C477.682 193.484 478.307 192.314 477.446 189.807C476.41 186.801 475.332 183.809 474.259 180.813C474.139 180.475 473.944 180.16 473.681 179.615V179.619Z" fill="#E2E8F1"/>
<path d="M452.003 158.607C452.443 160.808 452.803 162.917 453.326 164.975C453.433 165.395 454.117 165.807 454.612 165.964C459.992 167.657 465.501 168.249 471.131 167.943C477.769 167.583 484.245 166.348 490.573 164.355C494.381 163.157 493.511 163.333 492.822 160.29C492.613 159.365 492.234 158.482 491.984 157.566C491.767 156.771 491.309 156.632 490.583 156.872C489.135 157.363 487.678 157.825 486.221 158.292C481.585 159.777 476.784 160.244 471.973 160.72C465.367 161.377 458.951 160.526 452.642 158.607C452.531 158.574 452.401 158.607 451.994 158.607H452.003Z" fill="#E2E8F1"/>
<path d="M503.439 217.615C505.534 215.668 507.625 214.027 508.532 211.617C509.004 210.364 508.8 208.625 508.342 207.298C506.427 201.726 502.731 197.651 497.333 195.205C494.367 193.859 491.259 193.064 487.979 193.193C487.211 193.221 486.379 193.328 485.708 193.66C483.46 194.761 483.016 195.691 483.205 198.988C488.71 198.086 493.304 200.056 497.268 203.728C501.2 207.368 503.485 211.793 503.439 217.62V217.615Z" fill="#E2E8F1"/>
<path d="M509.982 221.901C510.653 223.552 511.162 225.295 512.022 226.84C513.757 229.952 516.176 232.454 519.299 234.262C526.302 238.322 532.792 234.188 535.596 229.503C535.984 228.856 535.896 228.421 535.313 227.922C533.796 226.632 532.131 225.79 530.095 225.637C524.198 225.198 518.383 224.255 512.735 222.423C511.958 222.174 511.194 221.882 510.426 221.609C510.278 221.706 510.13 221.804 509.982 221.896V221.901Z" fill="#E2E8F1"/>
<path d="M448.863 167.005C448.423 170.783 448.844 174.251 449.455 177.701C450.63 184.374 453.197 190.516 456.81 196.213C459.067 199.774 462.153 202.59 465.553 205.055C465.812 205.245 466.279 205.351 466.575 205.259C467.583 204.935 468.564 204.509 469.734 204.047C468.791 202.465 467.75 201.101 467.116 199.57C466.089 197.106 464.447 196.014 461.769 196.093C459.9 196.148 458.401 195.145 457.679 193.378C456.06 189.41 454.409 185.447 453.03 181.396C452.041 178.492 454.631 175.523 457.693 175.74C458.392 175.791 459.086 175.893 459.784 175.967C460.515 176.046 460.834 175.773 460.769 174.982C460.677 173.872 460.631 172.753 460.663 171.643C460.695 170.644 460.219 170.311 459.308 170.112C456.93 169.599 454.562 169.026 452.221 168.369C451.129 168.064 450.107 167.513 448.867 167L448.863 167.005Z" fill="#E2E8F1"/>
<path d="M469.502 230.442C475.154 230.229 477.717 228.749 477.773 223.195C477.837 216.869 474.021 211.398 468.239 209.336C467.568 209.095 466.726 208.943 466.069 209.132C463.192 209.965 460.356 210.936 457.576 211.962C467.031 214.723 470.501 221.11 469.497 230.446L469.502 230.442Z" fill="#E2E8F1"/>
<path d="M406.323 187.336C411.199 187.771 413.993 190.786 415.783 194.837C417.564 198.87 417.379 202.958 415.145 206.842C417.504 208.054 420.774 207.647 422.287 205.64C423.319 204.266 424.244 202.574 424.508 200.909C425.433 195.138 423.846 190.208 418.859 186.698C417.671 185.861 416.398 185.44 414.927 185.449C411.93 185.472 409.154 186.416 406.323 187.336Z" fill="#E2E8F1"/>
<path d="M433.984 180.812C444.526 185.048 447.408 193.308 446.585 203.764C446.802 203.69 447.135 203.657 447.366 203.486C449.3 202.085 451.22 200.661 453.139 199.241C453.833 198.727 453.778 198.228 453.403 197.451C451.955 194.445 450.299 191.481 449.346 188.313C448.329 184.928 446.635 182.176 444.151 179.767C442.796 178.454 441.38 177.316 439.539 176.766C437.037 176.017 436.514 176.206 435.27 178.458C434.816 179.281 434.368 180.109 433.984 180.817V180.812Z" fill="#E2E8F1"/>
<path d="M538.715 148.215C537.84 150.661 536.402 152.224 534.487 153.163C532.627 154.079 530.596 154.638 528.561 155.383C528.987 157.579 530.3 159.309 532.294 160.493C536.402 162.939 540.542 165.335 544.682 167.73C545.482 168.193 546 167.906 545.922 166.967C545.852 166.167 545.561 165.372 545.27 164.613C543.317 159.582 541.338 154.56 539.358 149.537C539.228 149.204 539.043 148.89 538.715 148.215Z" fill="#E2E8F1"/>
<path d="M523.396 143.818C524.65 146.861 525.774 149.645 526.958 152.406C527.083 152.697 527.596 153.049 527.888 153.012C532.255 152.485 536.025 150.945 537.288 145.996C537.459 145.326 537.426 144.48 537.177 143.841C536.191 141.349 535.086 138.907 534.008 136.451C533.864 136.128 533.642 135.841 533.346 135.355C531.889 140.433 528.202 142.695 523.392 143.818H523.396Z" fill="#E2E8F1"/>
<path d="M555.195 106.482C573.472 115.555 591.022 125.761 606.583 139.108C606.713 138.969 606.847 138.835 606.977 138.696C606.597 138.229 606.26 137.72 605.839 137.299C600.417 131.824 594.478 126.968 588.117 122.621C578.875 116.304 569.257 110.704 558.692 106.875C557.633 106.491 556.513 106.283 555.422 105.996L555.195 106.486V106.482Z" fill="#E2E8F1"/>
<path d="M507.382 147.656C506.795 148.063 506.457 148.281 506.138 148.521C502.59 151.249 498.838 153.65 494.689 155.37C493.727 155.768 493.481 156.313 493.759 157.289C494.152 158.676 494.444 160.096 494.772 161.502C494.962 162.325 495.406 162.593 496.211 162.237C500.499 160.351 504.593 158.135 508.238 155.166C508.566 154.898 508.904 154.302 508.835 153.936C508.441 151.92 507.923 149.932 507.377 147.661L507.382 147.656Z" fill="#E2E8F1"/>
<path d="M477.317 241.465C478.117 242.048 478.867 242.714 479.718 243.199C485.204 246.33 490.755 249.345 496.195 252.555C501.455 255.658 506.64 258.89 511.779 262.188C515.073 264.301 518.223 266.641 521.438 268.87C521.72 269.064 522.044 269.203 522.35 269.365C522.456 269.272 522.558 269.18 522.664 269.087C522.354 268.616 522.132 268.042 521.72 267.695C519.042 265.434 516.424 263.08 513.597 261.022C504.734 254.571 495.302 249.035 485.445 244.244C483.145 243.13 480.749 242.214 478.39 241.225C478.126 241.114 477.807 241.128 477.511 241.086C477.446 241.211 477.377 241.336 477.312 241.461L477.317 241.465Z" fill="#E2E8F1"/>
<path d="M559.954 233.528C563.113 234.772 566.023 234.134 568.669 232.358C573.942 228.82 576.126 222.522 574.988 216.528C574.784 215.451 574.113 214.466 573.406 213.453C573.276 217.893 572.554 222.101 569.969 225.74C567.429 229.311 564.256 232.118 559.958 233.523L559.954 233.528Z" fill="#E2E8F1"/>
<path d="M524.629 139.927C527.15 139.7 530.277 137.074 530.818 134.835C531.123 133.568 530.735 132.463 529.912 131.506C527.978 129.272 525.434 128.509 522.589 128.583C521.488 128.611 519.846 131.376 520.308 132.329C520.401 132.518 520.664 132.699 520.877 132.736C523.727 133.244 525.147 136.588 524.703 139.238C524.67 139.432 524.661 139.631 524.633 139.927H524.629Z" fill="#E2E8F1"/>
<path d="M446.371 179.544C446.251 175.941 446.135 172.584 446.033 169.226C446.02 168.819 446.057 168.403 446.121 167.996C446.482 165.652 446.316 165.332 443.781 164.047C441.773 167.242 439.752 170.461 437.499 174.05C441.505 174.6 443.961 177.042 446.371 179.544Z" fill="#E2E8F1"/>
<path d="M609.871 229.806C600.911 219.623 590.295 211.498 578.744 204.547L578.346 204.963C578.633 205.305 578.864 205.717 579.211 205.98C583.175 209.019 587.209 211.969 591.118 215.068C596.516 219.345 601.822 223.739 607.174 228.081C608.002 228.752 608.853 229.399 609.691 230.06C609.751 229.977 609.811 229.889 609.871 229.806Z" fill="#E2E8F1"/>
<path d="M510.399 153.118C514.789 150.764 517.546 143.309 515.524 139.383C515.215 139.683 514.928 139.938 514.664 140.22C512.971 142.019 511.273 143.813 509.603 145.631C509.312 145.945 508.909 146.426 508.974 146.75C509.381 148.863 509.899 150.958 510.399 153.118Z" fill="#E2E8F1"/>
<path d="M451.355 164.255C450.782 162.054 450.236 159.922 449.644 157.799C449.579 157.568 449.288 157.341 449.052 157.221C447.132 156.287 445.198 155.38 443.269 154.465C441.817 157.596 446.642 163.594 451.355 164.255Z" fill="#E2E8F1"/>
<path d="M519.711 142.201C521.177 140.592 522.352 139.163 522.149 137.165C522.079 136.467 521.598 135.699 521.085 135.176C520.317 134.39 519.531 134.659 519.068 135.662C518.055 137.873 518.999 139.852 519.706 142.201H519.711Z" fill="#E2E8F1"/>
<path d="M524.523 154.037C523.399 151.285 522.271 148.534 521.142 145.777C519.13 146.651 518.607 148.492 519.865 149.921C521.211 151.447 522.659 152.89 524.061 154.365L524.523 154.037Z" fill="#E2E8F1"/>
<path d="M541.812 79.1645C537.136 76.3898 532.2 74.2116 526.843 73C531.571 75.6545 536.525 77.791 541.553 79.7703C541.641 79.5668 541.729 79.3679 541.812 79.1645Z" fill="#E2E8F1"/>
<path d="M602.172 193.253C601.094 190.82 594.007 185.507 591.953 185.659C595.358 188.189 598.767 190.723 602.172 193.253Z" fill="#E2E8F1"/>
<path d="M434.055 106.595C435.461 107.021 436.858 107.497 438.278 107.862C441.23 108.616 442.233 111.155 440.212 113.472C439.143 114.697 437.594 115.571 436.136 116.381C433.759 117.703 433.467 118.36 434.619 120.876C435.702 123.229 437.626 124.645 439.93 125.643C444.139 127.475 448.464 127.711 452.919 126.744C455.056 126.277 457.221 125.944 459.367 125.514C460.205 125.347 460.76 125.574 460.959 126.425C461.153 127.271 460.727 127.808 459.941 127.988C454.7 129.19 449.427 130.573 444.033 129.357C441.53 128.793 439.176 127.553 436.761 126.601C436.349 126.439 435.975 126.189 435.586 125.981C435.452 126.06 435.318 126.134 435.184 126.212C435.484 126.938 435.655 127.761 436.104 128.376C437.321 130.032 438.907 131.239 440.822 132.076C444.912 133.87 449.154 133.847 453.479 133.417C458.877 132.881 464.28 132.626 469.637 133.82C470.335 133.977 471.001 134.291 472.061 134.666C469.678 136.266 467.268 136.802 464.65 137.672C465.626 138.546 466.394 139.23 467.463 140.187C466.232 140.349 465.298 140.52 464.354 140.585C463.202 140.664 462.041 140.664 460.885 140.673C460.075 140.678 459.608 140.964 459.446 141.848C459.159 143.388 458.738 144.904 458.396 146.435C458.285 146.935 458.262 147.448 458.475 148.077C459.136 147.328 459.802 146.574 460.672 145.589C460.672 146.814 460.732 147.767 460.658 148.71C460.575 149.737 460.418 150.764 460.195 151.772C459.987 152.711 460.334 153.108 461.236 153.104C463.878 153.09 466.547 153.321 469.151 152.997C481.544 151.448 492.229 146.333 501.009 137.371C503.933 134.384 506.084 130.869 508.027 127.211C508.522 126.282 508.267 125.879 507.305 125.468C506.172 124.987 505.154 124.219 504.146 123.424C506.602 122.924 509.183 123.257 511.339 121.347C508.489 118.896 505.737 116.487 504.238 112.612C506.657 113.814 508.818 114.873 511.672 114.767C507.041 110.785 504.636 105.582 501.139 100.967C500.121 103.182 499.154 105.296 498.114 107.562C497.461 106.036 496.892 104.597 496.24 103.201C495.643 101.929 494.501 100.722 494.445 99.4502C494.394 98.2756 495.486 97.064 496.037 95.8524C497.452 92.7308 497.605 89.378 497.776 86.0345C497.813 85.3362 497.78 84.6333 497.78 83.7639C498.715 87.0704 498.345 93.5956 497.036 97.6097C496.592 98.9739 496.518 100.315 497.114 102.049C497.628 101.138 498.021 100.537 498.322 99.8895C500.949 94.2384 500.88 88.4162 499.164 82.5847C497.683 77.5578 496.046 72.5726 494.339 67.6151C493.562 65.3676 492.188 63.5225 489.602 62.986C487.904 62.6346 486.387 63.097 485.277 64.267C483.954 65.659 482.659 67.1804 481.775 68.8638C479.379 73.4328 477.219 78.122 474.933 82.7465C474.781 83.0564 474.392 83.2506 474.115 83.5003C473.92 83.209 473.546 82.913 473.555 82.6355C473.62 81.0956 472.824 81.0169 471.533 81.0632C463.702 81.3407 456.731 83.8841 450.671 88.837C449.339 89.9284 448.159 91.2279 446.998 92.5088C444.939 94.7841 444.602 97.5634 444.787 100.653C448.117 99.8387 448.191 96.916 449.019 94.4974C450.773 96.7264 450.412 100.38 448.117 101.67C446.318 102.687 444.269 103.312 442.27 103.922C439.985 104.62 437.631 105.106 435.308 105.698C434.887 105.804 434.48 105.989 434.069 106.137C434.069 106.29 434.059 106.442 434.059 106.595H434.055ZM481.391 85.1328C481.391 84.4298 481.377 84.0368 481.391 83.6437C481.534 80.2447 483.01 77.2572 484.449 74.2975C485.323 72.4986 486.503 70.8245 487.715 69.2152C488.57 68.0822 489.491 68.1701 490.351 69.3216C490.837 69.969 491.198 70.7413 491.475 71.5043C491.855 72.5495 492.095 73.6455 492.41 74.7138C494.219 80.8828 494.158 87.0935 492.766 93.3228C492.618 93.9841 492.345 94.613 492.021 95.598C489.616 92.7771 487.437 90.2243 485.263 87.6716C485.323 87.593 485.379 87.5144 485.439 87.4404C486.581 87.9167 487.719 88.393 489.135 88.985C488.14 86.5895 487.261 84.4715 486.322 82.2101C484.685 83.1812 483.154 84.0876 481.391 85.1374V85.1328ZM474.304 104.505C472.861 104.024 471.418 103.548 469.905 103.043C469.928 106.937 469.521 107.677 466.824 108.634C464.562 109.439 463.124 108.352 462.115 106.355C461.472 106.757 460.917 107.099 460.367 107.441C460.274 107.349 460.177 107.261 460.084 107.169C460.834 104.801 461.676 102.479 463.563 100.676C465.307 99.0063 467.268 98.8537 469.401 99.7647C471.575 100.694 472.981 102.484 474.309 104.505H474.304ZM468.009 95.2512C464.354 93.6233 462.115 95.8755 459.705 98.3635C460.2 95.9356 461.051 94.2107 462.754 92.9667C465.279 91.1215 467.366 91.9354 468.009 95.2512Z" fill="#E2E8F1"/>
<path d="M465.91 78.4482C465.795 78.0644 465.771 77.8516 465.67 77.6852C463.112 73.3381 460.544 69.0003 456.922 65.4164C453.989 62.5122 450.668 63.1827 449.091 67.0026C447.398 71.0952 447.444 75.3868 447.731 79.6922C447.865 81.6669 448.119 83.6323 448.341 85.5977C448.387 85.9954 448.54 86.3746 448.702 86.9804C449.252 86.5688 449.65 86.2497 450.067 85.9538C452.185 84.4601 454.322 82.9848 456.423 81.4588C456.668 81.283 456.908 80.742 456.811 80.5154C455.692 77.8979 454.503 75.3128 453.328 72.7184C453.305 72.663 453.194 72.6445 452.916 72.5057C452.68 74.3324 452.454 76.0805 452.181 78.1939C451.959 77.4632 451.723 77.0516 451.723 76.6354C451.713 74.1752 451.63 71.7011 451.834 69.2547C451.968 67.6315 453.235 67.2477 454.47 68.3529C455.132 68.9448 455.696 69.7079 456.136 70.4848C457.588 73.0745 459.022 75.6828 460.336 78.3418C460.9 79.4795 461.516 79.8864 462.732 79.424C463.722 79.0448 464.763 78.7904 465.91 78.4436V78.4482Z" fill="#E2E8F1"/>
<path d="M431.457 79.9535C431.433 81.9698 432.669 82.8901 434.033 82.2796C434.921 81.8819 435.856 81.3779 436.503 80.6749C438.664 78.3072 440.764 75.8793 442.762 73.3682C443.405 72.5635 443.761 71.4722 444.057 70.4594C444.451 69.1137 443.516 68.2396 442.286 68.8593C440.755 69.6316 439.233 70.5195 437.933 71.6294C436.217 73.0907 434.588 74.7093 433.182 76.4666C432.294 77.5811 431.878 79.0702 431.457 79.9535Z" fill="#E2E8F1"/>
<path d="M428.697 115.082C428.508 120.326 429.72 124.442 433.305 124.738C433.221 124.4 433.171 124.1 433.078 123.813C432.888 123.226 432.481 122.634 432.509 122.06C432.643 119.041 430.381 117.39 428.697 115.082Z" fill="#E2E8F1"/>
<path d="M451.787 149.537C452.721 147.086 453.748 144.667 454.549 142.17C454.997 140.759 454.331 139.566 452.957 138.863C452.402 142.42 451.861 145.906 451.315 149.389L451.782 149.537H451.787Z" fill="#E2E8F1"/>
<path d="M434.954 111.821C435.111 109.754 432.659 107.797 430.892 108.496C430.462 108.667 429.995 109.162 429.861 109.606C429.417 111.095 429.805 112.477 430.666 113.953C431.318 110.216 432.951 109.615 434.958 111.821H434.954Z" fill="#E2E8F1"/>
<path d="M428.713 86.5167C429.097 87.1086 429.258 87.6543 429.578 87.7699C429.883 87.8809 430.429 87.6312 430.729 87.3769C431.483 86.7387 431.83 85.1802 431.372 84.5744C431.187 84.3293 430.558 84.0703 430.507 84.1351C429.878 84.8842 429.314 85.6889 428.708 86.5213L428.713 86.5167Z" fill="#E2E8F1"/>
<path d="M444.459 147.748C444.885 147.835 445.616 148.104 445.69 147.979C446.014 147.438 446.148 146.781 446.352 146.165C446.231 146.096 446.106 146.026 445.986 145.957C445.459 146.406 444.927 146.859 444.399 147.308C444.418 147.456 444.441 147.599 444.459 147.748Z" fill="#E2E8F1"/>
</g>
</svg>
