<svg width="48" height="48" viewBox="0 0 48 48" fill="none" xmlns="http://www.w3.org/2000/svg">
<path d="M17.5 35C17.7761 35 18 35.2239 18 35.5C18 35.7761 17.7761 36 17.5 36C17.2239 36 17 35.7761 17 35.5C17 35.2239 17.2239 35 17.5 35Z" fill="#708AB9"/>
<path d="M18.5 35C18.7761 35 19 35.2239 19 35.5C19 35.7761 18.7761 36 18.5 36C18.2239 36 18 35.7761 18 35.5C18 35.2239 18.2239 35 18.5 35Z" fill="#708AB9"/>
<path d="M19.5 35C19.7761 35 20 35.2239 20 35.5C20 35.7761 19.7761 36 19.5 36C19.2239 36 19 35.7761 19 35.5C19 35.2239 19.2239 35 19.5 35Z" fill="#708AB9"/>
<path d="M17.5 34C17.7761 34 18 34.2239 18 34.5C18 34.7761 17.7761 35 17.5 35C17.2239 35 17 34.7761 17 34.5C17 34.2239 17.2239 34 17.5 34Z" fill="#708AB9"/>
<path d="M18.5 34C18.7761 34 19 34.2239 19 34.5C19 34.7761 18.7761 35 18.5 35C18.2239 35 18 34.7761 18 34.5C18 34.2239 18.2239 34 18.5 34Z" fill="#708AB9"/>
<path d="M19.5 34C19.7761 34 20 34.2239 20 34.5C20 34.7761 19.7761 35 19.5 35C19.2239 35 19 34.7761 19 34.5C19 34.2239 19.2239 34 19.5 34Z" fill="#708AB9"/>
<path d="M18.5 33C18.7761 33 19 33.2239 19 33.5C19 33.7761 18.7761 34 18.5 34C18.2239 34 18 33.7761 18 33.5C18 33.2239 18.2239 33 18.5 33Z" fill="#708AB9"/>
<path d="M19.5 33C19.7761 33 20 33.2239 20 33.5C20 33.7761 19.7761 34 19.5 34C19.2239 34 19 33.7761 19 33.5C19 33.2239 19.2239 33 19.5 33Z" fill="#708AB9"/>
<path d="M20.5 33C20.7761 33 21 33.2239 21 33.5C21 33.7761 20.7761 34 20.5 34C20.2239 34 20 33.7761 20 33.5C20 33.2239 20.2239 33 20.5 33Z" fill="#708AB9"/>
<path d="M14.5 32.5C14.7761 32.5 15 32.7239 15 33C15 33.2761 14.7761 33.5 14.5 33.5C14.2239 33.5 14 33.2761 14 33C14 32.7239 14.2239 32.5 14.5 32.5Z" fill="#708AB9"/>
<path d="M31.5 32.5C31.7761 32.5 32 32.7239 32 33C32 33.2761 31.7761 33.5 31.5 33.5C31.2239 33.5 31 33.2761 31 33C31 32.7239 31.2239 32.5 31.5 32.5Z" fill="#708AB9"/>
<path d="M32.5 32.5C32.7761 32.5 33 32.7239 33 33C33 33.2761 32.7761 33.5 32.5 33.5C32.2239 33.5 32 33.2761 32 33C32 32.7239 32.2239 32.5 32.5 32.5Z" fill="#708AB9"/>
<path d="M33.5 32.5C33.7761 32.5 34 32.7239 34 33C34 33.2761 33.7761 33.5 33.5 33.5C33.2239 33.5 33 33.2761 33 33C33 32.7239 33.2239 32.5 33.5 32.5Z" fill="#708AB9"/>
<path d="M18.5 32C18.7761 32 19 32.2239 19 32.5C19 32.7761 18.7761 33 18.5 33C18.2239 33 18 32.7761 18 32.5C18 32.2239 18.2239 32 18.5 32Z" fill="#708AB9"/>
<path d="M19.5 32C19.7761 32 20 32.2239 20 32.5C20 32.7761 19.7761 33 19.5 33C19.2239 33 19 32.7761 19 32.5C19 32.2239 19.2239 32 19.5 32Z" fill="#708AB9"/>
<path d="M20.5 32C20.7761 32 21 32.2239 21 32.5C21 32.7761 20.7761 33 20.5 33C20.2239 33 20 32.7761 20 32.5C20 32.2239 20.2239 32 20.5 32Z" fill="#708AB9"/>
<path d="M13.5 31.5C13.7761 31.5 14 31.7239 14 32C14 32.2761 13.7761 32.5 13.5 32.5C13.2239 32.5 13 32.2761 13 32C13 31.7239 13.2239 31.5 13.5 31.5Z" fill="#708AB9"/>
<path d="M14.5 31.5C14.7761 31.5 15 31.7239 15 32C15 32.2761 14.7761 32.5 14.5 32.5C14.2239 32.5 14 32.2761 14 32C14 31.7239 14.2239 31.5 14.5 31.5Z" fill="#708AB9"/>
<path d="M15.5 31.5C15.7761 31.5 16 31.7239 16 32C16 32.2761 15.7761 32.5 15.5 32.5C15.2239 32.5 15 32.2761 15 32C15 31.7239 15.2239 31.5 15.5 31.5Z" fill="#708AB9"/>
<path d="M31.5 31.5C31.7761 31.5 32 31.7239 32 32C32 32.2761 31.7761 32.5 31.5 32.5C31.2239 32.5 31 32.2761 31 32C31 31.7239 31.2239 31.5 31.5 31.5Z" fill="#708AB9"/>
<path d="M32.5 31.5C32.7761 31.5 33 31.7239 33 32C33 32.2761 32.7761 32.5 32.5 32.5C32.2239 32.5 32 32.2761 32 32C32 31.7239 32.2239 31.5 32.5 31.5Z" fill="#708AB9"/>
<path d="M33.5 31.5C33.7761 31.5 34 31.7239 34 32C34 32.2761 33.7761 32.5 33.5 32.5C33.2239 32.5 33 32.2761 33 32C33 31.7239 33.2239 31.5 33.5 31.5Z" fill="#708AB9"/>
<path d="M34.5 31.5C34.7761 31.5 35 31.7239 35 32C35 32.2761 34.7761 32.5 34.5 32.5C34.2239 32.5 34 32.2761 34 32C34 31.7239 34.2239 31.5 34.5 31.5Z" fill="#708AB9"/>
<path d="M19.5 31C19.7761 31 20 31.2239 20 31.5C20 31.7761 19.7761 32 19.5 32C19.2239 32 19 31.7761 19 31.5C19 31.2239 19.2239 31 19.5 31Z" fill="#708AB9"/>
<path d="M20.5 31C20.7761 31 21 31.2239 21 31.5C21 31.7761 20.7761 32 20.5 32C20.2239 32 20 31.7761 20 31.5C20 31.2239 20.2239 31 20.5 31Z" fill="#708AB9"/>
<path d="M21.5 31C21.7761 31 22 31.2239 22 31.5C22 31.7761 21.7761 32 21.5 32C21.2239 32 21 31.7761 21 31.5C21 31.2239 21.2239 31 21.5 31Z" fill="#708AB9"/>
<path d="M12.5 30.5C12.7761 30.5 13 30.7239 13 31C13 31.2761 12.7761 31.5 12.5 31.5C12.2239 31.5 12 31.2761 12 31C12 30.7239 12.2239 30.5 12.5 30.5Z" fill="#708AB9"/>
<path d="M13.5 30.5C13.7761 30.5 14 30.7239 14 31C14 31.2761 13.7761 31.5 13.5 31.5C13.2239 31.5 13 31.2761 13 31C13 30.7239 13.2239 30.5 13.5 30.5Z" fill="#708AB9"/>
<path d="M14.5 30.5C14.7761 30.5 15 30.7239 15 31C15 31.2761 14.7761 31.5 14.5 31.5C14.2239 31.5 14 31.2761 14 31C14 30.7239 14.2239 30.5 14.5 30.5Z" fill="#708AB9"/>
<path d="M15.5 30.5C15.7761 30.5 16 30.7239 16 31C16 31.2761 15.7761 31.5 15.5 31.5C15.2239 31.5 15 31.2761 15 31C15 30.7239 15.2239 30.5 15.5 30.5Z" fill="#708AB9"/>
<path d="M32.5 30.5C32.7761 30.5 33 30.7239 33 31C33 31.2761 32.7761 31.5 32.5 31.5C32.2239 31.5 32 31.2761 32 31C32 30.7239 32.2239 30.5 32.5 30.5Z" fill="#708AB9"/>
<path d="M33.5 30.5C33.7761 30.5 34 30.7239 34 31C34 31.2761 33.7761 31.5 33.5 31.5C33.2239 31.5 33 31.2761 33 31C33 30.7239 33.2239 30.5 33.5 30.5Z" fill="#708AB9"/>
<path d="M34.5 30.5C34.7761 30.5 35 30.7239 35 31C35 31.2761 34.7761 31.5 34.5 31.5C34.2239 31.5 34 31.2761 34 31C34 30.7239 34.2239 30.5 34.5 30.5Z" fill="#708AB9"/>
<path d="M35.5 30.5C35.7761 30.5 36 30.7239 36 31C36 31.2761 35.7761 31.5 35.5 31.5C35.2239 31.5 35 31.2761 35 31C35 30.7239 35.2239 30.5 35.5 30.5Z" fill="#708AB9"/>
<path d="M19.5 30C19.7761 30 20 30.2239 20 30.5C20 30.7761 19.7761 31 19.5 31C19.2239 31 19 30.7761 19 30.5C19 30.2239 19.2239 30 19.5 30Z" fill="#708AB9"/>
<path d="M20.5 30C20.7761 30 21 30.2239 21 30.5C21 30.7761 20.7761 31 20.5 31C20.2239 31 20 30.7761 20 30.5C20 30.2239 20.2239 30 20.5 30Z" fill="#708AB9"/>
<path d="M21.5 30C21.7761 30 22 30.2239 22 30.5C22 30.7761 21.7761 31 21.5 31C21.2239 31 21 30.7761 21 30.5C21 30.2239 21.2239 30 21.5 30Z" fill="#708AB9"/>
<path d="M11.5 29.5C11.7761 29.5 12 29.7239 12 30C12 30.2761 11.7761 30.5 11.5 30.5C11.2239 30.5 11 30.2761 11 30C11 29.7239 11.2239 29.5 11.5 29.5Z" fill="#708AB9"/>
<path d="M12.5 29.5C12.7761 29.5 13 29.7239 13 30C13 30.2761 12.7761 30.5 12.5 30.5C12.2239 30.5 12 30.2761 12 30C12 29.7239 12.2239 29.5 12.5 29.5Z" fill="#708AB9"/>
<path d="M13.5 29.5C13.7761 29.5 14 29.7239 14 30C14 30.2761 13.7761 30.5 13.5 30.5C13.2239 30.5 13 30.2761 13 30C13 29.7239 13.2239 29.5 13.5 29.5Z" fill="#708AB9"/>
<path d="M14.5 29.5C14.7761 29.5 15 29.7239 15 30C15 30.2761 14.7761 30.5 14.5 30.5C14.2239 30.5 14 30.2761 14 30C14 29.7239 14.2239 29.5 14.5 29.5Z" fill="#708AB9"/>
<path d="M33.5 29.5C33.7761 29.5 34 29.7239 34 30C34 30.2761 33.7761 30.5 33.5 30.5C33.2239 30.5 33 30.2761 33 30C33 29.7239 33.2239 29.5 33.5 29.5Z" fill="#708AB9"/>
<path d="M34.5 29.5C34.7761 29.5 35 29.7239 35 30C35 30.2761 34.7761 30.5 34.5 30.5C34.2239 30.5 34 30.2761 34 30C34 29.7239 34.2239 29.5 34.5 29.5Z" fill="#708AB9"/>
<path d="M35.5 29.5C35.7761 29.5 36 29.7239 36 30C36 30.2761 35.7761 30.5 35.5 30.5C35.2239 30.5 35 30.2761 35 30C35 29.7239 35.2239 29.5 35.5 29.5Z" fill="#708AB9"/>
<path d="M36.5 29.5C36.7761 29.5 37 29.7239 37 30C37 30.2761 36.7761 30.5 36.5 30.5C36.2239 30.5 36 30.2761 36 30C36 29.7239 36.2239 29.5 36.5 29.5Z" fill="#708AB9"/>
<path d="M20.5 29C20.7761 29 21 29.2239 21 29.5C21 29.7761 20.7761 30 20.5 30C20.2239 30 20 29.7761 20 29.5C20 29.2239 20.2239 29 20.5 29Z" fill="#708AB9"/>
<path d="M21.5 29C21.7761 29 22 29.2239 22 29.5C22 29.7761 21.7761 30 21.5 30C21.2239 30 21 29.7761 21 29.5C21 29.2239 21.2239 29 21.5 29Z" fill="#708AB9"/>
<path d="M22.5 29C22.7761 29 23 29.2239 23 29.5C23 29.7761 22.7761 30 22.5 30C22.2239 30 22 29.7761 22 29.5C22 29.2239 22.2239 29 22.5 29Z" fill="#708AB9"/>
<path d="M10.5 28.5C10.7761 28.5 11 28.7239 11 29C11 29.2761 10.7761 29.5 10.5 29.5C10.2239 29.5 10 29.2761 10 29C10 28.7239 10.2239 28.5 10.5 28.5Z" fill="#708AB9"/>
<path d="M11.5 28.5C11.7761 28.5 12 28.7239 12 29C12 29.2761 11.7761 29.5 11.5 29.5C11.2239 29.5 11 29.2761 11 29C11 28.7239 11.2239 28.5 11.5 28.5Z" fill="#708AB9"/>
<path d="M12.5 28.5C12.7761 28.5 13 28.7239 13 29C13 29.2761 12.7761 29.5 12.5 29.5C12.2239 29.5 12 29.2761 12 29C12 28.7239 12.2239 28.5 12.5 28.5Z" fill="#708AB9"/>
<path d="M13.5 28.5C13.7761 28.5 14 28.7239 14 29C14 29.2761 13.7761 29.5 13.5 29.5C13.2239 29.5 13 29.2761 13 29C13 28.7239 13.2239 28.5 13.5 28.5Z" fill="#708AB9"/>
<path d="M34.5 28.5C34.7761 28.5 35 28.7239 35 29C35 29.2761 34.7761 29.5 34.5 29.5C34.2239 29.5 34 29.2761 34 29C34 28.7239 34.2239 28.5 34.5 28.5Z" fill="#708AB9"/>
<path d="M35.5 28.5C35.7761 28.5 36 28.7239 36 29C36 29.2761 35.7761 29.5 35.5 29.5C35.2239 29.5 35 29.2761 35 29C35 28.7239 35.2239 28.5 35.5 28.5Z" fill="#708AB9"/>
<path d="M36.5 28.5C36.7761 28.5 37 28.7239 37 29C37 29.2761 36.7761 29.5 36.5 29.5C36.2239 29.5 36 29.2761 36 29C36 28.7239 36.2239 28.5 36.5 28.5Z" fill="#708AB9"/>
<path d="M37.5 28.5C37.7761 28.5 38 28.7239 38 29C38 29.2761 37.7761 29.5 37.5 29.5C37.2239 29.5 37 29.2761 37 29C37 28.7239 37.2239 28.5 37.5 28.5Z" fill="#708AB9"/>
<path d="M20.5 28C20.7761 28 21 28.2239 21 28.5C21 28.7761 20.7761 29 20.5 29C20.2239 29 20 28.7761 20 28.5C20 28.2239 20.2239 28 20.5 28Z" fill="#708AB9"/>
<path d="M21.5 28C21.7761 28 22 28.2239 22 28.5C22 28.7761 21.7761 29 21.5 29C21.2239 29 21 28.7761 21 28.5C21 28.2239 21.2239 28 21.5 28Z" fill="#708AB9"/>
<path d="M22.5 28C22.7761 28 23 28.2239 23 28.5C23 28.7761 22.7761 29 22.5 29C22.2239 29 22 28.7761 22 28.5C22 28.2239 22.2239 28 22.5 28Z" fill="#708AB9"/>
<path d="M9.5 27.5C9.77614 27.5 10 27.7239 10 28C10 28.2761 9.77614 28.5 9.5 28.5C9.22386 28.5 9 28.2761 9 28C9 27.7239 9.22386 27.5 9.5 27.5Z" fill="#708AB9"/>
<path d="M10.5 27.5C10.7761 27.5 11 27.7239 11 28C11 28.2761 10.7761 28.5 10.5 28.5C10.2239 28.5 10 28.2761 10 28C10 27.7239 10.2239 27.5 10.5 27.5Z" fill="#708AB9"/>
<path d="M11.5 27.5C11.7761 27.5 12 27.7239 12 28C12 28.2761 11.7761 28.5 11.5 28.5C11.2239 28.5 11 28.2761 11 28C11 27.7239 11.2239 27.5 11.5 27.5Z" fill="#708AB9"/>
<path d="M12.5 27.5C12.7761 27.5 13 27.7239 13 28C13 28.2761 12.7761 28.5 12.5 28.5C12.2239 28.5 12 28.2761 12 28C12 27.7239 12.2239 27.5 12.5 27.5Z" fill="#708AB9"/>
<path d="M35.5 27.5C35.7761 27.5 36 27.7239 36 28C36 28.2761 35.7761 28.5 35.5 28.5C35.2239 28.5 35 28.2761 35 28C35 27.7239 35.2239 27.5 35.5 27.5Z" fill="#708AB9"/>
<path d="M36.5 27.5C36.7761 27.5 37 27.7239 37 28C37 28.2761 36.7761 28.5 36.5 28.5C36.2239 28.5 36 28.2761 36 28C36 27.7239 36.2239 27.5 36.5 27.5Z" fill="#708AB9"/>
<path d="M37.5 27.5C37.7761 27.5 38 27.7239 38 28C38 28.2761 37.7761 28.5 37.5 28.5C37.2239 28.5 37 28.2761 37 28C37 27.7239 37.2239 27.5 37.5 27.5Z" fill="#708AB9"/>
<path d="M38.5 27.5C38.7761 27.5 39 27.7239 39 28C39 28.2761 38.7761 28.5 38.5 28.5C38.2239 28.5 38 28.2761 38 28C38 27.7239 38.2239 27.5 38.5 27.5Z" fill="#708AB9"/>
<path d="M21.5 27C21.7761 27 22 27.2239 22 27.5C22 27.7761 21.7761 28 21.5 28C21.2239 28 21 27.7761 21 27.5C21 27.2239 21.2239 27 21.5 27Z" fill="#708AB9"/>
<path d="M22.5 27C22.7761 27 23 27.2239 23 27.5C23 27.7761 22.7761 28 22.5 28C22.2239 28 22 27.7761 22 27.5C22 27.2239 22.2239 27 22.5 27Z" fill="#708AB9"/>
<path d="M23.5 27C23.7761 27 24 27.2239 24 27.5C24 27.7761 23.7761 28 23.5 28C23.2239 28 23 27.7761 23 27.5C23 27.2239 23.2239 27 23.5 27Z" fill="#708AB9"/>
<path d="M8.5 26.5C8.77614 26.5 9 26.7239 9 27C9 27.2761 8.77614 27.5 8.5 27.5C8.22386 27.5 8 27.2761 8 27C8 26.7239 8.22386 26.5 8.5 26.5Z" fill="#708AB9"/>
<path d="M9.5 26.5C9.77614 26.5 10 26.7239 10 27C10 27.2761 9.77614 27.5 9.5 27.5C9.22386 27.5 9 27.2761 9 27C9 26.7239 9.22386 26.5 9.5 26.5Z" fill="#708AB9"/>
<path d="M10.5 26.5C10.7761 26.5 11 26.7239 11 27C11 27.2761 10.7761 27.5 10.5 27.5C10.2239 27.5 10 27.2761 10 27C10 26.7239 10.2239 26.5 10.5 26.5Z" fill="#708AB9"/>
<path d="M11.5 26.5C11.7761 26.5 12 26.7239 12 27C12 27.2761 11.7761 27.5 11.5 27.5C11.2239 27.5 11 27.2761 11 27C11 26.7239 11.2239 26.5 11.5 26.5Z" fill="#708AB9"/>
<path d="M36.5 26.5C36.7761 26.5 37 26.7239 37 27C37 27.2761 36.7761 27.5 36.5 27.5C36.2239 27.5 36 27.2761 36 27C36 26.7239 36.2239 26.5 36.5 26.5Z" fill="#708AB9"/>
<path d="M37.5 26.5C37.7761 26.5 38 26.7239 38 27C38 27.2761 37.7761 27.5 37.5 27.5C37.2239 27.5 37 27.2761 37 27C37 26.7239 37.2239 26.5 37.5 26.5Z" fill="#708AB9"/>
<path d="M38.5 26.5C38.7761 26.5 39 26.7239 39 27C39 27.2761 38.7761 27.5 38.5 27.5C38.2239 27.5 38 27.2761 38 27C38 26.7239 38.2239 26.5 38.5 26.5Z" fill="#708AB9"/>
<path d="M39.5 26.5C39.7761 26.5 40 26.7239 40 27C40 27.2761 39.7761 27.5 39.5 27.5C39.2239 27.5 39 27.2761 39 27C39 26.7239 39.2239 26.5 39.5 26.5Z" fill="#708AB9"/>
<path d="M21.5 26C21.7761 26 22 26.2239 22 26.5C22 26.7761 21.7761 27 21.5 27C21.2239 27 21 26.7761 21 26.5C21 26.2239 21.2239 26 21.5 26Z" fill="#708AB9"/>
<path d="M22.5 26C22.7761 26 23 26.2239 23 26.5C23 26.7761 22.7761 27 22.5 27C22.2239 27 22 26.7761 22 26.5C22 26.2239 22.2239 26 22.5 26Z" fill="#708AB9"/>
<path d="M23.5 26C23.7761 26 24 26.2239 24 26.5C24 26.7761 23.7761 27 23.5 27C23.2239 27 23 26.7761 23 26.5C23 26.2239 23.2239 26 23.5 26Z" fill="#708AB9"/>
<path d="M7.5 25.5C7.77614 25.5 8 25.7239 8 26C8 26.2761 7.77614 26.5 7.5 26.5C7.22386 26.5 7 26.2761 7 26C7 25.7239 7.22386 25.5 7.5 25.5Z" fill="#708AB9"/>
<path d="M8.5 25.5C8.77614 25.5 9 25.7239 9 26C9 26.2761 8.77614 26.5 8.5 26.5C8.22386 26.5 8 26.2761 8 26C8 25.7239 8.22386 25.5 8.5 25.5Z" fill="#708AB9"/>
<path d="M9.5 25.5C9.77614 25.5 10 25.7239 10 26C10 26.2761 9.77614 26.5 9.5 26.5C9.22386 26.5 9 26.2761 9 26C9 25.7239 9.22386 25.5 9.5 25.5Z" fill="#708AB9"/>
<path d="M10.5 25.5C10.7761 25.5 11 25.7239 11 26C11 26.2761 10.7761 26.5 10.5 26.5C10.2239 26.5 10 26.2761 10 26C10 25.7239 10.2239 25.5 10.5 25.5Z" fill="#708AB9"/>
<path d="M37.5 25.5C37.7761 25.5 38 25.7239 38 26C38 26.2761 37.7761 26.5 37.5 26.5C37.2239 26.5 37 26.2761 37 26C37 25.7239 37.2239 25.5 37.5 25.5Z" fill="#708AB9"/>
<path d="M38.5 25.5C38.7761 25.5 39 25.7239 39 26C39 26.2761 38.7761 26.5 38.5 26.5C38.2239 26.5 38 26.2761 38 26C38 25.7239 38.2239 25.5 38.5 25.5Z" fill="#708AB9"/>
<path d="M39.5 25.5C39.7761 25.5 40 25.7239 40 26C40 26.2761 39.7761 26.5 39.5 26.5C39.2239 26.5 39 26.2761 39 26C39 25.7239 39.2239 25.5 39.5 25.5Z" fill="#708AB9"/>
<path d="M40.5 25.5C40.7761 25.5 41 25.7239 41 26C41 26.2761 40.7761 26.5 40.5 26.5C40.2239 26.5 40 26.2761 40 26C40 25.7239 40.2239 25.5 40.5 25.5Z" fill="#708AB9"/>
<path d="M22.5 25C22.7761 25 23 25.2239 23 25.5C23 25.7761 22.7761 26 22.5 26C22.2239 26 22 25.7761 22 25.5C22 25.2239 22.2239 25 22.5 25Z" fill="#708AB9"/>
<path d="M23.5 25C23.7761 25 24 25.2239 24 25.5C24 25.7761 23.7761 26 23.5 26C23.2239 26 23 25.7761 23 25.5C23 25.2239 23.2239 25 23.5 25Z" fill="#708AB9"/>
<path d="M24.5 25C24.7761 25 25 25.2239 25 25.5C25 25.7761 24.7761 26 24.5 26C24.2239 26 24 25.7761 24 25.5C24 25.2239 24.2239 25 24.5 25Z" fill="#708AB9"/>
<path d="M6.5 24.5C6.77614 24.5 7 24.7239 7 25C7 25.2761 6.77614 25.5 6.5 25.5C6.22386 25.5 6 25.2761 6 25C6 24.7239 6.22386 24.5 6.5 24.5Z" fill="#708AB9"/>
<path d="M7.5 24.5C7.77614 24.5 8 24.7239 8 25C8 25.2761 7.77614 25.5 7.5 25.5C7.22386 25.5 7 25.2761 7 25C7 24.7239 7.22386 24.5 7.5 24.5Z" fill="#708AB9"/>
<path d="M8.5 24.5C8.77614 24.5 9 24.7239 9 25C9 25.2761 8.77614 25.5 8.5 25.5C8.22386 25.5 8 25.2761 8 25C8 24.7239 8.22386 24.5 8.5 24.5Z" fill="#708AB9"/>
<path d="M9.5 24.5C9.77614 24.5 10 24.7239 10 25C10 25.2761 9.77614 25.5 9.5 25.5C9.22386 25.5 9 25.2761 9 25C9 24.7239 9.22386 24.5 9.5 24.5Z" fill="#708AB9"/>
<path d="M38.5 24.5C38.7761 24.5 39 24.7239 39 25C39 25.2761 38.7761 25.5 38.5 25.5C38.2239 25.5 38 25.2761 38 25C38 24.7239 38.2239 24.5 38.5 24.5Z" fill="#708AB9"/>
<path d="M39.5 24.5C39.7761 24.5 40 24.7239 40 25C40 25.2761 39.7761 25.5 39.5 25.5C39.2239 25.5 39 25.2761 39 25C39 24.7239 39.2239 24.5 39.5 24.5Z" fill="#708AB9"/>
<path d="M40.5 24.5C40.7761 24.5 41 24.7239 41 25C41 25.2761 40.7761 25.5 40.5 25.5C40.2239 25.5 40 25.2761 40 25C40 24.7239 40.2239 24.5 40.5 24.5Z" fill="#708AB9"/>
<path d="M41.5 24.5C41.7761 24.5 42 24.7239 42 25C42 25.2761 41.7761 25.5 41.5 25.5C41.2239 25.5 41 25.2761 41 25C41 24.7239 41.2239 24.5 41.5 24.5Z" fill="#708AB9"/>
<path d="M22.5 24C22.7761 24 23 24.2239 23 24.5C23 24.7761 22.7761 25 22.5 25C22.2239 25 22 24.7761 22 24.5C22 24.2239 22.2239 24 22.5 24Z" fill="#708AB9"/>
<path d="M23.5 24C23.7761 24 24 24.2239 24 24.5C24 24.7761 23.7761 25 23.5 25C23.2239 25 23 24.7761 23 24.5C23 24.2239 23.2239 24 23.5 24Z" fill="#708AB9"/>
<path d="M24.5 24C24.7761 24 25 24.2239 25 24.5C25 24.7761 24.7761 25 24.5 25C24.2239 25 24 24.7761 24 24.5C24 24.2239 24.2239 24 24.5 24Z" fill="#708AB9"/>
<path d="M5.5 23.5C5.77614 23.5 6 23.7239 6 24C6 24.2761 5.77614 24.5 5.5 24.5C5.22386 24.5 5 24.2761 5 24C5 23.7239 5.22386 23.5 5.5 23.5Z" fill="#708AB9"/>
<path d="M6.5 23.5C6.77614 23.5 7 23.7239 7 24C7 24.2761 6.77614 24.5 6.5 24.5C6.22386 24.5 6 24.2761 6 24C6 23.7239 6.22386 23.5 6.5 23.5Z" fill="#708AB9"/>
<path d="M7.5 23.5C7.77614 23.5 8 23.7239 8 24C8 24.2761 7.77614 24.5 7.5 24.5C7.22386 24.5 7 24.2761 7 24C7 23.7239 7.22386 23.5 7.5 23.5Z" fill="#708AB9"/>
<path d="M8.5 23.5C8.77614 23.5 9 23.7239 9 24C9 24.2761 8.77614 24.5 8.5 24.5C8.22386 24.5 8 24.2761 8 24C8 23.7239 8.22386 23.5 8.5 23.5Z" fill="#708AB9"/>
<path d="M39.5 23.5C39.7761 23.5 40 23.7239 40 24C40 24.2761 39.7761 24.5 39.5 24.5C39.2239 24.5 39 24.2761 39 24C39 23.7239 39.2239 23.5 39.5 23.5Z" fill="#708AB9"/>
<path d="M40.5 23.5C40.7761 23.5 41 23.7239 41 24C41 24.2761 40.7761 24.5 40.5 24.5C40.2239 24.5 40 24.2761 40 24C40 23.7239 40.2239 23.5 40.5 23.5Z" fill="#708AB9"/>
<path d="M41.5 23.5C41.7761 23.5 42 23.7239 42 24C42 24.2761 41.7761 24.5 41.5 24.5C41.2239 24.5 41 24.2761 41 24C41 23.7239 41.2239 23.5 41.5 23.5Z" fill="#708AB9"/>
<path d="M42.5 23.5C42.7761 23.5 43 23.7239 43 24C43 24.2761 42.7761 24.5 42.5 24.5C42.2239 24.5 42 24.2761 42 24C42 23.7239 42.2239 23.5 42.5 23.5Z" fill="#708AB9"/>
<path d="M23.5 23C23.7761 23 24 23.2239 24 23.5C24 23.7761 23.7761 24 23.5 24C23.2239 24 23 23.7761 23 23.5C23 23.2239 23.2239 23 23.5 23Z" fill="#708AB9"/>
<path d="M24.5 23C24.7761 23 25 23.2239 25 23.5C25 23.7761 24.7761 24 24.5 24C24.2239 24 24 23.7761 24 23.5C24 23.2239 24.2239 23 24.5 23Z" fill="#708AB9"/>
<path d="M25.5 23C25.7761 23 26 23.2239 26 23.5C26 23.7761 25.7761 24 25.5 24C25.2239 24 25 23.7761 25 23.5C25 23.2239 25.2239 23 25.5 23Z" fill="#708AB9"/>
<path d="M6.5 22.5C6.77614 22.5 7 22.7239 7 23C7 23.2761 6.77614 23.5 6.5 23.5C6.22386 23.5 6 23.2761 6 23C6 22.7239 6.22386 22.5 6.5 22.5Z" fill="#708AB9"/>
<path d="M7.5 22.5C7.77614 22.5 8 22.7239 8 23C8 23.2761 7.77614 23.5 7.5 23.5C7.22386 23.5 7 23.2761 7 23C7 22.7239 7.22386 22.5 7.5 22.5Z" fill="#708AB9"/>
<path d="M8.5 22.5C8.77614 22.5 9 22.7239 9 23C9 23.2761 8.77614 23.5 8.5 23.5C8.22386 23.5 8 23.2761 8 23C8 22.7239 8.22386 22.5 8.5 22.5Z" fill="#708AB9"/>
<path d="M9.5 22.5C9.77614 22.5 10 22.7239 10 23C10 23.2761 9.77614 23.5 9.5 23.5C9.22386 23.5 9 23.2761 9 23C9 22.7239 9.22386 22.5 9.5 22.5Z" fill="#708AB9"/>
<path d="M38.5 22.5C38.7761 22.5 39 22.7239 39 23C39 23.2761 38.7761 23.5 38.5 23.5C38.2239 23.5 38 23.2761 38 23C38 22.7239 38.2239 22.5 38.5 22.5Z" fill="#708AB9"/>
<path d="M39.5 22.5C39.7761 22.5 40 22.7239 40 23C40 23.2761 39.7761 23.5 39.5 23.5C39.2239 23.5 39 23.2761 39 23C39 22.7239 39.2239 22.5 39.5 22.5Z" fill="#708AB9"/>
<path d="M40.5 22.5C40.7761 22.5 41 22.7239 41 23C41 23.2761 40.7761 23.5 40.5 23.5C40.2239 23.5 40 23.2761 40 23C40 22.7239 40.2239 22.5 40.5 22.5Z" fill="#708AB9"/>
<path d="M41.5 22.5C41.7761 22.5 42 22.7239 42 23C42 23.2761 41.7761 23.5 41.5 23.5C41.2239 23.5 41 23.2761 41 23C41 22.7239 41.2239 22.5 41.5 22.5Z" fill="#708AB9"/>
<path d="M23.5 22C23.7761 22 24 22.2239 24 22.5C24 22.7761 23.7761 23 23.5 23C23.2239 23 23 22.7761 23 22.5C23 22.2239 23.2239 22 23.5 22Z" fill="#708AB9"/>
<path d="M24.5 22C24.7761 22 25 22.2239 25 22.5C25 22.7761 24.7761 23 24.5 23C24.2239 23 24 22.7761 24 22.5C24 22.2239 24.2239 22 24.5 22Z" fill="#708AB9"/>
<path d="M25.5 22C25.7761 22 26 22.2239 26 22.5C26 22.7761 25.7761 23 25.5 23C25.2239 23 25 22.7761 25 22.5C25 22.2239 25.2239 22 25.5 22Z" fill="#708AB9"/>
<path d="M7.5 21.5C7.77614 21.5 8 21.7239 8 22C8 22.2761 7.77614 22.5 7.5 22.5C7.22386 22.5 7 22.2761 7 22C7 21.7239 7.22386 21.5 7.5 21.5Z" fill="#708AB9"/>
<path d="M8.5 21.5C8.77614 21.5 9 21.7239 9 22C9 22.2761 8.77614 22.5 8.5 22.5C8.22386 22.5 8 22.2761 8 22C8 21.7239 8.22386 21.5 8.5 21.5Z" fill="#708AB9"/>
<path d="M9.5 21.5C9.77614 21.5 10 21.7239 10 22C10 22.2761 9.77614 22.5 9.5 22.5C9.22386 22.5 9 22.2761 9 22C9 21.7239 9.22386 21.5 9.5 21.5Z" fill="#708AB9"/>
<path d="M10.5 21.5C10.7761 21.5 11 21.7239 11 22C11 22.2761 10.7761 22.5 10.5 22.5C10.2239 22.5 10 22.2761 10 22C10 21.7239 10.2239 21.5 10.5 21.5Z" fill="#708AB9"/>
<path d="M37.5 21.5C37.7761 21.5 38 21.7239 38 22C38 22.2761 37.7761 22.5 37.5 22.5C37.2239 22.5 37 22.2761 37 22C37 21.7239 37.2239 21.5 37.5 21.5Z" fill="#708AB9"/>
<path d="M38.5 21.5C38.7761 21.5 39 21.7239 39 22C39 22.2761 38.7761 22.5 38.5 22.5C38.2239 22.5 38 22.2761 38 22C38 21.7239 38.2239 21.5 38.5 21.5Z" fill="#708AB9"/>
<path d="M39.5 21.5C39.7761 21.5 40 21.7239 40 22C40 22.2761 39.7761 22.5 39.5 22.5C39.2239 22.5 39 22.2761 39 22C39 21.7239 39.2239 21.5 39.5 21.5Z" fill="#708AB9"/>
<path d="M40.5 21.5C40.7761 21.5 41 21.7239 41 22C41 22.2761 40.7761 22.5 40.5 22.5C40.2239 22.5 40 22.2761 40 22C40 21.7239 40.2239 21.5 40.5 21.5Z" fill="#708AB9"/>
<path d="M24.5 21C24.7761 21 25 21.2239 25 21.5C25 21.7761 24.7761 22 24.5 22C24.2239 22 24 21.7761 24 21.5C24 21.2239 24.2239 21 24.5 21Z" fill="#708AB9"/>
<path d="M25.5 21C25.7761 21 26 21.2239 26 21.5C26 21.7761 25.7761 22 25.5 22C25.2239 22 25 21.7761 25 21.5C25 21.2239 25.2239 21 25.5 21Z" fill="#708AB9"/>
<path d="M26.5 21C26.7761 21 27 21.2239 27 21.5C27 21.7761 26.7761 22 26.5 22C26.2239 22 26 21.7761 26 21.5C26 21.2239 26.2239 21 26.5 21Z" fill="#708AB9"/>
<path d="M8.5 20.5C8.77614 20.5 9 20.7239 9 21C9 21.2761 8.77614 21.5 8.5 21.5C8.22386 21.5 8 21.2761 8 21C8 20.7239 8.22386 20.5 8.5 20.5Z" fill="#708AB9"/>
<path d="M9.5 20.5C9.77614 20.5 10 20.7239 10 21C10 21.2761 9.77614 21.5 9.5 21.5C9.22386 21.5 9 21.2761 9 21C9 20.7239 9.22386 20.5 9.5 20.5Z" fill="#708AB9"/>
<path d="M10.5 20.5C10.7761 20.5 11 20.7239 11 21C11 21.2761 10.7761 21.5 10.5 21.5C10.2239 21.5 10 21.2761 10 21C10 20.7239 10.2239 20.5 10.5 20.5Z" fill="#708AB9"/>
<path d="M11.5 20.5C11.7761 20.5 12 20.7239 12 21C12 21.2761 11.7761 21.5 11.5 21.5C11.2239 21.5 11 21.2761 11 21C11 20.7239 11.2239 20.5 11.5 20.5Z" fill="#708AB9"/>
<path d="M36.5 20.5C36.7761 20.5 37 20.7239 37 21C37 21.2761 36.7761 21.5 36.5 21.5C36.2239 21.5 36 21.2761 36 21C36 20.7239 36.2239 20.5 36.5 20.5Z" fill="#708AB9"/>
<path d="M37.5 20.5C37.7761 20.5 38 20.7239 38 21C38 21.2761 37.7761 21.5 37.5 21.5C37.2239 21.5 37 21.2761 37 21C37 20.7239 37.2239 20.5 37.5 20.5Z" fill="#708AB9"/>
<path d="M38.5 20.5C38.7761 20.5 39 20.7239 39 21C39 21.2761 38.7761 21.5 38.5 21.5C38.2239 21.5 38 21.2761 38 21C38 20.7239 38.2239 20.5 38.5 20.5Z" fill="#708AB9"/>
<path d="M39.5 20.5C39.7761 20.5 40 20.7239 40 21C40 21.2761 39.7761 21.5 39.5 21.5C39.2239 21.5 39 21.2761 39 21C39 20.7239 39.2239 20.5 39.5 20.5Z" fill="#708AB9"/>
<path d="M24.5 20C24.7761 20 25 20.2239 25 20.5C25 20.7761 24.7761 21 24.5 21C24.2239 21 24 20.7761 24 20.5C24 20.2239 24.2239 20 24.5 20Z" fill="#708AB9"/>
<path d="M25.5 20C25.7761 20 26 20.2239 26 20.5C26 20.7761 25.7761 21 25.5 21C25.2239 21 25 20.7761 25 20.5C25 20.2239 25.2239 20 25.5 20Z" fill="#708AB9"/>
<path d="M26.5 20C26.7761 20 27 20.2239 27 20.5C27 20.7761 26.7761 21 26.5 21C26.2239 21 26 20.7761 26 20.5C26 20.2239 26.2239 20 26.5 20Z" fill="#708AB9"/>
<path d="M9.5 19.5C9.77614 19.5 10 19.7239 10 20C10 20.2761 9.77614 20.5 9.5 20.5C9.22386 20.5 9 20.2761 9 20C9 19.7239 9.22386 19.5 9.5 19.5Z" fill="#708AB9"/>
<path d="M10.5 19.5C10.7761 19.5 11 19.7239 11 20C11 20.2761 10.7761 20.5 10.5 20.5C10.2239 20.5 10 20.2761 10 20C10 19.7239 10.2239 19.5 10.5 19.5Z" fill="#708AB9"/>
<path d="M11.5 19.5C11.7761 19.5 12 19.7239 12 20C12 20.2761 11.7761 20.5 11.5 20.5C11.2239 20.5 11 20.2761 11 20C11 19.7239 11.2239 19.5 11.5 19.5Z" fill="#708AB9"/>
<path d="M12.5 19.5C12.7761 19.5 13 19.7239 13 20C13 20.2761 12.7761 20.5 12.5 20.5C12.2239 20.5 12 20.2761 12 20C12 19.7239 12.2239 19.5 12.5 19.5Z" fill="#708AB9"/>
<path d="M35.5 19.5C35.7761 19.5 36 19.7239 36 20C36 20.2761 35.7761 20.5 35.5 20.5C35.2239 20.5 35 20.2761 35 20C35 19.7239 35.2239 19.5 35.5 19.5Z" fill="#708AB9"/>
<path d="M36.5 19.5C36.7761 19.5 37 19.7239 37 20C37 20.2761 36.7761 20.5 36.5 20.5C36.2239 20.5 36 20.2761 36 20C36 19.7239 36.2239 19.5 36.5 19.5Z" fill="#708AB9"/>
<path d="M37.5 19.5C37.7761 19.5 38 19.7239 38 20C38 20.2761 37.7761 20.5 37.5 20.5C37.2239 20.5 37 20.2761 37 20C37 19.7239 37.2239 19.5 37.5 19.5Z" fill="#708AB9"/>
<path d="M38.5 19.5C38.7761 19.5 39 19.7239 39 20C39 20.2761 38.7761 20.5 38.5 20.5C38.2239 20.5 38 20.2761 38 20C38 19.7239 38.2239 19.5 38.5 19.5Z" fill="#708AB9"/>
<path d="M25.5 19C25.7761 19 26 19.2239 26 19.5C26 19.7761 25.7761 20 25.5 20C25.2239 20 25 19.7761 25 19.5C25 19.2239 25.2239 19 25.5 19Z" fill="#708AB9"/>
<path d="M26.5 19C26.7761 19 27 19.2239 27 19.5C27 19.7761 26.7761 20 26.5 20C26.2239 20 26 19.7761 26 19.5C26 19.2239 26.2239 19 26.5 19Z" fill="#708AB9"/>
<path d="M27.5 19C27.7761 19 28 19.2239 28 19.5C28 19.7761 27.7761 20 27.5 20C27.2239 20 27 19.7761 27 19.5C27 19.2239 27.2239 19 27.5 19Z" fill="#708AB9"/>
<path d="M10.5 18.5C10.7761 18.5 11 18.7239 11 19C11 19.2761 10.7761 19.5 10.5 19.5C10.2239 19.5 10 19.2761 10 19C10 18.7239 10.2239 18.5 10.5 18.5Z" fill="#708AB9"/>
<path d="M11.5 18.5C11.7761 18.5 12 18.7239 12 19C12 19.2761 11.7761 19.5 11.5 19.5C11.2239 19.5 11 19.2761 11 19C11 18.7239 11.2239 18.5 11.5 18.5Z" fill="#708AB9"/>
<path d="M12.5 18.5C12.7761 18.5 13 18.7239 13 19C13 19.2761 12.7761 19.5 12.5 19.5C12.2239 19.5 12 19.2761 12 19C12 18.7239 12.2239 18.5 12.5 18.5Z" fill="#708AB9"/>
<path d="M13.5 18.5C13.7761 18.5 14 18.7239 14 19C14 19.2761 13.7761 19.5 13.5 19.5C13.2239 19.5 13 19.2761 13 19C13 18.7239 13.2239 18.5 13.5 18.5Z" fill="#708AB9"/>
<path d="M34.5 18.5C34.7761 18.5 35 18.7239 35 19C35 19.2761 34.7761 19.5 34.5 19.5C34.2239 19.5 34 19.2761 34 19C34 18.7239 34.2239 18.5 34.5 18.5Z" fill="#708AB9"/>
<path d="M35.5 18.5C35.7761 18.5 36 18.7239 36 19C36 19.2761 35.7761 19.5 35.5 19.5C35.2239 19.5 35 19.2761 35 19C35 18.7239 35.2239 18.5 35.5 18.5Z" fill="#708AB9"/>
<path d="M36.5 18.5C36.7761 18.5 37 18.7239 37 19C37 19.2761 36.7761 19.5 36.5 19.5C36.2239 19.5 36 19.2761 36 19C36 18.7239 36.2239 18.5 36.5 18.5Z" fill="#708AB9"/>
<path d="M37.5 18.5C37.7761 18.5 38 18.7239 38 19C38 19.2761 37.7761 19.5 37.5 19.5C37.2239 19.5 37 19.2761 37 19C37 18.7239 37.2239 18.5 37.5 18.5Z" fill="#708AB9"/>
<path d="M25.5 18C25.7761 18 26 18.2239 26 18.5C26 18.7761 25.7761 19 25.5 19C25.2239 19 25 18.7761 25 18.5C25 18.2239 25.2239 18 25.5 18Z" fill="#708AB9"/>
<path d="M26.5 18C26.7761 18 27 18.2239 27 18.5C27 18.7761 26.7761 19 26.5 19C26.2239 19 26 18.7761 26 18.5C26 18.2239 26.2239 18 26.5 18Z" fill="#708AB9"/>
<path d="M27.5 18C27.7761 18 28 18.2239 28 18.5C28 18.7761 27.7761 19 27.5 19C27.2239 19 27 18.7761 27 18.5C27 18.2239 27.2239 18 27.5 18Z" fill="#708AB9"/>
<path d="M11.5 17.5C11.7761 17.5 12 17.7239 12 18C12 18.2761 11.7761 18.5 11.5 18.5C11.2239 18.5 11 18.2761 11 18C11 17.7239 11.2239 17.5 11.5 17.5Z" fill="#708AB9"/>
<path d="M12.5 17.5C12.7761 17.5 13 17.7239 13 18C13 18.2761 12.7761 18.5 12.5 18.5C12.2239 18.5 12 18.2761 12 18C12 17.7239 12.2239 17.5 12.5 17.5Z" fill="#708AB9"/>
<path d="M13.5 17.5C13.7761 17.5 14 17.7239 14 18C14 18.2761 13.7761 18.5 13.5 18.5C13.2239 18.5 13 18.2761 13 18C13 17.7239 13.2239 17.5 13.5 17.5Z" fill="#708AB9"/>
<path d="M14.5 17.5C14.7761 17.5 15 17.7239 15 18C15 18.2761 14.7761 18.5 14.5 18.5C14.2239 18.5 14 18.2761 14 18C14 17.7239 14.2239 17.5 14.5 17.5Z" fill="#708AB9"/>
<path d="M33.5 17.5C33.7761 17.5 34 17.7239 34 18C34 18.2761 33.7761 18.5 33.5 18.5C33.2239 18.5 33 18.2761 33 18C33 17.7239 33.2239 17.5 33.5 17.5Z" fill="#708AB9"/>
<path d="M34.5 17.5C34.7761 17.5 35 17.7239 35 18C35 18.2761 34.7761 18.5 34.5 18.5C34.2239 18.5 34 18.2761 34 18C34 17.7239 34.2239 17.5 34.5 17.5Z" fill="#708AB9"/>
<path d="M35.5 17.5C35.7761 17.5 36 17.7239 36 18C36 18.2761 35.7761 18.5 35.5 18.5C35.2239 18.5 35 18.2761 35 18C35 17.7239 35.2239 17.5 35.5 17.5Z" fill="#708AB9"/>
<path d="M36.5 17.5C36.7761 17.5 37 17.7239 37 18C37 18.2761 36.7761 18.5 36.5 18.5C36.2239 18.5 36 18.2761 36 18C36 17.7239 36.2239 17.5 36.5 17.5Z" fill="#708AB9"/>
<path d="M26.5 17C26.7761 17 27 17.2239 27 17.5C27 17.7761 26.7761 18 26.5 18C26.2239 18 26 17.7761 26 17.5C26 17.2239 26.2239 17 26.5 17Z" fill="#708AB9"/>
<path d="M27.5 17C27.7761 17 28 17.2239 28 17.5C28 17.7761 27.7761 18 27.5 18C27.2239 18 27 17.7761 27 17.5C27 17.2239 27.2239 17 27.5 17Z" fill="#708AB9"/>
<path d="M28.5 17C28.7761 17 29 17.2239 29 17.5C29 17.7761 28.7761 18 28.5 18C28.2239 18 28 17.7761 28 17.5C28 17.2239 28.2239 17 28.5 17Z" fill="#708AB9"/>
<path d="M12.5 16.5C12.7761 16.5 13 16.7239 13 17C13 17.2761 12.7761 17.5 12.5 17.5C12.2239 17.5 12 17.2761 12 17C12 16.7239 12.2239 16.5 12.5 16.5Z" fill="#708AB9"/>
<path d="M13.5 16.5C13.7761 16.5 14 16.7239 14 17C14 17.2761 13.7761 17.5 13.5 17.5C13.2239 17.5 13 17.2761 13 17C13 16.7239 13.2239 16.5 13.5 16.5Z" fill="#708AB9"/>
<path d="M14.5 16.5C14.7761 16.5 15 16.7239 15 17C15 17.2761 14.7761 17.5 14.5 17.5C14.2239 17.5 14 17.2761 14 17C14 16.7239 14.2239 16.5 14.5 16.5Z" fill="#708AB9"/>
<path d="M15.5 16.5C15.7761 16.5 16 16.7239 16 17C16 17.2761 15.7761 17.5 15.5 17.5C15.2239 17.5 15 17.2761 15 17C15 16.7239 15.2239 16.5 15.5 16.5Z" fill="#708AB9"/>
<path d="M32.5 16.5C32.7761 16.5 33 16.7239 33 17C33 17.2761 32.7761 17.5 32.5 17.5C32.2239 17.5 32 17.2761 32 17C32 16.7239 32.2239 16.5 32.5 16.5Z" fill="#708AB9"/>
<path d="M33.5 16.5C33.7761 16.5 34 16.7239 34 17C34 17.2761 33.7761 17.5 33.5 17.5C33.2239 17.5 33 17.2761 33 17C33 16.7239 33.2239 16.5 33.5 16.5Z" fill="#708AB9"/>
<path d="M34.5 16.5C34.7761 16.5 35 16.7239 35 17C35 17.2761 34.7761 17.5 34.5 17.5C34.2239 17.5 34 17.2761 34 17C34 16.7239 34.2239 16.5 34.5 16.5Z" fill="#708AB9"/>
<path d="M35.5 16.5C35.7761 16.5 36 16.7239 36 17C36 17.2761 35.7761 17.5 35.5 17.5C35.2239 17.5 35 17.2761 35 17C35 16.7239 35.2239 16.5 35.5 16.5Z" fill="#708AB9"/>
<path d="M26.5 16C26.7761 16 27 16.2239 27 16.5C27 16.7761 26.7761 17 26.5 17C26.2239 17 26 16.7761 26 16.5C26 16.2239 26.2239 16 26.5 16Z" fill="#708AB9"/>
<path d="M27.5 16C27.7761 16 28 16.2239 28 16.5C28 16.7761 27.7761 17 27.5 17C27.2239 17 27 16.7761 27 16.5C27 16.2239 27.2239 16 27.5 16Z" fill="#708AB9"/>
<path d="M28.5 16C28.7761 16 29 16.2239 29 16.5C29 16.7761 28.7761 17 28.5 17C28.2239 17 28 16.7761 28 16.5C28 16.2239 28.2239 16 28.5 16Z" fill="#708AB9"/>
<path d="M13.5 15.5C13.7761 15.5 14 15.7239 14 16C14 16.2761 13.7761 16.5 13.5 16.5C13.2239 16.5 13 16.2761 13 16C13 15.7239 13.2239 15.5 13.5 15.5Z" fill="#708AB9"/>
<path d="M14.5 15.5C14.7761 15.5 15 15.7239 15 16C15 16.2761 14.7761 16.5 14.5 16.5C14.2239 16.5 14 16.2761 14 16C14 15.7239 14.2239 15.5 14.5 15.5Z" fill="#708AB9"/>
<path d="M15.5 15.5C15.7761 15.5 16 15.7239 16 16C16 16.2761 15.7761 16.5 15.5 16.5C15.2239 16.5 15 16.2761 15 16C15 15.7239 15.2239 15.5 15.5 15.5Z" fill="#708AB9"/>
<path d="M16.5 15.5C16.7761 15.5 17 15.7239 17 16C17 16.2761 16.7761 16.5 16.5 16.5C16.2239 16.5 16 16.2761 16 16C16 15.7239 16.2239 15.5 16.5 15.5Z" fill="#708AB9"/>
<path d="M32.5 15.5C32.7761 15.5 33 15.7239 33 16C33 16.2761 32.7761 16.5 32.5 16.5C32.2239 16.5 32 16.2761 32 16C32 15.7239 32.2239 15.5 32.5 15.5Z" fill="#708AB9"/>
<path d="M33.5 15.5C33.7761 15.5 34 15.7239 34 16C34 16.2761 33.7761 16.5 33.5 16.5C33.2239 16.5 33 16.2761 33 16C33 15.7239 33.2239 15.5 33.5 15.5Z" fill="#708AB9"/>
<path d="M34.5 15.5C34.7761 15.5 35 15.7239 35 16C35 16.2761 34.7761 16.5 34.5 16.5C34.2239 16.5 34 16.2761 34 16C34 15.7239 34.2239 15.5 34.5 15.5Z" fill="#708AB9"/>
<path d="M27.5 15C27.7761 15 28 15.2239 28 15.5C28 15.7761 27.7761 16 27.5 16C27.2239 16 27 15.7761 27 15.5C27 15.2239 27.2239 15 27.5 15Z" fill="#708AB9"/>
<path d="M28.5 15C28.7761 15 29 15.2239 29 15.5C29 15.7761 28.7761 16 28.5 16C28.2239 16 28 15.7761 28 15.5C28 15.2239 28.2239 15 28.5 15Z" fill="#708AB9"/>
<path d="M29.5 15C29.7761 15 30 15.2239 30 15.5C30 15.7761 29.7761 16 29.5 16C29.2239 16 29 15.7761 29 15.5C29 15.2239 29.2239 15 29.5 15Z" fill="#708AB9"/>
<path d="M14.5 14.5C14.7761 14.5 15 14.7239 15 15C15 15.2761 14.7761 15.5 14.5 15.5C14.2239 15.5 14 15.2761 14 15C14 14.7239 14.2239 14.5 14.5 14.5Z" fill="#708AB9"/>
<path d="M15.5 14.5C15.7761 14.5 16 14.7239 16 15C16 15.2761 15.7761 15.5 15.5 15.5C15.2239 15.5 15 15.2761 15 15C15 14.7239 15.2239 14.5 15.5 14.5Z" fill="#708AB9"/>
<path d="M16.5 14.5C16.7761 14.5 17 14.7239 17 15C17 15.2761 16.7761 15.5 16.5 15.5C16.2239 15.5 16 15.2761 16 15C16 14.7239 16.2239 14.5 16.5 14.5Z" fill="#708AB9"/>
<path d="M33.5 14.5C33.7761 14.5 34 14.7239 34 15C34 15.2761 33.7761 15.5 33.5 15.5C33.2239 15.5 33 15.2761 33 15C33 14.7239 33.2239 14.5 33.5 14.5Z" fill="#708AB9"/>
<path d="M27.5 14C27.7761 14 28 14.2239 28 14.5C28 14.7761 27.7761 15 27.5 15C27.2239 15 27 14.7761 27 14.5C27 14.2239 27.2239 14 27.5 14Z" fill="#708AB9"/>
<path d="M28.5 14C28.7761 14 29 14.2239 29 14.5C29 14.7761 28.7761 15 28.5 15C28.2239 15 28 14.7761 28 14.5C28 14.2239 28.2239 14 28.5 14Z" fill="#708AB9"/>
<path d="M29.5 14C29.7761 14 30 14.2239 30 14.5C30 14.7761 29.7761 15 29.5 15C29.2239 15 29 14.7761 29 14.5C29 14.2239 29.2239 14 29.5 14Z" fill="#708AB9"/>
<path d="M28.5 13C28.7761 13 29 13.2239 29 13.5C29 13.7761 28.7761 14 28.5 14C28.2239 14 28 13.7761 28 13.5C28 13.2239 28.2239 13 28.5 13Z" fill="#708AB9"/>
<path d="M29.5 13C29.7761 13 30 13.2239 30 13.5C30 13.7761 29.7761 14 29.5 14C29.2239 14 29 13.7761 29 13.5C29 13.2239 29.2239 13 29.5 13Z" fill="#708AB9"/>
<path d="M30.5 13C30.7761 13 31 13.2239 31 13.5C31 13.7761 30.7761 14 30.5 14C30.2239 14 30 13.7761 30 13.5C30 13.2239 30.2239 13 30.5 13Z" fill="#708AB9"/>
<path d="M28.5 12C28.7761 12 29 12.2239 29 12.5C29 12.7761 28.7761 13 28.5 13C28.2239 13 28 12.7761 28 12.5C28 12.2239 28.2239 12 28.5 12Z" fill="#708AB9"/>
<path d="M29.5 12C29.7761 12 30 12.2239 30 12.5C30 12.7761 29.7761 13 29.5 13C29.2239 13 29 12.7761 29 12.5C29 12.2239 29.2239 12 29.5 12Z" fill="#708AB9"/>
<path d="M30.5 12C30.7761 12 31 12.2239 31 12.5C31 12.7761 30.7761 13 30.5 13C30.2239 13 30 12.7761 30 12.5C30 12.2239 30.2239 12 30.5 12Z" fill="#708AB9"/>
</svg>
