<svg width="36" height="36" viewBox="0 0 36 36" fill="none" xmlns="http://www.w3.org/2000/svg">
<g clip-path="url(#clip0_6035_5334)">
<path fill-rule="evenodd" clip-rule="evenodd" d="M24.9191 21.4425H19.3565C19.3565 21.4425 19.2892 21.4425 19.2892 21.375L19.3789 17.5725C19.3789 17.5725 19.4238 17.4375 19.4686 17.4375H35.6406C35.8873 17.4375 35.9995 19.35 35.9995 17.8875L35.8873 31.8375C35.8873 31.95 35.8649 32.04 35.7976 32.1075C35.7527 32.175 35.6854 32.22 35.5957 32.22H26.8032C26.6686 32.22 26.6013 32.13 26.6013 31.9725L26.5565 29.9025C26.534 29.79 26.5116 29.7675 26.4443 29.8125C23.1247 32.175 19.5583 32.7375 15.835 32.6025C9.71161 32.355 1.906 30.8475 0.31348 21.7125C-0.0902583 19.4625 -0.0902583 16.9875 0.29105 14.31C1.70413 5.15246 9.66675 3.53246 15.678 3.39746C22.3172 3.23996 35.1696 2.96996 35.8425 15.12C35.8425 15.1875 35.82 15.255 35.7752 15.3C35.7752 15.345 35.7079 15.39 35.6406 15.39H25.435C25.435 15.39 25.3004 15.345 25.278 15.255C24.5602 12.825 22.4294 12.15 20.6574 11.9925C17.9434 11.745 14.0182 11.475 11.977 13.3875C9.7789 15.4575 9.75647 20.5425 12.0219 22.5675C13.4798 23.8725 15.3191 23.985 17.3378 24.0525H17.3602C19.6481 24.12 23.4163 24.2325 24.9864 21.6225C25.0761 21.51 25.0537 21.4425 24.9191 21.4425Z" fill="url(#paint0_linear_6035_5334)"/>
</g>
<defs>
<linearGradient id="paint0_linear_6035_5334" x1="-0.000538627" y1="18" x2="35.9995" y2="18" gradientUnits="userSpaceOnUse">
<stop stop-color="#20BEDE"/>
<stop offset="1" stop-color="#4A0BFF"/>
</linearGradient>
<clipPath id="clip0_6035_5334">
<rect width="36" height="36" fill="white"/>
</clipPath>
</defs>
</svg>
