<svg width="36" height="36" viewBox="0 0 36 36" fill="none" xmlns="http://www.w3.org/2000/svg">
<path fill-rule="evenodd" clip-rule="evenodd" d="M34.3335 18.4779C34.7211 17.2435 34.962 15.9783 35.0458 14.6821C35.0458 14.6616 35.0458 14.6616 35.0667 14.6513C35.0772 14.6513 35.0982 14.6513 35.0982 14.6616C35.4438 15.1965 35.8314 15.8857 35.7895 16.544C35.7162 17.7579 35.4962 18.9511 35.1296 20.1135C35.0458 20.381 35.0772 20.597 35.2553 20.7924C35.2658 20.8027 35.2762 20.813 35.2972 20.8027C35.3181 20.8027 35.3286 20.7924 35.3286 20.7719C35.8838 18.9203 36.1876 16.9144 35.8733 14.9907C35.5381 12.954 34.8991 11.0612 33.9564 9.33306C33.0555 7.66661 31.8719 6.15447 30.4158 4.77605C29.7559 4.15885 29.0331 3.67537 28.2475 3.33591C27.5771 3.04789 26.8543 2.86272 26.1001 2.77014C21.0092 2.21466 15.9288 4.67318 11.9692 7.66661C11.9378 7.68718 11.9273 7.71805 11.9273 7.74891C11.9273 7.77977 11.9273 7.81063 11.9588 7.8312C12.3044 8.21181 12.6396 8.59241 12.9748 8.97302C14.0433 10.1971 15.0594 11.4624 16.044 12.7482C16.0964 12.8202 16.1593 12.8305 16.2326 12.7791C19.0504 10.7938 21.9729 8.96274 25.105 7.48145C25.1469 7.46088 25.1888 7.46088 25.2307 7.48145C25.2726 7.50202 25.304 7.53288 25.3145 7.57403C26.4667 10.7012 18.8514 15.896 16.5992 17.1509C13.4567 18.91 8.78482 20.2884 5.95656 17.1098C1.93414 12.6042 6.74219 6.32934 10.6075 3.88111C15.2375 0.980259 21.0406 0.476211 26.2258 2.16323C26.3096 2.19409 26.3934 2.19409 26.4458 2.16323C26.4772 2.15294 26.4877 2.12208 26.4877 2.09122C26.4877 2.06036 26.4772 2.0295 26.4458 2.01922C19.7208 -1.43711 11.6131 -0.387871 6.00893 4.64232C1.93413 8.30439 -0.276102 13.4169 0.0276747 18.8688C0.237176 22.6646 2.15411 26.7176 4.4272 29.7316C4.43767 29.7521 4.45862 29.7521 4.47957 29.7419C4.50052 29.7316 4.511 29.711 4.50052 29.6904C4.50052 29.6699 4.49005 29.6596 4.47957 29.639C4.31197 29.2172 4.08152 28.6412 4.1339 28.2503C4.23865 27.4068 5.62136 27.808 6.17653 28.0034C8.88957 28.9909 11.4769 29.855 12.9329 32.4987C12.9434 32.5193 12.9434 32.5398 12.9329 32.5604C12.9225 32.581 12.9015 32.5913 12.8806 32.5913C11.9273 32.5296 10.9951 32.3855 10.0628 32.1695C10.0209 32.1695 9.98946 32.1387 9.96851 32.1078C9.2981 31.3466 7.83159 30.3591 6.70029 30.4311C6.65839 30.4311 6.62696 30.4619 6.60601 30.5031C6.18701 31.6758 8.59627 33.1365 9.4657 33.4348C9.5076 33.4554 9.55998 33.4656 9.60188 33.4862C10.0209 33.6405 10.3875 33.764 10.597 33.2805C10.6075 33.2496 10.6284 33.2393 10.6599 33.2496L13.4881 33.6714C13.4881 33.6714 13.551 33.692 13.5719 33.7125C13.7919 33.9697 14.0643 34.5046 13.7814 34.8029C13.5091 35.0909 12.9434 35.0189 12.5139 34.9675C12.2625 34.9366 12.0635 34.9058 12.0007 34.9675C11.9902 34.9778 11.9797 34.9984 11.9902 35.0189C11.9902 35.0395 12.0111 35.0498 12.0216 35.0601C17.102 36.7471 22.6538 36.1093 27.3152 33.5788C27.9018 33.2599 28.4256 32.9204 28.876 32.5501C32.1861 29.8962 34.962 26.1724 35.7581 21.8828C35.7581 21.852 35.7581 21.8417 35.7267 21.852C35.7162 21.852 35.7057 21.8623 35.6952 21.8828C35.3286 22.9115 34.9515 23.971 34.3859 24.9174C34.3544 24.9791 34.3335 24.9688 34.323 24.9071C33.9459 22.5823 32.7308 20.7513 31.3272 18.9305C31.3062 18.8997 31.2957 18.8585 31.3272 18.8174C32.0814 17.3361 32.6156 16.1531 32.9717 14.6719C33.1393 13.9724 33.2127 13.1597 33.3174 12.3985C33.3174 12.3265 33.3593 12.3162 33.4117 12.3676L34.6163 13.7666C34.6163 13.7666 34.6477 13.8181 34.6477 13.8489C34.6268 14.5998 34.5535 15.3405 34.4173 16.0708C34.2916 16.7189 34.124 17.3464 33.904 17.9739C33.8935 18.015 33.8935 18.0562 33.9145 18.0973L34.1345 18.4882C34.2183 18.6425 34.2916 18.6322 34.344 18.4676L34.3335 18.4779ZM28.677 22.3869C29.7978 21.2759 31.5576 20.8233 32.5842 21.6565C32.6784 21.7285 32.7622 21.8211 32.846 21.9137C33.4745 22.6749 33.7469 23.5698 33.6631 24.5677C33.3593 28.0137 29.3578 31.0997 26.6448 32.6221C26.6134 32.6427 26.5819 32.6324 26.561 32.6016L23.3975 26.5633C23.3975 26.5633 23.3871 26.4707 23.429 26.4398C25.3354 25.3083 27.0848 23.9505 28.677 22.3869ZM31.0129 24.9277C31.8404 25.6375 31.4424 26.9439 30.8348 27.6639C30.2482 28.3532 29.5883 28.9704 28.8655 29.5156C28.8341 29.5361 28.8131 29.5361 28.7922 29.495L27.4723 26.9336C27.4723 26.9336 27.4619 26.8924 27.4723 26.8822C27.4723 26.8616 27.4828 26.8513 27.5038 26.841C28.1532 26.2958 28.8027 25.7609 29.4416 25.2466C29.9025 24.8763 30.5101 24.5059 31.0129 24.938V24.9277ZM17.1858 35.2555C15.2479 35.0909 13.3834 33.9491 13.0901 31.8918C12.8701 30.3899 14.5566 29.4435 15.7822 29.0938C15.8241 29.0835 15.8555 29.0732 15.8974 29.0629C18.9352 28.1783 23.3556 26.8924 24.9897 30.7808C25.6497 32.3547 24.6231 33.4245 23.3347 34.0726C21.4073 35.0498 19.3542 35.4407 17.1858 35.2658V35.2555ZM16.7249 32.8176C17.2906 34.4943 19.8255 34.0828 20.9673 33.5171C22.5072 32.7353 21.4492 31.1409 20.2341 30.9454C19.3332 30.8014 16.1593 31.1306 16.7354 32.8176H16.7249Z" fill="url(#paint0_linear_6035_5349)"/>
<defs>
<linearGradient id="paint0_linear_6035_5349" x1="29.4312" y1="-7.07422" x2="8.70232" y2="40.5439" gradientUnits="userSpaceOnUse">
<stop stop-color="#D056B1"/>
<stop offset="0.67" stop-color="#6058D7"/>
<stop offset="1" stop-color="#25148F"/>
</linearGradient>
</defs>
</svg>
