<svg width="31" height="32" viewBox="0 0 31 32" fill="none" xmlns="http://www.w3.org/2000/svg">
<path fill-rule="evenodd" clip-rule="evenodd" d="M30.9932 16.8095V16.9887C31 17.0976 31 17.2128 31 17.3216C31 25.4322 24.0578 32 15.5 32C12.5325 32 9.76101 31.2126 7.40863 29.8427C7.12473 29.6763 6.84082 29.5035 6.57043 29.3178C2.59573 26.6612 0 22.2763 0 17.3216C0 11.1315 4.0423 5.83752 9.76101 3.68026C9.80157 3.4242 9.84213 3.17455 9.88945 2.9441C10.0179 2.32956 10.2072 1.73423 10.5113 1.25413C10.8155 0.761221 11.2752 0.33873 11.9241 0.185096C12.7082 -0.000543901 13.3707 0.415546 13.8236 0.825235C14.2968 1.26053 14.7429 1.86866 15.135 2.5216C15.162 2.56641 15.1891 2.61122 15.2161 2.64963C15.3107 2.64963 15.4054 2.64963 15.5068 2.64963C17.9403 2.64963 20.2386 3.18095 22.2867 4.12195C22.9086 3.27057 23.5711 2.42558 24.2471 1.73423C24.8284 1.1453 25.457 0.620391 26.133 0.306723C26.8225 -0.0133467 27.6134 -0.134973 28.3975 0.197899C29.2763 0.56918 29.7224 1.46537 29.9793 2.35517C30.2429 3.28977 30.3646 4.46122 30.3984 5.7159C30.4525 7.71953 30.2767 10.0496 30.0469 12.2197C30.6079 13.66 30.9392 15.2028 31 16.8095H30.9932ZM29.229 12.3925C29.1749 12.8662 29.1208 13.3271 29.0667 13.7816C28.9045 15.0683 28.9991 16.4126 29.087 17.7569C29.1614 18.8644 29.2357 19.9718 29.1681 21.0408C29.114 21.8474 28.9856 22.6348 28.7085 23.3837C26.329 28.0247 21.3066 31.2254 15.4932 31.2254C12.911 31.2254 10.4843 30.5917 8.38203 29.4843C10.1396 28.7673 11.2346 27.9031 12.2959 27.0709C13.6749 25.9827 14.9795 24.9521 17.5955 24.3823C18.3864 24.2095 19.13 24.0943 19.8262 24.0239C21.3607 23.8702 22.672 23.9342 23.7266 24.0943C21.0903 22.9548 17.9335 23.2301 15.2026 23.4669C13.5329 23.6142 12.0255 23.7422 10.8966 23.5246C7.15853 22.814 4.38705 20.0422 4.38705 20.0422C4.33297 19.9782 4.38705 19.8566 4.47492 19.8886C4.48168 19.8886 4.51548 19.9078 4.529 19.9142C4.61688 19.959 4.81967 20.0486 5.10358 20.1702C5.44156 20.3175 5.89446 20.5095 6.41496 20.708C7.76014 21.2201 9.5447 21.7962 10.9034 21.8346C12.0999 21.8666 12.9313 21.7962 13.6952 21.5657C14.432 21.3481 15.1147 20.996 16.0137 20.4647C16.1084 20.4071 16.203 20.3559 16.3044 20.2919C16.3314 20.2791 16.3585 20.2599 16.3855 20.247C16.3855 20.247 16.3247 20.1766 16.2774 20.183C16.1895 20.2022 16.0813 20.247 15.9461 20.2983C15.2229 20.5671 13.7357 21.1176 10.9034 20.7015C8.46315 20.3431 6.18513 19.2868 5.1171 18.7363C4.75883 18.5507 4.529 18.2178 4.47492 17.8401C4.47492 17.7953 4.4614 17.7505 4.4614 17.7057L4.44112 17.1488V17.0464C4.44112 17.0464 4.44788 16.9951 4.46816 16.9759L5.96206 15.7981C6.35412 15.4908 6.63127 15.0683 6.7597 14.5946L6.90842 14.0185C6.93546 13.9161 6.93546 13.8137 6.90842 13.7176C6.84082 13.404 6.55015 13.1607 6.18513 13.1735H6.07021C5.06978 13.1991 4.0761 12.9751 3.19734 12.5142L10.6939 12.4182C10.9845 12.4182 11.2617 12.3157 11.4847 12.1365L15.4865 8.92299C16.345 8.23164 17.44 7.85396 18.5689 7.85396H20.5901C20.928 7.40586 21.2998 6.86174 21.6919 6.28562C21.9555 5.90794 22.2259 5.51105 22.5031 5.11417C22.5977 4.97974 22.7126 4.8197 22.8208 4.66607C24.4769 2.36797 26.3966 0.172294 28.0528 0.876446C29.7833 1.6062 29.7765 6.29842 29.3709 10.7986L29.2087 12.3925H29.229ZM29.8238 14.2425C29.8238 14.2425 29.8306 14.281 29.8373 14.3066C29.8373 14.3322 29.8238 14.3514 29.8171 14.377C29.8171 14.3322 29.8171 14.2874 29.8171 14.2425H29.8238ZM14.3306 2.68164C13.6073 1.53579 12.8232 0.735616 12.1201 0.902052C11.2684 1.10049 10.8426 2.06711 10.606 3.38579C10.5587 3.68666 10.4911 4.20517 10.4843 4.24998C10.3761 5.17178 10.3288 6.2088 10.2815 7.25223C10.2612 7.64912 10.2477 8.046 10.2274 8.44289C10.2274 8.4941 10.2274 8.53891 10.2207 8.59012C10.2072 8.78216 10.2004 8.9742 10.1869 9.15984C10.1869 9.19185 10.1869 9.22386 10.1869 9.25587C10.2004 9.30708 10.2747 9.35188 10.3221 9.31348L12.1134 8.0268C13.0462 7.35465 14.1886 6.98977 15.358 6.98977H16.3517C16.2638 6.75292 16.176 6.50327 16.0746 6.24721C15.7231 5.33821 15.2769 4.3332 14.7835 3.437L14.3441 2.68164H14.3306ZM26.5589 10.3953C26.4169 10.9458 26.3155 11.3043 26.3155 11.3043L25.9032 10.805C25.8356 10.7282 25.7747 10.6514 25.7071 10.5746C25.0041 9.76798 24.193 9.04462 23.3007 8.41728C23.3007 8.41728 23.6454 7.80275 24.1457 7.07299C24.9365 5.91434 26.1127 4.45482 26.8833 4.68527C27.8365 4.96693 27.0118 8.64773 26.5656 10.3953H26.5589ZM10.7817 11.4899L15.1891 8.14842C15.2431 8.11002 15.2769 8.07161 15.304 8.0396C15.4392 7.87316 15.304 7.77074 15.2296 7.77074C15.1147 7.77074 14.993 7.77074 14.8781 7.78354C14.7767 7.78995 14.6753 7.80275 14.5739 7.81555C14.4793 7.82835 14.3846 7.84756 14.2833 7.87316C13.7628 7.99479 13.2693 8.21884 12.8367 8.53251L8.6051 11.6372H10.3221C10.4843 11.6372 10.6398 11.586 10.7682 11.4899H10.7817ZM15.9326 11.4131C15.4662 11.6884 15.1417 12.1621 15.1215 12.7126C15.1147 12.8662 15.1282 13.0135 15.162 13.1543C15.331 13.8457 15.9732 14.377 16.7641 14.409H16.8384C17.7442 14.409 18.5013 13.7304 18.5419 12.8662C18.5554 12.7062 18.5283 12.5526 18.5013 12.4117C17.7442 11.8036 16.879 11.5412 15.9326 11.4131ZM2.70388 16.5855C2.70388 16.5855 2.70388 16.5534 2.70388 16.5342V15.7341L3.46097 16.6751V18.6723C3.02835 18.1346 2.77148 17.4881 2.7174 16.8223C2.7174 16.7775 2.71064 16.7327 2.71064 16.6815C2.71064 16.6559 2.71064 16.6175 2.71064 16.5855H2.70388Z" fill="#606F84"/>
</svg>
