<svg width="48" height="48" viewBox="0 0 48 48" fill="none" xmlns="http://www.w3.org/2000/svg">
<path d="M26 38.6667C26.3682 38.6667 26.6667 38.9651 26.6667 39.3333C26.6667 39.7015 26.3682 40 26 40C25.6318 40 25.3333 39.7015 25.3333 39.3333C25.3333 38.9651 25.6318 38.6667 26 38.6667Z" fill="#708AB9"/>
<path d="M27.3333 38.6667C27.7015 38.6667 28 38.9651 28 39.3333C28 39.7015 27.7015 40 27.3333 40C26.9651 40 26.6667 39.7015 26.6667 39.3333C26.6667 38.9651 26.9651 38.6667 27.3333 38.6667Z" fill="#708AB9"/>
<path d="M26 37.3333C26.3682 37.3333 26.6667 37.6318 26.6667 38C26.6667 38.3682 26.3682 38.6667 26 38.6667C25.6318 38.6667 25.3333 38.3682 25.3333 38C25.3333 37.6318 25.6318 37.3333 26 37.3333Z" fill="#708AB9"/>
<path d="M27.3333 37.3333C27.7015 37.3333 28 37.6318 28 38C28 38.3682 27.7015 38.6667 27.3333 38.6667C26.9651 38.6667 26.6667 38.3682 26.6667 38C26.6667 37.6318 26.9651 37.3333 27.3333 37.3333Z" fill="#708AB9"/>
<path d="M26 36C26.3682 36 26.6667 36.2985 26.6667 36.6667C26.6667 37.0349 26.3682 37.3333 26 37.3333C25.6318 37.3333 25.3333 37.0349 25.3333 36.6667C25.3333 36.2985 25.6318 36 26 36Z" fill="#708AB9"/>
<path d="M27.3333 36C27.7015 36 28 36.2985 28 36.6667C28 37.0349 27.7015 37.3333 27.3333 37.3333C26.9651 37.3333 26.6667 37.0349 26.6667 36.6667C26.6667 36.2985 26.9651 36 27.3333 36Z" fill="#708AB9"/>
<path d="M26 34.6667C26.3682 34.6667 26.6667 34.9651 26.6667 35.3333C26.6667 35.7015 26.3682 36 26 36C25.6318 36 25.3333 35.7015 25.3333 35.3333C25.3333 34.9651 25.6318 34.6667 26 34.6667Z" fill="#708AB9"/>
<path d="M27.3333 34.6667C27.7015 34.6667 28 34.9651 28 35.3333C28 35.7015 27.7015 36 27.3333 36C26.9651 36 26.6667 35.7015 26.6667 35.3333C26.6667 34.9651 26.9651 34.6667 27.3333 34.6667Z" fill="#708AB9"/>
<path d="M24.6667 33.3333C25.0349 33.3333 25.3333 33.6318 25.3333 34C25.3333 34.3682 25.0349 34.6667 24.6667 34.6667C24.2985 34.6667 24 34.3682 24 34C24 33.6318 24.2985 33.3333 24.6667 33.3333Z" fill="#708AB9"/>
<path d="M26 33.3333C26.3682 33.3333 26.6667 33.6318 26.6667 34C26.6667 34.3682 26.3682 34.6667 26 34.6667C25.6318 34.6667 25.3333 34.3682 25.3333 34C25.3333 33.6318 25.6318 33.3333 26 33.3333Z" fill="#708AB9"/>
<path d="M27.3333 33.3333C27.7015 33.3333 28 33.6318 28 34C28 34.3682 27.7015 34.6667 27.3333 34.6667C26.9651 34.6667 26.6667 34.3682 26.6667 34C26.6667 33.6318 26.9651 33.3333 27.3333 33.3333Z" fill="#708AB9"/>
<path d="M28.6667 33.3333C29.0349 33.3333 29.3333 33.6318 29.3333 34C29.3333 34.3682 29.0349 34.6667 28.6667 34.6667C28.2985 34.6667 28 34.3682 28 34C28 33.6318 28.2985 33.3333 28.6667 33.3333Z" fill="#708AB9"/>
<path d="M24.6667 32C25.0349 32 25.3333 32.2985 25.3333 32.6667C25.3333 33.0349 25.0349 33.3333 24.6667 33.3333C24.2985 33.3333 24 33.0349 24 32.6667C24 32.2985 24.2985 32 24.6667 32Z" fill="#708AB9"/>
<path d="M26 32C26.3682 32 26.6667 32.2985 26.6667 32.6667C26.6667 33.0349 26.3682 33.3333 26 33.3333C25.6318 33.3333 25.3333 33.0349 25.3333 32.6667C25.3333 32.2985 25.6318 32 26 32Z" fill="#708AB9"/>
<path d="M27.3333 32C27.7015 32 28 32.2985 28 32.6667C28 33.0349 27.7015 33.3333 27.3333 33.3333C26.9651 33.3333 26.6667 33.0349 26.6667 32.6667C26.6667 32.2985 26.9651 32 27.3333 32Z" fill="#708AB9"/>
<path d="M28.6667 32C29.0349 32 29.3333 32.2985 29.3333 32.6667C29.3333 33.0349 29.0349 33.3333 28.6667 33.3333C28.2985 33.3333 28 33.0349 28 32.6667C28 32.2985 28.2985 32 28.6667 32Z" fill="#708AB9"/>
<path d="M23.3333 30.6667C23.7015 30.6667 24 30.9651 24 31.3333C24 31.7015 23.7015 32 23.3333 32C22.9651 32 22.6667 31.7015 22.6667 31.3333C22.6667 30.9651 22.9651 30.6667 23.3333 30.6667Z" fill="#708AB9"/>
<path d="M24.6667 30.6667C25.0349 30.6667 25.3333 30.9651 25.3333 31.3333C25.3333 31.7015 25.0349 32 24.6667 32C24.2985 32 24 31.7015 24 31.3333C24 30.9651 24.2985 30.6667 24.6667 30.6667Z" fill="#708AB9"/>
<path d="M26 30.6667C26.3682 30.6667 26.6667 30.9651 26.6667 31.3333C26.6667 31.7015 26.3682 32 26 32C25.6318 32 25.3333 31.7015 25.3333 31.3333C25.3333 30.9651 25.6318 30.6667 26 30.6667Z" fill="#708AB9"/>
<path d="M27.3333 30.6667C27.7015 30.6667 28 30.9651 28 31.3333C28 31.7015 27.7015 32 27.3333 32C26.9651 32 26.6667 31.7015 26.6667 31.3333C26.6667 30.9651 26.9651 30.6667 27.3333 30.6667Z" fill="#708AB9"/>
<path d="M28.6667 30.6667C29.0349 30.6667 29.3333 30.9651 29.3333 31.3333C29.3333 31.7015 29.0349 32 28.6667 32C28.2985 32 28 31.7015 28 31.3333C28 30.9651 28.2985 30.6667 28.6667 30.6667Z" fill="#708AB9"/>
<path d="M30 30.6667C30.3682 30.6667 30.6667 30.9651 30.6667 31.3333C30.6667 31.7015 30.3682 32 30 32C29.6318 32 29.3333 31.7015 29.3333 31.3333C29.3333 30.9651 29.6318 30.6667 30 30.6667Z" fill="#708AB9"/>
<path d="M20.6667 29.3333C21.0349 29.3333 21.3333 29.6318 21.3333 30C21.3333 30.3682 21.0349 30.6667 20.6667 30.6667C20.2985 30.6667 20 30.3682 20 30C20 29.6318 20.2985 29.3333 20.6667 29.3333Z" fill="#708AB9"/>
<path d="M22 29.3333C22.3682 29.3333 22.6667 29.6318 22.6667 30C22.6667 30.3682 22.3682 30.6667 22 30.6667C21.6318 30.6667 21.3333 30.3682 21.3333 30C21.3333 29.6318 21.6318 29.3333 22 29.3333Z" fill="#708AB9"/>
<path d="M23.3333 29.3333C23.7015 29.3333 24 29.6318 24 30C24 30.3682 23.7015 30.6667 23.3333 30.6667C22.9651 30.6667 22.6667 30.3682 22.6667 30C22.6667 29.6318 22.9651 29.3333 23.3333 29.3333Z" fill="#708AB9"/>
<path d="M24.6667 29.3333C25.0349 29.3333 25.3333 29.6318 25.3333 30C25.3333 30.3682 25.0349 30.6667 24.6667 30.6667C24.2985 30.6667 24 30.3682 24 30C24 29.6318 24.2985 29.3333 24.6667 29.3333Z" fill="#708AB9"/>
<path d="M26 29.3333C26.3682 29.3333 26.6667 29.6318 26.6667 30C26.6667 30.3682 26.3682 30.6667 26 30.6667C25.6318 30.6667 25.3333 30.3682 25.3333 30C25.3333 29.6318 25.6318 29.3333 26 29.3333Z" fill="#708AB9"/>
<path d="M27.3333 29.3333C27.7015 29.3333 28 29.6318 28 30C28 30.3682 27.7015 30.6667 27.3333 30.6667C26.9651 30.6667 26.6667 30.3682 26.6667 30C26.6667 29.6318 26.9651 29.3333 27.3333 29.3333Z" fill="#708AB9"/>
<path d="M28.6667 29.3333C29.0349 29.3333 29.3333 29.6318 29.3333 30C29.3333 30.3682 29.0349 30.6667 28.6667 30.6667C28.2985 30.6667 28 30.3682 28 30C28 29.6318 28.2985 29.3333 28.6667 29.3333Z" fill="#708AB9"/>
<path d="M30 29.3333C30.3682 29.3333 30.6667 29.6318 30.6667 30C30.6667 30.3682 30.3682 30.6667 30 30.6667C29.6318 30.6667 29.3333 30.3682 29.3333 30C29.3333 29.6318 29.6318 29.3333 30 29.3333Z" fill="#708AB9"/>
<path d="M31.3333 29.3333C31.7015 29.3333 32 29.6318 32 30C32 30.3682 31.7015 30.6667 31.3333 30.6667C30.9651 30.6667 30.6667 30.3682 30.6667 30C30.6667 29.6318 30.9651 29.3333 31.3333 29.3333Z" fill="#708AB9"/>
<path d="M32.6667 29.3333C33.0349 29.3333 33.3333 29.6318 33.3333 30C33.3333 30.3682 33.0349 30.6667 32.6667 30.6667C32.2985 30.6667 32 30.3682 32 30C32 29.6318 32.2985 29.3333 32.6667 29.3333Z" fill="#708AB9"/>
<path d="M15.3333 28C15.7015 28 16 28.2985 16 28.6667C16 29.0349 15.7015 29.3333 15.3333 29.3333C14.9651 29.3333 14.6667 29.0349 14.6667 28.6667C14.6667 28.2985 14.9651 28 15.3333 28Z" fill="#708AB9"/>
<path d="M16.6667 28C17.0349 28 17.3333 28.2985 17.3333 28.6667C17.3333 29.0349 17.0349 29.3333 16.6667 29.3333C16.2985 29.3333 16 29.0349 16 28.6667C16 28.2985 16.2985 28 16.6667 28Z" fill="#708AB9"/>
<path d="M18 28C18.3682 28 18.6667 28.2985 18.6667 28.6667C18.6667 29.0349 18.3682 29.3333 18 29.3333C17.6318 29.3333 17.3333 29.0349 17.3333 28.6667C17.3333 28.2985 17.6318 28 18 28Z" fill="#708AB9"/>
<path d="M19.3333 28C19.7015 28 20 28.2985 20 28.6667C20 29.0349 19.7015 29.3333 19.3333 29.3333C18.9651 29.3333 18.6667 29.0349 18.6667 28.6667C18.6667 28.2985 18.9651 28 19.3333 28Z" fill="#708AB9"/>
<path d="M20.6667 28C21.0349 28 21.3333 28.2985 21.3333 28.6667C21.3333 29.0349 21.0349 29.3333 20.6667 29.3333C20.2985 29.3333 20 29.0349 20 28.6667C20 28.2985 20.2985 28 20.6667 28Z" fill="#708AB9"/>
<path d="M22 28C22.3682 28 22.6667 28.2985 22.6667 28.6667C22.6667 29.0349 22.3682 29.3333 22 29.3333C21.6318 29.3333 21.3333 29.0349 21.3333 28.6667C21.3333 28.2985 21.6318 28 22 28Z" fill="#708AB9"/>
<path d="M23.3333 28C23.7015 28 24 28.2985 24 28.6667C24 29.0349 23.7015 29.3333 23.3333 29.3333C22.9651 29.3333 22.6667 29.0349 22.6667 28.6667C22.6667 28.2985 22.9651 28 23.3333 28Z" fill="#708AB9"/>
<path d="M24.6667 28C25.0349 28 25.3333 28.2985 25.3333 28.6667C25.3333 29.0349 25.0349 29.3333 24.6667 29.3333C24.2985 29.3333 24 29.0349 24 28.6667C24 28.2985 24.2985 28 24.6667 28Z" fill="#708AB9"/>
<path d="M26 28C26.3682 28 26.6667 28.2985 26.6667 28.6667C26.6667 29.0349 26.3682 29.3333 26 29.3333C25.6318 29.3333 25.3333 29.0349 25.3333 28.6667C25.3333 28.2985 25.6318 28 26 28Z" fill="#708AB9"/>
<path d="M27.3333 28C27.7015 28 28 28.2985 28 28.6667C28 29.0349 27.7015 29.3333 27.3333 29.3333C26.9651 29.3333 26.6667 29.0349 26.6667 28.6667C26.6667 28.2985 26.9651 28 27.3333 28Z" fill="#708AB9"/>
<path d="M28.6667 28C29.0349 28 29.3333 28.2985 29.3333 28.6667C29.3333 29.0349 29.0349 29.3333 28.6667 29.3333C28.2985 29.3333 28 29.0349 28 28.6667C28 28.2985 28.2985 28 28.6667 28Z" fill="#708AB9"/>
<path d="M30 28C30.3682 28 30.6667 28.2985 30.6667 28.6667C30.6667 29.0349 30.3682 29.3333 30 29.3333C29.6318 29.3333 29.3333 29.0349 29.3333 28.6667C29.3333 28.2985 29.6318 28 30 28Z" fill="#708AB9"/>
<path d="M31.3333 28C31.7015 28 32 28.2985 32 28.6667C32 29.0349 31.7015 29.3333 31.3333 29.3333C30.9651 29.3333 30.6667 29.0349 30.6667 28.6667C30.6667 28.2985 30.9651 28 31.3333 28Z" fill="#708AB9"/>
<path d="M32.6667 28C33.0349 28 33.3333 28.2985 33.3333 28.6667C33.3333 29.0349 33.0349 29.3333 32.6667 29.3333C32.2985 29.3333 32 29.0349 32 28.6667C32 28.2985 32.2985 28 32.6667 28Z" fill="#708AB9"/>
<path d="M34 28C34.3682 28 34.6667 28.2985 34.6667 28.6667C34.6667 29.0349 34.3682 29.3333 34 29.3333C33.6318 29.3333 33.3333 29.0349 33.3333 28.6667C33.3333 28.2985 33.6318 28 34 28Z" fill="#708AB9"/>
<path d="M35.3333 28C35.7015 28 36 28.2985 36 28.6667C36 29.0349 35.7015 29.3333 35.3333 29.3333C34.9651 29.3333 34.6667 29.0349 34.6667 28.6667C34.6667 28.2985 34.9651 28 35.3333 28Z" fill="#708AB9"/>
<path d="M36.6667 28C37.0349 28 37.3333 28.2985 37.3333 28.6667C37.3333 29.0349 37.0349 29.3333 36.6667 29.3333C36.2985 29.3333 36 29.0349 36 28.6667C36 28.2985 36.2985 28 36.6667 28Z" fill="#708AB9"/>
<path d="M38 28C38.3682 28 38.6667 28.2985 38.6667 28.6667C38.6667 29.0349 38.3682 29.3333 38 29.3333C37.6318 29.3333 37.3333 29.0349 37.3333 28.6667C37.3333 28.2985 37.6318 28 38 28Z" fill="#708AB9"/>
<path d="M15.3333 26.6667C15.7015 26.6667 16 26.9651 16 27.3333C16 27.7015 15.7015 28 15.3333 28C14.9651 28 14.6667 27.7015 14.6667 27.3333C14.6667 26.9651 14.9651 26.6667 15.3333 26.6667Z" fill="#708AB9"/>
<path d="M16.6667 26.6667C17.0349 26.6667 17.3333 26.9651 17.3333 27.3333C17.3333 27.7015 17.0349 28 16.6667 28C16.2985 28 16 27.7015 16 27.3333C16 26.9651 16.2985 26.6667 16.6667 26.6667Z" fill="#708AB9"/>
<path d="M18 26.6667C18.3682 26.6667 18.6667 26.9651 18.6667 27.3333C18.6667 27.7015 18.3682 28 18 28C17.6318 28 17.3333 27.7015 17.3333 27.3333C17.3333 26.9651 17.6318 26.6667 18 26.6667Z" fill="#708AB9"/>
<path d="M19.3333 26.6667C19.7015 26.6667 20 26.9651 20 27.3333C20 27.7015 19.7015 28 19.3333 28C18.9651 28 18.6667 27.7015 18.6667 27.3333C18.6667 26.9651 18.9651 26.6667 19.3333 26.6667Z" fill="#708AB9"/>
<path d="M20.6667 26.6667C21.0349 26.6667 21.3333 26.9651 21.3333 27.3333C21.3333 27.7015 21.0349 28 20.6667 28C20.2985 28 20 27.7015 20 27.3333C20 26.9651 20.2985 26.6667 20.6667 26.6667Z" fill="#708AB9"/>
<path d="M22 26.6667C22.3682 26.6667 22.6667 26.9651 22.6667 27.3333C22.6667 27.7015 22.3682 28 22 28C21.6318 28 21.3333 27.7015 21.3333 27.3333C21.3333 26.9651 21.6318 26.6667 22 26.6667Z" fill="#708AB9"/>
<path d="M23.3333 26.6667C23.7015 26.6667 24 26.9651 24 27.3333C24 27.7015 23.7015 28 23.3333 28C22.9651 28 22.6667 27.7015 22.6667 27.3333C22.6667 26.9651 22.9651 26.6667 23.3333 26.6667Z" fill="#708AB9"/>
<path d="M24.6667 26.6667C25.0349 26.6667 25.3333 26.9651 25.3333 27.3333C25.3333 27.7015 25.0349 28 24.6667 28C24.2985 28 24 27.7015 24 27.3333C24 26.9651 24.2985 26.6667 24.6667 26.6667Z" fill="#708AB9"/>
<path d="M26 26.6667C26.3682 26.6667 26.6667 26.9651 26.6667 27.3333C26.6667 27.7015 26.3682 28 26 28C25.6318 28 25.3333 27.7015 25.3333 27.3333C25.3333 26.9651 25.6318 26.6667 26 26.6667Z" fill="#708AB9"/>
<path d="M27.3333 26.6667C27.7015 26.6667 28 26.9651 28 27.3333C28 27.7015 27.7015 28 27.3333 28C26.9651 28 26.6667 27.7015 26.6667 27.3333C26.6667 26.9651 26.9651 26.6667 27.3333 26.6667Z" fill="#708AB9"/>
<path d="M28.6667 26.6667C29.0349 26.6667 29.3333 26.9651 29.3333 27.3333C29.3333 27.7015 29.0349 28 28.6667 28C28.2985 28 28 27.7015 28 27.3333C28 26.9651 28.2985 26.6667 28.6667 26.6667Z" fill="#708AB9"/>
<path d="M30 26.6667C30.3682 26.6667 30.6667 26.9651 30.6667 27.3333C30.6667 27.7015 30.3682 28 30 28C29.6318 28 29.3333 27.7015 29.3333 27.3333C29.3333 26.9651 29.6318 26.6667 30 26.6667Z" fill="#708AB9"/>
<path d="M31.3333 26.6667C31.7015 26.6667 32 26.9651 32 27.3333C32 27.7015 31.7015 28 31.3333 28C30.9651 28 30.6667 27.7015 30.6667 27.3333C30.6667 26.9651 30.9651 26.6667 31.3333 26.6667Z" fill="#708AB9"/>
<path d="M32.6667 26.6667C33.0349 26.6667 33.3333 26.9651 33.3333 27.3333C33.3333 27.7015 33.0349 28 32.6667 28C32.2985 28 32 27.7015 32 27.3333C32 26.9651 32.2985 26.6667 32.6667 26.6667Z" fill="#708AB9"/>
<path d="M34 26.6667C34.3682 26.6667 34.6667 26.9651 34.6667 27.3333C34.6667 27.7015 34.3682 28 34 28C33.6318 28 33.3333 27.7015 33.3333 27.3333C33.3333 26.9651 33.6318 26.6667 34 26.6667Z" fill="#708AB9"/>
<path d="M35.3333 26.6667C35.7015 26.6667 36 26.9651 36 27.3333C36 27.7015 35.7015 28 35.3333 28C34.9651 28 34.6667 27.7015 34.6667 27.3333C34.6667 26.9651 34.9651 26.6667 35.3333 26.6667Z" fill="#708AB9"/>
<path d="M36.6667 26.6667C37.0349 26.6667 37.3333 26.9651 37.3333 27.3333C37.3333 27.7015 37.0349 28 36.6667 28C36.2985 28 36 27.7015 36 27.3333C36 26.9651 36.2985 26.6667 36.6667 26.6667Z" fill="#708AB9"/>
<path d="M38 26.6667C38.3682 26.6667 38.6667 26.9651 38.6667 27.3333C38.6667 27.7015 38.3682 28 38 28C37.6318 28 37.3333 27.7015 37.3333 27.3333C37.3333 26.9651 37.6318 26.6667 38 26.6667Z" fill="#708AB9"/>
<path d="M20.6667 25.3333C21.0349 25.3333 21.3333 25.6318 21.3333 26C21.3333 26.3682 21.0349 26.6667 20.6667 26.6667C20.2985 26.6667 20 26.3682 20 26C20 25.6318 20.2985 25.3333 20.6667 25.3333Z" fill="#708AB9"/>
<path d="M22 25.3333C22.3682 25.3333 22.6667 25.6318 22.6667 26C22.6667 26.3682 22.3682 26.6667 22 26.6667C21.6318 26.6667 21.3333 26.3682 21.3333 26C21.3333 25.6318 21.6318 25.3333 22 25.3333Z" fill="#708AB9"/>
<path d="M23.3333 25.3333C23.7015 25.3333 24 25.6318 24 26C24 26.3682 23.7015 26.6667 23.3333 26.6667C22.9651 26.6667 22.6667 26.3682 22.6667 26C22.6667 25.6318 22.9651 25.3333 23.3333 25.3333Z" fill="#708AB9"/>
<path d="M24.6667 25.3333C25.0349 25.3333 25.3333 25.6318 25.3333 26C25.3333 26.3682 25.0349 26.6667 24.6667 26.6667C24.2985 26.6667 24 26.3682 24 26C24 25.6318 24.2985 25.3333 24.6667 25.3333Z" fill="#708AB9"/>
<path d="M26 25.3333C26.3682 25.3333 26.6667 25.6318 26.6667 26C26.6667 26.3682 26.3682 26.6667 26 26.6667C25.6318 26.6667 25.3333 26.3682 25.3333 26C25.3333 25.6318 25.6318 25.3333 26 25.3333Z" fill="#708AB9"/>
<path d="M27.3333 25.3333C27.7015 25.3333 28 25.6318 28 26C28 26.3682 27.7015 26.6667 27.3333 26.6667C26.9651 26.6667 26.6667 26.3682 26.6667 26C26.6667 25.6318 26.9651 25.3333 27.3333 25.3333Z" fill="#708AB9"/>
<path d="M28.6667 25.3333C29.0349 25.3333 29.3333 25.6318 29.3333 26C29.3333 26.3682 29.0349 26.6667 28.6667 26.6667C28.2985 26.6667 28 26.3682 28 26C28 25.6318 28.2985 25.3333 28.6667 25.3333Z" fill="#708AB9"/>
<path d="M30 25.3333C30.3682 25.3333 30.6667 25.6318 30.6667 26C30.6667 26.3682 30.3682 26.6667 30 26.6667C29.6318 26.6667 29.3333 26.3682 29.3333 26C29.3333 25.6318 29.6318 25.3333 30 25.3333Z" fill="#708AB9"/>
<path d="M31.3333 25.3333C31.7015 25.3333 32 25.6318 32 26C32 26.3682 31.7015 26.6667 31.3333 26.6667C30.9651 26.6667 30.6667 26.3682 30.6667 26C30.6667 25.6318 30.9651 25.3333 31.3333 25.3333Z" fill="#708AB9"/>
<path d="M32.6667 25.3333C33.0349 25.3333 33.3333 25.6318 33.3333 26C33.3333 26.3682 33.0349 26.6667 32.6667 26.6667C32.2985 26.6667 32 26.3682 32 26C32 25.6318 32.2985 25.3333 32.6667 25.3333Z" fill="#708AB9"/>
<path d="M23.3333 24C23.7015 24 24 24.2985 24 24.6667C24 25.0349 23.7015 25.3333 23.3333 25.3333C22.9651 25.3333 22.6667 25.0349 22.6667 24.6667C22.6667 24.2985 22.9651 24 23.3333 24Z" fill="#708AB9"/>
<path d="M24.6667 24C25.0349 24 25.3333 24.2985 25.3333 24.6667C25.3333 25.0349 25.0349 25.3333 24.6667 25.3333C24.2985 25.3333 24 25.0349 24 24.6667C24 24.2985 24.2985 24 24.6667 24Z" fill="#708AB9"/>
<path d="M26 24C26.3682 24 26.6667 24.2985 26.6667 24.6667C26.6667 25.0349 26.3682 25.3333 26 25.3333C25.6318 25.3333 25.3333 25.0349 25.3333 24.6667C25.3333 24.2985 25.6318 24 26 24Z" fill="#708AB9"/>
<path d="M27.3333 24C27.7015 24 28 24.2985 28 24.6667C28 25.0349 27.7015 25.3333 27.3333 25.3333C26.9651 25.3333 26.6667 25.0349 26.6667 24.6667C26.6667 24.2985 26.9651 24 27.3333 24Z" fill="#708AB9"/>
<path d="M28.6667 24C29.0349 24 29.3333 24.2985 29.3333 24.6667C29.3333 25.0349 29.0349 25.3333 28.6667 25.3333C28.2985 25.3333 28 25.0349 28 24.6667C28 24.2985 28.2985 24 28.6667 24Z" fill="#708AB9"/>
<path d="M30 24C30.3682 24 30.6667 24.2985 30.6667 24.6667C30.6667 25.0349 30.3682 25.3333 30 25.3333C29.6318 25.3333 29.3333 25.0349 29.3333 24.6667C29.3333 24.2985 29.6318 24 30 24Z" fill="#708AB9"/>
<path d="M24.6667 22.6667C25.0349 22.6667 25.3333 22.9651 25.3333 23.3333C25.3333 23.7015 25.0349 24 24.6667 24C24.2985 24 24 23.7015 24 23.3333C24 22.9651 24.2985 22.6667 24.6667 22.6667Z" fill="#708AB9"/>
<path d="M26 22.6667C26.3682 22.6667 26.6667 22.9651 26.6667 23.3333C26.6667 23.7015 26.3682 24 26 24C25.6318 24 25.3333 23.7015 25.3333 23.3333C25.3333 22.9651 25.6318 22.6667 26 22.6667Z" fill="#708AB9"/>
<path d="M27.3333 22.6667C27.7015 22.6667 28 22.9651 28 23.3333C28 23.7015 27.7015 24 27.3333 24C26.9651 24 26.6667 23.7015 26.6667 23.3333C26.6667 22.9651 26.9651 22.6667 27.3333 22.6667Z" fill="#708AB9"/>
<path d="M28.6667 22.6667C29.0349 22.6667 29.3333 22.9651 29.3333 23.3333C29.3333 23.7015 29.0349 24 28.6667 24C28.2985 24 28 23.7015 28 23.3333C28 22.9651 28.2985 22.6667 28.6667 22.6667Z" fill="#708AB9"/>
<path d="M24.6667 21.3333C25.0349 21.3333 25.3333 21.6318 25.3333 22C25.3333 22.3682 25.0349 22.6667 24.6667 22.6667C24.2985 22.6667 24 22.3682 24 22C24 21.6318 24.2985 21.3333 24.6667 21.3333Z" fill="#708AB9"/>
<path d="M26 21.3333C26.3682 21.3333 26.6667 21.6318 26.6667 22C26.6667 22.3682 26.3682 22.6667 26 22.6667C25.6318 22.6667 25.3333 22.3682 25.3333 22C25.3333 21.6318 25.6318 21.3333 26 21.3333Z" fill="#708AB9"/>
<path d="M27.3333 21.3333C27.7015 21.3333 28 21.6318 28 22C28 22.3682 27.7015 22.6667 27.3333 22.6667C26.9651 22.6667 26.6667 22.3682 26.6667 22C26.6667 21.6318 26.9651 21.3333 27.3333 21.3333Z" fill="#708AB9"/>
<path d="M28.6667 21.3333C29.0349 21.3333 29.3333 21.6318 29.3333 22C29.3333 22.3682 29.0349 22.6667 28.6667 22.6667C28.2985 22.6667 28 22.3682 28 22C28 21.6318 28.2985 21.3333 28.6667 21.3333Z" fill="#708AB9"/>
<path d="M14 20C14.3682 20 14.6667 20.2985 14.6667 20.6667C14.6667 21.0349 14.3682 21.3333 14 21.3333C13.6318 21.3333 13.3333 21.0349 13.3333 20.6667C13.3333 20.2985 13.6318 20 14 20Z" fill="#708AB9"/>
<path d="M15.3333 20C15.7015 20 16 20.2985 16 20.6667C16 21.0349 15.7015 21.3333 15.3333 21.3333C14.9651 21.3333 14.6667 21.0349 14.6667 20.6667C14.6667 20.2985 14.9651 20 15.3333 20Z" fill="#708AB9"/>
<path d="M26 20C26.3682 20 26.6667 20.2985 26.6667 20.6667C26.6667 21.0349 26.3682 21.3333 26 21.3333C25.6318 21.3333 25.3333 21.0349 25.3333 20.6667C25.3333 20.2985 25.6318 20 26 20Z" fill="#708AB9"/>
<path d="M27.3333 20C27.7015 20 28 20.2985 28 20.6667C28 21.0349 27.7015 21.3333 27.3333 21.3333C26.9651 21.3333 26.6667 21.0349 26.6667 20.6667C26.6667 20.2985 26.9651 20 27.3333 20Z" fill="#708AB9"/>
<path d="M14 18.6667C14.3682 18.6667 14.6667 18.9651 14.6667 19.3333C14.6667 19.7015 14.3682 20 14 20C13.6318 20 13.3333 19.7015 13.3333 19.3333C13.3333 18.9651 13.6318 18.6667 14 18.6667Z" fill="#708AB9"/>
<path d="M15.3333 18.6667C15.7015 18.6667 16 18.9651 16 19.3333C16 19.7015 15.7015 20 15.3333 20C14.9651 20 14.6667 19.7015 14.6667 19.3333C14.6667 18.9651 14.9651 18.6667 15.3333 18.6667Z" fill="#708AB9"/>
<path d="M26 18.6667C26.3682 18.6667 26.6667 18.9651 26.6667 19.3333C26.6667 19.7015 26.3682 20 26 20C25.6318 20 25.3333 19.7015 25.3333 19.3333C25.3333 18.9651 25.6318 18.6667 26 18.6667Z" fill="#708AB9"/>
<path d="M27.3333 18.6667C27.7015 18.6667 28 18.9651 28 19.3333C28 19.7015 27.7015 20 27.3333 20C26.9651 20 26.6667 19.7015 26.6667 19.3333C26.6667 18.9651 26.9651 18.6667 27.3333 18.6667Z" fill="#708AB9"/>
<path d="M14 17.3333C14.3682 17.3333 14.6667 17.6318 14.6667 18C14.6667 18.3682 14.3682 18.6667 14 18.6667C13.6318 18.6667 13.3333 18.3682 13.3333 18C13.3333 17.6318 13.6318 17.3333 14 17.3333Z" fill="#708AB9"/>
<path d="M15.3333 17.3333C15.7015 17.3333 16 17.6318 16 18C16 18.3682 15.7015 18.6667 15.3333 18.6667C14.9651 18.6667 14.6667 18.3682 14.6667 18C14.6667 17.6318 14.9651 17.3333 15.3333 17.3333Z" fill="#708AB9"/>
<path d="M26 17.3333C26.3682 17.3333 26.6667 17.6318 26.6667 18C26.6667 18.3682 26.3682 18.6667 26 18.6667C25.6318 18.6667 25.3333 18.3682 25.3333 18C25.3333 17.6318 25.6318 17.3333 26 17.3333Z" fill="#708AB9"/>
<path d="M27.3333 17.3333C27.7015 17.3333 28 17.6318 28 18C28 18.3682 27.7015 18.6667 27.3333 18.6667C26.9651 18.6667 26.6667 18.3682 26.6667 18C26.6667 17.6318 26.9651 17.3333 27.3333 17.3333Z" fill="#708AB9"/>
<path d="M35.3333 17.3333C35.7015 17.3333 36 17.6318 36 18C36 18.3682 35.7015 18.6667 35.3333 18.6667C34.9651 18.6667 34.6667 18.3682 34.6667 18C34.6667 17.6318 34.9651 17.3333 35.3333 17.3333Z" fill="#708AB9"/>
<path d="M36.6667 17.3333C37.0349 17.3333 37.3333 17.6318 37.3333 18C37.3333 18.3682 37.0349 18.6667 36.6667 18.6667C36.2985 18.6667 36 18.3682 36 18C36 17.6318 36.2985 17.3333 36.6667 17.3333Z" fill="#708AB9"/>
<path d="M12.6667 16C13.0349 16 13.3333 16.2985 13.3333 16.6667C13.3333 17.0349 13.0349 17.3333 12.6667 17.3333C12.2985 17.3333 12 17.0349 12 16.6667C12 16.2985 12.2985 16 12.6667 16Z" fill="#708AB9"/>
<path d="M14 16C14.3682 16 14.6667 16.2985 14.6667 16.6667C14.6667 17.0349 14.3682 17.3333 14 17.3333C13.6318 17.3333 13.3333 17.0349 13.3333 16.6667C13.3333 16.2985 13.6318 16 14 16Z" fill="#708AB9"/>
<path d="M15.3333 16C15.7015 16 16 16.2985 16 16.6667C16 17.0349 15.7015 17.3333 15.3333 17.3333C14.9651 17.3333 14.6667 17.0349 14.6667 16.6667C14.6667 16.2985 14.9651 16 15.3333 16Z" fill="#708AB9"/>
<path d="M16.6667 16C17.0349 16 17.3333 16.2985 17.3333 16.6667C17.3333 17.0349 17.0349 17.3333 16.6667 17.3333C16.2985 17.3333 16 17.0349 16 16.6667C16 16.2985 16.2985 16 16.6667 16Z" fill="#708AB9"/>
<path d="M26 16C26.3682 16 26.6667 16.2985 26.6667 16.6667C26.6667 17.0349 26.3682 17.3333 26 17.3333C25.6318 17.3333 25.3333 17.0349 25.3333 16.6667C25.3333 16.2985 25.6318 16 26 16Z" fill="#708AB9"/>
<path d="M27.3333 16C27.7015 16 28 16.2985 28 16.6667C28 17.0349 27.7015 17.3333 27.3333 17.3333C26.9651 17.3333 26.6667 17.0349 26.6667 16.6667C26.6667 16.2985 26.9651 16 27.3333 16Z" fill="#708AB9"/>
<path d="M35.3333 16C35.7015 16 36 16.2985 36 16.6667C36 17.0349 35.7015 17.3333 35.3333 17.3333C34.9651 17.3333 34.6667 17.0349 34.6667 16.6667C34.6667 16.2985 34.9651 16 35.3333 16Z" fill="#708AB9"/>
<path d="M36.6667 16C37.0349 16 37.3333 16.2985 37.3333 16.6667C37.3333 17.0349 37.0349 17.3333 36.6667 17.3333C36.2985 17.3333 36 17.0349 36 16.6667C36 16.2985 36.2985 16 36.6667 16Z" fill="#708AB9"/>
<path d="M8.66667 14.6667C9.03486 14.6667 9.33333 14.9651 9.33333 15.3333C9.33333 15.7015 9.03486 16 8.66667 16C8.29848 16 8 15.7015 8 15.3333C8 14.9651 8.29848 14.6667 8.66667 14.6667Z" fill="#708AB9"/>
<path d="M10 14.6667C10.3682 14.6667 10.6667 14.9651 10.6667 15.3333C10.6667 15.7015 10.3682 16 10 16C9.63181 16 9.33333 15.7015 9.33333 15.3333C9.33333 14.9651 9.63181 14.6667 10 14.6667Z" fill="#708AB9"/>
<path d="M11.3333 14.6667C11.7015 14.6667 12 14.9651 12 15.3333C12 15.7015 11.7015 16 11.3333 16C10.9651 16 10.6667 15.7015 10.6667 15.3333C10.6667 14.9651 10.9651 14.6667 11.3333 14.6667Z" fill="#708AB9"/>
<path d="M12.6667 14.6667C13.0349 14.6667 13.3333 14.9651 13.3333 15.3333C13.3333 15.7015 13.0349 16 12.6667 16C12.2985 16 12 15.7015 12 15.3333C12 14.9651 12.2985 14.6667 12.6667 14.6667Z" fill="#708AB9"/>
<path d="M14 14.6667C14.3682 14.6667 14.6667 14.9651 14.6667 15.3333C14.6667 15.7015 14.3682 16 14 16C13.6318 16 13.3333 15.7015 13.3333 15.3333C13.3333 14.9651 13.6318 14.6667 14 14.6667Z" fill="#708AB9"/>
<path d="M15.3333 14.6667C15.7015 14.6667 16 14.9651 16 15.3333C16 15.7015 15.7015 16 15.3333 16C14.9651 16 14.6667 15.7015 14.6667 15.3333C14.6667 14.9651 14.9651 14.6667 15.3333 14.6667Z" fill="#708AB9"/>
<path d="M16.6667 14.6667C17.0349 14.6667 17.3333 14.9651 17.3333 15.3333C17.3333 15.7015 17.0349 16 16.6667 16C16.2985 16 16 15.7015 16 15.3333C16 14.9651 16.2985 14.6667 16.6667 14.6667Z" fill="#708AB9"/>
<path d="M18 14.6667C18.3682 14.6667 18.6667 14.9651 18.6667 15.3333C18.6667 15.7015 18.3682 16 18 16C17.6318 16 17.3333 15.7015 17.3333 15.3333C17.3333 14.9651 17.6318 14.6667 18 14.6667Z" fill="#708AB9"/>
<path d="M19.3333 14.6667C19.7015 14.6667 20 14.9651 20 15.3333C20 15.7015 19.7015 16 19.3333 16C18.9651 16 18.6667 15.7015 18.6667 15.3333C18.6667 14.9651 18.9651 14.6667 19.3333 14.6667Z" fill="#708AB9"/>
<path d="M20.6667 14.6667C21.0349 14.6667 21.3333 14.9651 21.3333 15.3333C21.3333 15.7015 21.0349 16 20.6667 16C20.2985 16 20 15.7015 20 15.3333C20 14.9651 20.2985 14.6667 20.6667 14.6667Z" fill="#708AB9"/>
<path d="M32.6667 14.6667C33.0349 14.6667 33.3333 14.9651 33.3333 15.3333C33.3333 15.7015 33.0349 16 32.6667 16C32.2985 16 32 15.7015 32 15.3333C32 14.9651 32.2985 14.6667 32.6667 14.6667Z" fill="#708AB9"/>
<path d="M34 14.6667C34.3682 14.6667 34.6667 14.9651 34.6667 15.3333C34.6667 15.7015 34.3682 16 34 16C33.6318 16 33.3333 15.7015 33.3333 15.3333C33.3333 14.9651 33.6318 14.6667 34 14.6667Z" fill="#708AB9"/>
<path d="M35.3333 14.6667C35.7015 14.6667 36 14.9651 36 15.3333C36 15.7015 35.7015 16 35.3333 16C34.9651 16 34.6667 15.7015 34.6667 15.3333C34.6667 14.9651 34.9651 14.6667 35.3333 14.6667Z" fill="#708AB9"/>
<path d="M36.6667 14.6667C37.0349 14.6667 37.3333 14.9651 37.3333 15.3333C37.3333 15.7015 37.0349 16 36.6667 16C36.2985 16 36 15.7015 36 15.3333C36 14.9651 36.2985 14.6667 36.6667 14.6667Z" fill="#708AB9"/>
<path d="M38 14.6667C38.3682 14.6667 38.6667 14.9651 38.6667 15.3333C38.6667 15.7015 38.3682 16 38 16C37.6318 16 37.3333 15.7015 37.3333 15.3333C37.3333 14.9651 37.6318 14.6667 38 14.6667Z" fill="#708AB9"/>
<path d="M39.3333 14.6667C39.7015 14.6667 40 14.9651 40 15.3333C40 15.7015 39.7015 16 39.3333 16C38.9651 16 38.6667 15.7015 38.6667 15.3333C38.6667 14.9651 38.9651 14.6667 39.3333 14.6667Z" fill="#708AB9"/>
<path d="M8.66667 13.3333C9.03486 13.3333 9.33333 13.6318 9.33333 14C9.33333 14.3682 9.03486 14.6667 8.66667 14.6667C8.29848 14.6667 8 14.3682 8 14C8 13.6318 8.29848 13.3333 8.66667 13.3333Z" fill="#708AB9"/>
<path d="M10 13.3333C10.3682 13.3333 10.6667 13.6318 10.6667 14C10.6667 14.3682 10.3682 14.6667 10 14.6667C9.63181 14.6667 9.33333 14.3682 9.33333 14C9.33333 13.6318 9.63181 13.3333 10 13.3333Z" fill="#708AB9"/>
<path d="M11.3333 13.3333C11.7015 13.3333 12 13.6318 12 14C12 14.3682 11.7015 14.6667 11.3333 14.6667C10.9651 14.6667 10.6667 14.3682 10.6667 14C10.6667 13.6318 10.9651 13.3333 11.3333 13.3333Z" fill="#708AB9"/>
<path d="M12.6667 13.3333C13.0349 13.3333 13.3333 13.6318 13.3333 14C13.3333 14.3682 13.0349 14.6667 12.6667 14.6667C12.2985 14.6667 12 14.3682 12 14C12 13.6318 12.2985 13.3333 12.6667 13.3333Z" fill="#708AB9"/>
<path d="M14 13.3333C14.3682 13.3333 14.6667 13.6318 14.6667 14C14.6667 14.3682 14.3682 14.6667 14 14.6667C13.6318 14.6667 13.3333 14.3682 13.3333 14C13.3333 13.6318 13.6318 13.3333 14 13.3333Z" fill="#708AB9"/>
<path d="M15.3333 13.3333C15.7015 13.3333 16 13.6318 16 14C16 14.3682 15.7015 14.6667 15.3333 14.6667C14.9651 14.6667 14.6667 14.3682 14.6667 14C14.6667 13.6318 14.9651 13.3333 15.3333 13.3333Z" fill="#708AB9"/>
<path d="M16.6667 13.3333C17.0349 13.3333 17.3333 13.6318 17.3333 14C17.3333 14.3682 17.0349 14.6667 16.6667 14.6667C16.2985 14.6667 16 14.3682 16 14C16 13.6318 16.2985 13.3333 16.6667 13.3333Z" fill="#708AB9"/>
<path d="M18 13.3333C18.3682 13.3333 18.6667 13.6318 18.6667 14C18.6667 14.3682 18.3682 14.6667 18 14.6667C17.6318 14.6667 17.3333 14.3682 17.3333 14C17.3333 13.6318 17.6318 13.3333 18 13.3333Z" fill="#708AB9"/>
<path d="M19.3333 13.3333C19.7015 13.3333 20 13.6318 20 14C20 14.3682 19.7015 14.6667 19.3333 14.6667C18.9651 14.6667 18.6667 14.3682 18.6667 14C18.6667 13.6318 18.9651 13.3333 19.3333 13.3333Z" fill="#708AB9"/>
<path d="M20.6667 13.3333C21.0349 13.3333 21.3333 13.6318 21.3333 14C21.3333 14.3682 21.0349 14.6667 20.6667 14.6667C20.2985 14.6667 20 14.3682 20 14C20 13.6318 20.2985 13.3333 20.6667 13.3333Z" fill="#708AB9"/>
<path d="M32.6667 13.3333C33.0349 13.3333 33.3333 13.6318 33.3333 14C33.3333 14.3682 33.0349 14.6667 32.6667 14.6667C32.2985 14.6667 32 14.3682 32 14C32 13.6318 32.2985 13.3333 32.6667 13.3333Z" fill="#708AB9"/>
<path d="M34 13.3333C34.3682 13.3333 34.6667 13.6318 34.6667 14C34.6667 14.3682 34.3682 14.6667 34 14.6667C33.6318 14.6667 33.3333 14.3682 33.3333 14C33.3333 13.6318 33.6318 13.3333 34 13.3333Z" fill="#708AB9"/>
<path d="M35.3333 13.3333C35.7015 13.3333 36 13.6318 36 14C36 14.3682 35.7015 14.6667 35.3333 14.6667C34.9651 14.6667 34.6667 14.3682 34.6667 14C34.6667 13.6318 34.9651 13.3333 35.3333 13.3333Z" fill="#708AB9"/>
<path d="M36.6667 13.3333C37.0349 13.3333 37.3333 13.6318 37.3333 14C37.3333 14.3682 37.0349 14.6667 36.6667 14.6667C36.2985 14.6667 36 14.3682 36 14C36 13.6318 36.2985 13.3333 36.6667 13.3333Z" fill="#708AB9"/>
<path d="M38 13.3333C38.3682 13.3333 38.6667 13.6318 38.6667 14C38.6667 14.3682 38.3682 14.6667 38 14.6667C37.6318 14.6667 37.3333 14.3682 37.3333 14C37.3333 13.6318 37.6318 13.3333 38 13.3333Z" fill="#708AB9"/>
<path d="M39.3333 13.3333C39.7015 13.3333 40 13.6318 40 14C40 14.3682 39.7015 14.6667 39.3333 14.6667C38.9651 14.6667 38.6667 14.3682 38.6667 14C38.6667 13.6318 38.9651 13.3333 39.3333 13.3333Z" fill="#708AB9"/>
<path d="M12.6667 12C13.0349 12 13.3333 12.2985 13.3333 12.6667C13.3333 13.0349 13.0349 13.3333 12.6667 13.3333C12.2985 13.3333 12 13.0349 12 12.6667C12 12.2985 12.2985 12 12.6667 12Z" fill="#708AB9"/>
<path d="M14 12C14.3682 12 14.6667 12.2985 14.6667 12.6667C14.6667 13.0349 14.3682 13.3333 14 13.3333C13.6318 13.3333 13.3333 13.0349 13.3333 12.6667C13.3333 12.2985 13.6318 12 14 12Z" fill="#708AB9"/>
<path d="M15.3333 12C15.7015 12 16 12.2985 16 12.6667C16 13.0349 15.7015 13.3333 15.3333 13.3333C14.9651 13.3333 14.6667 13.0349 14.6667 12.6667C14.6667 12.2985 14.9651 12 15.3333 12Z" fill="#708AB9"/>
<path d="M16.6667 12C17.0349 12 17.3333 12.2985 17.3333 12.6667C17.3333 13.0349 17.0349 13.3333 16.6667 13.3333C16.2985 13.3333 16 13.0349 16 12.6667C16 12.2985 16.2985 12 16.6667 12Z" fill="#708AB9"/>
<path d="M35.3333 12C35.7015 12 36 12.2985 36 12.6667C36 13.0349 35.7015 13.3333 35.3333 13.3333C34.9651 13.3333 34.6667 13.0349 34.6667 12.6667C34.6667 12.2985 34.9651 12 35.3333 12Z" fill="#708AB9"/>
<path d="M36.6667 12C37.0349 12 37.3333 12.2985 37.3333 12.6667C37.3333 13.0349 37.0349 13.3333 36.6667 13.3333C36.2985 13.3333 36 13.0349 36 12.6667C36 12.2985 36.2985 12 36.6667 12Z" fill="#708AB9"/>
<path d="M14 10.6667C14.3682 10.6667 14.6667 10.9651 14.6667 11.3333C14.6667 11.7015 14.3682 12 14 12C13.6318 12 13.3333 11.7015 13.3333 11.3333C13.3333 10.9651 13.6318 10.6667 14 10.6667Z" fill="#708AB9"/>
<path d="M15.3333 10.6667C15.7015 10.6667 16 10.9651 16 11.3333C16 11.7015 15.7015 12 15.3333 12C14.9651 12 14.6667 11.7015 14.6667 11.3333C14.6667 10.9651 14.9651 10.6667 15.3333 10.6667Z" fill="#708AB9"/>
<path d="M35.3333 10.6667C35.7015 10.6667 36 10.9651 36 11.3333C36 11.7015 35.7015 12 35.3333 12C34.9651 12 34.6667 11.7015 34.6667 11.3333C34.6667 10.9651 34.9651 10.6667 35.3333 10.6667Z" fill="#708AB9"/>
<path d="M36.6667 10.6667C37.0349 10.6667 37.3333 10.9651 37.3333 11.3333C37.3333 11.7015 37.0349 12 36.6667 12C36.2985 12 36 11.7015 36 11.3333C36 10.9651 36.2985 10.6667 36.6667 10.6667Z" fill="#708AB9"/>
<path d="M14 9.33333C14.3682 9.33333 14.6667 9.63181 14.6667 10C14.6667 10.3682 14.3682 10.6667 14 10.6667C13.6318 10.6667 13.3333 10.3682 13.3333 10C13.3333 9.63181 13.6318 9.33333 14 9.33333Z" fill="#708AB9"/>
<path d="M15.3333 9.33333C15.7015 9.33333 16 9.63181 16 10C16 10.3682 15.7015 10.6667 15.3333 10.6667C14.9651 10.6667 14.6667 10.3682 14.6667 10C14.6667 9.63181 14.9651 9.33333 15.3333 9.33333Z" fill="#708AB9"/>
<path d="M14 8C14.3682 8 14.6667 8.29848 14.6667 8.66667C14.6667 9.03486 14.3682 9.33333 14 9.33333C13.6318 9.33333 13.3333 9.03486 13.3333 8.66667C13.3333 8.29848 13.6318 8 14 8Z" fill="#708AB9"/>
<path d="M15.3333 8C15.7015 8 16 8.29848 16 8.66667C16 9.03486 15.7015 9.33333 15.3333 9.33333C14.9651 9.33333 14.6667 9.03486 14.6667 8.66667C14.6667 8.29848 14.9651 8 15.3333 8Z" fill="#708AB9"/>
</svg>
