<svg width="48" height="48" viewBox="0 0 48 48" fill="none" xmlns="http://www.w3.org/2000/svg">
<path d="M13.999 38.668C14.3671 38.6681 14.665 38.9669 14.665 39.335C14.6649 39.7029 14.367 40.0008 13.999 40.001C13.6309 40.001 13.3322 39.703 13.332 39.335C13.332 38.9668 13.6308 38.668 13.999 38.668Z" fill="#708AB9"/>
<path d="M17.999 38.668C18.3671 38.6681 18.665 38.9669 18.665 39.335C18.6649 39.7029 18.367 40.0008 17.999 40.001C17.6322 40.001 17.3343 39.7051 17.332 39.3389C17.3298 39.705 17.0336 40.0008 16.667 40.001C16.3002 40.001 16.0023 39.7051 16 39.3389C15.9977 39.705 15.7016 40.0008 15.335 40.001C14.9669 40.001 14.6681 39.703 14.668 39.335C14.668 38.9668 14.9668 38.668 15.335 38.668C15.7015 38.6681 15.9975 38.9641 16 39.3301C16.0025 38.964 16.3003 38.668 16.667 38.668C17.0335 38.6681 17.3296 38.9641 17.332 39.3301C17.3345 38.964 17.6324 38.668 17.999 38.668Z" fill="#708AB9"/>
<path d="M21.999 38.668C22.3671 38.6681 22.665 38.9669 22.665 39.335C22.6649 39.7029 22.367 40.0008 21.999 40.001C21.6322 40.001 21.3343 39.7051 21.332 39.3389C21.3298 39.705 21.0336 40.0008 20.667 40.001C20.3002 40.001 20.0023 39.7051 20 39.3389C19.9977 39.705 19.7016 40.0008 19.335 40.001C18.9669 40.001 18.6681 39.703 18.668 39.335C18.668 38.9668 18.9668 38.668 19.335 38.668C19.7015 38.6681 19.9975 38.9641 20 39.3301C20.0025 38.964 20.3003 38.668 20.667 38.668C21.0335 38.6681 21.3296 38.9641 21.332 39.3301C21.3345 38.964 21.6324 38.668 21.999 38.668Z" fill="#708AB9"/>
<path d="M23.335 38.668C23.703 38.6681 24.001 38.9669 24.001 39.335C24.0008 39.7029 23.7029 40.0008 23.335 40.001C22.9669 40.001 22.6681 39.703 22.668 39.335C22.668 38.9668 22.9668 38.668 23.335 38.668Z" fill="#708AB9"/>
<path d="M9.99902 34.668C10.3671 34.6681 10.665 34.9669 10.665 35.335C10.6649 35.7016 10.3691 35.9977 10.0029 36C10.3692 36.0023 10.665 36.3002 10.665 36.667C10.6649 37.0336 10.3691 37.3298 10.0029 37.332C10.3692 37.3343 10.665 37.6322 10.665 37.999C10.6649 38.367 10.367 38.6649 9.99902 38.665C9.63094 38.665 9.33221 38.3671 9.33203 37.999C9.33203 37.6324 9.62805 37.3345 9.99414 37.332C9.62816 37.3296 9.33221 37.0335 9.33203 36.667C9.33203 36.3003 9.62805 36.0025 9.99414 36C9.62946 35.9976 9.3343 35.7036 9.33203 35.3389C9.32975 35.705 9.03362 36.0008 8.66699 36.001C8.29891 36.001 8.00018 35.703 8 35.335C8 34.9668 8.2988 34.668 8.66699 34.668C9.03351 34.6681 9.32958 34.9641 9.33203 35.3301C9.33448 34.964 9.63235 34.668 9.99902 34.668Z" fill="#708AB9"/>
<path fill-rule="evenodd" clip-rule="evenodd" d="M13.999 36C14.3671 36.0002 14.665 36.2989 14.665 36.667C14.6649 37.0336 14.3691 37.3298 14.0029 37.332C14.3692 37.3343 14.665 37.6322 14.665 37.999C14.6649 38.367 14.367 38.6649 13.999 38.665C13.6322 38.665 13.3343 38.3692 13.332 38.0029C13.3298 38.3691 13.0336 38.6649 12.667 38.665C12.3002 38.665 12.0023 38.3692 12 38.0029C11.9977 38.3691 11.7016 38.6649 11.335 38.665C10.9669 38.665 10.6681 38.3671 10.668 37.999C10.668 37.6324 10.964 37.3345 11.3301 37.332C10.9641 37.3296 10.6681 37.0335 10.668 36.667C10.668 36.2988 10.9668 36 11.335 36C11.7015 36.0002 11.9975 36.2961 12 36.6621C12.0025 36.296 12.3003 36 12.667 36C13.0335 36.0002 13.3296 36.2961 13.332 36.6621C13.3345 36.296 13.6324 36 13.999 36ZM12 36.6709C11.9977 37.0357 11.7037 37.3298 11.3389 37.332C11.7036 37.3343 11.9976 37.6295 12 37.9941C12.0024 37.6296 12.2975 37.3345 12.6621 37.332C12.2974 37.3296 12.0023 37.0356 12 36.6709ZM13.332 36.6709C13.3298 37.0357 13.0357 37.3298 12.6709 37.332C13.0356 37.3343 13.3296 37.6295 13.332 37.9941C13.3345 37.6296 13.6296 37.3345 13.9941 37.332C13.6295 37.3296 13.3343 37.0356 13.332 36.6709Z" fill="#708AB9"/>
<path d="M17.999 37.332C18.3671 37.3322 18.665 37.6309 18.665 37.999C18.6649 38.367 18.367 38.6649 17.999 38.665C17.6322 38.665 17.3343 38.3692 17.332 38.0029C17.3298 38.3691 17.0336 38.6649 16.667 38.665C16.3002 38.665 16.0023 38.3692 16 38.0029C15.9977 38.3691 15.7016 38.6649 15.335 38.665C14.9669 38.665 14.6681 38.3671 14.668 37.999C14.668 37.6308 14.9668 37.332 15.335 37.332C15.7015 37.3322 15.9975 37.6282 16 37.9941C16.0025 37.628 16.3003 37.332 16.667 37.332C17.0335 37.3322 17.3296 37.6282 17.332 37.9941C17.3345 37.628 17.6324 37.332 17.999 37.332Z" fill="#708AB9"/>
<path d="M21.999 37.332C22.3671 37.3322 22.665 37.6309 22.665 37.999C22.6649 38.367 22.367 38.6649 21.999 38.665C21.6322 38.665 21.3343 38.3692 21.332 38.0029C21.3298 38.3691 21.0336 38.6649 20.667 38.665C20.3002 38.665 20.0023 38.3692 20 38.0029C19.9977 38.3691 19.7016 38.6649 19.335 38.665C18.9669 38.665 18.6681 38.3671 18.668 37.999C18.668 37.6308 18.9668 37.332 19.335 37.332C19.7015 37.3322 19.9975 37.6282 20 37.9941C20.0025 37.628 20.3003 37.332 20.667 37.332C21.0335 37.3322 21.3296 37.6282 21.332 37.9941C21.3345 37.628 21.6324 37.332 21.999 37.332Z" fill="#708AB9"/>
<path fill-rule="evenodd" clip-rule="evenodd" d="M25.999 36C26.3671 36.0002 26.665 36.2989 26.665 36.667C26.6649 37.0336 26.3691 37.3298 26.0029 37.332C26.3692 37.3343 26.665 37.6322 26.665 37.999C26.6649 38.367 26.367 38.6649 25.999 38.665C25.6322 38.665 25.3343 38.3692 25.332 38.0029C25.3298 38.3691 25.0336 38.6649 24.667 38.665C24.3002 38.665 24.0023 38.3692 24 38.0029C23.9977 38.3691 23.7016 38.6649 23.335 38.665C22.9669 38.665 22.6681 38.3671 22.668 37.999C22.668 37.6324 22.964 37.3345 23.3301 37.332C22.9641 37.3296 22.6681 37.0335 22.668 36.667C22.668 36.2988 22.9668 36 23.335 36C23.7015 36.0002 23.9975 36.2961 24 36.6621C24.0025 36.296 24.3003 36 24.667 36C25.0335 36.0002 25.3296 36.2961 25.332 36.6621C25.3345 36.296 25.6324 36 25.999 36ZM24 36.6709C23.9977 37.0357 23.7037 37.3298 23.3389 37.332C23.7036 37.3343 23.9976 37.6295 24 37.9941C24.0024 37.6296 24.2975 37.3345 24.6621 37.332C24.2974 37.3296 24.0023 37.0356 24 36.6709ZM25.332 36.6709C25.3298 37.0357 25.0357 37.3298 24.6709 37.332C25.0356 37.3343 25.3296 37.6295 25.332 37.9941C25.3345 37.6296 25.6296 37.3345 25.9941 37.332C25.6295 37.3296 25.3343 37.0356 25.332 36.6709Z" fill="#708AB9"/>
<path d="M28.667 34.668C29.035 34.6681 29.333 34.9669 29.333 35.335C29.3328 35.7029 29.0349 36.0008 28.667 36.001C28.3002 36.001 28.0023 35.7051 28 35.3389C27.9977 35.7037 27.7037 35.9977 27.3389 36C27.7051 36.0023 28.001 36.3002 28.001 36.667C28.0008 37.0336 27.705 37.3298 27.3389 37.332C27.7051 37.3343 28.001 37.6322 28.001 37.999C28.0008 38.367 27.7029 38.6649 27.335 38.665C26.9669 38.665 26.6681 38.3671 26.668 37.999C26.668 37.6324 26.964 37.3345 27.3301 37.332C26.9641 37.3296 26.6681 37.0335 26.668 36.667C26.668 36.3003 26.964 36.0025 27.3301 36C26.9641 35.9975 26.6681 35.7015 26.668 35.335C26.668 34.9668 26.9668 34.668 27.335 34.668C27.7015 34.6681 27.9975 34.9641 28 35.3301C28.0025 34.964 28.3003 34.668 28.667 34.668Z" fill="#708AB9"/>
<path fill-rule="evenodd" clip-rule="evenodd" d="M9.99902 30.668C10.3671 30.6681 10.665 30.9669 10.665 31.335C10.6649 31.7016 10.3691 31.9977 10.0029 32C10.3692 32.0023 10.665 32.3002 10.665 32.667C10.6649 33.0336 10.3691 33.3298 10.0029 33.332C10.3692 33.3343 10.665 33.6322 10.665 33.999C10.6649 34.367 10.367 34.6649 9.99902 34.665C9.63225 34.665 9.33431 34.3692 9.33203 34.0029C9.32975 34.3691 9.03362 34.6649 8.66699 34.665C8.29891 34.665 8.00018 34.3671 8 33.999C8 33.6324 8.29602 33.3345 8.66211 33.332C8.29613 33.3296 8.00018 33.0335 8 32.667C8 32.3003 8.29602 32.0025 8.66211 32C8.29613 31.9975 8.00018 31.7015 8 31.335C8 30.9668 8.2988 30.668 8.66699 30.668C9.03351 30.6681 9.32958 30.9641 9.33203 31.3301C9.33448 30.964 9.63235 30.668 9.99902 30.668ZM9.33203 32.6709C9.32976 33.0357 9.03572 33.3298 8.6709 33.332C9.03562 33.3343 9.32959 33.6295 9.33203 33.9941C9.33447 33.6296 9.62957 33.3345 9.99414 33.332C9.62946 33.3296 9.3343 33.0356 9.33203 32.6709ZM9.33203 31.3389C9.32976 31.7037 9.03572 31.9977 8.6709 32C9.03562 32.0023 9.32959 32.2974 9.33203 32.6621C9.33447 32.2975 9.62957 32.0024 9.99414 32C9.62946 31.9976 9.3343 31.7036 9.33203 31.3389Z" fill="#708AB9"/>
<path fill-rule="evenodd" clip-rule="evenodd" d="M28.667 30.668C29.035 30.6681 29.333 30.9669 29.333 31.335C29.3328 31.7016 29.037 31.9977 28.6709 32C29.0371 32.0023 29.333 32.3002 29.333 32.667C29.3328 33.0336 29.037 33.3298 28.6709 33.332C29.0371 33.3343 29.333 33.6322 29.333 33.999C29.3328 34.367 29.0349 34.6649 28.667 34.665C28.3002 34.665 28.0023 34.3692 28 34.0029C27.9977 34.3691 27.7016 34.6649 27.335 34.665C26.9669 34.665 26.6681 34.3671 26.668 33.999C26.668 33.6324 26.964 33.3345 27.3301 33.332C26.9641 33.3296 26.6681 33.0335 26.668 32.667C26.668 32.3003 26.964 32.0025 27.3301 32C26.9641 31.9975 26.6681 31.7015 26.668 31.335C26.668 30.9668 26.9668 30.668 27.335 30.668C27.7015 30.6681 27.9975 30.9641 28 31.3301C28.0025 30.964 28.3003 30.668 28.667 30.668ZM28 32.6709C27.9977 33.0357 27.7037 33.3298 27.3389 33.332C27.7036 33.3343 27.9976 33.6295 28 33.9941C28.0024 33.6296 28.2975 33.3345 28.6621 33.332C28.2974 33.3296 28.0023 33.0356 28 32.6709ZM28 31.3389C27.9977 31.7037 27.7037 31.9977 27.3389 32C27.7036 32.0023 27.9976 32.2974 28 32.6621C28.0024 32.2975 28.2975 32.0024 28.6621 32C28.2974 31.9976 28.0023 31.7036 28 31.3389Z" fill="#708AB9"/>
<path d="M13.999 30.668C14.3671 30.6681 14.665 30.9669 14.665 31.335C14.6649 31.7016 14.3691 31.9977 14.0029 32C14.3692 32.0023 14.665 32.3002 14.665 32.667C14.6649 33.0349 14.367 33.3328 13.999 33.333C13.6309 33.333 13.3322 33.035 13.332 32.667C13.332 32.3003 13.628 32.0025 13.9941 32C13.6295 31.9976 13.3343 31.7036 13.332 31.3389C13.3298 31.705 13.0336 32.0008 12.667 32.001C12.3002 32.001 12.0023 31.7051 12 31.3389C11.9977 31.705 11.7016 32.0008 11.335 32.001C10.9669 32.001 10.6681 31.703 10.668 31.335C10.668 30.9668 10.9668 30.668 11.335 30.668C11.7015 30.6681 11.9975 30.9641 12 31.3301C12.0025 30.964 12.3003 30.668 12.667 30.668C13.0335 30.6681 13.3296 30.9641 13.332 31.3301C13.3345 30.964 13.6324 30.668 13.999 30.668Z" fill="#708AB9"/>
<path fill-rule="evenodd" clip-rule="evenodd" d="M17.999 30.668C18.3671 30.6681 18.665 30.9669 18.665 31.335C18.6649 31.7016 18.3691 31.9977 18.0029 32C18.3692 32.0023 18.665 32.3002 18.665 32.667C18.6649 33.0349 18.367 33.3328 17.999 33.333C17.6322 33.333 17.3343 33.0371 17.332 32.6709C17.3298 33.037 17.0336 33.3328 16.667 33.333C16.3002 33.333 16.0023 33.0371 16 32.6709C15.9977 33.037 15.7016 33.3328 15.335 33.333C14.9669 33.333 14.6681 33.035 14.668 32.667C14.668 32.3003 14.964 32.0025 15.3301 32C14.9641 31.9975 14.6681 31.7015 14.668 31.335C14.668 30.9668 14.9668 30.668 15.335 30.668C15.7015 30.6681 15.9975 30.9641 16 31.3301C16.0025 30.964 16.3003 30.668 16.667 30.668C17.0335 30.6681 17.3296 30.9641 17.332 31.3301C17.3345 30.964 17.6324 30.668 17.999 30.668ZM16 31.3389C15.9977 31.7037 15.7037 31.9977 15.3389 32C15.7036 32.0023 15.9976 32.2974 16 32.6621C16.0024 32.2975 16.2975 32.0024 16.6621 32C16.2974 31.9976 16.0023 31.7036 16 31.3389ZM17.332 31.3389C17.3298 31.7037 17.0357 31.9977 16.6709 32C17.0356 32.0023 17.3296 32.2974 17.332 32.6621C17.3345 32.2975 17.6296 32.0024 17.9941 32C17.6295 31.9976 17.3343 31.7036 17.332 31.3389Z" fill="#708AB9"/>
<path fill-rule="evenodd" clip-rule="evenodd" d="M21.999 30.668C22.3671 30.6681 22.665 30.9669 22.665 31.335C22.6649 31.7016 22.3691 31.9977 22.0029 32C22.3692 32.0023 22.665 32.3002 22.665 32.667C22.6649 33.0349 22.367 33.3328 21.999 33.333C21.6322 33.333 21.3343 33.0371 21.332 32.6709C21.3298 33.037 21.0336 33.3328 20.667 33.333C20.3002 33.333 20.0023 33.0371 20 32.6709C19.9977 33.037 19.7016 33.3328 19.335 33.333C18.9669 33.333 18.6681 33.035 18.668 32.667C18.668 32.3003 18.964 32.0025 19.3301 32C18.9641 31.9975 18.6681 31.7015 18.668 31.335C18.668 30.9668 18.9668 30.668 19.335 30.668C19.7015 30.6681 19.9975 30.9641 20 31.3301C20.0025 30.964 20.3003 30.668 20.667 30.668C21.0335 30.6681 21.3296 30.9641 21.332 31.3301C21.3345 30.964 21.6324 30.668 21.999 30.668ZM20 31.3389C19.9977 31.7037 19.7037 31.9977 19.3389 32C19.7036 32.0023 19.9976 32.2974 20 32.6621C20.0024 32.2975 20.2975 32.0024 20.6621 32C20.2974 31.9976 20.0023 31.7036 20 31.3389ZM21.332 31.3389C21.3298 31.7037 21.0357 31.9977 20.6709 32C21.0356 32.0023 21.3296 32.2974 21.332 32.6621C21.3345 32.2975 21.6296 32.0024 21.9941 32C21.6295 31.9976 21.3343 31.7036 21.332 31.3389Z" fill="#708AB9"/>
<path d="M25.999 30.668C26.3671 30.6681 26.665 30.9669 26.665 31.335C26.6649 31.7029 26.367 32.0008 25.999 32.001C25.6322 32.001 25.3343 31.7051 25.332 31.3389C25.3298 31.705 25.0336 32.0008 24.667 32.001C24.3002 32.001 24.0023 31.7051 24 31.3389C23.9977 31.7037 23.7037 31.9977 23.3389 32C23.7051 32.0023 24.001 32.3002 24.001 32.667C24.0008 33.0349 23.7029 33.3328 23.335 33.333C22.9669 33.333 22.6681 33.035 22.668 32.667C22.668 32.3003 22.964 32.0025 23.3301 32C22.9641 31.9975 22.6681 31.7015 22.668 31.335C22.668 30.9668 22.9668 30.668 23.335 30.668C23.7015 30.6681 23.9975 30.9641 24 31.3301C24.0025 30.964 24.3003 30.668 24.667 30.668C25.0335 30.6681 25.3296 30.9641 25.332 31.3301C25.3345 30.964 25.6324 30.668 25.999 30.668Z" fill="#708AB9"/>
<path fill-rule="evenodd" clip-rule="evenodd" d="M9.99902 26.668C10.3671 26.6681 10.665 26.9669 10.665 27.335C10.6649 27.7016 10.3691 27.9977 10.0029 28C10.3692 28.0023 10.665 28.3002 10.665 28.667C10.6649 29.0336 10.3691 29.3298 10.0029 29.332C10.3692 29.3343 10.665 29.6322 10.665 29.999C10.6649 30.367 10.367 30.6649 9.99902 30.665C9.63225 30.665 9.33431 30.3692 9.33203 30.0029C9.32975 30.3691 9.03362 30.6649 8.66699 30.665C8.29891 30.665 8.00018 30.3671 8 29.999C8 29.6324 8.29602 29.3345 8.66211 29.332C8.29613 29.3296 8.00018 29.0335 8 28.667C8 28.3003 8.29602 28.0025 8.66211 28C8.29613 27.9975 8.00018 27.7015 8 27.335C8 26.9668 8.2988 26.668 8.66699 26.668C9.03351 26.6681 9.32958 26.9641 9.33203 27.3301C9.33448 26.964 9.63235 26.668 9.99902 26.668ZM9.33203 28.6709C9.32976 29.0357 9.03572 29.3298 8.6709 29.332C9.03562 29.3343 9.32959 29.6295 9.33203 29.9941C9.33447 29.6296 9.62957 29.3345 9.99414 29.332C9.62946 29.3296 9.3343 29.0356 9.33203 28.6709ZM9.33203 27.3389C9.32976 27.7037 9.03572 27.9977 8.6709 28C9.03562 28.0023 9.32959 28.2974 9.33203 28.6621C9.33447 28.2975 9.62957 28.0024 9.99414 28C9.62946 27.9976 9.3343 27.7036 9.33203 27.3389Z" fill="#708AB9"/>
<path d="M13.999 29.332C14.3671 29.3322 14.665 29.6309 14.665 29.999C14.6649 30.367 14.367 30.6649 13.999 30.665C13.6322 30.665 13.3343 30.3692 13.332 30.0029C13.3298 30.3691 13.0336 30.6649 12.667 30.665C12.3002 30.665 12.0023 30.3692 12 30.0029C11.9977 30.3691 11.7016 30.6649 11.335 30.665C10.9669 30.665 10.6681 30.3671 10.668 29.999C10.668 29.6308 10.9668 29.332 11.335 29.332C11.7015 29.3322 11.9975 29.6282 12 29.9941C12.0025 29.628 12.3003 29.332 12.667 29.332C13.0335 29.3322 13.3296 29.6282 13.332 29.9941C13.3345 29.628 13.6324 29.332 13.999 29.332Z" fill="#708AB9"/>
<path d="M25.999 29.332C26.3671 29.3322 26.665 29.6309 26.665 29.999C26.6649 30.367 26.367 30.6649 25.999 30.665C25.6322 30.665 25.3343 30.3692 25.332 30.0029C25.3298 30.3691 25.0336 30.6649 24.667 30.665C24.3002 30.665 24.0023 30.3692 24 30.0029C23.9977 30.3691 23.7016 30.6649 23.335 30.665C22.9669 30.665 22.6681 30.3671 22.668 29.999C22.668 29.6308 22.9668 29.332 23.335 29.332C23.7015 29.3322 23.9975 29.6282 24 29.9941C24.0025 29.628 24.3003 29.332 24.667 29.332C25.0335 29.3322 25.3296 29.6282 25.332 29.9941C25.3345 29.628 25.6324 29.332 25.999 29.332Z" fill="#708AB9"/>
<path fill-rule="evenodd" clip-rule="evenodd" d="M28.667 26.668C29.035 26.6681 29.333 26.9669 29.333 27.335C29.3328 27.7016 29.037 27.9977 28.6709 28C29.0371 28.0023 29.333 28.3002 29.333 28.667C29.3328 29.0336 29.037 29.3298 28.6709 29.332C29.0371 29.3343 29.333 29.6322 29.333 29.999C29.3328 30.367 29.0349 30.6649 28.667 30.665C28.3002 30.665 28.0023 30.3692 28 30.0029C27.9977 30.3691 27.7016 30.6649 27.335 30.665C26.9669 30.665 26.6681 30.3671 26.668 29.999C26.668 29.6324 26.964 29.3345 27.3301 29.332C26.9641 29.3296 26.6681 29.0335 26.668 28.667C26.668 28.3003 26.964 28.0025 27.3301 28C26.9641 27.9975 26.6681 27.7015 26.668 27.335C26.668 26.9668 26.9668 26.668 27.335 26.668C27.7015 26.6681 27.9975 26.9641 28 27.3301C28.0025 26.964 28.3003 26.668 28.667 26.668ZM28 28.6709C27.9977 29.0357 27.7037 29.3298 27.3389 29.332C27.7036 29.3343 27.9976 29.6295 28 29.9941C28.0024 29.6296 28.2975 29.3345 28.6621 29.332C28.2974 29.3296 28.0023 29.0356 28 28.6709ZM28 27.3389C27.9977 27.7037 27.7037 27.9977 27.3389 28C27.7036 28.0023 27.9976 28.2974 28 28.6621C28.0024 28.2975 28.2975 28.0024 28.6621 28C28.2974 27.9976 28.0023 27.7036 28 27.3389Z" fill="#708AB9"/>
<path d="M9.99902 24C10.3671 24.0002 10.665 24.2989 10.665 24.667C10.6649 25.0336 10.3691 25.3298 10.0029 25.332C10.3692 25.3343 10.665 25.6322 10.665 25.999C10.6649 26.367 10.367 26.6649 9.99902 26.665C9.63225 26.665 9.33431 26.3692 9.33203 26.0029C9.32975 26.3691 9.03362 26.6649 8.66699 26.665C8.29891 26.665 8.00018 26.3671 8 25.999C8 25.6308 8.2988 25.332 8.66699 25.332C9.03351 25.3322 9.32958 25.6282 9.33203 25.9941C9.33447 25.6296 9.62957 25.3345 9.99414 25.332C9.62816 25.3296 9.33221 25.0335 9.33203 24.667C9.33203 24.2988 9.63083 24 9.99902 24Z" fill="#708AB9"/>
<path fill-rule="evenodd" clip-rule="evenodd" d="M13.999 22.668C14.3671 22.6681 14.665 22.9669 14.665 23.335C14.6649 23.7016 14.3691 23.9977 14.0029 24C14.3692 24.0023 14.665 24.3002 14.665 24.667C14.6649 25.0336 14.3691 25.3298 14.0029 25.332C14.3692 25.3343 14.665 25.6322 14.665 25.999C14.6649 26.367 14.367 26.6649 13.999 26.665C13.6322 26.665 13.3343 26.3692 13.332 26.0029C13.3298 26.3691 13.0336 26.6649 12.667 26.665C12.3002 26.665 12.0023 26.3692 12 26.0029C11.9977 26.3691 11.7016 26.6649 11.335 26.665C10.9669 26.665 10.6681 26.3671 10.668 25.999C10.668 25.6324 10.964 25.3345 11.3301 25.332C10.9641 25.3296 10.6681 25.0335 10.668 24.667C10.668 24.2988 10.9668 24 11.335 24C11.7015 24.0002 11.9975 24.2961 12 24.6621C12.0025 24.296 12.3003 24 12.667 24C13.0335 24.0002 13.3296 24.2961 13.332 24.6621C13.3345 24.2975 13.6296 24.0024 13.9941 24C13.6282 23.9975 13.3322 23.7015 13.332 23.335C13.332 22.9668 13.6308 22.668 13.999 22.668ZM12 24.6709C11.9977 25.0357 11.7037 25.3298 11.3389 25.332C11.7036 25.3343 11.9976 25.6295 12 25.9941C12.0024 25.6296 12.2975 25.3345 12.6621 25.332C12.2974 25.3296 12.0023 25.0356 12 24.6709ZM13.332 24.6709C13.3298 25.0357 13.0357 25.3298 12.6709 25.332C13.0356 25.3343 13.3296 25.6295 13.332 25.9941C13.3345 25.6296 13.6296 25.3345 13.9941 25.332C13.6295 25.3296 13.3343 25.0356 13.332 24.6709Z" fill="#708AB9"/>
<path fill-rule="evenodd" clip-rule="evenodd" d="M23.335 22.668C23.703 22.6681 24.001 22.9669 24.001 23.335C24.0008 23.7016 23.705 23.9977 23.3389 24C23.7036 24.0023 23.9976 24.2974 24 24.6621C24.0025 24.296 24.3003 24 24.667 24C25.0335 24.0002 25.3296 24.2961 25.332 24.6621C25.3345 24.296 25.6324 24 25.999 24C26.3671 24.0002 26.665 24.2989 26.665 24.667C26.6649 25.0336 26.3691 25.3298 26.0029 25.332C26.3692 25.3343 26.665 25.6322 26.665 25.999C26.6649 26.367 26.367 26.6649 25.999 26.665C25.6322 26.665 25.3343 26.3692 25.332 26.0029C25.3298 26.3691 25.0336 26.6649 24.667 26.665C24.3002 26.665 24.0023 26.3692 24 26.0029C23.9977 26.3691 23.7016 26.6649 23.335 26.665C22.9669 26.665 22.6681 26.3671 22.668 25.999C22.668 25.6324 22.964 25.3345 23.3301 25.332C22.9641 25.3296 22.6681 25.0335 22.668 24.667C22.668 24.3003 22.964 24.0025 23.3301 24C22.9641 23.9975 22.6681 23.7015 22.668 23.335C22.668 22.9668 22.9668 22.668 23.335 22.668ZM24 24.6709C23.9977 25.0357 23.7037 25.3298 23.3389 25.332C23.7036 25.3343 23.9976 25.6295 24 25.9941C24.0024 25.6296 24.2975 25.3345 24.6621 25.332C24.2974 25.3296 24.0023 25.0356 24 24.6709ZM25.332 24.6709C25.3298 25.0357 25.0357 25.3298 24.6709 25.332C25.0356 25.3343 25.3296 25.6295 25.332 25.9941C25.3345 25.6296 25.6296 25.3345 25.9941 25.332C25.6295 25.3296 25.3343 25.0356 25.332 24.6709Z" fill="#708AB9"/>
<path d="M27.335 24C27.703 24.0002 28.001 24.2989 28.001 24.667C28.0008 25.0336 27.705 25.3298 27.3389 25.332C27.7036 25.3343 27.9976 25.6295 28 25.9941C28.0025 25.628 28.3003 25.332 28.667 25.332C29.035 25.3322 29.333 25.6309 29.333 25.999C29.3328 26.367 29.0349 26.6649 28.667 26.665C28.3002 26.665 28.0023 26.3692 28 26.0029C27.9977 26.3691 27.7016 26.6649 27.335 26.665C26.9669 26.665 26.6681 26.3671 26.668 25.999C26.668 25.6324 26.964 25.3345 27.3301 25.332C26.9641 25.3296 26.6681 25.0335 26.668 24.667C26.668 24.2988 26.9668 24 27.335 24Z" fill="#708AB9"/>
<path fill-rule="evenodd" clip-rule="evenodd" d="M17.999 22.668C18.3671 22.6681 18.665 22.9669 18.665 23.335C18.6649 23.7016 18.3691 23.9977 18.0029 24C18.3692 24.0023 18.665 24.3002 18.665 24.667C18.6649 25.0349 18.367 25.3328 17.999 25.333C17.6322 25.333 17.3343 25.0371 17.332 24.6709C17.3298 25.037 17.0336 25.3328 16.667 25.333C16.3002 25.333 16.0023 25.0371 16 24.6709C15.9977 25.037 15.7016 25.3328 15.335 25.333C14.9669 25.333 14.6681 25.035 14.668 24.667C14.668 24.3003 14.964 24.0025 15.3301 24C14.9641 23.9975 14.6681 23.7015 14.668 23.335C14.668 22.9668 14.9668 22.668 15.335 22.668C15.7015 22.6681 15.9975 22.9641 16 23.3301C16.0025 22.964 16.3003 22.668 16.667 22.668C17.0335 22.6681 17.3296 22.9641 17.332 23.3301C17.3345 22.964 17.6324 22.668 17.999 22.668ZM16 23.3389C15.9977 23.7037 15.7037 23.9977 15.3389 24C15.7036 24.0023 15.9976 24.2974 16 24.6621C16.0024 24.2975 16.2975 24.0024 16.6621 24C16.2974 23.9976 16.0023 23.7036 16 23.3389ZM17.332 23.3389C17.3298 23.7037 17.0357 23.9977 16.6709 24C17.0356 24.0023 17.3296 24.2974 17.332 24.6621C17.3345 24.2975 17.6296 24.0024 17.9941 24C17.6295 23.9976 17.3343 23.7036 17.332 23.3389Z" fill="#708AB9"/>
<path fill-rule="evenodd" clip-rule="evenodd" d="M21.999 22.668C22.3671 22.6681 22.665 22.9669 22.665 23.335C22.6649 23.7016 22.3691 23.9977 22.0029 24C22.3692 24.0023 22.665 24.3002 22.665 24.667C22.6649 25.0349 22.367 25.3328 21.999 25.333C21.6322 25.333 21.3343 25.0371 21.332 24.6709C21.3298 25.037 21.0336 25.3328 20.667 25.333C20.3002 25.333 20.0023 25.0371 20 24.6709C19.9977 25.037 19.7016 25.3328 19.335 25.333C18.9669 25.333 18.6681 25.035 18.668 24.667C18.668 24.3003 18.964 24.0025 19.3301 24C18.9641 23.9975 18.6681 23.7015 18.668 23.335C18.668 22.9668 18.9668 22.668 19.335 22.668C19.7015 22.6681 19.9975 22.9641 20 23.3301C20.0025 22.964 20.3003 22.668 20.667 22.668C21.0335 22.6681 21.3296 22.9641 21.332 23.3301C21.3345 22.964 21.6324 22.668 21.999 22.668ZM20 23.3389C19.9977 23.7037 19.7037 23.9977 19.3389 24C19.7036 24.0023 19.9976 24.2974 20 24.6621C20.0024 24.2975 20.2975 24.0024 20.6621 24C20.2974 23.9976 20.0023 23.7036 20 23.3389ZM21.332 23.3389C21.3298 23.7037 21.0357 23.9977 20.6709 24C21.0356 24.0023 21.3296 24.2974 21.332 24.6621C21.3345 24.2975 21.6296 24.0024 21.9941 24C21.6295 23.9976 21.3343 23.7036 21.332 23.3389Z" fill="#708AB9"/>
<path fill-rule="evenodd" clip-rule="evenodd" d="M33.999 22.668C34.3671 22.6681 34.665 22.9669 34.665 23.335C34.6649 23.7016 34.3691 23.9977 34.0029 24C34.3692 24.0023 34.665 24.3002 34.665 24.667C34.6649 25.0349 34.367 25.3328 33.999 25.333C33.6322 25.333 33.3343 25.0371 33.332 24.6709C33.3298 25.037 33.0336 25.3328 32.667 25.333C32.2989 25.333 32.0002 25.035 32 24.667C32 24.3003 32.296 24.0025 32.6621 24C32.2961 23.9975 32.0002 23.7015 32 23.335C32 22.9668 32.2988 22.668 32.667 22.668C33.0335 22.6681 33.3296 22.9641 33.332 23.3301C33.3345 22.964 33.6324 22.668 33.999 22.668ZM33.332 23.3389C33.3298 23.7037 33.0357 23.9977 32.6709 24C33.0356 24.0023 33.3296 24.2974 33.332 24.6621C33.3345 24.2975 33.6296 24.0024 33.9941 24C33.6295 23.9976 33.3343 23.7036 33.332 23.3389Z" fill="#708AB9"/>
<path d="M37.999 22.668C38.3671 22.6681 38.665 22.9669 38.665 23.335C38.6649 23.7029 38.367 24.0008 37.999 24.001C37.6322 24.001 37.3343 23.7051 37.332 23.3389C37.3298 23.705 37.0336 24.0008 36.667 24.001C36.3002 24.001 36.0023 23.7051 36 23.3389C35.9977 23.705 35.7016 24.0008 35.335 24.001C34.9669 24.001 34.6681 23.703 34.668 23.335C34.668 22.9668 34.9668 22.668 35.335 22.668C35.7015 22.6681 35.9975 22.9641 36 23.3301C36.0025 22.964 36.3003 22.668 36.667 22.668C37.0335 22.6681 37.3296 22.9641 37.332 23.3301C37.3345 22.964 37.6324 22.668 37.999 22.668Z" fill="#708AB9"/>
<path d="M33.999 21.332C34.3671 21.3322 34.665 21.6309 34.665 21.999C34.6649 22.367 34.367 22.6649 33.999 22.665C33.6309 22.665 33.3322 22.3671 33.332 21.999C33.332 21.6308 33.6308 21.332 33.999 21.332Z" fill="#708AB9"/>
<path d="M37.999 18.668C38.3671 18.6681 38.665 18.9669 38.665 19.335C38.6649 19.7016 38.3691 19.9977 38.0029 20C38.3692 20.0023 38.665 20.3002 38.665 20.667C38.6649 21.0336 38.3691 21.3298 38.0029 21.332C38.3692 21.3343 38.665 21.6322 38.665 21.999C38.6649 22.367 38.367 22.6649 37.999 22.665C37.6322 22.665 37.3343 22.3692 37.332 22.0029C37.3298 22.3691 37.0336 22.6649 36.667 22.665C36.3002 22.665 36.0023 22.3692 36 22.0029C35.9977 22.3691 35.7016 22.6649 35.335 22.665C34.9669 22.665 34.6681 22.3671 34.668 21.999C34.668 21.6308 34.9668 21.332 35.335 21.332C35.7015 21.3322 35.9975 21.6282 36 21.9941C36.0025 21.628 36.3003 21.332 36.667 21.332C37.0335 21.3322 37.3296 21.6282 37.332 21.9941C37.3345 21.6296 37.6296 21.3345 37.9941 21.332C37.6282 21.3296 37.3322 21.0335 37.332 20.667C37.332 20.3003 37.628 20.0025 37.9941 20C37.6282 19.9975 37.3322 19.7015 37.332 19.335C37.332 18.9668 37.6308 18.668 37.999 18.668Z" fill="#708AB9"/>
<path d="M39.335 18.668C39.703 18.6681 40.001 18.9669 40.001 19.335C40.0008 19.7016 39.705 19.9977 39.3389 20C39.7051 20.0023 40.001 20.3002 40.001 20.667C40.0008 21.0349 39.7029 21.3328 39.335 21.333C38.9669 21.333 38.6681 21.035 38.668 20.667C38.668 20.3003 38.964 20.0025 39.3301 20C38.9641 19.9975 38.6681 19.7015 38.668 19.335C38.668 18.9668 38.9668 18.668 39.335 18.668Z" fill="#708AB9"/>
<path d="M20.667 18.668C21.035 18.6681 21.333 18.9669 21.333 19.335C21.3328 19.7029 21.0349 20.0008 20.667 20.001C20.3002 20.001 20.0023 19.7051 20 19.3389C19.9977 19.705 19.7016 20.0008 19.335 20.001C18.9669 20.001 18.6681 19.703 18.668 19.335C18.668 18.9668 18.9668 18.668 19.335 18.668C19.7015 18.6681 19.9975 18.9641 20 19.3301C20.0025 18.964 20.3003 18.668 20.667 18.668Z" fill="#708AB9"/>
<path fill-rule="evenodd" clip-rule="evenodd" d="M21.999 14.668C22.3671 14.6681 22.665 14.9669 22.665 15.335C22.6649 15.7016 22.3691 15.9977 22.0029 16C22.3692 16.0023 22.665 16.3002 22.665 16.667C22.6649 17.0349 22.367 17.3328 21.999 17.333C21.6322 17.333 21.3343 17.0371 21.332 16.6709C21.3298 17.0357 21.0357 17.3298 20.6709 17.332C21.0371 17.3343 21.333 17.6322 21.333 17.999C21.3328 18.367 21.0349 18.6649 20.667 18.665C20.3002 18.665 20.0023 18.3692 20 18.0029C19.9977 18.3691 19.7016 18.6649 19.335 18.665C18.9669 18.665 18.6681 18.3671 18.668 17.999C18.668 17.6324 18.964 17.3345 19.3301 17.332C18.9641 17.3296 18.6681 17.0335 18.668 16.667C18.668 16.3003 18.964 16.0025 19.3301 16C18.9641 15.9975 18.6681 15.7015 18.668 15.335C18.668 14.9668 18.9668 14.668 19.335 14.668C19.7015 14.6681 19.9975 14.9641 20 15.3301C20.0025 14.964 20.3003 14.668 20.667 14.668C21.0335 14.6681 21.3296 14.9641 21.332 15.3301C21.3345 14.964 21.6324 14.668 21.999 14.668ZM20 16.6709C19.9977 17.0357 19.7037 17.3298 19.3389 17.332C19.7036 17.3343 19.9976 17.6295 20 17.9941C20.0024 17.6296 20.2975 17.3345 20.6621 17.332C20.2974 17.3296 20.0023 17.0356 20 16.6709ZM20 15.3389C19.9977 15.7037 19.7037 15.9977 19.3389 16C19.7036 16.0023 19.9976 16.2974 20 16.6621C20.0024 16.2975 20.2975 16.0024 20.6621 16C20.2974 15.9976 20.0023 15.7036 20 15.3389ZM21.332 15.3389C21.3298 15.7037 21.0357 15.9977 20.6709 16C21.0356 16.0023 21.3296 16.2974 21.332 16.6621C21.3345 16.2975 21.6296 16.0024 21.9941 16C21.6295 15.9976 21.3343 15.7036 21.332 15.3389Z" fill="#708AB9"/>
<path fill-rule="evenodd" clip-rule="evenodd" d="M24.667 14.668C25.035 14.6681 25.333 14.9669 25.333 15.335C25.3328 15.7016 25.037 15.9977 24.6709 16C25.0356 16.0023 25.3296 16.2974 25.332 16.6621C25.3345 16.296 25.6324 16 25.999 16C26.3671 16.0002 26.665 16.2989 26.665 16.667C26.6649 17.0336 26.3691 17.3298 26.0029 17.332C26.3692 17.3343 26.665 17.6322 26.665 17.999C26.6649 18.367 26.367 18.6649 25.999 18.665C25.6322 18.665 25.3343 18.3692 25.332 18.0029C25.3298 18.3691 25.0336 18.6649 24.667 18.665C24.2989 18.665 24.0002 18.3671 24 17.999C24 17.6324 24.296 17.3345 24.6621 17.332C24.2974 17.3296 24.0023 17.0356 24 16.6709C23.9977 17.037 23.7016 17.3328 23.335 17.333C22.9669 17.333 22.6681 17.035 22.668 16.667C22.668 16.3003 22.964 16.0025 23.3301 16C22.9641 15.9975 22.6681 15.7015 22.668 15.335C22.668 14.9668 22.9668 14.668 23.335 14.668C23.7015 14.6681 23.9975 14.9641 24 15.3301C24.0025 14.964 24.3003 14.668 24.667 14.668ZM25.332 16.6709C25.3298 17.0357 25.0357 17.3298 24.6709 17.332C25.0356 17.3343 25.3296 17.6295 25.332 17.9941C25.3345 17.6296 25.6296 17.3345 25.9941 17.332C25.6295 17.3296 25.3343 17.0356 25.332 16.6709ZM24 15.3389C23.9977 15.7037 23.7037 15.9977 23.3389 16C23.7036 16.0023 23.9976 16.2974 24 16.6621C24.0024 16.2975 24.2975 16.0024 24.6621 16C24.2974 15.9976 24.0023 15.7036 24 15.3389Z" fill="#708AB9"/>
<path fill-rule="evenodd" clip-rule="evenodd" d="M29.999 16C30.3671 16.0002 30.665 16.2989 30.665 16.667C30.6649 17.0336 30.3691 17.3298 30.0029 17.332C30.3692 17.3343 30.665 17.6322 30.665 17.999C30.6649 18.367 30.367 18.6649 29.999 18.665C29.6322 18.665 29.3343 18.3692 29.332 18.0029C29.3298 18.3691 29.0336 18.6649 28.667 18.665C28.3002 18.665 28.0023 18.3692 28 18.0029C27.9977 18.3691 27.7016 18.6649 27.335 18.665C26.9669 18.665 26.6681 18.3671 26.668 17.999C26.668 17.6324 26.964 17.3345 27.3301 17.332C26.9641 17.3296 26.6681 17.0335 26.668 16.667C26.668 16.2988 26.9668 16 27.335 16C27.7015 16.0002 27.9975 16.2961 28 16.6621C28.0025 16.296 28.3003 16 28.667 16C29.0335 16.0002 29.3296 16.2961 29.332 16.6621C29.3345 16.296 29.6324 16 29.999 16ZM28 16.6709C27.9977 17.0357 27.7037 17.3298 27.3389 17.332C27.7036 17.3343 27.9976 17.6295 28 17.9941C28.0024 17.6296 28.2975 17.3345 28.6621 17.332C28.2974 17.3296 28.0023 17.0356 28 16.6709ZM29.332 16.6709C29.3298 17.0357 29.0357 17.3298 28.6709 17.332C29.0356 17.3343 29.3296 17.6295 29.332 17.9941C29.3345 17.6296 29.6296 17.3345 29.9941 17.332C29.6295 17.3296 29.3343 17.0356 29.332 16.6709Z" fill="#708AB9"/>
<path fill-rule="evenodd" clip-rule="evenodd" d="M33.999 14.668C34.3671 14.6681 34.665 14.9669 34.665 15.335C34.6649 15.7016 34.3691 15.9977 34.0029 16C34.3692 16.0023 34.665 16.3002 34.665 16.667C34.6649 17.0336 34.3691 17.3298 34.0029 17.332C34.3692 17.3343 34.665 17.6322 34.665 17.999C34.6649 18.367 34.367 18.6649 33.999 18.665C33.6322 18.665 33.3343 18.3692 33.332 18.0029C33.3298 18.3691 33.0336 18.6649 32.667 18.665C32.3002 18.665 32.0023 18.3692 32 18.0029C31.9977 18.3691 31.7016 18.6649 31.335 18.665C30.9669 18.665 30.6681 18.3671 30.668 17.999C30.668 17.6324 30.964 17.3345 31.3301 17.332C30.9641 17.3296 30.6681 17.0335 30.668 16.667C30.668 16.2988 30.9668 16 31.335 16C31.7015 16.0002 31.9975 16.2961 32 16.6621C32.0025 16.296 32.3003 16 32.667 16C33.0335 16.0002 33.3296 16.2961 33.332 16.6621C33.3345 16.2975 33.6296 16.0024 33.9941 16C33.6282 15.9975 33.3322 15.7015 33.332 15.335C33.332 14.9668 33.6308 14.668 33.999 14.668ZM32 16.6709C31.9977 17.0357 31.7037 17.3298 31.3389 17.332C31.7036 17.3343 31.9976 17.6295 32 17.9941C32.0024 17.6296 32.2975 17.3345 32.6621 17.332C32.2974 17.3296 32.0023 17.0356 32 16.6709ZM33.332 16.6709C33.3298 17.0357 33.0357 17.3298 32.6709 17.332C33.0356 17.3343 33.3296 17.6295 33.332 17.9941C33.3345 17.6296 33.6296 17.3345 33.9941 17.332C33.6295 17.3296 33.3343 17.0356 33.332 16.6709Z" fill="#708AB9"/>
<path fill-rule="evenodd" clip-rule="evenodd" d="M37.999 14.668C38.3671 14.6681 38.665 14.9669 38.665 15.335C38.6649 15.7016 38.3691 15.9977 38.0029 16C38.3692 16.0023 38.665 16.3002 38.665 16.667C38.6649 17.0336 38.3691 17.3298 38.0029 17.332C38.3692 17.3343 38.665 17.6322 38.665 17.999C38.6649 18.367 38.367 18.6649 37.999 18.665C37.6309 18.665 37.3322 18.3671 37.332 17.999C37.332 17.6324 37.628 17.3345 37.9941 17.332C37.6295 17.3296 37.3343 17.0356 37.332 16.6709C37.3298 17.037 37.0336 17.3328 36.667 17.333C36.3002 17.333 36.0023 17.0371 36 16.6709C35.9977 17.037 35.7016 17.3328 35.335 17.333C34.9669 17.333 34.6681 17.035 34.668 16.667C34.668 16.3003 34.964 16.0025 35.3301 16C34.9641 15.9975 34.6681 15.7015 34.668 15.335C34.668 14.9668 34.9668 14.668 35.335 14.668C35.7015 14.6681 35.9975 14.9641 36 15.3301C36.0025 14.964 36.3003 14.668 36.667 14.668C37.0335 14.6681 37.3296 14.9641 37.332 15.3301C37.3345 14.964 37.6324 14.668 37.999 14.668ZM36 15.3389C35.9977 15.7037 35.7037 15.9977 35.3389 16C35.7036 16.0023 35.9976 16.2974 36 16.6621C36.0024 16.2975 36.2975 16.0024 36.6621 16C36.2974 15.9976 36.0023 15.7036 36 15.3389ZM37.332 15.3389C37.3298 15.7037 37.0357 15.9977 36.6709 16C37.0356 16.0023 37.3296 16.2974 37.332 16.6621C37.3345 16.2975 37.6296 16.0024 37.9941 16C37.6295 15.9976 37.3343 15.7036 37.332 15.3389Z" fill="#708AB9"/>
<path d="M39.335 14.668C39.703 14.6681 40.001 14.9669 40.001 15.335C40.0008 15.7016 39.705 15.9977 39.3389 16C39.7051 16.0023 40.001 16.3002 40.001 16.667C40.0008 17.0336 39.705 17.3298 39.3389 17.332C39.7051 17.3343 40.001 17.6322 40.001 17.999C40.0008 18.367 39.7029 18.6649 39.335 18.665C38.9669 18.665 38.6681 18.3671 38.668 17.999C38.668 17.6324 38.964 17.3345 39.3301 17.332C38.9641 17.3296 38.6681 17.0335 38.668 16.667C38.668 16.3003 38.964 16.0025 39.3301 16C38.9641 15.9975 38.6681 15.7015 38.668 15.335C38.668 14.9668 38.9668 14.668 39.335 14.668Z" fill="#708AB9"/>
<path fill-rule="evenodd" clip-rule="evenodd" d="M21.999 10.668C22.3671 10.6681 22.665 10.9669 22.665 11.335C22.6649 11.7029 22.367 12.0008 21.999 12.001C21.6322 12.001 21.3343 11.7051 21.332 11.3389C21.3298 11.7037 21.0357 11.9977 20.6709 12C21.0371 12.0023 21.333 12.3002 21.333 12.667C21.3328 13.0336 21.037 13.3298 20.6709 13.332C21.0371 13.3343 21.333 13.6322 21.333 13.999C21.3328 14.367 21.0349 14.6649 20.667 14.665C20.3002 14.665 20.0023 14.3692 20 14.0029C19.9977 14.3691 19.7016 14.6649 19.335 14.665C18.9669 14.665 18.6681 14.3671 18.668 13.999C18.668 13.6324 18.964 13.3345 19.3301 13.332C18.9641 13.3296 18.6681 13.0335 18.668 12.667C18.668 12.3003 18.964 12.0025 19.3301 12C18.9641 11.9975 18.6681 11.7015 18.668 11.335C18.668 10.9668 18.9668 10.668 19.335 10.668C19.7015 10.6681 19.9975 10.9641 20 11.3301C20.0025 10.964 20.3003 10.668 20.667 10.668C21.0335 10.6681 21.3296 10.9641 21.332 11.3301C21.3345 10.964 21.6324 10.668 21.999 10.668ZM20 12.6709C19.9977 13.0357 19.7037 13.3298 19.3389 13.332C19.7036 13.3343 19.9976 13.6295 20 13.9941C20.0024 13.6296 20.2975 13.3345 20.6621 13.332C20.2974 13.3296 20.0023 13.0356 20 12.6709ZM20 11.3389C19.9977 11.7037 19.7037 11.9977 19.3389 12C19.7036 12.0023 19.9976 12.2974 20 12.6621C20.0024 12.2975 20.2975 12.0024 20.6621 12C20.2974 11.9976 20.0023 11.7036 20 11.3389Z" fill="#708AB9"/>
<path d="M37.999 10.668C38.3671 10.6681 38.665 10.9669 38.665 11.335C38.6649 11.7016 38.3691 11.9977 38.0029 12C38.3692 12.0023 38.665 12.3002 38.665 12.667C38.6649 13.0336 38.3691 13.3298 38.0029 13.332C38.3692 13.3343 38.665 13.6322 38.665 13.999C38.6649 14.367 38.367 14.6649 37.999 14.665C37.6309 14.665 37.3322 14.3671 37.332 13.999C37.332 13.6324 37.628 13.3345 37.9941 13.332C37.6282 13.3296 37.3322 13.0335 37.332 12.667C37.332 12.3003 37.628 12.0025 37.9941 12C37.6295 11.9976 37.3343 11.7036 37.332 11.3389C37.3298 11.705 37.0336 12.0008 36.667 12.001C36.3002 12.001 36.0023 11.7051 36 11.3389C35.9977 11.705 35.7016 12.0008 35.335 12.001C34.9669 12.001 34.6681 11.703 34.668 11.335C34.668 10.9668 34.9668 10.668 35.335 10.668C35.7015 10.6681 35.9975 10.9641 36 11.3301C36.0025 10.964 36.3003 10.668 36.667 10.668C37.0335 10.6681 37.3296 10.9641 37.332 11.3301C37.3345 10.964 37.6324 10.668 37.999 10.668Z" fill="#708AB9"/>
<path d="M39.335 10.668C39.703 10.6681 40.001 10.9669 40.001 11.335C40.0008 11.7016 39.705 11.9977 39.3389 12C39.7051 12.0023 40.001 12.3002 40.001 12.667C40.0008 13.0336 39.705 13.3298 39.3389 13.332C39.7051 13.3343 40.001 13.6322 40.001 13.999C40.0008 14.367 39.7029 14.6649 39.335 14.665C38.9669 14.665 38.6681 14.3671 38.668 13.999C38.668 13.6324 38.964 13.3345 39.3301 13.332C38.9641 13.3296 38.6681 13.0335 38.668 12.667C38.668 12.3003 38.964 12.0025 39.3301 12C38.9641 11.9975 38.6681 11.7015 38.668 11.335C38.668 10.9668 38.9668 10.668 39.335 10.668Z" fill="#708AB9"/>
<path d="M24.667 10.668C25.035 10.6681 25.333 10.9669 25.333 11.335C25.3328 11.7029 25.0349 12.0008 24.667 12.001C24.3002 12.001 24.0023 11.7051 24 11.3389C23.9977 11.705 23.7016 12.0008 23.335 12.001C22.9669 12.001 22.6681 11.703 22.668 11.335C22.668 10.9668 22.9668 10.668 23.335 10.668C23.7015 10.6681 23.9975 10.9641 24 11.3301C24.0025 10.964 24.3003 10.668 24.667 10.668Z" fill="#708AB9"/>
<path d="M33.999 10.668C34.3671 10.6681 34.665 10.9669 34.665 11.335C34.6649 11.7029 34.367 12.0008 33.999 12.001C33.6309 12.001 33.3322 11.703 33.332 11.335C33.332 10.9668 33.6308 10.668 33.999 10.668Z" fill="#708AB9"/>
<path d="M21.999 9.33203C22.3671 9.33221 22.665 9.63094 22.665 9.99902C22.6649 10.367 22.367 10.6649 21.999 10.665C21.6322 10.665 21.3343 10.3692 21.332 10.0029C21.3298 10.3691 21.0336 10.6649 20.667 10.665C20.2989 10.665 20.0002 10.3671 20 9.99902C20 9.63083 20.2988 9.33203 20.667 9.33203C21.0335 9.33221 21.3296 9.62816 21.332 9.99414C21.3345 9.62805 21.6324 9.33203 21.999 9.33203Z" fill="#708AB9"/>
<path fill-rule="evenodd" clip-rule="evenodd" d="M25.999 8C26.3671 8.00018 26.665 8.29891 26.665 8.66699C26.6649 9.03362 26.3691 9.32975 26.0029 9.33203C26.3692 9.33431 26.665 9.63225 26.665 9.99902C26.6649 10.367 26.367 10.6649 25.999 10.665C25.6322 10.665 25.3343 10.3692 25.332 10.0029C25.3298 10.3691 25.0336 10.6649 24.667 10.665C24.3002 10.665 24.0023 10.3692 24 10.0029C23.9977 10.3691 23.7016 10.6649 23.335 10.665C22.9669 10.665 22.6681 10.3671 22.668 9.99902C22.668 9.63083 22.9668 9.33203 23.335 9.33203C23.7015 9.33221 23.9975 9.62816 24 9.99414C24.0024 9.62957 24.2975 9.33447 24.6621 9.33203C24.2961 9.32958 24.0002 9.03351 24 8.66699C24 8.2988 24.2988 8 24.667 8C25.0335 8.00018 25.3296 8.29613 25.332 8.66211C25.3345 8.29602 25.6324 8 25.999 8ZM25.332 8.6709C25.3298 9.03572 25.0357 9.32976 24.6709 9.33203C25.0356 9.3343 25.3296 9.62946 25.332 9.99414C25.3345 9.62957 25.6296 9.33447 25.9941 9.33203C25.6295 9.32959 25.3343 9.03562 25.332 8.6709Z" fill="#708AB9"/>
<path fill-rule="evenodd" clip-rule="evenodd" d="M29.999 8C30.3671 8.00018 30.665 8.29891 30.665 8.66699C30.6649 9.03362 30.3691 9.32975 30.0029 9.33203C30.3692 9.33431 30.665 9.63225 30.665 9.99902C30.6649 10.367 30.367 10.6649 29.999 10.665C29.6322 10.665 29.3343 10.3692 29.332 10.0029C29.3298 10.3691 29.0336 10.6649 28.667 10.665C28.3002 10.665 28.0023 10.3692 28 10.0029C27.9977 10.3691 27.7016 10.6649 27.335 10.665C26.9669 10.665 26.6681 10.3671 26.668 9.99902C26.668 9.63235 26.964 9.33448 27.3301 9.33203C26.9641 9.32958 26.6681 9.03351 26.668 8.66699C26.668 8.2988 26.9668 8 27.335 8C27.7015 8.00018 27.9975 8.29613 28 8.66211C28.0025 8.29602 28.3003 8 28.667 8C29.0335 8.00018 29.3296 8.29613 29.332 8.66211C29.3345 8.29602 29.6324 8 29.999 8ZM28 8.6709C27.9977 9.03572 27.7037 9.32976 27.3389 9.33203C27.7036 9.3343 27.9976 9.62946 28 9.99414C28.0024 9.62957 28.2975 9.33447 28.6621 9.33203C28.2974 9.32959 28.0023 9.03562 28 8.6709ZM29.332 8.6709C29.3298 9.03572 29.0357 9.32976 28.6709 9.33203C29.0356 9.3343 29.3296 9.62946 29.332 9.99414C29.3345 9.62957 29.6296 9.33447 29.9941 9.33203C29.6295 9.32959 29.3343 9.03562 29.332 8.6709Z" fill="#708AB9"/>
<path fill-rule="evenodd" clip-rule="evenodd" d="M33.999 8C34.3671 8.00018 34.665 8.29891 34.665 8.66699C34.6649 9.03362 34.3691 9.32975 34.0029 9.33203C34.3692 9.33431 34.665 9.63225 34.665 9.99902C34.6649 10.367 34.367 10.6649 33.999 10.665C33.6322 10.665 33.3343 10.3692 33.332 10.0029C33.3298 10.3691 33.0336 10.6649 32.667 10.665C32.3002 10.665 32.0023 10.3692 32 10.0029C31.9977 10.3691 31.7016 10.6649 31.335 10.665C30.9669 10.665 30.6681 10.3671 30.668 9.99902C30.668 9.63235 30.964 9.33448 31.3301 9.33203C30.9641 9.32958 30.6681 9.03351 30.668 8.66699C30.668 8.2988 30.9668 8 31.335 8C31.7015 8.00018 31.9975 8.29613 32 8.66211C32.0025 8.29602 32.3003 8 32.667 8C33.0335 8.00018 33.3296 8.29613 33.332 8.66211C33.3345 8.29602 33.6324 8 33.999 8ZM33.332 8.6709C33.3298 9.03572 33.0357 9.32976 32.6709 9.33203C33.0356 9.3343 33.3296 9.62946 33.332 9.99414C33.3345 9.62957 33.6296 9.33447 33.9941 9.33203C33.6295 9.32959 33.3343 9.03562 33.332 8.6709ZM32 8.6709C31.9977 9.03572 31.7037 9.32976 31.3389 9.33203C31.7036 9.3343 31.9976 9.62946 32 9.99414C32.0024 9.62957 32.2975 9.33447 32.6621 9.33203C32.2974 9.32959 32.0023 9.03562 32 8.6709Z" fill="#708AB9"/>
<path d="M37.999 9.33203C38.3671 9.33221 38.665 9.63094 38.665 9.99902C38.6649 10.367 38.367 10.6649 37.999 10.665C37.6322 10.665 37.3343 10.3692 37.332 10.0029C37.3298 10.3691 37.0336 10.6649 36.667 10.665C36.3002 10.665 36.0023 10.3692 36 10.0029C35.9977 10.3691 35.7016 10.6649 35.335 10.665C34.9669 10.665 34.6681 10.3671 34.668 9.99902C34.668 9.63083 34.9668 9.33203 35.335 9.33203C35.7015 9.33221 35.9975 9.62816 36 9.99414C36.0025 9.62805 36.3003 9.33203 36.667 9.33203C37.0335 9.33221 37.3296 9.62816 37.332 9.99414C37.3345 9.62805 37.6324 9.33203 37.999 9.33203Z" fill="#708AB9"/>
</svg>
